<svg xmlns="http://www.w3.org/2000/svg" xmlns:xlink="http://www.w3.org/1999/xlink" width="500" zoomAndPan="magnify" viewBox="0 0 375 374.999991" height="500" preserveAspectRatio="xMidYMid meet" version="1.0"><path fill="#ff2e00" d="M 52.613281 32.410156 C 31.582031 48.46875 25.851562 75.078125 22.1875 92.085938 C 7.746094 159.113281 31.230469 249.527344 96.425781 302.46875 C 111.679688 314.859375 190.546875 375 270.6875 336.234375 C 341.535156 301.964844 367.25 212.703125 358.335938 145.21875 C 350.945312 89.3125 316.347656 22.574219 265.421875 8.71875 C 233.394531 0.00390625 228.574219 21.359375 161.109375 24.609375 C 102.714844 27.425781 78.339844 12.773438 52.613281 32.410156 " fill-opacity="1" fill-rule="nonzero"/><path fill="#ffffff" d="M 352.28125 27.257812 C 352.28125 15.878906 343.125 6.792969 331.824219 6.792969 L 100.480469 6.726562 C 89.183594 6.726562 80.015625 15.886719 80.015625 27.1875 L 80.027344 290.207031 L 28.335938 290.175781 C 28.335938 301.699219 35.96875 311.542969 46.480469 314.828125 C 48.90625 315.585938 51.484375 315.996094 54.160156 315.996094 L 285.617188 315.988281 C 299.878906 315.988281 311.4375 304.429688 311.4375 290.167969 L 311.351562 27.253906 L 352.28125 27.257812 " fill-opacity="1" fill-rule="nonzero"/><path fill="#000000" d="M 54.160156 316.609375 C 53.820312 316.609375 53.542969 316.332031 53.542969 315.988281 C 53.542969 315.648438 53.820312 315.367188 54.160156 315.367188 C 68.058594 315.367188 79.367188 304.0625 79.367188 290.164062 C 79.367188 289.820312 79.644531 289.542969 79.984375 289.542969 C 80.328125 289.542969 80.605469 289.820312 80.605469 290.164062 C 80.605469 304.746094 68.742188 316.609375 54.160156 316.609375 " fill-opacity="1" fill-rule="nonzero"/><path fill="#000000" d="M 311.367188 27.867188 C 311.023438 27.867188 310.75 27.585938 310.75 27.246094 C 310.75 15.621094 320.203125 6.167969 331.824219 6.167969 C 332.167969 6.167969 332.441406 6.445312 332.441406 6.789062 C 332.441406 7.132812 332.167969 7.40625 331.824219 7.40625 C 320.882812 7.40625 311.988281 16.308594 311.988281 27.246094 C 311.988281 27.585938 311.707031 27.867188 311.367188 27.867188 " fill-opacity="1" fill-rule="nonzero"/><path fill="#000000" d="M 311.375 103.554688 C 311.035156 103.554688 310.757812 103.277344 310.757812 102.9375 L 310.730469 27.253906 C 310.730469 27.089844 310.796875 26.933594 310.914062 26.816406 C 311.027344 26.699219 311.1875 26.632812 311.351562 26.632812 L 351.652344 26.640625 C 351.324219 15.984375 342.558594 7.414062 331.824219 7.414062 L 100.480469 7.347656 C 89.539062 7.347656 80.636719 16.246094 80.636719 27.1875 L 80.636719 50.355469 C 80.636719 50.695312 80.359375 50.972656 80.015625 50.972656 C 79.675781 50.972656 79.398438 50.695312 79.398438 50.355469 L 79.394531 27.1875 C 79.394531 15.5625 88.855469 6.109375 100.480469 6.109375 L 331.824219 6.175781 C 343.449219 6.175781 352.902344 15.632812 352.902344 27.261719 C 352.902344 27.425781 352.839844 27.582031 352.71875 27.699219 C 352.605469 27.8125 352.449219 27.878906 352.285156 27.878906 L 311.972656 27.871094 L 311.996094 102.9375 C 311.996094 103.277344 311.71875 103.554688 311.375 103.554688 " fill-opacity="1" fill-rule="nonzero"/><path fill="#000000" d="M 29.996094 300.023438 C 29.746094 300.023438 29.511719 299.871094 29.417969 299.625 C 28.257812 296.609375 27.671875 293.4375 27.671875 290.195312 C 27.671875 290.03125 27.738281 289.875 27.855469 289.757812 C 27.96875 289.640625 28.128906 289.578125 28.292969 289.578125 L 41.578125 289.582031 C 41.917969 289.582031 42.195312 289.855469 42.195312 290.199219 C 42.195312 290.542969 41.917969 290.816406 41.578125 290.816406 L 28.917969 290.816406 C 28.988281 293.6875 29.546875 296.5 30.574219 299.179688 C 30.695312 299.5 30.539062 299.859375 30.21875 299.980469 C 30.144531 300.007812 30.070312 300.023438 29.996094 300.023438 " fill-opacity="1" fill-rule="nonzero"/><path fill="#000000" d="M 93.292969 316.691406 L 54.140625 316.65625 C 51.894531 316.65625 49.660156 316.371094 47.5 315.804688 C 47.167969 315.71875 46.96875 315.382812 47.054688 315.050781 C 47.140625 314.71875 47.476562 314.523438 47.8125 314.605469 C 49.867188 315.140625 52 315.414062 54.140625 315.414062 L 93.296875 315.453125 C 93.636719 315.453125 93.914062 315.730469 93.914062 316.074219 C 93.914062 316.414062 93.636719 316.691406 93.292969 316.691406 " fill-opacity="1" fill-rule="nonzero"/><path fill="#000000" d="M 115.632812 316.613281 C 115.289062 316.613281 115.011719 316.335938 115.011719 315.992188 C 115.011719 315.652344 115.289062 315.375 115.632812 315.375 L 258.234375 315.371094 C 258.574219 315.371094 258.851562 315.648438 258.851562 315.992188 C 258.851562 316.332031 258.574219 316.609375 258.234375 316.609375 L 115.632812 316.613281 " fill-opacity="1" fill-rule="nonzero"/><path fill="#000000" d="M 285.617188 316.597656 L 282.972656 316.597656 C 282.628906 316.597656 282.351562 316.320312 282.351562 315.980469 C 282.351562 315.636719 282.628906 315.359375 282.972656 315.359375 L 285.617188 315.359375 C 299.457031 315.359375 310.71875 304.050781 310.71875 290.15625 C 310.71875 289.8125 310.996094 289.535156 311.339844 289.535156 C 311.679688 289.535156 311.960938 289.8125 311.960938 290.15625 C 311.960938 304.734375 300.140625 316.597656 285.617188 316.597656 " fill-opacity="1" fill-rule="nonzero"/><path fill="#ff2e00" d="M 112.953125 94.582031 C 112.953125 96.75 114.726562 98.507812 116.910156 98.507812 L 278.527344 98.507812 C 280.710938 98.507812 282.484375 96.75 282.484375 94.582031 C 282.484375 92.417969 280.710938 90.660156 278.527344 90.660156 L 116.910156 90.660156 C 114.726562 90.660156 112.953125 92.417969 112.953125 94.582031 " fill-opacity="1" fill-rule="nonzero"/><path fill="#ff2e00" d="M 112.953125 164.804688 C 112.953125 166.96875 114.726562 168.726562 116.910156 168.726562 L 261.003906 168.726562 C 263.191406 168.726562 264.960938 166.96875 264.960938 164.804688 C 264.960938 162.636719 263.191406 160.878906 261.003906 160.878906 L 116.910156 160.878906 C 114.726562 160.878906 112.953125 162.636719 112.953125 164.804688 " fill-opacity="1" fill-rule="nonzero"/><path fill="#ff2e00" d="M 149.582031 271.214844 C 149.582031 273.382812 151.351562 275.140625 153.539062 275.140625 L 182.34375 275.140625 C 184.527344 275.140625 186.300781 273.382812 186.300781 271.214844 C 186.300781 269.050781 184.527344 267.292969 182.34375 267.292969 L 153.539062 267.292969 C 151.351562 267.292969 149.582031 269.050781 149.582031 271.214844 " fill-opacity="1" fill-rule="nonzero"/><path fill="#ff2e00" d="M 116.910156 195.988281 C 114.636719 195.988281 112.8125 197.886719 112.964844 200.175781 C 113.101562 202.257812 114.941406 203.835938 117.046875 203.835938 L 209.066406 203.835938 C 211.25 203.835938 213.019531 202.078125 213.019531 199.914062 C 213.019531 197.746094 211.25 195.988281 209.066406 195.988281 L 116.910156 195.988281 " fill-opacity="1" fill-rule="nonzero"/><path fill="#ff2e00" d="M 278.394531 195.988281 L 239.050781 195.988281 C 236.867188 195.988281 235.09375 197.746094 235.09375 199.914062 C 235.09375 202.078125 236.867188 203.835938 239.050781 203.835938 L 278.527344 203.835938 C 280.800781 203.835938 282.625 201.933594 282.476562 199.652344 C 282.339844 197.5625 280.5 195.988281 278.394531 195.988281 " fill-opacity="1" fill-rule="nonzero"/><path fill="#ff2e00" d="M 278.394531 178.226562 L 189.566406 178.226562 C 187.378906 178.226562 185.609375 179.984375 185.609375 182.148438 C 185.609375 184.320312 187.378906 186.078125 189.566406 186.078125 L 278.527344 186.078125 C 280.800781 186.078125 282.625 184.175781 282.476562 181.890625 C 282.339844 179.804688 280.5 178.226562 278.394531 178.226562 " fill-opacity="1" fill-rule="nonzero"/><path fill="#ff2e00" d="M 284.3125 213.21875 L 219.636719 213.21875 C 217.449219 213.21875 215.679688 214.972656 215.679688 217.140625 C 215.679688 219.308594 217.449219 221.066406 219.636719 221.066406 L 284.449219 221.066406 C 286.722656 221.066406 288.546875 219.164062 288.394531 216.878906 C 288.257812 214.792969 286.421875 213.21875 284.3125 213.21875 " fill-opacity="1" fill-rule="nonzero"/><path fill="#ff2e00" d="M 116.910156 178.226562 C 114.636719 178.226562 112.8125 180.128906 112.964844 182.414062 C 113.101562 184.5 114.941406 186.078125 117.046875 186.078125 L 162.699219 186.078125 C 164.882812 186.078125 166.65625 184.320312 166.65625 182.152344 C 166.65625 179.984375 164.882812 178.226562 162.699219 178.226562 L 116.910156 178.226562 " fill-opacity="1" fill-rule="nonzero"/><path fill="#ff2e00" d="M 116.910156 143.117188 C 114.636719 143.117188 112.8125 145.019531 112.964844 147.304688 C 113.101562 149.390625 114.941406 150.96875 117.046875 150.96875 L 216.976562 150.96875 C 219.164062 150.96875 220.933594 149.210938 220.933594 147.042969 C 220.933594 144.875 219.164062 143.117188 216.976562 143.117188 L 116.910156 143.117188 " fill-opacity="1" fill-rule="nonzero"/><path fill="#ff2e00" d="M 278.394531 143.117188 L 255.292969 143.117188 C 253.109375 143.117188 251.339844 144.875 251.339844 147.042969 C 251.339844 149.207031 253.109375 150.964844 255.292969 150.964844 L 278.527344 150.964844 C 280.800781 150.964844 282.625 149.066406 282.476562 146.78125 C 282.339844 144.695312 280.5 143.117188 278.394531 143.117188 " fill-opacity="1" fill-rule="nonzero"/><path fill="#ff2e00" d="M 116.910156 108.007812 C 114.636719 108.007812 112.8125 109.910156 112.964844 112.195312 C 113.101562 114.28125 114.941406 115.855469 117.046875 115.855469 L 150.761719 115.855469 C 152.945312 115.855469 154.71875 114.101562 154.71875 111.933594 C 154.71875 109.765625 152.945312 108.007812 150.761719 108.007812 L 116.910156 108.007812 " fill-opacity="1" fill-rule="nonzero"/><path fill="#ff2e00" d="M 278.394531 108.007812 L 178.246094 108.007812 C 176.0625 108.007812 174.292969 109.765625 174.292969 111.933594 C 174.292969 114.097656 176.0625 115.855469 178.246094 115.855469 L 278.527344 115.855469 C 280.800781 115.855469 282.625 113.957031 282.476562 111.671875 C 282.339844 109.585938 280.5 108.007812 278.394531 108.007812 " fill-opacity="1" fill-rule="nonzero"/><path fill="#ff2e00" d="M 116.910156 125.769531 C 114.636719 125.769531 112.8125 127.671875 112.964844 129.957031 C 113.101562 132.042969 114.941406 133.617188 117.046875 133.617188 L 159.089844 133.617188 C 161.273438 133.617188 163.046875 131.863281 163.046875 129.695312 C 163.046875 127.527344 161.273438 125.769531 159.089844 125.769531 L 116.910156 125.769531 " fill-opacity="1" fill-rule="nonzero"/><path fill="#ff2e00" d="M 278.394531 125.769531 L 191.160156 125.769531 C 188.972656 125.769531 187.203125 127.527344 187.203125 129.695312 C 187.203125 131.859375 188.972656 133.617188 191.160156 133.617188 L 278.527344 133.617188 C 280.800781 133.617188 282.625 131.71875 282.476562 129.429688 C 282.339844 127.347656 280.5 125.769531 278.394531 125.769531 " fill-opacity="1" fill-rule="nonzero"/><path fill="#ff2e00" d="M 228.292969 32.351562 C 228.292969 29.207031 225.742188 26.660156 222.597656 26.660156 L 171.5625 26.660156 C 168.414062 26.660156 165.867188 29.207031 165.867188 32.351562 C 165.867188 35.496094 168.414062 38.046875 171.5625 38.046875 L 222.597656 38.046875 C 225.742188 38.046875 228.292969 35.496094 228.292969 32.351562 " fill-opacity="1" fill-rule="nonzero"/><path fill="#5479f7" d="M 198.664062 278.582031 C 198.558594 278.582031 198.453125 278.554688 198.359375 278.5 C 198.058594 278.328125 197.957031 277.949219 198.128906 277.652344 L 206.261719 263.421875 C 206.769531 262.53125 207.679688 261.984375 208.703125 261.957031 C 209.726562 261.929688 210.667969 262.421875 211.226562 263.277344 L 213.757812 267.175781 C 214.070312 267.660156 214.582031 267.9375 215.15625 267.9375 C 215.730469 267.9375 216.242188 267.660156 216.554688 267.175781 L 219.074219 263.296875 C 219.636719 262.4375 220.59375 261.945312 221.605469 261.976562 C 222.632812 262.007812 223.542969 262.558594 224.046875 263.453125 L 231.109375 275.972656 C 231.410156 276.507812 231.953125 276.824219 232.5625 276.824219 C 232.570312 276.824219 232.582031 276.824219 232.59375 276.824219 C 233.214844 276.8125 233.757812 276.476562 234.046875 275.921875 L 243.523438 257.675781 C 244.023438 256.707031 245.011719 256.105469 246.101562 256.105469 C 246.109375 256.105469 246.117188 256.105469 246.125 256.105469 C 247.226562 256.113281 248.210938 256.730469 248.703125 257.714844 L 251.195312 262.691406 C 251.347656 262.996094 251.222656 263.371094 250.917969 263.523438 C 250.609375 263.675781 250.238281 263.550781 250.085938 263.246094 L 247.597656 258.265625 C 247.3125 257.695312 246.757812 257.347656 246.113281 257.34375 C 246.113281 257.34375 246.105469 257.34375 246.101562 257.34375 C 245.46875 257.34375 244.914062 257.679688 244.621094 258.246094 L 235.144531 276.492188 C 234.644531 277.457031 233.699219 278.042969 232.613281 278.0625 C 232.597656 278.0625 232.578125 278.0625 232.5625 278.0625 C 231.5 278.0625 230.554688 277.511719 230.03125 276.582031 L 222.96875 264.0625 C 222.679688 263.550781 222.15625 263.234375 221.566406 263.214844 C 220.976562 263.195312 220.4375 263.480469 220.113281 263.972656 L 217.597656 267.851562 C 217.058594 268.679688 216.144531 269.175781 215.15625 269.175781 C 214.167969 269.175781 213.257812 268.679688 212.71875 267.851562 L 210.183594 263.953125 C 209.863281 263.460938 209.316406 263.179688 208.738281 263.195312 C 208.152344 263.210938 207.628906 263.527344 207.335938 264.035156 L 199.203125 278.269531 C 199.089844 278.46875 198.878906 278.582031 198.664062 278.582031 " fill-opacity="1" fill-rule="nonzero"/><path fill="#000000" d="M 276.617188 280.164062 L 286.929688 250.613281 L 330.46875 245.203125 L 332.289062 276.265625 L 276.617188 280.164062 " fill-opacity="1" fill-rule="nonzero"/><path fill="#ffffff" d="M 277.917969 313.015625 L 271.585938 336.023438 L 260.664062 336.171875 L 266.820312 310.792969 L 277.917969 313.015625 " fill-opacity="1" fill-rule="nonzero"/><path fill="#000000" d="M 267.28125 311.515625 L 261.449219 335.542969 L 271.113281 335.410156 L 277.144531 313.492188 Z M 260.660156 336.792969 C 260.472656 336.792969 260.296875 336.707031 260.175781 336.5625 C 260.058594 336.410156 260.015625 336.214844 260.058594 336.027344 L 266.21875 310.648438 C 266.296875 310.324219 266.617188 310.117188 266.941406 310.183594 L 278.039062 312.40625 C 278.210938 312.441406 278.355469 312.542969 278.445312 312.6875 C 278.535156 312.835938 278.5625 313.011719 278.515625 313.179688 L 272.183594 336.1875 C 272.113281 336.453125 271.871094 336.640625 271.59375 336.644531 L 260.667969 336.792969 C 260.667969 336.792969 260.664062 336.792969 260.660156 336.792969 " fill-opacity="1" fill-rule="nonzero"/><path fill="#ffffff" d="M 275.816406 345.207031 C 275.992188 341.707031 275.921875 334.996094 273.199219 331.375 L 264.726562 334.125 L 264.726562 332.472656 C 264.726562 331.941406 264.3125 331.503906 263.78125 331.476562 L 259.054688 331.230469 C 257.304688 331.136719 255.558594 331.460938 253.960938 332.179688 C 249.472656 334.1875 240.285156 338.742188 236.917969 343.683594 C 235.738281 345.417969 236.902344 347.789062 238.988281 348.007812 C 243.851562 348.511719 254.453125 349.0625 273.449219 347.632812 C 274.738281 347.535156 275.75 346.496094 275.816406 345.207031 " fill-opacity="1" fill-rule="nonzero"/><path fill="#000000" d="M 275.816406 345.207031 L 275.820312 345.207031 Z M 258.484375 331.835938 C 257.015625 331.835938 255.550781 332.144531 254.214844 332.742188 C 250.28125 334.507812 240.769531 339.132812 237.429688 344.03125 C 237.011719 344.648438 236.953125 345.425781 237.273438 346.113281 C 237.605469 346.832031 238.273438 347.308594 239.050781 347.390625 C 243.664062 347.871094 254.257812 348.453125 273.40625 347.015625 C 274.378906 346.941406 275.148438 346.152344 275.199219 345.175781 C 275.375 341.753906 275.296875 335.617188 272.957031 332.105469 L 264.921875 334.714844 C 264.730469 334.773438 264.523438 334.742188 264.363281 334.625 C 264.203125 334.511719 264.109375 334.324219 264.109375 334.125 L 264.109375 332.472656 C 264.109375 332.273438 263.953125 332.109375 263.75 332.097656 L 259.027344 331.847656 C 258.847656 331.839844 258.667969 331.835938 258.484375 331.835938 Z M 251.695312 349.164062 C 245.515625 349.164062 241.378906 348.878906 238.925781 348.625 C 237.707031 348.496094 236.667969 347.753906 236.148438 346.636719 C 235.644531 345.546875 235.742188 344.3125 236.410156 343.335938 C 239.800781 338.359375 248.699219 333.855469 253.707031 331.609375 C 255.386719 330.859375 257.25 330.515625 259.09375 330.613281 L 263.816406 330.859375 C 264.675781 330.902344 265.347656 331.613281 265.347656 332.472656 L 265.347656 333.273438 L 273.007812 330.785156 C 273.261719 330.703125 273.539062 330.789062 273.695312 331 C 276.515625 334.753906 276.625 341.53125 276.4375 345.238281 C 276.355469 346.835938 275.09375 348.132812 273.5 348.25 C 264.414062 348.933594 257.230469 349.164062 251.695312 349.164062 " fill-opacity="1" fill-rule="nonzero"/><path fill="#000000" d="M 255.847656 345.601562 C 248.894531 345.601562 243.484375 345.136719 240.601562 344.699219 C 240.261719 344.648438 240.027344 344.335938 240.082031 343.996094 C 240.128906 343.65625 240.445312 343.425781 240.785156 343.476562 C 245.324219 344.160156 257.804688 345.042969 272.53125 343.484375 C 272.871094 343.449219 273.175781 343.695312 273.210938 344.035156 C 273.246094 344.375 273 344.679688 272.660156 344.71875 C 266.507812 345.367188 260.785156 345.601562 255.847656 345.601562 " fill-opacity="1" fill-rule="nonzero"/><path fill="#000000" d="M 251.144531 339.941406 C 250.941406 339.941406 250.746094 339.839844 250.625 339.660156 C 250.4375 339.375 250.515625 338.988281 250.804688 338.800781 L 258.960938 333.453125 C 259.246094 333.265625 259.628906 333.347656 259.816406 333.632812 C 260.003906 333.917969 259.925781 334.300781 259.636719 334.492188 L 251.484375 339.839844 C 251.378906 339.90625 251.261719 339.941406 251.144531 339.941406 " fill-opacity="1" fill-rule="nonzero"/><path fill="#ffffff" d="M 324.164062 311.089844 L 326.886719 330.222656 L 334.851562 330.222656 L 335.179688 311.40625 L 324.164062 311.089844 " fill-opacity="1" fill-rule="nonzero"/><path fill="#000000" d="M 327.421875 329.605469 L 334.242188 329.605469 L 334.546875 312.007812 L 324.878906 311.730469 Z M 334.847656 330.84375 L 326.886719 330.84375 C 326.578125 330.84375 326.316406 330.617188 326.273438 330.308594 L 323.546875 311.179688 C 323.519531 310.996094 323.578125 310.816406 323.699219 310.679688 C 323.820312 310.542969 323.996094 310.464844 324.179688 310.472656 L 335.195312 310.785156 C 335.535156 310.796875 335.804688 311.078125 335.796875 311.417969 L 335.46875 330.234375 C 335.460938 330.570312 335.1875 330.84375 334.847656 330.84375 " fill-opacity="1" fill-rule="nonzero"/><path fill="#5479f7" d="M 279.941406 185.207031 C 279.941406 185.207031 271.460938 243.730469 269.710938 257.578125 C 267.746094 273.132812 261.890625 320.660156 261.890625 320.660156 C 261.890625 320.660156 271.378906 321.136719 277.082031 321.105469 C 277.082031 321.105469 307.042969 239.816406 309.039062 216.898438 C 311.03125 193.980469 304.363281 183.488281 304.363281 183.488281 L 279.941406 185.207031 " fill-opacity="1" fill-rule="nonzero"/><path fill="#5479f7" d="M 288.789062 181.570312 C 288.789062 181.570312 317.253906 279.011719 322.234375 317.859375 C 322.234375 317.859375 327.335938 319.445312 337.046875 317.859375 C 337.046875 317.859375 342.644531 208.761719 324.695312 179.492188 L 288.789062 181.570312 " fill-opacity="1" fill-rule="nonzero"/><path fill="#ffffff" d="M 327.476562 348.511719 C 330.300781 348.816406 334.917969 349.011719 340.304688 348.085938 C 342.066406 347.78125 343.183594 346.023438 342.699219 344.296875 C 341.351562 339.5 339.085938 329.832031 335.421875 325.691406 L 333.976562 328.601562 L 332.710938 326.222656 C 332.535156 325.925781 332.234375 325.738281 331.890625 325.703125 L 329.222656 325.707031 C 328.667969 325.652344 328.167969 326.039062 328.070312 326.589844 L 327.714844 328.601562 L 325.464844 326.003906 L 325.800781 336.851562 C 325.859375 338.769531 325.292969 340.683594 324.921875 342.5625 L 324.398438 345.222656 C 324.242188 346.867188 325.839844 348.335938 327.476562 348.511719 " fill-opacity="1" fill-rule="nonzero"/><path fill="#000000" d="M 327.542969 347.898438 C 330.410156 348.203125 334.929688 348.378906 340.195312 347.472656 C 340.867188 347.359375 341.457031 346.964844 341.820312 346.390625 C 342.191406 345.808594 342.289062 345.125 342.101562 344.46875 C 341.9375 343.878906 341.757812 343.21875 341.5625 342.503906 C 340.261719 337.707031 338.34375 330.613281 335.546875 326.832031 L 334.53125 328.878906 C 334.429688 329.085938 334.21875 329.21875 333.984375 329.222656 C 333.757812 329.226562 333.539062 329.097656 333.429688 328.894531 L 332.164062 326.511719 C 332.109375 326.421875 331.988281 326.34375 331.855469 326.324219 L 329.222656 326.328125 C 329.199219 326.328125 329.179688 326.328125 329.164062 326.324219 C 328.9375 326.304688 328.71875 326.464844 328.675781 326.695312 L 328.324219 328.710938 C 328.28125 328.945312 328.109375 329.136719 327.875 329.199219 C 327.648438 329.265625 327.402344 329.1875 327.242188 329.007812 L 326.136719 327.730469 L 326.417969 336.835938 C 326.464844 338.375 326.132812 339.898438 325.808594 341.371094 C 325.707031 341.808594 325.613281 342.25 325.527344 342.683594 L 325.015625 345.3125 C 324.90625 346.605469 326.277344 347.761719 327.542969 347.898438 Z M 332.292969 349.386719 C 330.382812 349.386719 328.726562 349.269531 327.410156 349.128906 C 325.53125 348.929688 323.578125 347.25 323.78125 345.164062 C 323.785156 345.144531 323.789062 345.125 323.789062 345.105469 L 324.3125 342.449219 C 324.398438 342 324.496094 341.554688 324.597656 341.101562 C 324.90625 339.707031 325.222656 338.261719 325.179688 336.871094 L 324.84375 326.023438 C 324.835938 325.761719 324.996094 325.523438 325.238281 325.429688 C 325.480469 325.332031 325.761719 325.402344 325.933594 325.601562 L 327.328125 327.210938 L 327.457031 326.480469 C 327.605469 325.628906 328.402344 325.023438 329.246094 325.085938 L 331.890625 325.085938 C 331.910156 325.085938 331.929688 325.085938 331.949219 325.089844 C 332.484375 325.136719 332.964844 325.441406 333.242188 325.902344 L 333.957031 327.25 L 334.863281 325.417969 C 334.957031 325.230469 335.132812 325.105469 335.339844 325.078125 C 335.542969 325.050781 335.746094 325.125 335.882812 325.28125 C 339.195312 329.023438 341.339844 336.941406 342.757812 342.179688 C 342.953125 342.890625 343.128906 343.546875 343.292969 344.132812 C 343.570312 345.117188 343.417969 346.183594 342.871094 347.050781 C 342.320312 347.917969 341.421875 348.519531 340.40625 348.695312 C 337.417969 349.210938 334.660156 349.386719 332.292969 349.386719 " fill-opacity="1" fill-rule="nonzero"/><path fill="#000000" d="M 333.875 346.121094 C 329.9375 346.121094 327 345.355469 326.816406 345.308594 C 326.484375 345.21875 326.285156 344.882812 326.375 344.550781 C 326.464844 344.21875 326.800781 344.023438 327.132812 344.109375 C 327.199219 344.128906 333.714844 345.816406 340.199219 344.109375 C 340.53125 344.023438 340.871094 344.21875 340.957031 344.550781 C 341.042969 344.882812 340.847656 345.222656 340.515625 345.308594 C 338.199219 345.917969 335.902344 346.121094 333.875 346.121094 " fill-opacity="1" fill-rule="nonzero"/><path fill="#000000" d="M 336.558594 338.636719 L 330.234375 338.636719 C 329.890625 338.636719 329.617188 338.359375 329.617188 338.019531 C 329.617188 337.675781 329.890625 337.398438 330.234375 337.398438 L 336.558594 337.398438 C 336.902344 337.398438 337.179688 337.675781 337.179688 338.019531 C 337.179688 338.359375 336.902344 338.636719 336.558594 338.636719 " fill-opacity="1" fill-rule="nonzero"/><path fill="#ffffff" d="M 282.539062 93.636719 L 284.816406 103.765625 C 285.816406 108.84375 281.257812 109.953125 281.257812 109.953125 C 282.746094 110.648438 286.175781 115.28125 303.058594 108.964844 C 304.222656 108.53125 298.625 110.691406 296.433594 102.71875 L 293.019531 89.871094 L 282.539062 93.636719 " fill-opacity="1" fill-rule="nonzero"/><path fill="#000000" d="M 282.59375 110.066406 C 284.480469 111.28125 288.640625 113.265625 300.605469 109.1875 C 298.898438 108.554688 296.945312 106.90625 295.839844 102.882812 L 292.597656 90.683594 L 283.265625 94.035156 L 285.421875 103.628906 C 286.175781 107.472656 284.035156 109.296875 282.59375 110.066406 Z M 288.644531 112.863281 C 284.523438 112.863281 282.613281 111.578125 281.527344 110.84375 C 281.308594 110.699219 281.125 110.574219 280.996094 110.511719 C 280.753906 110.402344 280.617188 110.152344 280.640625 109.890625 C 280.667969 109.628906 280.855469 109.414062 281.109375 109.351562 C 281.269531 109.308594 285.078125 108.300781 284.207031 103.882812 L 281.933594 93.769531 C 281.867188 93.464844 282.035156 93.15625 282.328125 93.050781 L 292.816406 89.289062 C 292.976562 89.230469 293.15625 89.242188 293.308594 89.320312 C 293.464844 89.402344 293.578125 89.542969 293.621094 89.710938 L 297.03125 102.558594 C 298.558594 108.101562 301.761719 108.414062 303.070312 108.289062 C 303.65625 108.234375 303.792969 108.636719 303.820312 108.765625 C 303.878906 109.007812 303.832031 109.339844 303.304688 109.539062 C 296.5625 112.058594 291.90625 112.863281 288.644531 112.863281 " fill-opacity="1" fill-rule="nonzero"/><path fill="#ffffff" d="M 289.230469 76.25 C 281.09375 75.5625 280.1875 80.613281 280.1875 80.613281 C 279.695312 81.890625 278.6875 84.175781 278.074219 84.890625 C 277.566406 85.476562 275.863281 86.230469 275.632812 86.582031 C 275.40625 86.933594 275.644531 87.988281 276.71875 88.820312 C 276.71875 88.820312 274.371094 95.042969 275.484375 96.761719 C 276.597656 98.480469 283.542969 99.425781 283.542969 99.425781 L 284.753906 99.492188 C 288.652344 99.710938 291.941406 97.910156 294.484375 94.96875 C 294.484375 94.96875 307.882812 77.828125 289.230469 76.25 " fill-opacity="1" fill-rule="nonzero"/><path fill="#000000" d="M 283.601562 98.808594 L 284.789062 98.875 C 288.226562 99.070312 291.410156 97.578125 294.011719 94.566406 C 294.058594 94.507812 300.289062 86.429688 298.03125 81.257812 C 296.933594 78.75 293.953125 77.273438 289.175781 76.867188 C 281.691406 76.234375 280.804688 80.679688 280.792969 80.722656 C 280.789062 80.761719 280.777344 80.800781 280.761719 80.835938 C 280.398438 81.78125 279.292969 84.421875 278.542969 85.296875 C 278.203125 85.6875 277.566406 86.0625 276.949219 86.425781 C 276.679688 86.589844 276.316406 86.800781 276.171875 86.917969 C 276.167969 87.121094 276.347656 87.75 277.097656 88.335938 C 277.3125 88.503906 277.390625 88.789062 277.296875 89.042969 C 276.367188 91.503906 275.351562 95.421875 276.003906 96.425781 C 276.664062 97.445312 280.832031 98.429688 283.601562 98.808594 Z M 285.382812 100.132812 C 285.164062 100.132812 284.941406 100.125 284.71875 100.113281 L 283.507812 100.046875 C 283.488281 100.046875 283.472656 100.042969 283.457031 100.039062 C 282.25 99.878906 276.171875 98.960938 274.960938 97.097656 C 273.847656 95.386719 275.390625 90.675781 275.992188 89.011719 C 274.988281 88.054688 274.714844 86.859375 275.113281 86.246094 C 275.289062 85.972656 275.648438 85.753906 276.320312 85.359375 C 276.773438 85.089844 277.398438 84.722656 277.601562 84.484375 C 278.078125 83.933594 279.003906 81.960938 279.59375 80.429688 C 279.753906 79.765625 281.230469 74.953125 289.28125 75.636719 C 294.550781 76.082031 297.875 77.804688 299.164062 80.761719 C 301.71875 86.613281 295.246094 94.996094 294.96875 95.351562 C 292.257812 98.496094 288.957031 100.132812 285.382812 100.132812 " fill-opacity="1" fill-rule="nonzero"/><path fill="#000000" d="M 293.039062 74.066406 C 291.003906 73.660156 288.675781 73.996094 287.695312 73.625 C 284.90625 72.566406 284.890625 69.472656 282.636719 69.28125 C 280.65625 69.113281 279.035156 70.109375 278.035156 71.617188 C 277.871094 71.867188 277.726562 72.152344 277.609375 72.464844 C 276.050781 76.730469 279.230469 79.941406 280.1875 80.613281 C 280.1875 80.613281 286.476562 82.871094 287.519531 83.707031 C 288.496094 84.488281 289.398438 86.996094 288.769531 89.667969 C 288.691406 90.011719 288.859375 90.367188 289.167969 90.542969 C 289.53125 90.75 289.992188 90.648438 290.230469 90.308594 C 290.980469 89.234375 292.621094 87.15625 293.835938 87.640625 C 295.261719 88.207031 295.742188 91.765625 293.132812 92.632812 C 292.328125 92.902344 292.066406 93.949219 292.644531 94.570312 C 293.125 95.085938 293.859375 95.445312 294.96875 95.171875 C 294.96875 95.171875 301.460938 90.582031 302.226562 84.503906 C 302.992188 78.425781 295.742188 74.609375 293.039062 74.066406 " fill-opacity="1" fill-rule="nonzero"/><path fill="#000000" d="M 275.632812 86.65625 C 275.386719 86.65625 275.15625 86.507812 275.058594 86.269531 C 274.71875 85.433594 274.820312 84.1875 275.324219 82.9375 C 275.667969 82.09375 276.160156 81.355469 276.707031 80.863281 C 277.375 80.261719 278.070312 80.066406 278.671875 80.3125 C 279.609375 80.695312 279.945312 82.003906 279.527344 83.648438 C 279.445312 83.980469 279.109375 84.179688 278.773438 84.097656 C 278.441406 84.011719 278.242188 83.675781 278.328125 83.34375 C 278.609375 82.234375 278.398438 81.539062 278.203125 81.457031 C 278.101562 81.417969 277.847656 81.5 277.535156 81.78125 C 277.132812 82.148438 276.746094 82.738281 276.472656 83.40625 C 276.042969 84.460938 276.03125 85.371094 276.203125 85.800781 C 276.332031 86.117188 276.179688 86.480469 275.863281 86.609375 C 275.789062 86.640625 275.707031 86.65625 275.632812 86.65625 " fill-opacity="1" fill-rule="nonzero"/><path fill="#000000" d="M 282.160156 83.273438 C 281.921875 83.273438 281.640625 83.382812 281.355469 83.585938 C 280.886719 83.933594 280.453125 84.519531 280.179688 85.195312 C 279.609375 86.601562 279.875 87.855469 280.472656 88.097656 C 280.753906 88.210938 281.136719 88.117188 281.53125 87.832031 C 282.003906 87.484375 282.433594 86.898438 282.707031 86.226562 C 283.277344 84.816406 283.007812 83.5625 282.414062 83.320312 C 282.335938 83.289062 282.25 83.273438 282.160156 83.273438 Z M 280.722656 89.382812 C 280.472656 89.382812 280.234375 89.335938 280.007812 89.246094 C 278.65625 88.695312 278.226562 86.710938 279.03125 84.730469 C 279.394531 83.832031 279.960938 83.070312 280.628906 82.585938 C 281.371094 82.042969 282.191406 81.894531 282.878906 82.175781 C 284.230469 82.722656 284.660156 84.707031 283.855469 86.691406 C 283.492188 87.585938 282.925781 88.347656 282.257812 88.832031 C 281.761719 89.195312 281.226562 89.382812 280.722656 89.382812 " fill-opacity="1" fill-rule="nonzero"/><path fill="#000000" d="M 290.566406 88.207031 C 290.496094 88.207031 290.421875 88.195312 290.355469 88.171875 L 283.453125 85.667969 C 283.128906 85.546875 282.964844 85.195312 283.078125 84.871094 C 283.195312 84.550781 283.550781 84.382812 283.871094 84.5 L 290.777344 87.003906 C 291.097656 87.121094 291.261719 87.476562 291.148438 87.796875 C 291.054688 88.050781 290.816406 88.207031 290.566406 88.207031 " fill-opacity="1" fill-rule="nonzero"/><path fill="#ffffff" d="M 279.410156 136.804688 L 305.035156 140.746094 L 310.898438 120.644531 C 308.664062 114.390625 302.855469 110.128906 296.222656 109.878906 L 286.546875 109.515625 C 282.003906 109.339844 278.070312 112.636719 277.433594 117.140625 L 279.410156 136.804688 " fill-opacity="1" fill-rule="nonzero"/><path fill="#ffffff" d="M 229.257812 104.738281 C 227.820312 101.722656 223.015625 97.78125 220.1875 95.636719 C 219.457031 95.082031 218.441406 95.261719 218.003906 96.066406 C 217.265625 97.445312 219.132812 99.101562 220.660156 100.980469 C 219.6875 101.011719 218.65625 101.234375 217.761719 101.496094 C 216.136719 101.964844 214.390625 101.613281 213.109375 100.511719 C 211.011719 98.71875 208.042969 96.296875 207.261719 96.304688 L 207.222656 96.308594 C 205.925781 96.332031 205.21875 97.832031 206.019531 98.847656 L 209.117188 102.773438 C 210.933594 105.078125 213.4375 106.738281 216.265625 107.515625 L 222.007812 109.097656 C 223.75 109.574219 225.027344 111.0625 225.246094 112.855469 L 227.582031 132.230469 L 237.046875 123.472656 L 229.257812 104.738281 " fill-opacity="1" fill-rule="nonzero"/><path fill="#000000" d="M 207.25 96.925781 C 206.867188 96.933594 206.554688 97.136719 206.394531 97.472656 C 206.238281 97.804688 206.277344 98.175781 206.507812 98.46875 L 209.605469 102.386719 C 211.351562 104.605469 213.710938 106.171875 216.433594 106.917969 L 222.171875 108.5 C 224.164062 109.046875 225.613281 110.726562 225.859375 112.78125 L 228.054688 130.953125 L 236.308594 123.3125 L 228.695312 104.992188 C 227.296875 102.082031 222.53125 98.191406 219.8125 96.128906 C 219.59375 95.964844 219.324219 95.898438 219.078125 95.953125 C 218.851562 96.003906 218.664062 96.148438 218.550781 96.359375 C 218.148438 97.105469 219.175781 98.292969 220.261719 99.550781 C 220.554688 99.890625 220.851562 100.234375 221.140625 100.589844 C 221.289062 100.773438 221.320312 101.023438 221.226562 101.238281 C 221.128906 101.453125 220.914062 101.589844 220.683594 101.597656 C 219.890625 101.625 218.96875 101.792969 217.933594 102.089844 C 216.09375 102.625 214.136719 102.210938 212.703125 100.980469 C 208.242188 97.15625 207.335938 96.9375 207.25 96.925781 Z M 227.582031 132.847656 C 227.511719 132.847656 227.441406 132.835938 227.367188 132.8125 C 227.152344 132.730469 226.996094 132.535156 226.96875 132.304688 L 224.628906 112.929688 C 224.445312 111.378906 223.347656 110.105469 221.84375 109.695312 L 216.101562 108.113281 C 213.125 107.292969 210.542969 105.582031 208.632812 103.15625 L 205.535156 99.234375 C 205.015625 98.574219 204.917969 97.699219 205.273438 96.941406 C 205.632812 96.183594 206.371094 95.703125 207.207031 95.6875 C 207.210938 95.6875 207.25 95.683594 207.25 95.683594 C 207.617188 95.679688 208.410156 95.667969 213.511719 100.039062 C 214.625 100.996094 216.148438 101.316406 217.589844 100.898438 C 218.242188 100.710938 218.851562 100.570312 219.425781 100.480469 C 219.394531 100.441406 219.359375 100.398438 219.324219 100.359375 C 217.949219 98.773438 216.65625 97.273438 217.457031 95.773438 C 217.746094 95.246094 218.238281 94.867188 218.816406 94.742188 C 219.417969 94.613281 220.054688 94.757812 220.5625 95.140625 C 223.375 97.273438 228.320312 101.324219 229.820312 104.472656 C 229.824219 104.480469 229.828125 104.488281 229.832031 104.5 L 237.621094 123.234375 C 237.71875 123.476562 237.660156 123.75 237.46875 123.925781 L 228 132.683594 C 227.886719 132.792969 227.738281 132.847656 227.582031 132.847656 " fill-opacity="1" fill-rule="nonzero"/><path fill="#ffffff" d="M 238.675781 116.894531 L 215.132812 139.457031 L 227.582031 150.148438 L 247.472656 130.132812 L 238.675781 116.894531 " fill-opacity="1" fill-rule="nonzero"/><path fill="#000000" d="M 216.054688 139.433594 L 227.550781 149.304688 L 246.675781 130.054688 L 238.570312 117.855469 Z M 227.582031 150.769531 C 227.441406 150.769531 227.296875 150.71875 227.179688 150.621094 L 214.726562 139.929688 C 214.597656 139.816406 214.519531 139.652344 214.511719 139.476562 C 214.507812 139.300781 214.578125 139.132812 214.703125 139.011719 L 238.25 116.449219 C 238.382812 116.320312 238.5625 116.257812 238.746094 116.28125 C 238.929688 116.300781 239.089844 116.398438 239.191406 116.554688 L 247.988281 129.789062 C 248.152344 130.035156 248.117188 130.363281 247.914062 130.570312 L 228.023438 150.585938 C 227.902344 150.707031 227.742188 150.769531 227.582031 150.769531 " fill-opacity="1" fill-rule="nonzero"/><path fill="#5479f7" d="M 289.226562 121.023438 L 285.066406 141.097656 L 297 140.839844 L 293.074219 121.273438 L 295.367188 116.46875 L 291.652344 110.648438 L 289.109375 110.492188 L 286.957031 117.304688 L 289.226562 121.023438 " fill-opacity="1" fill-rule="nonzero"/><path fill="#000000" d="M 266.6875 123.648438 C 267.265625 120.640625 268.773438 117.890625 270.945312 115.730469 C 273.453125 113.238281 276.5 110.269531 282.675781 106.910156 C 282.695312 106.898438 282.585938 113.941406 284.632812 121.402344 C 286.734375 129.070312 291 137.160156 291 137.160156 L 294.957031 129.957031 C 297.558594 125.222656 299.257812 120.042969 299.964844 114.6875 L 301.046875 106.507812 C 301.046875 106.507812 307.457031 107.308594 314.117188 109.148438 C 314.117188 109.148438 313.519531 131.847656 321.148438 147.910156 C 341.902344 191.589844 362.371094 244.292969 359.75 285.335938 L 305.5 285.265625 C 305.5 285.265625 297.25 252.507812 293.65625 234.097656 C 293.375 232.644531 292.605469 286.78125 291.195312 287.285156 C 274.722656 293.132812 252.183594 281.203125 252.183594 281.203125 C 252.183594 281.203125 268.625 212.640625 265.886719 159.804688 C 265.546875 153.269531 264.203125 136.53125 266.6875 123.648438 " fill-opacity="1" fill-rule="nonzero"/><path fill="#000000" d="M 218.636719 149.203125 L 245.734375 123.898438 C 245.734375 123.898438 248.167969 127.921875 253.457031 128.050781 C 259.160156 128.195312 272.488281 114.242188 272.488281 114.242188 L 274.308594 145.300781 C 274.308594 145.300781 257.4375 174.234375 218.636719 149.203125 " fill-opacity="1" fill-rule="nonzero"/><path fill="#ffffff" d="M 336.914062 157.988281 L 333.199219 169.191406 C 332.917969 170.035156 332.03125 170.519531 331.171875 170.300781 C 331.171875 170.300781 328.714844 169.441406 325.898438 169.238281 C 323.632812 169.074219 318.4375 174.039062 317.703125 174.582031 C 316.246094 175.667969 315.730469 177.734375 316.757812 179.332031 C 318.359375 181.816406 326.3125 177.019531 330.480469 178.679688 C 336.300781 180.996094 338.644531 174.582031 338.644531 174.582031 L 344.75 160.9375 L 336.914062 157.988281 " fill-opacity="1" fill-rule="nonzero"/><path fill="#000000" d="M 325.773438 169.851562 C 324.105469 169.851562 320.160156 173.285156 318.847656 174.425781 C 318.46875 174.753906 318.214844 174.972656 318.074219 175.082031 C 316.816406 176.015625 316.464844 177.734375 317.277344 178.996094 C 317.851562 179.882812 320.28125 179.273438 322.636719 178.679688 C 325.371094 177.992188 328.472656 177.210938 330.707031 178.101562 C 332.175781 178.6875 333.527344 178.710938 334.71875 178.179688 C 337.023438 177.152344 338.050781 174.398438 338.0625 174.371094 C 338.066406 174.355469 338.074219 174.34375 338.078125 174.328125 L 343.917969 161.285156 L 337.296875 158.796875 L 333.785156 169.386719 C 333.40625 170.535156 332.1875 171.199219 331.019531 170.898438 C 331 170.894531 330.980469 170.890625 330.964844 170.882812 C 330.941406 170.875 328.550781 170.050781 325.851562 169.855469 C 325.824219 169.851562 325.796875 169.851562 325.773438 169.851562 Z M 318.542969 180.683594 C 317.519531 180.683594 316.71875 180.410156 316.234375 179.667969 C 315.074219 177.859375 315.554688 175.410156 317.332031 174.085938 C 317.4375 174.007812 317.714844 173.765625 318.035156 173.488281 C 321.035156 170.882812 324.085938 168.492188 325.941406 168.621094 C 328.675781 168.820312 331.042969 169.601562 331.347656 169.703125 C 331.882812 169.828125 332.433594 169.523438 332.609375 168.996094 L 336.324219 157.792969 C 336.378906 157.636719 336.492188 157.503906 336.648438 157.429688 C 336.800781 157.359375 336.972656 157.351562 337.132812 157.410156 L 344.96875 160.355469 C 345.128906 160.417969 345.257812 160.542969 345.324219 160.699219 C 345.390625 160.859375 345.382812 161.035156 345.316406 161.191406 L 339.21875 174.816406 C 339.097656 175.132812 337.914062 178.109375 335.222656 179.3125 C 333.714844 179.988281 332.039062 179.96875 330.25 179.253906 C 328.386719 178.511719 325.492188 179.242188 322.941406 179.882812 C 321.289062 180.296875 319.761719 180.683594 318.542969 180.683594 " fill-opacity="1" fill-rule="nonzero"/><path fill="#ffffff" d="M 330.5625 145.375 L 327.523438 155.660156 L 346.855469 168.511719 C 346.855469 168.511719 351.351562 156.160156 351.582031 151.183594 L 330.5625 145.375 " fill-opacity="1" fill-rule="nonzero"/><path fill="#000000" d="M 328.25 155.398438 L 346.535156 167.554688 C 347.464844 164.929688 350.527344 156 350.929688 151.648438 L 330.984375 146.132812 Z M 346.855469 169.132812 C 346.730469 169.132812 346.613281 169.097656 346.511719 169.027344 L 327.183594 156.179688 C 326.957031 156.027344 326.851562 155.75 326.929688 155.488281 L 329.964844 145.199219 C 330.0625 144.875 330.398438 144.6875 330.726562 144.777344 L 351.75 150.589844 C 352.027344 150.667969 352.214844 150.925781 352.203125 151.214844 C 351.964844 156.230469 347.621094 168.214844 347.433594 168.726562 C 347.371094 168.902344 347.226562 169.042969 347.046875 169.101562 C 346.984375 169.121094 346.917969 169.132812 346.855469 169.132812 " fill-opacity="1" fill-rule="nonzero"/><path fill="#000000" d="M 304.882812 131.03125 L 322.050781 138.035156 C 326.359375 139.882812 327.589844 144.441406 326.625 147.574219 L 354.738281 157.839844 C 354.738281 157.839844 359.738281 143.832031 352.179688 132.421875 C 340.039062 114.078125 313.773438 108.472656 302.730469 106.855469 C 299.730469 106.414062 304.882812 131.03125 304.882812 131.03125 " fill-opacity="1" fill-rule="nonzero"/><path fill="#ffffff" d="M 291.195312 287.902344 C 290.941406 287.902344 290.703125 287.746094 290.609375 287.492188 C 290.527344 287.257812 290.59375 287.007812 290.753906 286.84375 C 291.222656 285.691406 292.046875 276.007812 292.753906 259.40625 C 293.40625 243.953125 293.496094 233.59375 293.207031 232.046875 C 293.191406 232.03125 293.179688 232.015625 293.167969 231.996094 C 292.957031 231.726562 293.007812 231.335938 293.277344 231.128906 C 293.484375 230.96875 293.765625 230.945312 293.996094 231.066406 C 294.429688 231.304688 294.925781 231.570312 294.347656 249.894531 C 294.007812 260.566406 293.433594 272.121094 292.878906 279.332031 C 292.246094 287.570312 291.890625 287.695312 291.402344 287.867188 C 291.335938 287.890625 291.261719 287.902344 291.195312 287.902344 " fill-opacity="1" fill-rule="nonzero"/><path fill="#ffffff" d="M 264.957031 156.59375 C 264.625 156.59375 264.347656 156.332031 264.335938 155.996094 C 264.125 149.726562 264.171875 141.859375 267.410156 127.875 C 267.492188 127.539062 267.824219 127.332031 268.15625 127.410156 C 268.488281 127.484375 268.699219 127.820312 268.621094 128.152344 C 265.410156 141.992188 265.367188 149.757812 265.578125 155.953125 C 265.589844 156.296875 265.320312 156.582031 264.980469 156.589844 C 264.972656 156.59375 264.964844 156.59375 264.957031 156.59375 " fill-opacity="1" fill-rule="nonzero"/><path fill="#ffffff" d="M 305.324219 286.570312 C 305.050781 286.570312 304.800781 286.390625 304.726562 286.117188 C 291.566406 238.980469 284.855469 178.472656 289.109375 145.375 C 289.152344 145.035156 289.457031 144.796875 289.804688 144.839844 C 290.144531 144.882812 290.382812 145.191406 290.339844 145.535156 C 286.101562 178.492188 292.800781 238.785156 305.917969 285.785156 C 306.011719 286.113281 305.820312 286.457031 305.492188 286.550781 C 305.433594 286.566406 305.378906 286.570312 305.324219 286.570312 " fill-opacity="1" fill-rule="nonzero"/><path fill="#ffffff" d="M 297.214844 120.957031 C 301.523438 118.4375 303.566406 115.675781 304.066406 112.320312 C 304.34375 110.46875 303.652344 108.605469 302.269531 107.34375 L 296.644531 102.230469 C 296.644531 102.230469 295.488281 109.230469 290.683594 111.210938 L 297.214844 120.957031 " fill-opacity="1" fill-rule="nonzero"/><path fill="#000000" d="M 291.597656 111.464844 L 297.402344 120.121094 C 301.0625 117.871094 302.988281 115.351562 303.453125 112.230469 C 303.695312 110.59375 303.097656 108.941406 301.851562 107.804688 L 297.019531 103.40625 C 296.503906 105.40625 295.042969 109.621094 291.597656 111.464844 Z M 297.21875 121.574219 C 297.015625 121.574219 296.820312 121.480469 296.699219 121.304688 L 290.167969 111.558594 C 290.066406 111.40625 290.035156 111.214844 290.089844 111.035156 C 290.144531 110.859375 290.273438 110.714844 290.445312 110.644531 C 294.878906 108.8125 296.019531 102.195312 296.035156 102.128906 C 296.070312 101.90625 296.226562 101.71875 296.441406 101.644531 C 296.65625 101.570312 296.894531 101.621094 297.0625 101.773438 L 302.683594 106.890625 C 304.238281 108.304688 304.984375 110.371094 304.679688 112.414062 C 304.132812 116.074219 301.863281 118.957031 297.53125 121.492188 C 297.429688 121.550781 297.324219 121.574219 297.21875 121.574219 " fill-opacity="1" fill-rule="nonzero"/><path fill="#ffffff" d="M 289.78125 111.199219 C 286.269531 109.722656 284.867188 103.949219 284.867188 103.949219 C 284.867188 103.949219 281.582031 107.558594 281.074219 111.902344 C 280.328125 118.289062 285.992188 122.585938 285.992188 122.585938 L 289.78125 111.199219 " fill-opacity="1" fill-rule="nonzero"/><path fill="#000000" d="M 284.617188 105.253906 C 283.65625 106.550781 282.023438 109.113281 281.691406 111.972656 C 281.148438 116.625 284.28125 120.160156 285.699219 121.503906 L 289.023438 111.519531 C 286.574219 110.160156 285.207031 106.984375 284.617188 105.253906 Z M 285.996094 123.199219 C 285.859375 123.199219 285.730469 123.15625 285.621094 123.074219 C 285.375 122.890625 279.683594 118.488281 280.460938 111.828125 C 280.984375 107.339844 284.273438 103.683594 284.414062 103.527344 C 284.566406 103.359375 284.800781 103.289062 285.023438 103.347656 C 285.246094 103.402344 285.417969 103.578125 285.472656 103.800781 C 285.484375 103.855469 286.84375 109.292969 290.023438 110.625 C 290.320312 110.753906 290.472656 111.085938 290.371094 111.394531 L 286.582031 122.777344 C 286.519531 122.964844 286.367188 123.113281 286.179688 123.175781 C 286.117188 123.191406 286.058594 123.199219 285.996094 123.199219 " fill-opacity="1" fill-rule="nonzero"/><path fill="#5479f7" d="M 212.882812 51.125 L 219.789062 61.179688 C 222.597656 65.316406 217.988281 73.292969 209.5 79 C 201.011719 84.710938 191.855469 85.988281 189.046875 81.855469 L 182.140625 71.800781 L 212.882812 51.125 " fill-opacity="1" fill-rule="nonzero"/><path fill="#000000" d="M 183.011719 71.964844 L 189.5625 81.503906 C 192.128906 85.285156 201.101562 83.902344 209.15625 78.484375 C 214.859375 74.652344 219.058594 69.507812 219.855469 65.386719 C 220.15625 63.835938 219.960938 62.535156 219.277344 61.527344 L 212.722656 51.984375 Z M 194.964844 84.917969 C 192.078125 84.917969 189.777344 84.03125 188.539062 82.199219 L 181.632812 72.148438 C 181.539062 72.015625 181.503906 71.847656 181.535156 71.679688 C 181.566406 71.519531 181.660156 71.375 181.800781 71.285156 L 212.535156 50.609375 C 212.820312 50.421875 213.203125 50.496094 213.394531 50.773438 L 220.300781 60.828125 C 221.167969 62.105469 221.433594 63.761719 221.074219 65.621094 C 220.203125 70.117188 215.902344 75.441406 209.847656 79.515625 C 204.582031 83.058594 199.152344 84.917969 194.964844 84.917969 " fill-opacity="1" fill-rule="nonzero"/><path fill="#f53725" d="M 179.207031 69.308594 L 190.433594 52.023438 C 190.660156 51.71875 190.984375 51.5 191.351562 51.40625 L 211.660156 47.484375 L 217.9375 43.265625 L 219.992188 46.289062 C 220.121094 46.480469 220.140625 46.742188 219.980469 46.960938 L 203.523438 69.324219 C 203.296875 69.628906 202.972656 69.847656 202.605469 69.941406 L 175.617188 76.796875 C 175.351562 76.867188 175.113281 76.75 174.984375 76.558594 L 172.929688 73.53125 L 179.207031 69.308594 " fill-opacity="1" fill-rule="nonzero"/><path fill="#000000" d="M 179.207031 69.3125 L 179.210938 69.3125 Z M 173.792969 73.699219 L 175.496094 76.210938 L 202.453125 69.339844 C 202.679688 69.285156 202.882812 69.144531 203.023438 68.957031 L 219.464844 46.617188 L 217.769531 44.121094 L 212.003906 48 C 211.9375 48.042969 211.859375 48.078125 211.773438 48.09375 L 191.46875 52.015625 C 191.273438 52.066406 191.074219 52.199219 190.933594 52.390625 L 179.726562 69.648438 C 179.679688 69.71875 179.621094 69.777344 179.550781 69.824219 Z M 175.464844 77.4375 C 175.074219 77.4375 174.703125 77.246094 174.472656 76.90625 L 172.417969 73.878906 C 172.324219 73.742188 172.289062 73.574219 172.324219 73.414062 C 172.351562 73.253906 172.449219 73.109375 172.585938 73.015625 L 178.753906 68.867188 L 189.917969 51.6875 C 190.246094 51.234375 190.695312 50.933594 191.199219 50.804688 L 211.417969 46.902344 L 217.589844 42.75 C 217.871094 42.558594 218.257812 42.632812 218.449219 42.914062 L 220.503906 45.945312 C 220.796875 46.367188 220.785156 46.914062 220.476562 47.328125 L 204.019531 69.691406 C 203.710938 70.109375 203.261719 70.414062 202.753906 70.542969 L 175.769531 77.398438 C 175.664062 77.421875 175.566406 77.4375 175.464844 77.4375 " fill-opacity="1" fill-rule="nonzero"/><path fill="#5479f7" d="M 172.941406 72.859375 L 189.398438 50.5 C 189.625 50.191406 189.949219 49.972656 190.316406 49.878906 L 217.304688 43.023438 C 217.839844 42.890625 218.25 43.496094 217.921875 43.933594 L 201.46875 66.296875 C 201.242188 66.601562 200.914062 66.820312 200.546875 66.914062 L 173.5625 73.769531 C 173.03125 73.90625 172.617188 73.300781 172.941406 72.859375 " fill-opacity="1" fill-rule="nonzero"/><path fill="#000000" d="M 172.941406 72.859375 L 172.945312 72.859375 Z M 217.386719 43.621094 L 190.46875 50.480469 C 190.242188 50.539062 190.035156 50.675781 189.898438 50.867188 L 173.480469 73.175781 L 200.394531 66.316406 C 200.625 66.257812 200.828125 66.121094 200.96875 65.933594 Z M 173.410156 74.410156 C 173.015625 74.410156 172.644531 74.21875 172.414062 73.875 C 172.128906 73.449219 172.136719 72.90625 172.441406 72.492188 L 188.902344 50.132812 C 189.210938 49.710938 189.65625 49.410156 190.164062 49.28125 L 217.152344 42.425781 C 217.648438 42.296875 218.164062 42.492188 218.449219 42.921875 C 218.738281 43.347656 218.726562 43.890625 218.421875 44.304688 L 201.964844 66.667969 C 201.65625 67.085938 201.207031 67.386719 200.703125 67.515625 L 173.710938 74.371094 C 173.609375 74.398438 173.507812 74.410156 173.410156 74.410156 " fill-opacity="1" fill-rule="nonzero"/><path fill="#000000" d="M 188.101562 88.089844 C 187.769531 88.089844 187.496094 87.824219 187.484375 87.492188 L 186.859375 70.171875 C 186.851562 70.03125 186.894531 69.898438 186.972656 69.785156 L 196.1875 56.902344 C 196.386719 56.625 196.773438 56.5625 197.050781 56.761719 C 197.328125 56.960938 197.394531 57.347656 197.191406 57.625 L 188.105469 70.335938 L 188.722656 87.445312 C 188.734375 87.789062 188.464844 88.078125 188.125 88.089844 C 188.117188 88.089844 188.109375 88.089844 188.101562 88.089844 " fill-opacity="1" fill-rule="nonzero"/><path fill="#f53725" d="M 188.101562 86.335938 C 188.621094 86.339844 189.042969 86.75 189.074219 87.269531 L 189.902344 101.910156 L 185.921875 101.859375 L 187.105469 87.246094 C 187.144531 86.726562 187.582031 86.328125 188.101562 86.335938 " fill-opacity="1" fill-rule="nonzero"/><path fill="#000000" d="M 186.59375 101.25 L 189.246094 101.28125 L 188.453125 87.304688 C 188.445312 87.109375 188.285156 86.957031 188.09375 86.953125 C 188.089844 86.953125 188.089844 86.953125 188.085938 86.953125 C 187.898438 86.953125 187.738281 87.101562 187.722656 87.292969 Z M 189.902344 102.53125 C 189.898438 102.53125 189.894531 102.53125 189.894531 102.53125 L 185.910156 102.480469 C 185.742188 102.476562 185.578125 102.402344 185.460938 102.277344 C 185.347656 102.148438 185.289062 101.980469 185.300781 101.808594 L 186.488281 87.195312 C 186.554688 86.355469 187.253906 85.714844 188.109375 85.714844 C 188.949219 85.726562 189.644531 86.394531 189.691406 87.234375 L 190.523438 101.875 C 190.53125 102.046875 190.46875 102.214844 190.351562 102.339844 C 190.234375 102.460938 190.070312 102.53125 189.902344 102.53125 " fill-opacity="1" fill-rule="nonzero"/><path fill="#000000" d="M 76.832031 76.148438 C 81.113281 75.414062 90.367188 77.820312 91.128906 84.226562 C 91.75 89.460938 84.171875 90.824219 82.226562 94.066406 C 75.933594 104.554688 80.640625 131.605469 70.035156 142.074219 C 61.578125 150.425781 43.226562 153.480469 30.59375 143.671875 C 18.582031 134.347656 13.011719 117.894531 21.457031 107.769531 C 29.046875 98.660156 38.644531 113.800781 47.914062 106.085938 C 62.917969 93.59375 57.019531 79.546875 76.832031 76.148438 " fill-opacity="1" fill-rule="nonzero"/><path fill="#ffffff" d="M 107.386719 324.257812 C 107.386719 324.257812 104.386719 337.875 109.929688 341.585938 L 102.25 343.671875 L 93.277344 337.707031 L 94.363281 336.0625 C 96.289062 333.128906 97.40625 328.972656 97.691406 325.601562 L 107.386719 324.257812 " fill-opacity="1" fill-rule="nonzero"/><path fill="#000000" d="M 94.136719 337.535156 L 102.359375 343 L 108.625 341.296875 C 104.738281 337.285156 106.078125 327.910156 106.609375 324.988281 L 98.261719 326.144531 C 97.9375 329.183594 96.898438 333.328125 94.878906 336.402344 Z M 102.25 344.292969 C 102.128906 344.292969 102.011719 344.257812 101.90625 344.1875 L 92.9375 338.222656 C 92.652344 338.035156 92.574219 337.652344 92.761719 337.367188 L 93.84375 335.71875 C 95.847656 332.671875 96.828125 328.464844 97.074219 325.550781 C 97.097656 325.257812 97.316406 325.027344 97.605469 324.988281 L 107.300781 323.644531 C 107.503906 323.613281 107.703125 323.6875 107.84375 323.835938 C 107.980469 323.984375 108.035156 324.191406 107.992188 324.390625 C 107.964844 324.523438 105.148438 337.636719 110.273438 341.070312 C 110.476562 341.207031 110.582031 341.449219 110.539062 341.6875 C 110.5 341.925781 110.324219 342.121094 110.09375 342.183594 L 102.414062 344.269531 C 102.359375 344.285156 102.304688 344.292969 102.25 344.292969 " fill-opacity="1" fill-rule="nonzero"/><path fill="#ffffff" d="M 47.617188 305.433594 C 44.457031 308.480469 41.523438 316.042969 44.34375 321.570312 L 34.414062 315.929688 L 32.339844 304.761719 C 39.492188 303.175781 39.945312 301.824219 42.652344 299.230469 C 42.652344 299.230469 49.929688 303.207031 47.617188 305.433594 " fill-opacity="1" fill-rule="nonzero"/><path fill="#000000" d="M 34.972656 315.535156 L 43.105469 320.15625 C 41.382812 314.558594 44.210938 307.859375 47.1875 304.988281 C 47.398438 304.785156 47.480469 304.578125 47.441406 304.320312 C 47.269531 303.027344 44.625 301.078125 42.75 299.996094 C 42.515625 300.226562 42.292969 300.453125 42.082031 300.667969 C 40.183594 302.585938 38.90625 303.878906 33.058594 305.234375 Z M 44.34375 322.191406 C 44.238281 322.191406 44.132812 322.164062 44.039062 322.109375 L 34.109375 316.46875 C 33.949219 316.378906 33.839844 316.222656 33.804688 316.042969 L 31.730469 304.871094 C 31.671875 304.546875 31.878906 304.226562 32.207031 304.15625 C 38.199219 302.828125 39.328125 301.6875 41.203125 299.792969 C 41.515625 299.476562 41.847656 299.140625 42.222656 298.78125 C 42.417969 298.59375 42.710938 298.554688 42.949219 298.683594 C 43.5 298.984375 48.339844 301.695312 48.671875 304.152344 C 48.757812 304.804688 48.542969 305.402344 48.046875 305.878906 C 44.964844 308.851562 42.277344 316.152344 44.898438 321.292969 C 45.019531 321.535156 44.972656 321.832031 44.773438 322.019531 C 44.65625 322.132812 44.5 322.191406 44.34375 322.191406 " fill-opacity="1" fill-rule="nonzero"/><path fill="#5479f7" d="M 69.285156 177.976562 L 111.878906 175.183594 C 111.878906 175.183594 137.367188 230.796875 124.199219 278.976562 C 116.546875 306.96875 110.742188 321.582031 108.453125 326.738281 C 107.828125 328.148438 106.410156 329.035156 104.867188 328.972656 L 99.710938 328.585938 C 97.589844 328.503906 95.957031 326.6875 96.101562 324.566406 C 97.242188 308.183594 103.523438 249.574219 96.070312 237.679688 C 96.070312 237.679688 94.8125 277.605469 48.84375 306.769531 C 47.746094 307.464844 46.269531 307.046875 45.417969 306.0625 L 41.652344 302.089844 C 40.847656 301.160156 40.722656 299.824219 41.34375 298.761719 C 48.023438 287.339844 74.722656 260.144531 69.285156 177.976562 " fill-opacity="1" fill-rule="nonzero"/><path fill="#000000" d="M 36.832031 302.710938 L 29.984375 303.875 C 28.53125 304.320312 27.757812 305.871094 28.292969 307.277344 C 30.191406 312.273438 34.847656 323.210938 41.042969 328.855469 C 42.328125 330.027344 43.417969 330.949219 44.339844 331.667969 C 46.152344 333.074219 49.949219 331.578125 48.707031 328.082031 L 44.871094 318.601562 C 44.871094 318.601562 42.292969 320.222656 38.925781 316.382812 C 37.546875 314.808594 36.421875 312.285156 35.578125 309.851562 C 34.363281 306.359375 36.832031 302.710938 36.832031 302.710938 " fill-opacity="1" fill-rule="nonzero"/><path fill="#000000" d="M 94.34375 334.828125 L 90.351562 340.765625 C 89.683594 342.132812 90.292969 343.753906 91.6875 344.320312 C 96.636719 346.335938 106.28125 349.859375 114.640625 349.171875 C 116.371094 349.03125 117.789062 348.859375 118.941406 348.675781 C 121.207031 348.3125 123.023438 345.378906 119.617188 343.902344 L 108.421875 338.476562 C 108.421875 338.476562 103.234375 341.796875 97.570312 338.792969 C 94.300781 337.058594 94.34375 334.828125 94.34375 334.828125 " fill-opacity="1" fill-rule="nonzero"/><path fill="#ffffff" d="M 56.417969 129.796875 C 59.273438 127.632812 62.582031 126.140625 66.097656 125.4375 L 72.214844 123.496094 C 83.359375 119.964844 95.457031 121.046875 105.792969 126.503906 L 125.140625 155.457031 C 126.332031 157.238281 125.171875 159.648438 123.035156 159.828125 L 114.785156 160.527344 C 113.226562 160.660156 112.085938 162.0625 112.277344 163.617188 C 113.144531 170.699219 107.914062 177.070312 100.796875 177.589844 L 48.195312 181.441406 C 48.195312 181.441406 48.039062 132.339844 56.417969 129.796875 " fill-opacity="1" fill-rule="nonzero"/><path fill="#000000" d="M 59.757812 125.558594 C 59.757812 125.558594 49.183594 129.148438 47.390625 141.121094 C 45.59375 153.089844 36.113281 187.714844 40.105469 195.402344 C 45.523438 205.832031 60.464844 203.507812 60.464844 203.507812 C 60.464844 203.507812 60.375 212.597656 57.613281 229.597656 C 54.6875 247.621094 46.140625 270.882812 46.140625 270.882812 C 46.140625 270.882812 89.585938 287.460938 104.695312 275.710938 L 105.742188 242.625 C 105.453125 224.984375 103.816406 199.863281 97.230469 182.613281 L 89.726562 152.328125 C 89.726562 152.328125 83.164062 148.703125 72.070312 137.9375 C 66.046875 132.097656 59.757812 125.558594 59.757812 125.558594 " fill-opacity="1" fill-rule="nonzero"/><path fill="#ff2e00" d="M 45.046875 151.707031 C 45.003906 151.707031 44.960938 151.703125 44.917969 151.691406 C 44.585938 151.621094 44.371094 151.296875 44.441406 150.960938 C 45.210938 147.328125 45.976562 143.613281 46.363281 141.027344 C 47.707031 132.066406 54.195312 127.5625 57.945312 125.679688 C 58.25 125.523438 58.621094 125.648438 58.777344 125.953125 C 58.929688 126.261719 58.808594 126.632812 58.5 126.785156 C 54.96875 128.5625 48.851562 132.804688 47.589844 141.210938 C 47.195312 143.828125 46.425781 147.566406 45.652344 151.214844 C 45.59375 151.507812 45.335938 151.707031 45.046875 151.707031 " fill-opacity="1" fill-rule="nonzero"/><path fill="#ffffff" d="M 97.238281 280.324219 C 96.957031 280.324219 96.707031 280.132812 96.636719 279.847656 C 96.558594 279.515625 96.765625 279.179688 97.097656 279.101562 C 99.785156 278.464844 102.261719 277.367188 104.101562 275.992188 C 104.390625 272.480469 107.210938 235.75 101.574219 198.386719 C 101.523438 198.046875 101.753906 197.730469 102.09375 197.679688 C 102.429688 197.628906 102.746094 197.863281 102.796875 198.199219 C 108.71875 237.449219 105.347656 275.988281 105.3125 276.375 C 105.296875 276.546875 105.210938 276.703125 105.074219 276.808594 C 103.046875 278.386719 100.386719 279.59375 97.382812 280.308594 C 97.335938 280.320312 97.285156 280.324219 97.238281 280.324219 " fill-opacity="1" fill-rule="nonzero"/><path fill="#000000" d="M 88.527344 120.960938 C 88.425781 120.726562 88.609375 120.460938 88.859375 120.496094 C 100.667969 122.0625 107.289062 127.105469 107.289062 127.105469 C 107.289062 127.105469 114.402344 125.972656 121.683594 130.292969 C 131.066406 135.859375 144.367188 161.253906 136.707031 166.683594 C 130.261719 171.246094 119.355469 164.074219 115.527344 161.671875 C 115.328125 161.542969 115.085938 161.753906 115.1875 161.96875 C 117.75 167.582031 130.558594 198.167969 132.875 212.691406 C 137.839844 243.804688 136.335938 266.230469 136.335938 266.230469 C 135.21875 270.304688 122.296875 269.890625 122.296875 269.890625 C 123.53125 229.882812 82.472656 176.480469 88.910156 152.492188 C 92.507812 139.082031 88.957031 121.988281 88.527344 120.960938 " fill-opacity="1" fill-rule="nonzero"/><path fill="#ffffff" d="M 122.296875 270.511719 C 122.289062 270.511719 122.285156 270.511719 122.277344 270.511719 C 121.933594 270.5 121.667969 270.214844 121.675781 269.871094 C 122.304688 249.503906 111.609375 225.003906 102.167969 203.390625 C 92.796875 181.933594 84.707031 163.402344 87.898438 151.503906 C 87.988281 151.171875 88.328125 150.976562 88.65625 151.066406 C 88.988281 151.15625 89.183594 151.496094 89.09375 151.824219 C 86.015625 163.308594 94.414062 182.535156 103.304688 202.894531 C 112.796875 224.628906 123.554688 249.261719 122.914062 269.910156 C 122.90625 270.246094 122.628906 270.511719 122.296875 270.511719 " fill-opacity="1" fill-rule="nonzero"/><path fill="#f53725" d="M 101.398438 197.464844 L 73.777344 197.464844 L 67.308594 160.015625 L 94.929688 160.015625 L 101.398438 197.464844 " fill-opacity="1" fill-rule="nonzero"/><path fill="#000000" d="M 74.296875 196.847656 L 100.660156 196.847656 L 94.40625 160.632812 L 68.042969 160.632812 Z M 102.132812 198.085938 L 73.253906 198.085938 L 73.164062 197.570312 L 66.574219 159.394531 L 95.449219 159.394531 L 95.539062 159.90625 L 102.132812 198.085938 " fill-opacity="1" fill-rule="nonzero"/><path fill="#ffffff" d="M 97.503906 171.546875 C 99.285156 171.148438 98.578125 172.683594 97.179688 173.863281 C 96.144531 174.738281 94.746094 175.464844 93.949219 175.84375 C 93.75 175.9375 93.808594 176.15625 94 176.257812 C 104.125 181.695312 102.542969 187.019531 102.542969 187.019531 C 100.632812 191.917969 89.546875 184.421875 82.78125 185.761719 C 81.296875 186.054688 77.527344 188.621094 74.507812 190.820312 C 72.289062 192.433594 69.136719 191.675781 67.992188 189.261719 L 67.273438 187.746094 C 65.984375 185.03125 67.683594 181.804688 70.730469 181.230469 C 73.488281 180.714844 76.949219 179.902344 80.609375 178.660156 C 82.128906 178.144531 85.085938 176.558594 86.410156 175.660156 C 87.929688 174.617188 91.152344 172.964844 97.503906 171.546875 " fill-opacity="1" fill-rule="nonzero"/><path fill="#000000" d="M 97.640625 172.148438 C 91.503906 173.523438 88.335938 175.09375 86.757812 176.167969 C 85.367188 177.117188 82.351562 178.722656 80.808594 179.246094 C 77.65625 180.316406 74.304688 181.191406 70.84375 181.839844 C 69.554688 182.085938 68.480469 182.882812 67.890625 184.035156 C 67.335938 185.132812 67.3125 186.386719 67.832031 187.480469 L 68.550781 188.996094 C 69.007812 189.957031 69.878906 190.664062 70.9375 190.933594 C 72.046875 191.21875 73.214844 190.992188 74.144531 190.316406 C 78.507812 187.144531 81.371094 185.40625 82.660156 185.152344 C 85.773438 184.535156 89.71875 185.691406 93.199219 186.707031 C 98.089844 188.136719 101.125 188.863281 101.953125 186.828125 C 102.023438 186.507812 102.902344 181.742188 93.707031 176.804688 C 93.390625 176.632812 93.199219 176.324219 93.207031 175.996094 C 93.214844 175.691406 93.390625 175.425781 93.679688 175.285156 C 94.410156 174.9375 95.785156 174.230469 96.777344 173.390625 C 97.386719 172.878906 97.738281 172.390625 97.875 172.109375 C 97.8125 172.117188 97.734375 172.128906 97.640625 172.148438 Z M 71.886719 192.292969 C 71.46875 192.292969 71.046875 192.242188 70.628906 192.132812 C 69.210938 191.773438 68.046875 190.824219 67.429688 189.527344 L 66.710938 188.011719 C 66.027344 186.570312 66.054688 184.914062 66.789062 183.476562 C 67.550781 181.976562 68.945312 180.9375 70.617188 180.625 C 74.015625 179.984375 77.3125 179.125 80.410156 178.074219 C 81.839844 177.585938 84.761719 176.03125 86.058594 175.144531 C 87.726562 174.007812 91.039062 172.355469 97.371094 170.941406 C 98.457031 170.699219 98.898438 171.074219 99.078125 171.433594 C 99.621094 172.53125 97.921875 174.046875 97.578125 174.335938 C 96.753906 175.035156 95.714844 175.636719 94.917969 176.054688 C 104.683594 181.550781 103.207031 186.964844 103.136719 187.195312 C 103.132812 187.210938 103.125 187.230469 103.121094 187.242188 C 101.839844 190.527344 97.472656 189.25 92.851562 187.898438 C 89.503906 186.917969 85.714844 185.808594 82.902344 186.367188 C 82.277344 186.492188 80.402344 187.300781 74.871094 191.320312 C 73.992188 191.957031 72.949219 192.292969 71.886719 192.292969 " fill-opacity="1" fill-rule="nonzero"/><path fill="#ffffff" d="M 101.191406 114.613281 C 102.128906 115.210938 102.804688 115.796875 103.101562 116.746094 C 103.101562 116.746094 105.042969 120.507812 108.480469 135.222656 C 110.238281 142.734375 125.289062 138.78125 120.09375 130.929688 L 110.003906 115.640625 C 109.925781 115.527344 109.855469 115.410156 109.789062 115.292969 C 108.789062 113.507812 108.238281 111.511719 108.1875 109.46875 L 108.117188 106.769531 C 108.035156 103.507812 107.023438 101.167969 104.148438 98.769531 C 103.179688 97.960938 97.953125 94.210938 96.214844 98.144531 C 95.550781 99.640625 97.804688 100.96875 97.113281 101.707031 C 96.585938 102.269531 93.933594 99.613281 92.71875 101.332031 C 92.117188 102.1875 92.59375 103.097656 92.738281 103.351562 C 93.375 104.472656 94.039062 104.425781 94.722656 105.445312 C 95.394531 106.457031 96.574219 107.957031 97.40625 110.070312 C 98.242188 112.183594 97.976562 112.480469 99.632812 113.839844 C 99.933594 114.085938 100.800781 114.359375 101.191406 114.613281 " fill-opacity="1" fill-rule="nonzero"/><path fill="#000000" d="M 103.675781 116.507812 C 103.921875 117.015625 105.832031 121.167969 109.085938 135.082031 C 109.664062 137.5625 111.773438 138.292969 112.980469 138.503906 C 115.671875 138.980469 118.746094 137.886719 119.976562 136.007812 C 120.867188 134.652344 120.730469 133.011719 119.574219 131.269531 L 109.484375 115.984375 C 109.402344 115.855469 109.320312 115.726562 109.246094 115.59375 C 108.203125 113.730469 107.621094 111.617188 107.566406 109.484375 L 107.5 106.78125 C 107.414062 103.535156 106.363281 101.421875 103.75 99.246094 C 102.84375 98.492188 100.085938 96.625 98.234375 97.0625 C 97.585938 97.210938 97.109375 97.648438 96.78125 98.394531 C 96.574219 98.863281 96.847656 99.34375 97.292969 100.023438 C 97.683594 100.621094 98.214844 101.4375 97.566406 102.128906 C 97.058594 102.671875 96.328125 102.320312 95.550781 101.945312 C 94.285156 101.332031 93.617188 101.136719 93.226562 101.691406 C 92.898438 102.15625 93.074219 102.6875 93.277344 103.046875 C 93.554688 103.53125 93.816406 103.734375 94.148438 103.992188 C 94.480469 104.246094 94.859375 104.535156 95.234375 105.105469 C 95.351562 105.277344 95.484375 105.46875 95.625 105.671875 C 96.320312 106.667969 97.269531 108.035156 97.984375 109.84375 C 98.183594 110.351562 98.324219 110.761719 98.4375 111.09375 C 98.796875 112.148438 98.894531 112.429688 100.027344 113.363281 C 100.121094 113.4375 100.472656 113.589844 100.703125 113.6875 C 101.011719 113.820312 101.304688 113.949219 101.527344 114.089844 C 102.417969 114.660156 103.292969 115.347656 103.675781 116.507812 Z M 114.285156 139.859375 C 113.777344 139.859375 113.265625 139.816406 112.765625 139.722656 C 110.199219 139.269531 108.417969 137.679688 107.878906 135.363281 C 104.511719 120.96875 102.566406 117.066406 102.546875 117.027344 C 102.535156 116.996094 102.519531 116.960938 102.511719 116.929688 C 102.265625 116.160156 101.699219 115.671875 100.859375 115.132812 C 100.722656 115.046875 100.453125 114.929688 100.210938 114.828125 C 99.832031 114.664062 99.472656 114.507812 99.242188 114.320312 C 97.835938 113.164062 97.65625 112.640625 97.265625 111.496094 C 97.148438 111.160156 97.019531 110.78125 96.832031 110.296875 C 96.171875 108.621094 95.265625 107.324219 94.609375 106.378906 C 94.460938 106.164062 94.324219 105.972656 94.207031 105.789062 C 93.941406 105.394531 93.6875 105.199219 93.394531 104.972656 C 93.019531 104.6875 92.597656 104.363281 92.199219 103.65625 C 91.667969 102.71875 91.671875 101.742188 92.214844 100.976562 C 93.277344 99.46875 95.039062 100.320312 96.089844 100.828125 C 96.199219 100.882812 96.324219 100.941406 96.445312 100.996094 C 96.382812 100.894531 96.3125 100.785156 96.253906 100.699219 C 95.789062 99.988281 95.152344 99.011719 95.648438 97.894531 C 96.136719 96.78125 96.914062 96.097656 97.953125 95.851562 C 100.78125 95.191406 104.390625 98.167969 104.542969 98.292969 C 107.429688 100.699219 108.644531 103.148438 108.734375 106.75 L 108.804688 109.453125 C 108.855469 111.386719 109.382812 113.300781 110.328125 114.988281 C 110.386719 115.09375 110.453125 115.199219 110.519531 115.300781 L 120.609375 130.585938 C 122.035156 132.742188 122.179688 134.910156 121.011719 136.6875 C 119.742188 138.625 117.023438 139.859375 114.285156 139.859375 " fill-opacity="1" fill-rule="nonzero"/><path fill="#000000" d="M 103.332031 109.269531 C 103.066406 109.269531 102.816406 109.097656 102.738281 108.824219 C 101.386719 104.296875 94.230469 101.414062 94.15625 101.386719 C 93.835938 101.261719 93.683594 100.898438 93.808594 100.582031 C 93.933594 100.265625 94.292969 100.105469 94.613281 100.234375 C 94.929688 100.359375 102.402344 103.363281 103.925781 108.472656 C 104.023438 108.800781 103.835938 109.144531 103.507812 109.242188 C 103.449219 109.261719 103.390625 109.269531 103.332031 109.269531 " fill-opacity="1" fill-rule="nonzero"/><path fill="#f53725" d="M 96.113281 101.480469 L 113.867188 92.613281 L 116.589844 100.859375 L 99.300781 103.242188 L 96.113281 101.480469 " fill-opacity="1" fill-rule="nonzero"/><path fill="#000000" d="M 97.445312 101.507812 L 99.417969 102.597656 L 115.769531 100.34375 L 113.503906 93.488281 Z M 99.179688 103.882812 L 94.785156 101.449219 L 114.230469 91.738281 L 117.410156 101.367188 L 99.179688 103.882812 " fill-opacity="1" fill-rule="nonzero"/><path fill="#ff2e00" d="M 65.148438 180.167969 C 65.0625 180.167969 64.976562 180.148438 64.890625 180.109375 C 60.710938 178.210938 63.261719 160.617188 63.816406 157.109375 C 63.871094 156.769531 64.183594 156.542969 64.523438 156.59375 C 64.863281 156.648438 65.09375 156.964844 65.039062 157.304688 C 63.816406 165.0625 62.832031 177.8125 65.40625 178.984375 C 65.71875 179.125 65.855469 179.492188 65.710938 179.804688 C 65.609375 180.03125 65.382812 180.167969 65.148438 180.167969 " fill-opacity="1" fill-rule="nonzero"/><path fill="#f53725" d="M 49.226562 75.625 L 69.726562 76.578125 C 70.105469 76.574219 70.46875 76.441406 70.761719 76.195312 L 85.722656 62.050781 L 92.78125 59.425781 L 91.523438 56.007812 C 91.445312 55.792969 91.25 55.621094 90.976562 55.625 L 63.335938 55.949219 C 62.957031 55.953125 62.59375 56.089844 62.300781 56.335938 L 41.085938 74.179688 C 40.878906 74.355469 40.835938 74.613281 40.914062 74.828125 L 42.171875 78.246094 L 49.226562 75.625 " fill-opacity="1" fill-rule="nonzero"/><path fill="#000000" d="M 90.953125 56.246094 L 63.34375 56.570312 C 63.109375 56.574219 62.878906 56.65625 62.699219 56.808594 L 41.488281 74.652344 L 42.535156 77.453125 L 49.011719 75.042969 C 49.089844 75.011719 49.171875 75 49.257812 75.003906 L 69.757812 75.960938 C 69.953125 75.957031 70.183594 75.871094 70.363281 75.722656 L 85.296875 61.601562 C 85.355469 61.542969 85.429688 61.5 85.507812 61.46875 L 91.984375 59.058594 Z M 42.171875 78.867188 C 42.082031 78.867188 41.992188 78.847656 41.910156 78.8125 C 41.761719 78.742188 41.644531 78.617188 41.589844 78.460938 L 40.335938 75.042969 C 40.15625 74.5625 40.296875 74.035156 40.6875 73.707031 L 61.902344 55.859375 C 62.300781 55.523438 62.808594 55.335938 63.328125 55.332031 L 90.96875 55.007812 C 91.472656 55 91.929688 55.308594 92.105469 55.792969 L 93.359375 59.210938 C 93.480469 59.53125 93.316406 59.886719 92.996094 60.007812 L 86.054688 62.585938 L 71.1875 76.648438 C 70.761719 77.003906 70.253906 77.195312 69.734375 77.199219 L 49.324219 76.25 L 42.386719 78.828125 C 42.316406 78.855469 42.242188 78.867188 42.171875 78.867188 " fill-opacity="1" fill-rule="nonzero"/><path fill="#5479f7" d="M 42.71875 78.632812 L 70.359375 78.304688 C 70.738281 78.300781 71.101562 78.167969 71.390625 77.921875 L 92.605469 60.078125 C 93.023438 59.726562 92.773438 59.039062 92.230469 59.046875 L 64.589844 59.371094 C 64.210938 59.375 63.847656 59.511719 63.554688 59.757812 L 42.339844 77.601562 C 41.921875 77.953125 42.175781 78.636719 42.71875 78.632812 " fill-opacity="1" fill-rule="nonzero"/><path fill="#000000" d="M 92.128906 59.667969 L 64.597656 59.992188 C 64.363281 59.996094 64.132812 60.078125 63.953125 60.230469 L 42.816406 78.011719 L 70.351562 77.6875 C 70.585938 77.683594 70.8125 77.597656 70.992188 77.449219 Z M 42.710938 78.011719 L 42.71875 78.632812 Z M 42.710938 79.25 C 42.207031 79.25 41.765625 78.945312 41.589844 78.46875 C 41.410156 77.984375 41.546875 77.457031 41.941406 77.128906 L 63.15625 59.28125 C 63.554688 58.949219 64.0625 58.757812 64.582031 58.753906 L 92.222656 58.429688 C 92.226562 58.429688 92.230469 58.429688 92.238281 58.429688 C 92.742188 58.429688 93.179688 58.734375 93.359375 59.210938 C 93.539062 59.695312 93.398438 60.21875 93.007812 60.550781 L 71.792969 78.398438 C 71.390625 78.730469 70.886719 78.917969 70.367188 78.925781 L 42.726562 79.25 C 42.722656 79.25 42.714844 79.25 42.710938 79.25 " fill-opacity="1" fill-rule="nonzero"/><path fill="#000000" d="M 51.730469 83.464844 C 51.730469 83.464844 51.726562 83.464844 51.726562 83.464844 C 51.382812 83.460938 51.109375 83.179688 51.109375 82.839844 L 51.25 65.601562 C 51.253906 65.261719 51.523438 64.992188 51.875 64.988281 C 52.21875 64.992188 52.492188 65.269531 52.488281 65.613281 L 52.351562 82.847656 C 52.347656 83.1875 52.070312 83.464844 51.730469 83.464844 " fill-opacity="1" fill-rule="nonzero"/><path fill="#f53725" d="M 51.757812 81.757812 C 51.242188 81.757812 50.8125 82.160156 50.78125 82.679688 L 49.816406 97.246094 L 53.78125 97.234375 L 52.742188 82.671875 C 52.703125 82.15625 52.273438 81.757812 51.757812 81.757812 " fill-opacity="1" fill-rule="nonzero"/><path fill="#000000" d="M 51.761719 82.375 C 51.570312 82.375 51.410156 82.527344 51.398438 82.71875 L 50.476562 96.625 L 53.113281 96.617188 L 52.121094 82.71875 C 52.109375 82.523438 51.949219 82.375 51.761719 82.375 Z M 49.816406 97.867188 C 49.644531 97.867188 49.480469 97.792969 49.363281 97.667969 C 49.246094 97.542969 49.1875 97.375 49.199219 97.203125 L 50.160156 82.636719 C 50.21875 81.796875 50.917969 81.140625 51.757812 81.136719 C 51.757812 81.136719 51.757812 81.136719 51.761719 81.136719 C 52.597656 81.136719 53.300781 81.789062 53.359375 82.628906 L 54.398438 97.191406 C 54.410156 97.359375 54.351562 97.53125 54.234375 97.65625 C 54.117188 97.78125 53.953125 97.855469 53.78125 97.855469 L 49.816406 97.867188 " fill-opacity="1" fill-rule="nonzero"/><path fill="#5479f7" d="M 60.960938 88.90625 L 57.296875 78.898438 C 54.671875 71.722656 59.46875 66.160156 66.667969 63.59375 C 66.667969 63.59375 79.382812 59.515625 83.144531 69.449219 L 86.851562 79.601562 C 83.660156 77.703125 78.804688 75.3125 71.621094 77.804688 C 62.675781 80.910156 60.960938 88.90625 60.960938 88.90625 " fill-opacity="1" fill-rule="nonzero"/><path fill="#000000" d="M 72.394531 63.398438 C 69.375 63.398438 66.910156 64.164062 66.855469 64.183594 C 62.589844 65.707031 59.449219 68.207031 58.035156 71.21875 C 56.960938 73.515625 56.90625 76.03125 57.878906 78.6875 L 60.929688 87.011719 C 61.984375 84.382812 64.769531 79.527344 71.417969 77.21875 C 77.582031 75.082031 82.089844 76.355469 85.695312 78.242188 L 82.558594 69.660156 C 80.628906 64.554688 76.09375 63.398438 72.394531 63.398438 Z M 60.960938 89.527344 C 60.703125 89.527344 60.46875 89.367188 60.378906 89.117188 L 56.714844 79.113281 C 55.625 76.132812 55.691406 73.300781 56.914062 70.695312 C 58.46875 67.382812 61.859375 64.652344 66.460938 63.007812 C 66.613281 62.960938 79.800781 58.863281 83.722656 69.230469 L 87.429688 79.390625 C 87.523438 79.636719 87.445312 79.910156 87.246094 80.078125 C 87.042969 80.246094 86.757812 80.265625 86.53125 80.132812 C 82.9375 77.996094 78.382812 76.117188 71.824219 78.390625 C 63.308594 81.34375 61.582031 88.960938 61.566406 89.035156 C 61.511719 89.308594 61.28125 89.507812 61.003906 89.527344 C 60.992188 89.527344 60.976562 89.527344 60.960938 89.527344 " fill-opacity="1" fill-rule="nonzero"/><path fill="#ffffff" d="M 72.089844 95.667969 C 72.550781 95.835938 73.050781 95.570312 73.15625 95.085938 C 73.648438 92.804688 75.667969 89.070312 78.414062 87.902344 C 81.929688 86.40625 86.34375 86.78125 87.765625 89.398438 C 89.003906 91.679688 88.488281 93.289062 91.726562 95.957031 C 92.039062 96.210938 91.902344 96.734375 91.628906 97.027344 L 90.199219 98.738281 C 89.890625 99.066406 89.75 100.019531 89.785156 100.46875 C 89.894531 101.859375 90.242188 104.796875 89.835938 105.257812 C 89.035156 106.15625 84.347656 106.703125 84.347656 106.703125 L 82.902344 120.039062 C 82.847656 120.546875 83.222656 121 83.730469 121.03125 L 88.585938 121.367188 L 84.296875 137.8125 L 61.804688 126.578125 C 61.804688 126.578125 74.707031 120.90625 73.667969 104.417969 C 73.644531 104.054688 73.429688 103.730469 73.101562 103.570312 C 71.855469 102.945312 68.457031 101.0625 68.535156 98.523438 C 68.621094 95.828125 70.507812 95.082031 72.089844 95.667969 " fill-opacity="1" fill-rule="nonzero"/><path fill="#000000" d="M 63.148438 126.558594 L 83.890625 136.917969 L 87.796875 121.9375 L 83.6875 121.652344 C 83.273438 121.625 82.898438 121.433594 82.628906 121.113281 C 82.363281 120.792969 82.242188 120.390625 82.285156 119.976562 L 83.730469 106.640625 C 83.761719 106.351562 83.988281 106.125 84.273438 106.089844 C 86.378906 105.84375 88.871094 105.304688 89.339844 104.875 C 89.515625 104.386719 89.316406 102.207031 89.230469 101.265625 C 89.207031 100.992188 89.183594 100.738281 89.167969 100.523438 C 89.125 100.011719 89.253906 98.84375 89.746094 98.316406 L 91.152344 96.632812 C 91.234375 96.542969 91.273438 96.449219 91.285156 96.394531 C 88.953125 94.460938 88.464844 92.996094 87.988281 91.578125 C 87.777344 90.949219 87.578125 90.355469 87.21875 89.695312 C 85.933594 87.328125 81.753906 87.152344 78.65625 88.472656 C 76.183594 89.523438 74.222656 93.066406 73.757812 95.21875 C 73.671875 95.625 73.417969 95.964844 73.058594 96.164062 C 72.695312 96.363281 72.261719 96.394531 71.871094 96.25 C 71.226562 96.007812 70.574219 96.058594 70.085938 96.386719 C 69.507812 96.777344 69.1875 97.523438 69.15625 98.546875 C 69.089844 100.648438 72.085938 102.371094 73.378906 103.015625 C 73.902344 103.277344 74.25 103.796875 74.285156 104.378906 C 75.15625 118.210938 66.3125 124.699219 63.148438 126.558594 Z M 84.296875 138.433594 C 84.203125 138.433594 84.109375 138.410156 84.019531 138.367188 L 61.527344 127.136719 C 61.3125 127.027344 61.179688 126.804688 61.183594 126.566406 C 61.1875 126.328125 61.332031 126.113281 61.550781 126.015625 C 62.0625 125.789062 74.046875 120.300781 73.050781 104.457031 C 73.039062 104.316406 72.953125 104.1875 72.824219 104.125 C 70.957031 103.191406 67.832031 101.222656 67.917969 98.507812 C 67.972656 96.6875 68.75 95.792969 69.394531 95.359375 C 70.21875 94.804688 71.277344 94.707031 72.304688 95.085938 C 72.375 95.113281 72.433594 95.09375 72.460938 95.078125 C 72.492188 95.058594 72.535156 95.027344 72.550781 94.957031 C 73.066406 92.566406 75.152344 88.617188 78.167969 87.332031 C 81.753906 85.808594 86.648438 86.046875 88.308594 89.105469 C 88.71875 89.859375 88.945312 90.53125 89.164062 91.183594 C 89.625 92.5625 90.023438 93.75 92.121094 95.480469 C 92.359375 95.675781 92.5 95.957031 92.523438 96.28125 C 92.546875 96.683594 92.378906 97.132812 92.082031 97.453125 L 90.671875 99.136719 C 90.523438 99.308594 90.367188 100.007812 90.402344 100.421875 C 90.417969 100.636719 90.441406 100.882812 90.464844 101.15625 C 90.714844 103.925781 90.746094 105.164062 90.296875 105.671875 C 89.511719 106.554688 86.410156 107.0625 84.910156 107.257812 L 83.515625 120.109375 C 83.507812 120.210938 83.550781 120.285156 83.578125 120.320312 C 83.609375 120.351562 83.671875 120.410156 83.773438 120.417969 L 88.628906 120.75 C 88.8125 120.765625 88.980469 120.859375 89.089844 121.007812 C 89.195312 121.160156 89.234375 121.347656 89.1875 121.527344 L 84.898438 137.96875 C 84.851562 138.148438 84.722656 138.300781 84.554688 138.375 C 84.472656 138.414062 84.386719 138.433594 84.296875 138.433594 " fill-opacity="1" fill-rule="nonzero"/><path fill="#5479f7" d="M 129.902344 85.171875 C 129.878906 85.171875 129.859375 85.171875 129.839844 85.171875 C 127.96875 85.191406 125.957031 86.195312 125.960938 87.78125 C 125.96875 89.074219 127.652344 90.070312 130.253906 90.308594 C 131.460938 90.417969 132.792969 90.375 134.175781 90.15625 C 134.1875 89.921875 134.191406 89.679688 134.1875 89.429688 C 134.132812 86.289062 131.949219 85.171875 129.902344 85.171875 Z M 125.125 97.742188 C 122 97.742188 119.335938 97.105469 119.132812 97.054688 C 118.804688 96.972656 118.597656 96.636719 118.679688 96.308594 C 118.761719 95.972656 119.097656 95.769531 119.429688 95.851562 C 119.515625 95.875 127.980469 97.898438 132.042969 94.65625 C 133.046875 93.855469 133.703125 92.773438 134 91.433594 C 132.644531 91.621094 131.335938 91.652344 130.140625 91.542969 C 126.808594 91.238281 124.734375 89.796875 124.722656 87.785156 C 124.710938 85.410156 127.308594 83.960938 129.828125 83.933594 C 132.355469 83.902344 135.355469 85.324219 135.425781 89.40625 C 135.429688 89.578125 135.429688 89.75 135.425781 89.917969 C 140.945312 88.660156 146.828125 84.691406 148.265625 77.128906 C 148.328125 76.792969 148.65625 76.570312 148.988281 76.636719 C 149.324219 76.699219 149.546875 77.023438 149.484375 77.359375 C 147.902344 85.671875 141.34375 89.953125 135.308594 91.207031 C 135.011719 93.054688 134.175781 94.539062 132.8125 95.625 C 130.734375 97.285156 127.765625 97.742188 125.125 97.742188 " fill-opacity="1" fill-rule="nonzero"/><path fill="#5479f7" d="M 145.433594 51.15625 C 145.273438 51.15625 145.117188 51.09375 144.992188 50.972656 C 144.753906 50.730469 144.753906 50.339844 144.992188 50.097656 L 146.484375 48.605469 C 146.726562 48.363281 147.121094 48.363281 147.363281 48.605469 C 147.605469 48.847656 147.605469 49.238281 147.363281 49.480469 L 145.871094 50.972656 C 145.75 51.09375 145.589844 51.15625 145.433594 51.15625 " fill-opacity="1" fill-rule="nonzero"/><path fill="#5479f7" d="M 151.699219 44.886719 C 151.539062 44.886719 151.382812 44.824219 151.261719 44.707031 C 151.019531 44.464844 151.019531 44.070312 151.261719 43.832031 L 152.75 42.339844 C 152.996094 42.097656 153.386719 42.097656 153.628906 42.339844 C 153.871094 42.578125 153.871094 42.972656 153.628906 43.214844 L 152.136719 44.707031 C 152.015625 44.824219 151.855469 44.886719 151.699219 44.886719 " fill-opacity="1" fill-rule="nonzero"/><path fill="#5479f7" d="M 153.191406 51.15625 C 153.03125 51.15625 152.871094 51.09375 152.75 50.972656 L 151.257812 49.480469 C 151.015625 49.238281 151.015625 48.847656 151.257812 48.605469 C 151.5 48.363281 151.894531 48.363281 152.136719 48.605469 L 153.628906 50.097656 C 153.867188 50.339844 153.867188 50.730469 153.628906 50.972656 C 153.507812 51.09375 153.347656 51.15625 153.191406 51.15625 " fill-opacity="1" fill-rule="nonzero"/><path fill="#5479f7" d="M 146.925781 44.886719 C 146.765625 44.886719 146.609375 44.824219 146.488281 44.707031 L 144.996094 43.214844 C 144.753906 42.972656 144.753906 42.578125 144.996094 42.339844 C 145.238281 42.097656 145.628906 42.097656 145.871094 42.339844 L 147.363281 43.832031 C 147.605469 44.070312 147.605469 44.464844 147.363281 44.707031 C 147.242188 44.824219 147.082031 44.886719 146.925781 44.886719 " fill-opacity="1" fill-rule="nonzero"/><path fill="#000000" d="M 125.359375 62.742188 L 123.25 62.742188 C 122.90625 62.742188 122.628906 62.464844 122.628906 62.121094 C 122.628906 61.78125 122.90625 61.503906 123.25 61.503906 L 125.359375 61.503906 C 125.703125 61.503906 125.980469 61.78125 125.980469 62.121094 C 125.980469 62.464844 125.703125 62.742188 125.359375 62.742188 " fill-opacity="1" fill-rule="nonzero"/><path fill="#000000" d="M 134.21875 62.742188 L 132.109375 62.742188 C 131.769531 62.742188 131.488281 62.464844 131.488281 62.121094 C 131.488281 61.78125 131.769531 61.503906 132.109375 61.503906 L 134.21875 61.503906 C 134.5625 61.503906 134.839844 61.78125 134.839844 62.121094 C 134.839844 62.464844 134.5625 62.742188 134.21875 62.742188 " fill-opacity="1" fill-rule="nonzero"/><path fill="#000000" d="M 128.734375 68.222656 C 128.394531 68.222656 128.117188 67.945312 128.117188 67.605469 L 128.117188 65.496094 C 128.117188 65.152344 128.394531 64.875 128.734375 64.875 C 129.078125 64.875 129.355469 65.152344 129.355469 65.496094 L 129.355469 67.605469 C 129.355469 67.945312 129.078125 68.222656 128.734375 68.222656 " fill-opacity="1" fill-rule="nonzero"/><path fill="#000000" d="M 128.734375 59.367188 C 128.394531 59.367188 128.117188 59.085938 128.117188 58.746094 L 128.117188 56.636719 C 128.117188 56.292969 128.394531 56.015625 128.734375 56.015625 C 129.078125 56.015625 129.355469 56.292969 129.355469 56.636719 L 129.355469 58.746094 C 129.355469 59.085938 129.078125 59.367188 128.734375 59.367188 " fill-opacity="1" fill-rule="nonzero"/><path fill="#ff2e00" d="M 126.804688 45.007812 C 126.804688 47.191406 125.035156 48.964844 122.851562 48.964844 C 120.664062 48.964844 118.894531 47.191406 118.894531 45.007812 C 118.894531 42.824219 120.664062 41.054688 122.851562 41.054688 C 125.035156 41.054688 126.804688 42.824219 126.804688 45.007812 " fill-opacity="1" fill-rule="nonzero"/></svg>