<svg xmlns="http://www.w3.org/2000/svg" xmlns:xlink="http://www.w3.org/1999/xlink" width="500" zoomAndPan="magnify" viewBox="0 0 375 374.999991" height="500" preserveAspectRatio="xMidYMid meet" version="1.0"><defs><clipPath id="0815a1efa7"><path d="M 62.273438 312.171875 L 126.363281 312.171875 L 126.363281 364.976562 L 62.273438 364.976562 Z M 62.273438 312.171875 " clip-rule="nonzero"/></clipPath><clipPath id="3fb54b3dfd"><path d="M 120.242188 326.328125 L 152 326.328125 L 152 364.976562 L 120.242188 364.976562 Z M 120.242188 326.328125 " clip-rule="nonzero"/></clipPath><clipPath id="a89523e330"><path d="M 22.289062 246 L 174.769531 246 L 174.769531 364.976562 L 22.289062 364.976562 Z M 22.289062 246 " clip-rule="nonzero"/></clipPath><clipPath id="8de21e3a29"><path d="M 216.09375 355.601562 L 252.25 355.601562 L 252.25 364.976562 L 216.09375 364.976562 Z M 216.09375 355.601562 " clip-rule="nonzero"/></clipPath><clipPath id="4413bacd9c"><path d="M 215.519531 355.027344 L 251.867188 355.027344 L 251.867188 364.976562 L 215.519531 364.976562 Z M 215.519531 355.027344 " clip-rule="nonzero"/></clipPath><clipPath id="3a569fbcc8"><path d="M 151.617188 232.582031 L 296.570312 232.582031 L 296.570312 364.976562 L 151.617188 364.976562 Z M 151.617188 232.582031 " clip-rule="nonzero"/></clipPath></defs><path fill="#f53725" d="M 284.804688 103.289062 C 248.226562 66.429688 258.699219 43.328125 233.671875 26.261719 C 195.164062 0.00390625 123.289062 22.597656 80.886719 58.714844 C 28.953125 102.953125 2.15625 183.722656 32.679688 256.796875 C 65.1875 334.613281 150.714844 375.007812 227.035156 362.835938 C 295.183594 351.964844 362.179688 298.183594 368.894531 233.683594 C 369.621094 226.691406 372.832031 188.898438 350.304688 156.316406 C 331.6875 129.382812 313.800781 132.503906 284.804688 103.289062 " fill-opacity="1" fill-rule="nonzero"/><path fill="#f53725" d="M 19.972656 199.632812 C 20.808594 218.675781 24.859375 237.964844 32.679688 256.695312 C 65.1875 334.511719 150.714844 374.960938 227.035156 362.785156 C 295.183594 351.914062 362.179688 298.054688 368.894531 233.554688 C 369.296875 229.679688 370.457031 216.558594 367.589844 199.632812 L 19.972656 199.632812 " fill-opacity="1" fill-rule="nonzero"/><path fill="#5479f7" d="M 336.199219 66.515625 C 322.9375 66.515625 307.535156 63.078125 291.074219 56.394531 C 270.875 48.195312 248.894531 35.027344 227.511719 18.320312 C 227.234375 18.105469 227.1875 17.707031 227.402344 17.433594 C 227.617188 17.15625 228.015625 17.105469 228.289062 17.324219 C 249.582031 33.957031 271.460938 47.0625 291.550781 55.222656 C 311.597656 63.363281 330.023438 66.640625 344.84375 64.710938 C 360.582031 62.660156 369.066406 58.34375 368.734375 52.558594 C 368.261719 44.230469 350.472656 35.035156 338.3125 34.84375 C 337.960938 34.835938 337.683594 34.546875 337.6875 34.199219 C 337.695312 33.847656 337.980469 33.558594 338.332031 33.574219 C 351.136719 33.777344 369.480469 43.34375 370 52.484375 C 370.265625 57.117188 366.144531 63.214844 345.007812 65.96875 C 342.195312 66.332031 339.253906 66.515625 336.199219 66.515625 " fill-opacity="1" fill-rule="nonzero"/><path fill="#f53725" d="M 219.347656 15.011719 L 232.503906 25.6875 L 217.808594 32.0625 C 217.808594 32.0625 215.835938 23.222656 219.347656 15.011719 " fill-opacity="1" fill-rule="nonzero"/><path fill="#f53725" d="M 244.40625 35.027344 L 262.558594 45.621094 C 262.558594 45.621094 249.816406 58.816406 243.128906 61.78125 C 243.128906 61.78125 238.695312 47.203125 244.40625 35.027344 " fill-opacity="1" fill-rule="nonzero"/><path fill="#f53725" d="M 274.113281 53.519531 C 274.519531 52.933594 284.835938 59.011719 295.230469 61.972656 C 295.230469 61.972656 283.074219 79.660156 274.300781 80.546875 C 274.300781 80.546875 269.859375 59.65625 274.113281 53.519531 " fill-opacity="1" fill-rule="nonzero"/><path fill="#f53725" d="M 330.503906 68.863281 C 330.503906 68.863281 310.820312 67.8125 306.773438 64.929688 C 306.773438 64.929688 309.054688 86.164062 307.269531 90.015625 C 307.269531 90.015625 322.53125 79.910156 330.503906 68.863281 " fill-opacity="1" fill-rule="nonzero"/><path fill="#f53725" d="M 357.964844 66.164062 C 357.964844 66.164062 345.734375 68.34375 341.113281 68.578125 C 341.113281 68.578125 344.179688 81.652344 339.945312 86.066406 C 339.945312 86.066406 348.792969 81.722656 357.964844 66.164062 " fill-opacity="1" fill-rule="nonzero"/><path fill="#5479f7" d="M 273.273438 83.902344 C 272.976562 83.902344 272.71875 83.699219 272.65625 83.402344 C 272.644531 83.347656 271.53125 78.085938 270.957031 72.132812 C 270.925781 71.785156 271.179688 71.476562 271.527344 71.445312 C 271.875 71.410156 272.183594 71.664062 272.21875 72.011719 C 272.675781 76.746094 273.476562 81.039062 273.777344 82.558594 C 276.714844 82.007812 280.492188 79.460938 284.746094 75.140625 C 284.988281 74.890625 285.390625 74.886719 285.640625 75.132812 C 285.886719 75.378906 285.890625 75.777344 285.648438 76.027344 C 280.839844 80.910156 276.699219 83.558594 273.335938 83.898438 C 273.316406 83.902344 273.296875 83.902344 273.273438 83.902344 " fill-opacity="1" fill-rule="nonzero"/><path fill="#5479f7" d="M 286.980469 74.332031 C 286.828125 74.332031 286.675781 74.277344 286.554688 74.167969 C 286.296875 73.929688 286.277344 73.53125 286.515625 73.273438 C 289.625 69.867188 292.136719 66.488281 293.171875 65.050781 C 288.367188 63.605469 283.75 61.59375 280.636719 60.171875 C 280.316406 60.027344 280.175781 59.652344 280.320312 59.332031 C 280.464844 59.015625 280.839844 58.875 281.160156 59.019531 C 284.425781 60.507812 289.347656 62.652344 294.375 64.082031 C 294.574219 64.140625 294.730469 64.285156 294.796875 64.476562 C 294.867188 64.667969 294.839844 64.882812 294.722656 65.050781 C 294.691406 65.09375 291.589844 69.59375 287.449219 74.128906 C 287.324219 74.261719 287.152344 74.332031 286.980469 74.332031 " fill-opacity="1" fill-rule="nonzero"/><path fill="#5479f7" d="M 306.242188 93.367188 C 306.09375 93.367188 305.945312 93.316406 305.828125 93.214844 C 305.613281 93.03125 305.546875 92.726562 305.667969 92.46875 C 305.921875 91.921875 306.238281 90.550781 306.285156 87.164062 C 306.289062 86.8125 306.570312 86.542969 306.925781 86.535156 C 307.277344 86.542969 307.554688 86.828125 307.554688 87.179688 C 307.527344 88.875 307.4375 90.226562 307.28125 91.253906 C 311.070312 88.582031 321.765625 80.683594 328.273438 72.148438 C 327.085938 72.070312 325.09375 71.929688 322.777344 71.714844 C 322.429688 71.679688 322.171875 71.371094 322.203125 71.023438 C 322.238281 70.675781 322.546875 70.414062 322.894531 70.453125 C 326.613281 70.796875 329.484375 70.953125 329.511719 70.953125 C 329.742188 70.964844 329.949219 71.101562 330.050781 71.3125 C 330.148438 71.523438 330.125 71.769531 329.992188 71.957031 C 322.046875 82.96875 306.746094 93.160156 306.589844 93.261719 C 306.484375 93.332031 306.363281 93.367188 306.242188 93.367188 " fill-opacity="1" fill-rule="nonzero"/><path fill="#5479f7" d="M 306.492188 76.792969 C 306.164062 76.792969 305.886719 76.539062 305.863281 76.207031 C 305.527344 71.578125 305.121094 67.757812 305.117188 67.71875 C 305.089844 67.46875 305.210938 67.230469 305.425781 67.101562 C 305.640625 66.976562 305.910156 66.988281 306.113281 67.136719 C 306.964844 67.742188 309.214844 68.648438 315.109375 69.535156 C 315.453125 69.585938 315.691406 69.910156 315.640625 70.253906 C 315.589844 70.601562 315.265625 70.839844 314.921875 70.785156 C 310.96875 70.191406 308.191406 69.535156 306.5 68.78125 C 306.644531 70.277344 306.902344 73.019531 307.125 76.113281 C 307.148438 76.464844 306.886719 76.765625 306.539062 76.792969 C 306.523438 76.792969 306.507812 76.792969 306.492188 76.792969 " fill-opacity="1" fill-rule="nonzero"/><path fill="#5479f7" d="M 338.921875 89.421875 C 338.722656 89.421875 338.53125 89.328125 338.410156 89.164062 C 338.230469 88.914062 338.25 88.574219 338.464844 88.351562 C 342.414062 84.234375 339.5 71.570312 339.46875 71.445312 C 339.429688 71.257812 339.46875 71.066406 339.582031 70.917969 C 339.695312 70.765625 339.867188 70.675781 340.054688 70.664062 C 341.625 70.585938 344.269531 70.269531 347.90625 69.722656 C 348.25 69.671875 348.574219 69.910156 348.625 70.253906 C 348.675781 70.601562 348.4375 70.925781 348.09375 70.976562 C 344.929688 71.449219 342.503906 71.753906 340.863281 71.882812 C 341.355469 74.292969 342.699219 82 340.847656 86.8125 C 342.636719 85.527344 345.375 83.253906 348.539062 79.617188 C 348.765625 79.351562 349.167969 79.324219 349.429688 79.554688 C 349.695312 79.78125 349.722656 80.183594 349.492188 80.445312 C 343.722656 87.09375 339.382812 89.269531 339.199219 89.359375 C 339.109375 89.398438 339.015625 89.421875 338.921875 89.421875 " fill-opacity="1" fill-rule="nonzero"/><path fill="#5479f7" d="M 360.292969 252.414062 L 286.101562 252.414062 C 285.761719 252.414062 285.488281 252.136719 285.488281 251.796875 L 285.488281 139.074219 C 285.488281 138.730469 285.761719 138.457031 286.101562 138.457031 L 360.292969 138.457031 C 360.632812 138.457031 360.910156 138.730469 360.910156 139.074219 L 360.910156 251.796875 C 360.910156 252.136719 360.632812 252.414062 360.292969 252.414062 " fill-opacity="1" fill-rule="nonzero"/><path fill="#f53725" d="M 323.519531 155.726562 C 316.734375 155.726562 311.214844 161.246094 311.214844 168.03125 C 311.214844 174.8125 316.734375 180.332031 323.519531 180.332031 C 330.300781 180.332031 335.820312 174.8125 335.820312 168.03125 C 335.820312 161.246094 330.300781 155.726562 323.519531 155.726562 Z M 323.519531 181.597656 C 316.035156 181.597656 309.949219 175.511719 309.949219 168.03125 C 309.949219 160.546875 316.035156 154.460938 323.519531 154.460938 C 331 154.460938 337.085938 160.546875 337.085938 168.03125 C 337.085938 175.511719 331 181.597656 323.519531 181.597656 " fill-opacity="1" fill-rule="nonzero"/><path fill="#f53725" d="M 323.699219 198.539062 C 313.902344 198.539062 305.929688 206.511719 305.929688 216.308594 C 305.929688 226.105469 313.902344 234.078125 323.699219 234.078125 C 333.496094 234.078125 341.46875 226.105469 341.46875 216.308594 C 341.46875 206.511719 333.496094 198.539062 323.699219 198.539062 Z M 323.699219 235.34375 C 313.203125 235.34375 304.664062 226.804688 304.664062 216.308594 C 304.664062 205.8125 313.203125 197.273438 323.699219 197.273438 C 334.195312 197.273438 342.734375 205.8125 342.734375 216.308594 C 342.734375 226.804688 334.195312 235.34375 323.699219 235.34375 " fill-opacity="1" fill-rule="nonzero"/><path fill="#f53725" d="M 334.996094 216.308594 C 334.996094 222.546875 329.9375 227.605469 323.699219 227.605469 C 317.460938 227.605469 312.402344 222.546875 312.402344 216.308594 C 312.402344 210.070312 317.460938 205.011719 323.699219 205.011719 C 329.9375 205.011719 334.996094 210.070312 334.996094 216.308594 " fill-opacity="1" fill-rule="nonzero"/><path fill="#5479f7" d="M 241.914062 59.457031 C 240.425781 59.953125 238.890625 60.402344 237.304688 60.785156 C 227.183594 63.238281 225.121094 60.792969 198.65625 59.867188 C 166.328125 58.742188 155.390625 61.902344 147.773438 65.238281 C 143.429688 67.144531 139.988281 69.179688 133.957031 72.75 C 113.4375 84.894531 108.183594 92.550781 102.84375 90.820312 C 101.617188 90.425781 100.390625 89.53125 99.28125 87.816406 C 91.070312 94.003906 81.71875 92.632812 76.597656 91.136719 C 76.601562 92.292969 76.648438 93.472656 76.753906 94.671875 C 77.058594 98.144531 77.59375 104.222656 81.332031 109.351562 C 89.375 120.382812 109.210938 122.832031 130.398438 115.613281 C 129.054688 118.519531 118.246094 142.976562 130.988281 165.722656 C 144.148438 189.21875 172.945312 193.933594 191.871094 190.710938 C 222.742188 185.449219 247.417969 155.632812 243.203125 137.890625 C 242.472656 134.839844 239.28125 130.425781 232.917969 121.726562 C 225.390625 111.441406 218.585938 103.425781 213.777344 98.03125 C 218.949219 97.714844 236.804688 95.992188 252.359375 81.660156 C 253.773438 80.359375 255.074219 79.03125 256.289062 77.695312 C 247.433594 74.730469 243.554688 65.597656 241.914062 59.457031 " fill-opacity="1" fill-rule="nonzero"/><path fill="#000000" d="M 130.398438 114.980469 C 130.574219 114.980469 130.746094 115.054688 130.867188 115.191406 C 131.035156 115.378906 131.078125 115.648438 130.972656 115.878906 C 128.921875 120.324219 119.316406 143.589844 131.539062 165.414062 C 143.8125 187.324219 171.363281 193.566406 191.765625 190.085938 C 209.015625 187.144531 226.527344 175.628906 236.367188 160.75 C 241.878906 152.417969 244.085938 144.351562 242.582031 138.035156 C 241.875 135.046875 238.511719 130.449219 232.40625 122.101562 C 226.402344 113.894531 219.976562 105.9375 213.308594 98.453125 C 213.144531 98.273438 213.101562 98.015625 213.195312 97.792969 C 213.285156 97.566406 213.5 97.414062 213.742188 97.402344 C 221.980469 96.898438 237.894531 94.125 251.929688 81.195312 C 253.039062 80.175781 254.128906 79.09375 255.179688 77.964844 C 247.183594 74.8125 243.328125 66.796875 241.476562 60.265625 C 240.128906 60.699219 238.777344 61.078125 237.453125 61.402344 C 231.28125 62.898438 227.976562 62.59375 220.730469 61.929688 C 215.867188 61.480469 209.210938 60.871094 198.632812 60.5 C 165.761719 59.355469 155.273438 62.644531 148.027344 65.816406 C 143.714844 67.707031 140.363281 69.691406 134.277344 73.292969 C 125.914062 78.242188 120.046875 82.480469 115.765625 85.570312 C 109.335938 90.214844 106.109375 92.542969 102.648438 91.421875 C 101.320312 90.992188 100.136719 90.082031 99.132812 88.710938 C 91.203125 94.351562 82.339844 93.320312 77.242188 91.972656 C 77.261719 92.867188 77.308594 93.757812 77.382812 94.617188 C 77.691406 98.125 78.210938 103.996094 81.84375 108.976562 C 89.707031 119.765625 109.136719 122.191406 130.191406 115.015625 C 130.257812 114.992188 130.328125 114.980469 130.398438 114.980469 Z M 180.84375 192.25 C 173.421875 192.25 165.867188 191.089844 159.070312 188.839844 C 146.328125 184.617188 136.429688 176.734375 130.433594 166.03125 C 118.835938 145.324219 126.398438 123.402344 129.242188 116.664062 C 121.546875 119.144531 114.082031 120.355469 107.3125 120.355469 C 95.558594 120.355469 85.910156 116.703125 80.820312 109.722656 C 76.980469 104.457031 76.421875 98.128906 76.125 94.730469 C 76.019531 93.566406 75.96875 92.355469 75.964844 91.136719 C 75.964844 90.9375 76.054688 90.75 76.214844 90.628906 C 76.375 90.511719 76.582031 90.472656 76.773438 90.527344 C 81.578125 91.933594 90.839844 93.382812 98.902344 87.308594 C 99.042969 87.203125 99.222656 87.160156 99.394531 87.191406 C 99.566406 87.222656 99.71875 87.324219 99.816406 87.472656 C 100.738281 88.902344 101.824219 89.824219 103.039062 90.21875 C 105.890625 91.140625 108.941406 88.9375 115.023438 84.546875 C 119.328125 81.4375 125.21875 77.183594 133.632812 72.203125 C 139.761719 68.574219 143.136719 66.578125 147.519531 64.660156 C 154.894531 61.429688 165.535156 58.078125 198.679688 59.238281 C 209.289062 59.605469 215.96875 60.21875 220.847656 60.667969 C 228.160156 61.339844 231.1875 61.617188 237.15625 60.171875 C 238.652344 59.808594 240.1875 59.367188 241.714844 58.855469 C 241.878906 58.800781 242.058594 58.816406 242.214844 58.902344 C 242.367188 58.984375 242.480469 59.125 242.523438 59.292969 C 244.28125 65.871094 248.132812 74.292969 256.488281 77.09375 C 256.691406 77.160156 256.847656 77.328125 256.898438 77.53125 C 256.957031 77.738281 256.902344 77.960938 256.757812 78.117188 C 255.484375 79.523438 254.148438 80.875 252.789062 82.128906 C 239.164062 94.675781 223.804688 97.851562 215.101562 98.574219 C 221.496094 105.804688 227.65625 113.464844 233.425781 121.351562 C 240.097656 130.472656 243.078125 134.636719 243.816406 137.746094 C 245.398438 144.402344 243.128906 152.820312 237.425781 161.449219 C 227.398438 176.605469 209.558594 188.339844 191.976562 191.335938 C 188.378906 191.949219 184.628906 192.25 180.84375 192.25 " fill-opacity="1" fill-rule="nonzero"/><path fill="#ffffff" d="M 281.382812 37.402344 L 278.617188 39.167969 L 282.84375 31.5625 C 283.050781 31.191406 283.0625 30.746094 282.882812 30.363281 C 282.46875 29.488281 281.289062 29.347656 280.679688 30.09375 L 275.0625 36.980469 L 278.929688 27.261719 C 279.246094 26.460938 278.945312 25.546875 278.210938 25.097656 C 277.285156 24.527344 276.074219 24.917969 275.648438 25.917969 L 271.953125 34.6875 L 273.234375 27.042969 C 273.386719 26.132812 272.707031 25.242188 271.785156 25.25 C 271.210938 25.253906 270.652344 25.585938 270.4375 26.710938 C 269.914062 29.410156 267.175781 40.199219 267.175781 40.199219 C 267.175781 40.199219 265.988281 39.773438 264.457031 37.695312 C 262.925781 35.621094 262.300781 36.769531 262.300781 36.769531 C 261.363281 39.933594 263.632812 43.394531 265.289062 45.386719 C 259.683594 50.492188 251.914062 56.125 241.914062 59.457031 C 243.554688 65.597656 247.433594 74.730469 256.289062 77.695312 C 265.980469 66.984375 269.550781 55.441406 270.886719 49.628906 C 274.792969 48.023438 281.40625 40.796875 282.875 39.15625 C 283.066406 38.945312 283.171875 38.667969 283.171875 38.382812 C 283.171875 37.464844 282.15625 36.90625 281.382812 37.402344 " fill-opacity="1" fill-rule="nonzero"/><path fill="#000000" d="M 242.679688 59.867188 C 244.476562 66.246094 248.246094 74.117188 256.097656 76.957031 C 264.832031 67.171875 268.625 56.636719 270.273438 49.488281 C 270.316406 49.289062 270.457031 49.121094 270.644531 49.042969 C 274.457031 47.476562 281.109375 40.183594 282.40625 38.734375 C 282.492188 38.636719 282.539062 38.515625 282.539062 38.382812 C 282.539062 38.097656 282.34375 37.964844 282.261719 37.917969 C 282.179688 37.871094 281.960938 37.78125 281.722656 37.9375 L 278.957031 39.703125 C 278.710938 39.859375 278.394531 39.828125 278.183594 39.628906 C 277.972656 39.429688 277.921875 39.113281 278.0625 38.859375 L 282.289062 31.253906 C 282.398438 31.0625 282.40625 30.832031 282.3125 30.632812 C 282.207031 30.417969 282.015625 30.277344 281.777344 30.25 C 281.542969 30.222656 281.320312 30.308594 281.171875 30.496094 L 275.554688 37.382812 C 275.355469 37.625 275.011719 37.6875 274.742188 37.527344 C 274.472656 37.367188 274.359375 37.039062 274.472656 36.746094 L 278.339844 27.027344 C 278.546875 26.511719 278.351562 25.925781 277.878906 25.636719 C 277.597656 25.460938 277.253906 25.421875 276.933594 25.523438 C 276.621094 25.625 276.363281 25.855469 276.234375 26.164062 L 272.539062 34.933594 C 272.410156 35.230469 272.085938 35.386719 271.777344 35.296875 C 271.46875 35.207031 271.277344 34.898438 271.328125 34.585938 L 272.605469 26.9375 C 272.652344 26.664062 272.574219 26.378906 272.394531 26.171875 C 272.304688 26.0625 272.101562 25.882812 271.789062 25.882812 C 271.625 25.886719 271.242188 25.886719 271.058594 26.832031 C 270.535156 29.515625 267.902344 39.914062 267.792969 40.355469 C 267.746094 40.527344 267.632812 40.675781 267.476562 40.761719 C 267.316406 40.84375 267.132812 40.859375 266.964844 40.796875 C 266.824219 40.746094 265.550781 40.242188 263.949219 38.074219 C 263.34375 37.253906 262.96875 37.089844 262.867188 37.085938 C 262.105469 39.996094 264.355469 43.273438 265.777344 44.984375 C 265.992188 45.246094 265.96875 45.628906 265.714844 45.855469 C 258.59375 52.339844 250.847656 57.050781 242.679688 59.867188 Z M 256.289062 78.328125 C 256.222656 78.328125 256.152344 78.316406 256.085938 78.292969 C 247.195312 75.316406 243.140625 66.496094 241.300781 59.621094 C 241.214844 59.296875 241.394531 58.964844 241.714844 58.855469 C 249.75 56.179688 257.386719 51.625 264.417969 45.320312 C 262.578125 42.980469 260.769531 39.703125 261.691406 36.589844 C 261.703125 36.546875 261.722656 36.503906 261.742188 36.464844 C 261.890625 36.191406 262.25 35.855469 262.765625 35.820312 C 263.464844 35.765625 264.1875 36.265625 264.96875 37.320312 C 265.695312 38.308594 266.332031 38.890625 266.773438 39.21875 C 267.421875 36.644531 269.386719 28.804688 269.816406 26.589844 C 270.144531 24.886719 271.1875 24.621094 271.777344 24.617188 C 272.398438 24.601562 272.957031 24.875 273.355469 25.347656 C 273.785156 25.84375 273.964844 26.5 273.859375 27.144531 L 273.46875 29.460938 L 275.066406 25.671875 C 275.339844 25.023438 275.882812 24.527344 276.546875 24.316406 C 277.21875 24.101562 277.945312 24.191406 278.542969 24.558594 C 279.539062 25.171875 279.949219 26.40625 279.515625 27.496094 L 277.171875 33.390625 L 280.1875 29.695312 C 280.613281 29.171875 281.265625 28.910156 281.929688 28.992188 C 282.597656 29.074219 283.164062 29.484375 283.457031 30.089844 C 283.722656 30.65625 283.703125 31.320312 283.398438 31.867188 L 280.386719 37.285156 L 281.039062 36.867188 C 281.59375 36.515625 282.296875 36.488281 282.871094 36.808594 C 283.445312 37.125 283.804688 37.726562 283.804688 38.382812 C 283.804688 38.824219 283.640625 39.25 283.347656 39.578125 C 281.53125 41.609375 275.410156 48.238281 271.433594 50.082031 C 269.699219 57.445312 265.746094 68.183594 256.757812 78.117188 C 256.636719 78.253906 256.464844 78.328125 256.289062 78.328125 " fill-opacity="1" fill-rule="nonzero"/><path fill="#ffffff" d="M 95.007812 63.359375 C 96.828125 60.390625 96.308594 53.257812 94.273438 49.796875 C 92.21875 46.289062 85.144531 36.257812 85.144531 36.257812 C 81.648438 38.992188 86.859375 47.050781 86.859375 47.050781 C 80.816406 50.921875 84.203125 55.03125 84.203125 55.03125 C 81.765625 60.101562 84.871094 61.828125 86.730469 62.394531 C 82.695312 67.808594 76.5625 78.074219 76.597656 91.136719 C 81.71875 92.632812 91.070312 94.003906 99.28125 87.816406 C 96.976562 84.246094 95.1875 77.09375 95.007812 63.359375 " fill-opacity="1" fill-rule="nonzero"/><path fill="#000000" d="M 77.230469 90.65625 C 82.050781 91.988281 90.738281 93.152344 98.4375 87.648438 C 95.894531 83.257812 94.527344 75.097656 94.375 63.367188 C 94.375 63.25 94.40625 63.132812 94.46875 63.03125 C 96.101562 60.367188 95.707031 53.488281 93.726562 50.117188 C 92.003906 47.175781 86.648438 39.5 85.070312 37.25 C 83.476562 39.554688 86.132812 44.757812 87.390625 46.707031 C 87.484375 46.847656 87.515625 47.019531 87.480469 47.1875 C 87.441406 47.351562 87.34375 47.496094 87.203125 47.585938 C 85.273438 48.820312 84.175781 50.1875 83.9375 51.640625 C 83.664062 53.332031 84.683594 54.617188 84.695312 54.628906 C 84.847656 54.820312 84.878906 55.082031 84.773438 55.304688 C 83.90625 57.109375 83.714844 58.589844 84.203125 59.707031 C 84.730469 60.90625 85.96875 61.5 86.917969 61.789062 C 87.113281 61.847656 87.269531 62 87.332031 62.195312 C 87.398438 62.390625 87.363281 62.605469 87.238281 62.769531 C 82.714844 68.84375 77.339844 78.582031 77.230469 90.65625 Z M 85.160156 93.03125 C 81.683594 93.03125 78.609375 92.386719 76.417969 91.742188 C 76.148438 91.664062 75.964844 91.417969 75.964844 91.136719 C 75.933594 78.9375 81.136719 69.042969 85.722656 62.699219 C 84.699219 62.253906 83.609375 61.5 83.042969 60.214844 C 82.433594 58.824219 82.578125 57.101562 83.476562 55.09375 C 83.09375 54.496094 82.417969 53.148438 82.683594 51.460938 C 82.949219 49.769531 84.066406 48.226562 86.003906 46.867188 C 84.863281 44.941406 81.371094 38.40625 84.753906 35.757812 C 84.890625 35.652344 85.066406 35.605469 85.238281 35.632812 C 85.410156 35.65625 85.5625 35.75 85.664062 35.894531 C 85.953125 36.304688 92.773438 45.984375 94.820312 49.472656 C 96.824219 52.890625 97.582031 60.101562 95.644531 63.527344 C 95.8125 75.386719 97.214844 83.445312 99.816406 87.472656 C 99.996094 87.75 99.929688 88.121094 99.664062 88.320312 C 94.863281 91.9375 89.671875 93.03125 85.160156 93.03125 " fill-opacity="1" fill-rule="nonzero"/><path fill="#000000" d="M 90.628906 60.925781 C 90.484375 60.925781 90.335938 60.875 90.214844 60.769531 C 90.089844 60.660156 87.140625 58.0625 88.515625 55.117188 C 89.511719 52.980469 89.378906 52.765625 88.527344 51.371094 L 88.410156 51.179688 C 87.210938 49.210938 88.378906 47.457031 88.429688 47.382812 C 88.53125 47.226562 88.695312 47.128906 88.878906 47.109375 C 89.066406 47.085938 89.246094 47.148438 89.382812 47.273438 L 93.460938 51.046875 C 93.71875 51.28125 93.734375 51.683594 93.496094 51.9375 C 93.257812 52.195312 92.855469 52.210938 92.601562 51.976562 L 89.191406 48.820312 C 89.097656 49.269531 89.101562 49.875 89.492188 50.519531 L 89.609375 50.707031 C 90.625 52.375 90.886719 53.023438 89.664062 55.648438 C 88.6875 57.738281 91.019531 59.792969 91.046875 59.8125 C 91.308594 60.042969 91.339844 60.441406 91.109375 60.707031 C 90.984375 60.851562 90.808594 60.925781 90.628906 60.925781 " fill-opacity="1" fill-rule="nonzero"/><path fill="#000000" d="M 86.667969 57.59375 C 86.132812 57.59375 85.601562 57.386719 85.210938 56.980469 L 83.75 55.46875 C 83.503906 55.21875 83.511719 54.816406 83.761719 54.574219 C 84.015625 54.332031 84.414062 54.335938 84.660156 54.589844 L 86.121094 56.101562 C 86.394531 56.382812 86.839844 56.40625 87.144531 56.160156 C 87.414062 55.9375 87.8125 55.980469 88.035156 56.25 C 88.257812 56.519531 88.21875 56.917969 87.945312 57.140625 C 87.574219 57.445312 87.121094 57.59375 86.667969 57.59375 " fill-opacity="1" fill-rule="nonzero"/><path fill="#000000" d="M 197.21875 130.828125 L 225.898438 189.753906 L 153.832031 193.496094 C 149.878906 180.867188 149.046875 164.617188 151.21875 144.882812 L 197.21875 130.828125 " fill-opacity="1" fill-rule="nonzero"/><path fill="#ffffff" d="M 138.566406 78.898438 C 139.300781 94.25 141.46875 132.554688 145.480469 147.9375 C 145.996094 149.914062 148.179688 150.945312 150.042969 150.105469 C 159.207031 145.96875 185.238281 134.925781 205.042969 133.429688 C 207.867188 133.21875 209.738281 130.414062 208.855469 127.722656 C 205.0625 116.128906 196.582031 88.910156 194.195312 70.304688 C 193.515625 65.015625 189.3125 60.941406 184.089844 60.535156 C 174.449219 59.785156 158.878906 60.335938 144.210938 68.570312 C 140.546875 70.628906 138.367188 74.644531 138.566406 78.898438 " fill-opacity="1" fill-rule="nonzero"/><path fill="#5479f7" d="M 170.9375 39.898438 C 171.832031 44.679688 174.621094 48.171875 177.164062 47.695312 C 179.707031 47.21875 183.460938 42.566406 182.5625 37.785156 C 181.667969 33.003906 176.464844 29.898438 173.921875 30.375 C 171.378906 30.851562 170.042969 35.113281 170.9375 39.898438 " fill-opacity="1" fill-rule="nonzero"/><path fill="#000000" d="M 174.476562 30.960938 C 174.320312 30.960938 174.171875 30.972656 174.039062 31 C 173.050781 31.183594 172.234375 32.148438 171.746094 33.710938 C 171.210938 35.414062 171.144531 37.570312 171.558594 39.78125 C 172.375 44.140625 174.882812 47.476562 177.046875 47.070312 C 179.179688 46.675781 182.789062 42.429688 181.941406 37.902344 C 181.164062 33.746094 176.796875 30.960938 174.476562 30.960938 Z M 176.691406 48.371094 C 173.949219 48.371094 171.226562 44.871094 170.316406 40.015625 C 169.863281 37.601562 169.941406 35.226562 170.535156 33.332031 C 171.171875 31.300781 172.335938 30.03125 173.804688 29.753906 C 176.75 29.203125 182.238281 32.601562 183.1875 37.667969 C 184.121094 42.667969 180.222656 47.765625 177.28125 48.316406 C 177.085938 48.351562 176.886719 48.371094 176.691406 48.371094 " fill-opacity="1" fill-rule="nonzero"/><path fill="#000000" d="M 156.042969 40.796875 C 156.042969 40.796875 153.050781 34.71875 151.996094 33.648438 C 150.941406 32.578125 150.128906 31.445312 153.230469 29.371094 C 156.332031 27.296875 164.433594 21.757812 169.398438 21.792969 C 174.363281 21.828125 177.84375 24.964844 176.316406 27.226562 C 174.789062 29.488281 174.085938 30.441406 175.261719 30.585938 C 176.441406 30.734375 177.09375 32.046875 173.753906 33.980469 C 170.414062 35.914062 158.78125 44.304688 156.042969 40.796875 " fill-opacity="1" fill-rule="nonzero"/><path fill="#ffffff" d="M 173.042969 61.917969 L 171.308594 52.703125 C 176.527344 50.082031 174.425781 46.449219 173.644531 43.546875 C 172.804688 40.421875 170.21875 33.644531 170.21875 33.644531 C 165.933594 36.160156 157.535156 35.410156 157.535156 35.410156 C 157.535156 35.410156 158.738281 37.328125 158.046875 38.273438 C 157.359375 39.21875 157.789062 42.851562 157.789062 42.851562 C 157.789062 42.851562 156.289062 41.441406 154.6875 42.519531 C 153.78125 43.125 154.8125 45.714844 155.550781 47.167969 C 156.292969 48.621094 157.882812 48.90625 157.882812 48.90625 C 157.882812 48.90625 158.144531 48.75 158.679688 50.03125 L 155.832031 65.042969 L 150.238281 67.363281 L 162.683594 69.046875 C 166.613281 69.574219 170.589844 68.519531 173.738281 66.109375 L 178.195312 62.695312 L 173.042969 61.917969 " fill-opacity="1" fill-rule="nonzero"/><path fill="#000000" d="M 158.207031 49.453125 Z M 158.203125 49.453125 Z M 158.203125 49.453125 Z M 158.203125 49.453125 Z M 158.203125 49.453125 Z M 152.644531 67.050781 L 162.769531 68.417969 C 166.503906 68.917969 170.359375 67.898438 173.351562 65.605469 L 176.625 63.101562 L 172.949219 62.546875 C 172.679688 62.503906 172.46875 62.300781 172.421875 62.035156 L 170.683594 52.820312 C 170.632812 52.542969 170.769531 52.265625 171.023438 52.136719 C 175.058594 50.113281 174.253906 47.601562 173.40625 44.945312 C 173.269531 44.515625 173.140625 44.113281 173.03125 43.710938 C 172.363281 41.226562 170.550781 36.324219 169.878906 34.539062 C 166.324219 36.246094 160.910156 36.214844 158.589844 36.109375 C 158.886719 36.878906 159.101562 37.90625 158.558594 38.648438 C 158.226562 39.105469 158.226562 41.148438 158.417969 42.777344 C 158.449219 43.039062 158.3125 43.296875 158.074219 43.417969 C 157.835938 43.535156 157.546875 43.496094 157.355469 43.3125 C 157.308594 43.273438 156.195312 42.269531 155.039062 43.042969 C 154.816406 43.195312 154.996094 44.683594 156.117188 46.878906 C 156.621094 47.871094 157.65625 48.195312 157.929688 48.265625 C 158.003906 48.269531 158.078125 48.28125 158.152344 48.308594 C 158.554688 48.4375 158.886719 48.882812 159.265625 49.785156 C 159.3125 49.902344 159.324219 50.027344 159.300781 50.148438 L 156.453125 65.160156 C 156.414062 65.371094 156.269531 65.546875 156.074219 65.628906 Z M 164.644531 69.808594 C 163.964844 69.808594 163.277344 69.765625 162.601562 69.671875 L 150.152344 67.992188 C 149.867188 67.953125 149.644531 67.730469 149.609375 67.445312 C 149.570312 67.164062 149.730469 66.890625 149.996094 66.78125 L 155.273438 64.589844 L 158.023438 50.105469 C 157.871094 49.765625 157.765625 49.59375 157.703125 49.515625 C 157.359375 49.441406 155.78125 49.007812 154.988281 47.457031 C 154.152344 45.8125 152.957031 42.921875 154.332031 41.996094 C 155.296875 41.34375 156.28125 41.402344 157.046875 41.683594 C 156.972656 40.402344 156.988281 38.652344 157.539062 37.902344 C 157.824219 37.507812 157.410156 36.398438 157 35.746094 C 156.871094 35.542969 156.871094 35.285156 156.996094 35.078125 C 157.121094 34.871094 157.347656 34.757812 157.59375 34.78125 C 157.675781 34.785156 165.839844 35.480469 169.898438 33.097656 C 170.058594 33.003906 170.25 32.984375 170.425781 33.046875 C 170.601562 33.109375 170.742188 33.242188 170.808594 33.417969 C 170.914062 33.695312 173.417969 40.261719 174.257812 43.382812 C 174.359375 43.757812 174.480469 44.144531 174.613281 44.558594 C 175.425781 47.097656 176.527344 50.550781 172.015625 53.042969 L 173.582031 61.359375 L 178.289062 62.070312 C 178.539062 62.105469 178.746094 62.292969 178.808594 62.539062 C 178.871094 62.785156 178.78125 63.042969 178.582031 63.199219 L 174.121094 66.613281 C 171.410156 68.6875 168.042969 69.808594 164.644531 69.808594 " fill-opacity="1" fill-rule="nonzero"/><path fill="#000000" d="M 166.496094 54.429688 C 161.609375 54.429688 159.777344 50.628906 159.753906 50.582031 C 159.609375 50.261719 159.746094 49.886719 160.066406 49.742188 C 160.382812 49.59375 160.757812 49.730469 160.90625 50.046875 C 161.011719 50.269531 163.496094 55.292969 171.0625 52.117188 C 171.386719 51.984375 171.757812 52.136719 171.890625 52.460938 C 172.027344 52.78125 171.875 53.152344 171.550781 53.285156 C 169.589844 54.109375 167.914062 54.429688 166.496094 54.429688 " fill-opacity="1" fill-rule="nonzero"/><path fill="#5479f7" d="M 159.566406 42.414062 C 160.457031 47.195312 159.113281 51.457031 156.570312 51.929688 C 154.023438 52.402344 148.851562 49.414062 147.960938 44.628906 C 147.074219 39.84375 150.808594 35.078125 153.351562 34.605469 C 155.894531 34.132812 158.679688 37.628906 159.566406 42.414062 " fill-opacity="1" fill-rule="nonzero"/><path fill="#000000" d="M 153.820312 35.195312 C 153.703125 35.195312 153.585938 35.207031 153.46875 35.230469 C 151.3125 35.628906 147.761719 40.082031 148.585938 44.511719 C 149.082031 47.203125 150.953125 48.945312 152.023438 49.742188 C 153.554688 50.886719 155.335938 51.515625 156.453125 51.308594 C 158.613281 50.90625 159.753906 46.886719 158.945312 42.527344 C 158.535156 40.3125 157.695312 38.328125 156.585938 36.933594 C 155.683594 35.800781 154.714844 35.195312 153.820312 35.195312 Z M 155.996094 52.613281 C 154.589844 52.613281 152.847656 51.9375 151.265625 50.757812 C 149.160156 49.1875 147.765625 47.050781 147.339844 44.746094 C 146.398438 39.675781 150.292969 34.53125 153.238281 33.984375 C 154.707031 33.710938 156.25 34.476562 157.578125 36.144531 C 158.8125 37.695312 159.742188 39.882812 160.191406 42.296875 C 161.15625 47.503906 159.617188 52.007812 156.683594 52.550781 C 156.464844 52.59375 156.234375 52.613281 155.996094 52.613281 " fill-opacity="1" fill-rule="nonzero"/><path fill="#5479f7" d="M 150.238281 43.902344 C 149.996094 43.902344 149.761719 43.765625 149.65625 43.527344 C 149.515625 43.207031 146.207031 35.609375 149.242188 28.730469 C 150.992188 24.765625 154.492188 21.886719 159.644531 20.175781 C 159.972656 20.066406 160.332031 20.246094 160.441406 20.578125 C 160.554688 20.90625 160.375 21.265625 160.042969 21.375 C 155.246094 22.96875 152.003906 25.613281 150.402344 29.234375 C 147.589844 35.59375 150.78125 42.9375 150.816406 43.011719 C 150.957031 43.332031 150.8125 43.707031 150.492188 43.851562 C 150.410156 43.886719 150.324219 43.902344 150.238281 43.902344 " fill-opacity="1" fill-rule="nonzero"/><path fill="#ffffff" d="M 49.789062 183.890625 L 49.992188 364.921875 L 69.4375 364.921875 L 69.929688 255.554688 C 69.949219 251.261719 73.445312 247.777344 77.78125 247.730469 L 258.625 247.898438 C 262.691406 247.855469 266.019531 251.101562 266.035156 255.125 L 266.164062 362.988281 L 284.640625 362.933594 L 285.972656 183.890625 L 49.789062 183.890625 " fill-opacity="1" fill-rule="nonzero"/><path fill="#f53725" d="M 270.546875 202.328125 L 62.273438 202.328125 C 61.921875 202.328125 61.640625 202.042969 61.640625 201.695312 C 61.640625 201.34375 61.921875 201.0625 62.273438 201.0625 L 270.546875 201.0625 C 270.894531 201.0625 271.179688 201.34375 271.179688 201.695312 C 271.179688 202.042969 270.894531 202.328125 270.546875 202.328125 " fill-opacity="1" fill-rule="nonzero"/><path fill="#5479f7" d="M 285.234375 363.570312 C 284.882812 363.566406 284.601562 363.285156 284.601562 362.933594 L 285.265625 184.742188 L 50.421875 184.742188 L 50.3125 289.984375 C 50.3125 290.332031 50.03125 290.617188 49.679688 290.617188 C 49.332031 290.617188 49.046875 290.332031 49.046875 289.984375 L 49.15625 184.105469 C 49.15625 183.757812 49.4375 183.472656 49.789062 183.472656 L 285.902344 183.472656 C 286.074219 183.472656 286.234375 183.542969 286.351562 183.660156 C 286.46875 183.777344 286.539062 183.941406 286.539062 184.109375 L 285.867188 362.9375 C 285.867188 363.289062 285.585938 363.570312 285.234375 363.570312 " fill-opacity="1" fill-rule="nonzero"/><path fill="#000000" d="M 151.21875 182.738281 C 151.21875 190.734375 131.308594 197.671875 106.746094 197.671875 C 82.183594 197.671875 62.273438 190.734375 62.273438 182.738281 C 62.273438 174.742188 82.183594 168.710938 106.746094 168.710938 C 131.308594 168.710938 151.21875 174.742188 151.21875 182.738281 " fill-opacity="1" fill-rule="nonzero"/><path fill="#5479f7" d="M 148.277344 179.28125 C 148.277344 186.75 129.683594 193.222656 106.746094 193.222656 C 83.808594 193.222656 65.214844 186.75 65.214844 179.28125 C 65.214844 171.8125 83.808594 166.183594 106.746094 166.183594 C 129.683594 166.183594 148.277344 171.8125 148.277344 179.28125 " fill-opacity="1" fill-rule="nonzero"/><path fill="#000000" d="M 106.746094 166.816406 C 84.195312 166.816406 65.847656 172.40625 65.847656 179.28125 C 65.847656 186.371094 84.957031 192.589844 106.746094 192.589844 C 128.535156 192.589844 147.644531 186.371094 147.644531 179.28125 C 147.644531 172.40625 129.296875 166.816406 106.746094 166.816406 Z M 106.746094 193.855469 C 83.496094 193.855469 64.582031 187.316406 64.582031 179.28125 C 64.582031 171.453125 82.707031 165.546875 106.746094 165.546875 C 130.785156 165.546875 148.910156 171.453125 148.910156 179.28125 C 148.910156 187.316406 129.996094 193.855469 106.746094 193.855469 " fill-opacity="1" fill-rule="nonzero"/><path fill="#f53725" d="M 126.765625 176.796875 C 126.765625 179.472656 117.800781 181.644531 106.746094 181.644531 C 95.6875 181.644531 86.726562 179.472656 86.726562 176.796875 C 86.726562 174.117188 95.6875 171.945312 106.746094 171.945312 C 117.800781 171.945312 126.765625 174.117188 126.765625 176.796875 " fill-opacity="1" fill-rule="nonzero"/><path fill="#000000" d="M 108.308594 176.019531 C 108.308594 176.566406 107.609375 177.007812 106.746094 177.007812 C 105.882812 177.007812 105.183594 176.566406 105.183594 176.019531 C 105.183594 175.476562 105.882812 175.039062 106.746094 175.039062 C 107.609375 175.039062 108.308594 175.476562 108.308594 176.019531 " fill-opacity="1" fill-rule="nonzero"/><path fill="#000000" d="M 273.484375 182.738281 C 273.484375 190.734375 253.574219 197.671875 229.011719 197.671875 C 204.449219 197.671875 184.539062 190.734375 184.539062 182.738281 C 184.539062 174.742188 204.449219 168.710938 229.011719 168.710938 C 253.574219 168.710938 273.484375 174.742188 273.484375 182.738281 " fill-opacity="1" fill-rule="nonzero"/><path fill="#5479f7" d="M 270.546875 179.28125 C 270.546875 186.75 251.949219 193.222656 229.011719 193.222656 C 206.074219 193.222656 187.480469 186.75 187.480469 179.28125 C 187.480469 171.8125 206.074219 166.183594 229.011719 166.183594 C 251.949219 166.183594 270.546875 171.8125 270.546875 179.28125 " fill-opacity="1" fill-rule="nonzero"/><path fill="#000000" d="M 229.011719 166.816406 C 206.460938 166.816406 188.113281 172.40625 188.113281 179.28125 C 188.113281 186.371094 207.222656 192.589844 229.011719 192.589844 C 250.800781 192.589844 269.910156 186.371094 269.910156 179.28125 C 269.910156 172.40625 251.5625 166.816406 229.011719 166.816406 Z M 229.011719 193.855469 C 205.761719 193.855469 186.847656 187.316406 186.847656 179.28125 C 186.847656 171.453125 204.976562 165.546875 229.011719 165.546875 C 253.050781 165.546875 271.179688 171.453125 271.179688 179.28125 C 271.179688 187.316406 252.261719 193.855469 229.011719 193.855469 " fill-opacity="1" fill-rule="nonzero"/><path fill="#f53725" d="M 249.03125 176.796875 C 249.03125 179.472656 240.070312 181.644531 229.011719 181.644531 C 217.957031 181.644531 208.992188 179.472656 208.992188 176.796875 C 208.992188 174.117188 217.957031 171.945312 229.011719 171.945312 C 240.070312 171.945312 249.03125 174.117188 249.03125 176.796875 " fill-opacity="1" fill-rule="nonzero"/><path fill="#000000" d="M 230.574219 176.019531 C 230.574219 176.566406 229.875 177.007812 229.011719 177.007812 C 228.148438 177.007812 227.449219 176.566406 227.449219 176.019531 C 227.449219 175.476562 228.148438 175.039062 229.011719 175.039062 C 229.875 175.039062 230.574219 175.476562 230.574219 176.019531 " fill-opacity="1" fill-rule="nonzero"/><path fill="#5479f7" d="M 160.992188 189.515625 L 154.765625 189.515625 L 154.765625 171.945312 L 160.992188 171.945312 L 160.992188 189.515625 " fill-opacity="1" fill-rule="nonzero"/><path fill="#5479f7" d="M 170.992188 189.515625 L 164.765625 189.515625 L 164.765625 171.945312 L 170.992188 171.945312 L 170.992188 189.515625 " fill-opacity="1" fill-rule="nonzero"/><path fill="#5479f7" d="M 180.992188 189.515625 L 174.765625 189.515625 L 174.765625 171.945312 L 180.992188 171.945312 L 180.992188 189.515625 " fill-opacity="1" fill-rule="nonzero"/><path fill="#f53725" d="M 169.128906 232.855469 L 88.273438 232.640625 C 87.925781 232.640625 87.640625 232.355469 87.640625 232.003906 C 87.644531 231.65625 87.925781 231.375 88.277344 231.375 L 169.132812 231.589844 C 169.480469 231.589844 169.765625 231.875 169.761719 232.226562 C 169.761719 232.574219 169.476562 232.855469 169.128906 232.855469 " fill-opacity="1" fill-rule="nonzero"/><path fill="#000000" d="M 88.667969 276.386719 C 83.492188 278.332031 82.34375 284.578125 78.691406 288.171875 C 74.132812 292.65625 67.585938 291.835938 62.160156 289.636719 C 56.089844 287.179688 50.476562 282.351562 43.785156 285.449219 C 38.289062 287.992188 36.671875 293.121094 36.382812 298.746094 C 36.285156 300.671875 36.089844 302.652344 35.449219 304.484375 C 34.925781 305.980469 34.035156 307.390625 32.71875 308.265625 C 30.628906 309.652344 27.921875 309.464844 25.414062 309.46875 C 11.992188 309.488281 32.804688 338.121094 38.492188 340.644531 C 43.84375 343.019531 50.203125 342.996094 55.535156 340.574219 C 58.816406 339.089844 61.664062 336.773438 64.894531 335.179688 C 73.898438 330.730469 81.585938 332.480469 88.765625 324.375 C 94.351562 318.070312 97.671875 310.128906 102.789062 303.480469 C 106.902344 298.132812 111.921875 292.253906 113.875 285.679688 C 115.226562 281.125 113.914062 267.167969 105.882812 270.503906 C 104.390625 271.121094 103.210938 272.296875 101.894531 273.238281 C 97.527344 276.355469 93.207031 274.683594 88.667969 276.386719 " fill-opacity="1" fill-rule="nonzero"/><path fill="#ffffff" d="M 173.820312 251.210938 C 173.820312 251.210938 171.820312 256.460938 172.433594 268.722656 C 173.101562 282.144531 161.082031 265.703125 163.917969 255.433594 C 165.050781 251.320312 167.027344 248.464844 167.21875 247.191406 C 167.304688 246.523438 167.75 245.441406 168.625 244.308594 C 170.566406 241.789062 175.542969 235.667969 175.542969 235.667969 L 195.261719 230.085938 C 195.261719 230.085938 195.378906 233.613281 192.277344 235.035156 L 197.328125 235.503906 C 197.328125 235.503906 196.640625 239.234375 192.707031 239.660156 L 194.664062 242.523438 C 194.664062 242.523438 193.976562 244.398438 190.742188 243.539062 C 187.503906 242.679688 185.660156 244.351562 182.542969 246.898438 C 179.429688 249.453125 173.8125 251.03125 173.8125 251.03125 L 173.820312 251.210938 " fill-opacity="1" fill-rule="nonzero"/><path fill="#000000" d="M 175.910156 236.226562 C 175.125 237.191406 170.867188 242.433594 169.125 244.695312 C 168.285156 245.785156 167.910156 246.765625 167.847656 247.273438 C 167.75 247.90625 167.359375 248.714844 166.820312 249.832031 C 166.128906 251.273438 165.175781 253.242188 164.527344 255.601562 C 162.769531 261.980469 166.867188 270.328125 169.597656 272.566406 C 170.1875 273.046875 170.695312 273.238281 170.992188 273.089844 C 171.472656 272.847656 171.941406 271.578125 171.796875 268.753906 C 171.230469 257.390625 172.875 252.011719 173.183594 251.113281 L 173.179688 251.058594 C 173.167969 250.761719 173.359375 250.5 173.640625 250.421875 C 173.695312 250.40625 179.164062 248.847656 182.144531 246.410156 L 182.53125 246.09375 C 185.410156 243.726562 187.492188 242.019531 190.90625 242.925781 C 192.792969 243.429688 193.601562 242.886719 193.910156 242.539062 L 192.183594 240.015625 C 192.058594 239.832031 192.039062 239.59375 192.132812 239.394531 C 192.226562 239.191406 192.417969 239.050781 192.640625 239.027344 C 195.101562 238.761719 196.113281 237.042969 196.496094 236.0625 L 192.21875 235.664062 C 191.933594 235.640625 191.703125 235.425781 191.652344 235.140625 C 191.605469 234.859375 191.753906 234.578125 192.011719 234.460938 C 193.835938 233.625 194.390625 231.957031 194.558594 230.945312 Z M 170.765625 274.40625 C 170.25 274.40625 169.59375 274.199219 168.796875 273.546875 C 165.417969 270.777344 161.535156 261.679688 163.304688 255.265625 C 163.988281 252.796875 164.964844 250.765625 165.679688 249.28125 C 166.132812 248.339844 166.527344 247.527344 166.589844 247.097656 C 166.707031 246.210938 167.28125 245.015625 168.125 243.921875 C 170.046875 241.425781 175.003906 235.332031 175.054688 235.269531 C 175.136719 235.167969 175.25 235.09375 175.371094 235.058594 L 195.089844 229.480469 C 195.277344 229.425781 195.480469 229.460938 195.636719 229.578125 C 195.792969 229.691406 195.890625 229.871094 195.898438 230.066406 C 195.902344 230.199219 195.957031 232.773438 194.089844 234.566406 L 197.386719 234.871094 C 197.5625 234.886719 197.726562 234.980469 197.832031 235.121094 C 197.941406 235.261719 197.980469 235.441406 197.949219 235.617188 C 197.710938 236.921875 196.535156 239.347656 193.777344 240.101562 L 195.1875 242.164062 C 195.300781 242.335938 195.328125 242.546875 195.257812 242.742188 C 195.222656 242.839844 194.332031 245.148438 190.578125 244.152344 C 187.792969 243.410156 186.210938 244.710938 183.335938 247.070312 L 182.945312 247.390625 C 180.214844 249.625 175.742188 251.105469 174.382812 251.523438 C 174.136719 252.25 172.511719 257.578125 173.0625 268.691406 C 173.21875 271.824219 172.726562 273.632812 171.5625 274.21875 C 171.351562 274.324219 171.085938 274.40625 170.765625 274.40625 " fill-opacity="1" fill-rule="nonzero"/><path fill="#ffffff" d="M 183.800781 232.726562 L 199.71875 215.984375 L 167.589844 216.265625 Z M 183.800781 232.726562 " fill-opacity="1" fill-rule="nonzero"/><path fill="#000000" d="M 169.089844 216.886719 L 183.792969 231.816406 L 198.230469 216.632812 Z M 183.800781 233.359375 C 183.632812 233.359375 183.46875 233.292969 183.351562 233.171875 L 167.140625 216.710938 C 166.960938 216.53125 166.910156 216.257812 167.007812 216.023438 C 167.105469 215.789062 167.332031 215.636719 167.585938 215.632812 L 199.714844 215.351562 C 199.984375 215.34375 200.199219 215.5 200.300781 215.734375 C 200.402344 215.964844 200.351562 216.234375 200.175781 216.421875 L 184.257812 233.164062 C 184.140625 233.289062 183.976562 233.359375 183.804688 233.359375 C 183.804688 233.359375 183.800781 233.359375 183.800781 233.359375 " fill-opacity="1" fill-rule="nonzero"/><path fill="#5479f7" d="M 183.761719 228.488281 L 192.570312 219.226562 L 174.796875 219.382812 Z M 183.761719 228.488281 " fill-opacity="1" fill-rule="nonzero"/><path fill="#ffffff" d="M 183.800781 232.726562 L 183.972656 252.15625 L 183.800781 232.726562 " fill-opacity="1" fill-rule="nonzero"/><path fill="#000000" d="M 183.96875 252.789062 C 183.625 252.789062 183.339844 252.507812 183.335938 252.160156 L 183.167969 232.734375 C 183.164062 232.382812 183.445312 232.097656 183.796875 232.09375 C 183.796875 232.09375 183.800781 232.09375 183.800781 232.09375 C 184.148438 232.09375 184.429688 232.375 184.433594 232.722656 L 184.605469 252.148438 C 184.605469 252.5 184.328125 252.785156 183.976562 252.789062 C 183.972656 252.789062 183.972656 252.789062 183.96875 252.789062 " fill-opacity="1" fill-rule="nonzero"/><path fill="#ffffff" d="M 191.574219 256.328125 L 176.441406 256.460938 L 191.574219 256.328125 " fill-opacity="1" fill-rule="nonzero"/><path fill="#000000" d="M 176.441406 257.09375 C 176.09375 257.09375 175.808594 256.8125 175.808594 256.464844 C 175.804688 256.117188 176.085938 255.832031 176.4375 255.828125 L 191.570312 255.695312 C 191.570312 255.695312 191.574219 255.695312 191.574219 255.695312 C 191.921875 255.695312 192.207031 255.972656 192.207031 256.320312 C 192.210938 256.671875 191.929688 256.957031 191.582031 256.960938 L 176.449219 257.09375 C 176.445312 257.09375 176.445312 257.09375 176.441406 257.09375 " fill-opacity="1" fill-rule="nonzero"/><path fill="#ffffff" d="M 177.753906 238.996094 L 189.734375 237.125 C 189.734375 237.125 188.96875 241.144531 181.238281 243.527344 C 173.503906 245.90625 177.753906 238.996094 177.753906 238.996094 " fill-opacity="1" fill-rule="nonzero"/><path fill="#000000" d="M 181.238281 244.160156 C 180.964844 244.160156 180.714844 243.984375 180.632812 243.714844 C 180.53125 243.378906 180.71875 243.023438 181.050781 242.921875 C 186.019531 241.390625 187.96875 239.167969 188.699219 237.925781 L 177.851562 239.625 C 177.507812 239.675781 177.183594 239.441406 177.128906 239.097656 C 177.074219 238.75 177.308594 238.425781 177.65625 238.371094 L 189.640625 236.5 C 189.84375 236.46875 190.046875 236.535156 190.191406 236.683594 C 190.335938 236.832031 190.398438 237.039062 190.359375 237.242188 C 190.324219 237.421875 189.429688 241.667969 181.421875 244.132812 C 181.363281 244.148438 181.300781 244.160156 181.238281 244.160156 " fill-opacity="1" fill-rule="nonzero"/><g clip-path="url(#0815a1efa7)"><path fill="#5479f7" d="M 118.269531 394.59375 C 120.054688 393.9375 121.304688 392.3125 121.554688 390.421875 C 122.410156 383.910156 123.058594 376.601562 123.078125 372.960938 C 123.117188 364.785156 123.640625 352.785156 125.949219 337.769531 C 128.386719 321.902344 114.203125 313.558594 114.203125 313.558594 C 90.519531 308.269531 64.800781 321.070312 64.800781 321.070312 C 70.636719 351.082031 65.058594 367.519531 63.375 377.933594 C 63.183594 379.128906 62.421875 383.472656 62.34375 387.460938 C 62.28125 390.769531 64.644531 393.628906 67.90625 394.152344 C 86.453125 397.113281 104.707031 399.601562 118.269531 394.59375 " fill-opacity="1" fill-rule="nonzero"/></g><path fill="#5479f7" d="M 103.691406 326.511719 L 110.195312 317.984375 C 114.113281 311.550781 122.773438 309.136719 129.773438 306.382812 C 158.789062 294.957031 161.347656 264.132812 163.671875 251.816406 L 173.386719 255.238281 C 173.386719 255.238281 186.667969 323.601562 120.871094 343.515625 L 103.691406 326.511719 " fill-opacity="1" fill-rule="nonzero"/><path fill="#5479f7" d="M 30.402344 246.710938 C 40.4375 280.859375 66.074219 317.921875 74.875 317.136719 C 74.875 317.136719 79.070312 344.855469 70.765625 345.777344 C 65.46875 346.363281 52.816406 336.078125 35.085938 310.238281 C 19.359375 287.316406 23.410156 248.980469 23.410156 248.980469 L 30.402344 246.710938 " fill-opacity="1" fill-rule="nonzero"/><g clip-path="url(#3fb54b3dfd)"><path fill="#000000" d="M 121.0625 392.683594 C 120.96875 392.683594 120.875 392.664062 120.78125 392.621094 C 120.46875 392.46875 120.339844 392.089844 120.492188 391.773438 C 120.714844 391.324219 120.859375 390.839844 120.925781 390.339844 C 121.785156 383.796875 122.425781 376.488281 122.441406 372.957031 C 122.496094 362.964844 123.253906 352.535156 124.699219 341.964844 C 124.734375 341.730469 124.890625 341.53125 125.117188 341.453125 C 135.121094 337.898438 143.75 332.894531 150.765625 326.589844 C 151.023438 326.355469 151.425781 326.375 151.660156 326.636719 C 151.890625 326.894531 151.871094 327.296875 151.609375 327.53125 C 144.558594 333.871094 135.910156 338.910156 125.902344 342.515625 C 124.496094 352.902344 123.757812 363.144531 123.710938 372.964844 C 123.691406 376.597656 123.0625 383.808594 122.179688 390.507812 C 122.097656 391.140625 121.914062 391.753906 121.628906 392.332031 C 121.519531 392.554688 121.296875 392.683594 121.0625 392.683594 " fill-opacity="1" fill-rule="nonzero"/></g><g clip-path="url(#a89523e330)"><path fill="#000000" d="M 62.34375 388.09375 C 62.339844 388.09375 62.335938 388.09375 62.332031 388.09375 C 61.984375 388.085938 61.703125 387.796875 61.710938 387.445312 C 61.785156 383.703125 62.449219 379.664062 62.699219 378.140625 L 62.75 377.832031 C 63.019531 376.167969 63.394531 374.316406 63.789062 372.363281 C 65.160156 365.589844 66.859375 357.183594 66.757812 345.503906 C 59.117188 342.007812 47.417969 329.335938 34.5625 310.597656 C 18.890625 287.746094 22.738281 249.300781 22.78125 248.914062 C 22.804688 248.664062 22.976562 248.457031 23.214844 248.378906 L 30.207031 246.109375 C 30.371094 246.058594 30.546875 246.070312 30.699219 246.148438 C 30.851562 246.230469 30.964844 246.367188 31.011719 246.53125 C 41.238281 281.351562 66.238281 316.421875 74.554688 316.507812 C 84.699219 313.105469 99.742188 309.746094 114.128906 312.894531 C 117.695312 310.242188 122.160156 308.574219 126.480469 306.957031 C 127.523438 306.566406 128.546875 306.183594 129.539062 305.792969 C 155.660156 295.507812 160.050781 269.40625 162.410156 255.382812 C 162.632812 254.050781 162.84375 252.789062 163.050781 251.695312 C 163.085938 251.515625 163.195312 251.359375 163.355469 251.265625 C 163.515625 251.171875 163.710938 251.15625 163.882812 251.214844 L 173.597656 254.644531 C 173.824219 254.722656 173.980469 254.917969 174.015625 255.152344 C 174.0625 255.484375 178.597656 288.800781 164.738281 311.414062 C 164.554688 311.710938 164.164062 311.804688 163.867188 311.621094 C 163.570312 311.441406 163.476562 311.050781 163.65625 310.75 C 176.484375 289.824219 173.265625 259.441406 172.8125 255.707031 L 164.160156 252.660156 C 164 253.558594 163.832031 254.550781 163.65625 255.589844 C 161.257812 269.863281 156.792969 296.425781 130.003906 306.972656 C 129.003906 307.367188 127.972656 307.75 126.921875 308.144531 C 122.585938 309.765625 118.101562 311.445312 114.640625 314.09375 C 114.445312 314.238281 114.1875 314.261719 113.972656 314.15625 C 99.789062 311.015625 84.882812 314.371094 74.863281 317.742188 C 74.800781 317.761719 74.738281 317.773438 74.675781 317.773438 C 74.648438 317.773438 74.621094 317.773438 74.59375 317.773438 C 64.9375 317.773438 40.003906 281.042969 29.980469 247.511719 L 24 249.453125 C 23.632812 253.625 21.058594 288.675781 35.609375 309.878906 C 53.984375 336.664062 64.128906 343.019531 67.636719 344.507812 C 67.867188 344.601562 68.019531 344.832031 68.023438 345.082031 C 68.167969 357.109375 66.355469 366.070312 65.03125 372.613281 C 64.636719 374.554688 64.265625 376.394531 64 378.035156 L 63.949219 378.347656 C 63.703125 379.84375 63.046875 383.820312 62.976562 387.472656 C 62.972656 387.816406 62.6875 388.09375 62.34375 388.09375 " fill-opacity="1" fill-rule="nonzero"/></g><path fill="#ffffff" d="M 30.238281 248.757812 C 30.78125 248.414062 31.308594 247.992188 31.800781 247.488281 C 34.304688 244.9375 38.382812 238.65625 34.613281 235.519531 C 31.78125 233.167969 26.726562 234.445312 23.871094 236.039062 C 20.296875 238.03125 21.15625 243.402344 22.65625 246.523438 C 24.320312 249.984375 27.488281 250.472656 30.238281 248.757812 " fill-opacity="1" fill-rule="nonzero"/><path fill="#000000" d="M 30.238281 248.757812 L 30.242188 248.757812 Z M 30.511719 234.867188 C 28.214844 234.867188 25.726562 235.730469 24.179688 236.59375 C 20.964844 238.386719 21.890625 243.464844 23.226562 246.246094 C 23.90625 247.660156 24.890625 248.589844 26.070312 248.933594 C 27.253906 249.277344 28.613281 249.023438 29.902344 248.21875 C 30.40625 247.902344 30.894531 247.507812 31.351562 247.042969 C 33.101562 245.261719 35.652344 241.550781 35.503906 238.644531 C 35.449219 237.546875 35.023438 236.6875 34.207031 236.007812 C 33.214844 235.183594 31.898438 234.867188 30.511719 234.867188 Z M 27.140625 250.347656 C 26.65625 250.347656 26.179688 250.285156 25.71875 250.152344 C 24.183594 249.703125 22.925781 248.546875 22.085938 246.796875 C 20.488281 243.472656 19.5625 237.71875 23.5625 235.488281 C 26.449219 233.878906 31.882812 232.425781 35.015625 235.035156 C 36.105469 235.9375 36.695312 237.132812 36.769531 238.578125 C 36.949219 242.152344 33.894531 246.257812 32.253906 247.929688 C 31.730469 248.464844 31.164062 248.925781 30.574219 249.292969 C 29.457031 249.988281 28.273438 250.347656 27.140625 250.347656 " fill-opacity="1" fill-rule="nonzero"/><path fill="#ffffff" d="M 81.171875 317.074219 L 105.171875 324.003906 L 108.027344 312.953125 L 100.316406 311.804688 L 100.421875 308.855469 C 104.695312 308.929688 107.484375 307.191406 108.671875 306.242188 C 109.089844 305.910156 109.300781 305.386719 109.242188 304.855469 L 108.492188 298.148438 C 109.332031 297.65625 110.5 296.125 109.058594 294.847656 C 107.613281 293.570312 105.039062 286.472656 105.039062 286.472656 C 101.410156 280.589844 98.976562 287.6875 95.5625 287.773438 C 93.199219 287.832031 91.730469 289.039062 92.125 292.1875 C 92.519531 295.339844 91.105469 293.566406 89.550781 292.4375 C 87.996094 291.3125 86.738281 291.800781 87.238281 294.683594 C 87.734375 297.574219 90.855469 299.753906 90.855469 299.753906 L 91.160156 300.695312 C 90.144531 304.632812 87.703125 314.878906 87.703125 314.878906 L 81.171875 317.074219 " fill-opacity="1" fill-rule="nonzero"/><path fill="#000000" d="M 83.296875 317.027344 L 104.71875 323.214844 L 107.238281 313.472656 L 100.222656 312.429688 C 99.902344 312.382812 99.671875 312.105469 99.683594 311.78125 L 99.789062 308.832031 C 99.800781 308.492188 100.082031 308.222656 100.421875 308.222656 C 100.425781 308.222656 100.429688 308.222656 100.433594 308.222656 C 104.476562 308.300781 107.078125 306.699219 108.277344 305.746094 C 108.523438 305.550781 108.648438 305.242188 108.613281 304.925781 L 107.863281 298.21875 C 107.835938 297.96875 107.957031 297.726562 108.171875 297.601562 C 108.585938 297.359375 109.050781 296.820312 109.101562 296.292969 C 109.136719 295.945312 108.984375 295.628906 108.636719 295.320312 C 107.15625 294.007812 104.824219 287.738281 104.464844 286.75 C 103.71875 285.558594 103 284.898438 102.320312 284.792969 C 101.402344 284.644531 100.417969 285.488281 99.375 286.375 C 98.222656 287.355469 97.027344 288.371094 95.578125 288.40625 C 94.507812 288.433594 93.734375 288.714844 93.277344 289.246094 C 92.765625 289.839844 92.589844 290.804688 92.753906 292.109375 C 92.898438 293.285156 92.871094 294.136719 92.25 294.480469 C 91.558594 294.863281 90.859375 294.292969 89.96875 293.570312 C 89.710938 293.363281 89.445312 293.144531 89.179688 292.953125 C 88.605469 292.539062 88.179688 292.453125 88.023438 292.550781 C 87.851562 292.65625 87.625 293.203125 87.859375 294.578125 C 88.304688 297.164062 91.191406 299.214844 91.21875 299.234375 C 91.332031 299.3125 91.414062 299.429688 91.457031 299.558594 L 91.765625 300.5 C 91.800781 300.613281 91.804688 300.738281 91.773438 300.851562 C 90.769531 304.742188 88.34375 314.925781 88.320312 315.027344 C 88.269531 315.238281 88.113281 315.410156 87.90625 315.480469 Z M 105.171875 324.636719 C 105.113281 324.636719 105.054688 324.628906 104.996094 324.613281 L 80.996094 317.683594 C 80.730469 317.605469 80.546875 317.363281 80.539062 317.089844 C 80.53125 316.8125 80.707031 316.5625 80.972656 316.472656 L 87.167969 314.390625 C 87.59375 312.605469 89.578125 304.3125 90.503906 300.714844 L 90.316406 300.144531 C 89.613281 299.609375 87.082031 297.523438 86.613281 294.792969 C 86.316406 293.082031 86.566406 291.964844 87.355469 291.476562 C 87.746094 291.230469 88.597656 290.96875 89.921875 291.925781 C 90.21875 292.140625 90.5 292.367188 90.769531 292.589844 C 91.003906 292.78125 91.320312 293.039062 91.558594 293.195312 C 91.5625 293.011719 91.554688 292.71875 91.496094 292.265625 C 91.285156 290.589844 91.5625 289.296875 92.316406 288.417969 C 93.019531 287.605469 94.105469 287.175781 95.546875 287.140625 C 96.550781 287.113281 97.570312 286.25 98.554688 285.410156 C 99.769531 284.375 101.027344 283.308594 102.519531 283.542969 C 103.605469 283.714844 104.605469 284.5625 105.578125 286.140625 C 105.601562 286.175781 105.617188 286.21875 105.632812 286.257812 C 106.609375 288.941406 108.515625 293.519531 109.476562 294.375 C 110.300781 295.105469 110.414062 295.890625 110.363281 296.417969 C 110.277344 297.253906 109.746094 297.992188 109.164062 298.453125 L 109.871094 304.785156 C 109.957031 305.535156 109.65625 306.269531 109.066406 306.734375 C 107.800781 307.746094 105.113281 309.398438 101.03125 309.484375 L 100.96875 311.261719 L 108.121094 312.324219 C 108.296875 312.351562 108.457031 312.453125 108.554688 312.601562 C 108.652344 312.75 108.683594 312.9375 108.640625 313.109375 L 105.785156 324.164062 C 105.742188 324.328125 105.632812 324.472656 105.484375 324.554688 C 105.386719 324.609375 105.28125 324.636719 105.171875 324.636719 " fill-opacity="1" fill-rule="nonzero"/><path fill="#000000" d="M 100 309.511719 C 96.390625 309.511719 94.507812 305.214844 94.425781 305.023438 C 94.285156 304.703125 94.4375 304.328125 94.757812 304.191406 C 95.078125 304.054688 95.449219 304.203125 95.589844 304.523438 C 95.605469 304.566406 97.363281 308.546875 100.355469 308.226562 C 100.707031 308.191406 101.015625 308.4375 101.050781 308.785156 C 101.089844 309.136719 100.835938 309.449219 100.488281 309.484375 C 100.324219 309.5 100.160156 309.511719 100 309.511719 " fill-opacity="1" fill-rule="nonzero"/><path fill="#ffffff" d="M 233.523438 311.707031 C 231.671875 309.851562 232.058594 308.683594 232.394531 308.597656 C 232.710938 308.523438 234.59375 307.59375 235.179688 307.078125 C 236.582031 305.84375 237.035156 304.066406 236.191406 303.105469 C 235.742188 302.589844 235.011719 302.417969 234.214844 302.554688 C 234.433594 299.980469 233.695312 298.753906 233.082031 296.984375 C 230.964844 290.890625 225.65625 292.160156 223.738281 294.347656 C 222.0625 296.257812 222.183594 297.898438 218.550781 299.742188 C 218.203125 299.917969 218.210938 300.445312 218.402344 300.785156 L 219.355469 302.722656 C 219.570312 303.105469 219.484375 304.042969 219.351562 304.464844 C 218.933594 305.765625 217.945312 308.488281 218.222656 309.015625 C 218.765625 310.042969 223.023438 311.582031 223.023438 311.582031 L 230.570312 323 C 230.257812 325.402344 228.890625 326.753906 227.863281 327.445312 C 227.230469 327.871094 227.222656 328.804688 227.871094 329.210938 C 229.089844 329.976562 231.546875 331.167969 236.484375 332.917969 C 243.015625 335.230469 250.097656 326.640625 250.097656 326.640625 C 250.097656 326.640625 248.109375 326.347656 233.523438 311.707031 " fill-opacity="1" fill-rule="nonzero"/><path fill="#000000" d="M 218.8125 308.789062 Z M 218.808594 308.757812 C 219.152344 309.261719 221.34375 310.300781 223.238281 310.984375 C 223.367188 311.03125 223.480469 311.117188 223.554688 311.230469 L 231.097656 322.648438 C 231.183594 322.777344 231.21875 322.929688 231.199219 323.082031 C 230.859375 325.691406 229.390625 327.179688 228.214844 327.96875 C 228.035156 328.089844 228.015625 328.269531 228.019531 328.339844 C 228.019531 328.421875 228.046875 328.574219 228.207031 328.675781 C 229.273438 329.347656 231.613281 330.523438 236.695312 332.320312 C 241.773438 334.121094 247.382812 328.660156 249.089844 326.820312 C 247.035156 325.503906 242.058594 321.171875 233.074219 312.15625 C 231.324219 310.398438 231.417969 309.1875 231.542969 308.75 C 231.648438 308.351562 231.914062 308.066406 232.246094 307.984375 C 232.515625 307.90625 234.265625 307.039062 234.761719 306.601562 C 235.878906 305.617188 236.316406 304.207031 235.714844 303.523438 C 235.433594 303.199219 234.925781 303.074219 234.324219 303.175781 C 234.128906 303.210938 233.933594 303.152344 233.785156 303.019531 C 233.644531 302.890625 233.570312 302.695312 233.585938 302.5 C 233.75 300.546875 233.324219 299.433594 232.832031 298.144531 C 232.714844 297.835938 232.597656 297.523438 232.484375 297.191406 C 231.703125 294.945312 230.390625 293.582031 228.691406 293.25 C 226.929688 292.90625 225.101562 293.75 224.214844 294.765625 C 223.730469 295.316406 223.410156 295.839844 223.070312 296.390625 C 222.304688 297.640625 221.515625 298.933594 218.90625 300.273438 C 218.90625 300.324219 218.917969 300.40625 218.957031 300.476562 L 219.921875 302.445312 C 220.25 303.03125 220.109375 304.179688 219.953125 304.65625 C 219.886719 304.859375 219.808594 305.097656 219.722656 305.355469 C 219.433594 306.226562 218.765625 308.242188 218.808594 308.757812 Z M 238.835938 333.949219 C 237.984375 333.949219 237.128906 333.816406 236.273438 333.515625 C 232.105469 332.039062 229.164062 330.773438 227.535156 329.75 C 227.054688 329.449219 226.761719 328.929688 226.753906 328.363281 C 226.742188 327.785156 227.027344 327.242188 227.507812 326.921875 C 228.429688 326.296875 229.578125 325.144531 229.910156 323.144531 L 222.613281 312.105469 C 221.375 311.648438 218.242188 310.402344 217.664062 309.3125 C 217.351562 308.722656 217.660156 307.546875 218.523438 304.957031 C 218.605469 304.703125 218.683594 304.46875 218.746094 304.269531 C 218.867188 303.894531 218.882812 303.199219 218.800781 303.03125 L 217.835938 301.0625 C 217.640625 300.71875 217.582031 300.25 217.699219 299.867188 C 217.792969 299.558594 217.996094 299.316406 218.265625 299.175781 C 220.613281 297.988281 221.25 296.941406 221.988281 295.730469 C 222.34375 295.15625 222.707031 294.5625 223.261719 293.929688 C 224.351562 292.683594 226.59375 291.550781 228.933594 292.007812 C 230.445312 292.300781 232.496094 293.367188 233.679688 296.777344 C 233.789062 297.09375 233.902344 297.394531 234.015625 297.691406 C 234.480469 298.910156 234.921875 300.070312 234.886719 301.878906 C 235.609375 301.917969 236.238281 302.195312 236.667969 302.6875 C 237.757812 303.929688 237.285156 306.066406 235.597656 307.554688 C 235.03125 308.050781 233.410156 308.890625 232.746094 309.148438 C 232.71875 309.402344 232.855469 310.144531 233.96875 311.261719 C 246.867188 324.203125 249.832031 325.835938 250.21875 326.011719 C 250.46875 326.007812 250.617188 326.132812 250.726562 326.351562 C 250.84375 326.574219 250.746094 326.84375 250.585938 327.042969 C 250.324219 327.363281 244.8125 333.949219 238.835938 333.949219 " fill-opacity="1" fill-rule="nonzero"/><path fill="#000000" d="M 225.859375 296.046875 C 225.859375 296.046875 219.1875 290.71875 221.050781 286.433594 C 221.214844 286.058594 221.714844 284.875 222.863281 284.355469 C 225.21875 283.285156 228.269531 285.863281 228.953125 286.433594 C 234.871094 291.378906 238.816406 291.863281 241.328125 294.457031 C 242.238281 295.398438 243.253906 297.136719 243.132812 300.609375 C 242.648438 303.085938 241.628906 304.394531 240.785156 305.132812 C 239.058594 306.648438 237.566406 306.210938 236.34375 307.808594 C 234.964844 309.601562 235.828125 311.488281 234.871094 312.046875 C 234.128906 312.480469 232.507812 312 228.695312 308.210938 C 230.976562 305.65625 232.101562 303.132812 231.296875 301.867188 C 231.066406 301.511719 230.425781 300.902344 229.746094 300.90625 C 228.847656 300.914062 228.257812 301.867188 228.257812 301.867188 L 225.859375 296.046875 " fill-opacity="1" fill-rule="nonzero"/><g clip-path="url(#8de21e3a29)"><path fill="#ffffff" d="M 216.164062 355.796875 L 221.292969 394.78125 C 221.292969 394.78125 238.558594 395.484375 252.199219 394.339844 C 252.199219 394.339844 230.992188 354.640625 216.164062 355.796875 " fill-opacity="1" fill-rule="nonzero"/></g><g clip-path="url(#4413bacd9c)"><path fill="#000000" d="M 221.097656 393.9375 C 220.785156 393.9375 220.511719 393.707031 220.472656 393.386719 L 215.539062 355.878906 C 215.515625 355.707031 215.5625 355.53125 215.671875 355.398438 C 215.78125 355.261719 215.941406 355.175781 216.117188 355.164062 C 229.203125 354.140625 246.652344 383.175781 251.683594 392.097656 C 251.855469 392.402344 251.75 392.789062 251.445312 392.960938 C 251.140625 393.132812 250.753906 393.027344 250.582031 392.71875 C 240.628906 375.082031 226.671875 356.519531 216.882812 356.40625 L 221.726562 393.222656 C 221.773438 393.570312 221.527344 393.886719 221.179688 393.933594 C 221.15625 393.9375 221.125 393.9375 221.097656 393.9375 " fill-opacity="1" fill-rule="nonzero"/></g><g clip-path="url(#3a569fbcc8)"><path fill="#000000" d="M 223.207031 362.847656 C 234.636719 370.832031 230.609375 383.085938 238.878906 395.628906 C 263.628906 397.511719 286.632812 398.234375 305.613281 396.292969 C 308.898438 395.957031 311.257812 392.96875 310.816406 389.683594 C 310.816406 389.667969 310.8125 389.652344 310.8125 389.636719 C 310.023438 383.78125 307.300781 379.472656 297.199219 366.882812 C 289.832031 357.703125 288.820312 356.984375 286.566406 353.992188 C 281.679688 347.488281 276.089844 337.082031 274.101562 320.402344 C 277.425781 314.109375 284.023438 299.476562 282.664062 280.230469 C 280.808594 253.921875 265.363281 237.167969 260.890625 232.632812 C 258.496094 234.398438 256.101562 236.160156 253.710938 237.921875 C 256.375 242.476562 264.039062 256.878906 261.710938 276.109375 C 259.441406 294.816406 249.117188 306.53125 245.824219 310.160156 C 241.316406 315.128906 223.878906 332.746094 197.605469 331.199219 C 177.59375 330.019531 164.382812 318.421875 160.347656 314.574219 C 157.488281 316.597656 154.625 318.625 151.761719 320.652344 C 162.539062 345.703125 175.339844 354.359375 184.878906 357.699219 C 201.285156 363.445312 211.460938 354.648438 223.207031 362.847656 " fill-opacity="1" fill-rule="nonzero"/></g><path fill="#ffffff" d="M 153.410156 314.777344 L 145.097656 309.820312 C 144.320312 309.359375 143.6875 308.6875 143.269531 307.882812 L 141.195312 303.890625 C 140.890625 303.300781 141.609375 302.710938 142.121094 303.132812 L 146.746094 306.898438 C 147.398438 307.429688 148.160156 307.804688 148.976562 307.996094 L 155.65625 309.640625 L 157.183594 306.523438 C 157.636719 305.601562 158.589844 305.039062 159.609375 305.085938 L 157.875 312.625 L 159.914062 319.695312 L 154.753906 321.355469 L 153.410156 314.777344 " fill-opacity="1" fill-rule="nonzero"/><path fill="#000000" d="M 141.808594 303.691406 L 143.832031 307.59375 C 144.195312 308.292969 144.746094 308.875 145.421875 309.277344 L 153.734375 314.234375 C 153.886719 314.324219 153.996094 314.476562 154.03125 314.652344 L 155.234375 320.535156 L 159.136719 319.28125 L 157.269531 312.804688 C 157.238281 312.699219 157.234375 312.589844 157.257812 312.484375 L 158.78125 305.851562 C 158.34375 306.023438 157.96875 306.355469 157.75 306.800781 L 156.222656 309.921875 C 156.089844 310.191406 155.792969 310.328125 155.503906 310.257812 L 148.828125 308.609375 C 147.929688 308.402344 147.070312 307.976562 146.347656 307.390625 Z M 154.753906 321.988281 C 154.644531 321.988281 154.535156 321.960938 154.4375 321.902344 C 154.28125 321.8125 154.171875 321.660156 154.132812 321.484375 L 152.847656 315.179688 L 144.773438 310.367188 C 143.894531 309.839844 143.179688 309.085938 142.710938 308.175781 L 140.636719 304.183594 C 140.359375 303.652344 140.492188 303.015625 140.953125 302.640625 C 141.417969 302.265625 142.0625 302.265625 142.523438 302.640625 L 147.148438 306.40625 C 147.71875 306.875 148.402344 307.210938 149.125 307.378906 L 155.3125 308.90625 L 156.617188 306.246094 C 157.179688 305.097656 158.359375 304.394531 159.640625 304.453125 C 159.824219 304.464844 160 304.554688 160.113281 304.703125 C 160.226562 304.855469 160.269531 305.046875 160.226562 305.230469 L 158.53125 312.609375 L 160.523438 319.519531 C 160.617188 319.847656 160.433594 320.195312 160.109375 320.296875 L 154.949219 321.960938 C 154.886719 321.980469 154.820312 321.988281 154.753906 321.988281 " fill-opacity="1" fill-rule="nonzero"/><path fill="#ffffff" d="M 256.054688 237.921875 C 256.054688 237.921875 253.625 235.011719 250.988281 235.273438 C 248.355469 235.53125 246.15625 235.398438 246.15625 235.398438 C 246.15625 235.398438 246.292969 233.257812 247.742188 233.335938 C 249.191406 233.417969 249.191406 233.417969 249.191406 233.417969 L 250.601562 232.898438 L 245.085938 221.664062 L 248.703125 222.28125 C 249.433594 222.402344 250.089844 222.796875 250.542969 223.386719 L 259.699219 235.300781 L 256.054688 237.921875 " fill-opacity="1" fill-rule="nonzero"/><path fill="#000000" d="M 251.324219 234.625 C 253.457031 234.625 255.34375 236.273438 256.140625 237.082031 L 258.796875 235.167969 L 250.042969 223.773438 C 249.683594 223.3125 249.171875 223 248.597656 222.902344 L 246.199219 222.496094 L 251.171875 232.617188 C 251.25 232.777344 251.257812 232.964844 251.1875 233.132812 C 251.121094 233.300781 250.988281 233.429688 250.820312 233.492188 L 249.410156 234.011719 C 249.328125 234.039062 249.238281 234.050781 249.15625 234.046875 L 247.707031 233.96875 C 247.277344 233.933594 247.042969 234.386719 246.917969 234.792969 C 247.761719 234.8125 249.261719 234.808594 250.925781 234.644531 C 251.058594 234.628906 251.191406 234.625 251.324219 234.625 Z M 256.058594 238.554688 C 255.875 238.554688 255.695312 238.476562 255.570312 238.332031 C 255.550781 238.304688 253.316406 235.671875 251.050781 235.902344 C 248.394531 236.164062 246.210938 236.039062 246.121094 236.03125 C 245.949219 236.019531 245.792969 235.941406 245.683594 235.820312 C 245.570312 235.691406 245.515625 235.527344 245.527344 235.359375 C 245.585938 234.402344 246.140625 232.617188 247.777344 232.703125 L 249.09375 232.777344 L 249.722656 232.546875 L 244.515625 221.941406 C 244.414062 221.730469 244.433594 221.472656 244.578125 221.285156 C 244.722656 221.09375 244.957031 220.996094 245.191406 221.039062 L 248.8125 221.652344 C 249.703125 221.808594 250.496094 222.285156 251.046875 223 L 260.199219 234.917969 C 260.304688 235.050781 260.347656 235.222656 260.324219 235.394531 C 260.300781 235.5625 260.207031 235.714844 260.066406 235.816406 L 256.425781 238.4375 C 256.3125 238.515625 256.1875 238.554688 256.058594 238.554688 " fill-opacity="1" fill-rule="nonzero"/><path fill="#ffffff" d="M 217.980469 328.425781 C 217.980469 328.425781 216.039062 324.414062 217.980469 323.617188 C 219.925781 322.820312 241.476562 312 244.945312 307.238281 C 248.414062 302.472656 264.695312 304.378906 268.058594 307.238281 C 271.425781 310.09375 266.722656 321.902344 259.214844 326.613281 C 251.703125 331.316406 235.742188 322.578125 217.980469 328.425781 " fill-opacity="1" fill-rule="nonzero"/><path fill="#000000" d="M 254.761719 304.96875 C 253.632812 304.96875 252.519531 305.027344 251.460938 305.152344 C 248.445312 305.511719 246.367188 306.359375 245.457031 307.609375 C 241.839844 312.570312 220.273438 323.359375 218.222656 324.203125 C 218.039062 324.28125 217.921875 324.402344 217.847656 324.601562 C 217.554688 325.367188 217.996094 326.796875 218.335938 327.652344 C 227.9375 324.640625 237.050781 325.777344 244.398438 326.695312 C 250.683594 327.480469 255.648438 328.097656 258.875 326.074219 C 264.226562 322.722656 268.179688 315.542969 268.511719 310.9375 C 268.585938 309.871094 268.5 308.441406 267.648438 307.71875 C 265.957031 306.28125 260.171875 304.96875 254.761719 304.96875 Z M 217.980469 329.0625 C 217.746094 329.0625 217.519531 328.925781 217.410156 328.703125 C 217.269531 328.410156 216.039062 325.78125 216.664062 324.148438 C 216.863281 323.625 217.238281 323.242188 217.742188 323.03125 C 219.605469 322.265625 241.101562 311.433594 244.433594 306.863281 C 245.570312 305.300781 247.886719 304.300781 251.3125 303.894531 C 257.417969 303.167969 265.917969 304.582031 268.472656 306.753906 C 269.464844 307.597656 269.914062 309.078125 269.773438 311.03125 C 269.417969 315.921875 265.410156 323.472656 259.546875 327.148438 C 255.9375 329.410156 250.777344 328.769531 244.242188 327.953125 C 236.878906 327.03125 227.714844 325.890625 218.183594 329.03125 C 218.113281 329.050781 218.046875 329.0625 217.980469 329.0625 " fill-opacity="1" fill-rule="nonzero"/><path fill="#ffffff" d="M 320.757812 272.957031 C 321.101562 272.773438 321.265625 272.375 321.140625 272.003906 C 320.503906 270.078125 318.3125 264.402344 314.238281 262.746094 C 309.308594 260.734375 303.683594 254.367188 301.519531 255.820312 C 299.351562 257.269531 306.589844 262.097656 306.214844 262.996094 C 305.839844 263.898438 303.824219 261.835938 301.773438 259.851562 C 299.726562 257.871094 300.730469 256.972656 298.875 257.722656 C 296.328125 258.746094 294.714844 259.6875 300.566406 266.378906 C 306.136719 272.746094 313.488281 271.570312 315.859375 276.210938 C 316.058594 276.609375 317.175781 276.417969 317.566406 276.207031 L 320.757812 272.957031 " fill-opacity="1" fill-rule="nonzero"/><path fill="#000000" d="M 316.359375 275.804688 C 316.558594 275.828125 316.96875 275.769531 317.195312 275.683594 L 320.304688 272.511719 C 320.351562 272.46875 320.402344 272.429688 320.460938 272.398438 C 320.535156 272.359375 320.566406 272.277344 320.542969 272.203125 C 319.984375 270.519531 317.859375 264.902344 314 263.332031 C 311.84375 262.453125 309.570312 260.777344 307.5625 259.296875 C 305.308594 257.636719 302.753906 255.753906 301.871094 256.34375 C 301.757812 256.421875 301.75 256.476562 301.746094 256.515625 C 301.679688 257.304688 303.613281 259.15625 304.765625 260.261719 C 306.324219 261.753906 307.109375 262.503906 306.800781 263.242188 C 306.667969 263.554688 306.421875 263.761719 306.105469 263.828125 C 305.203125 264.015625 304.011719 262.90625 301.804688 260.765625 L 301.335938 260.308594 C 300.453125 259.453125 300.078125 258.757812 299.851562 258.339844 C 299.808594 258.261719 299.757812 258.164062 299.71875 258.101562 C 299.628906 258.117188 299.453125 258.171875 299.109375 258.308594 C 297.964844 258.769531 297.363281 259.101562 297.234375 259.644531 C 296.988281 260.664062 298.269531 262.789062 301.042969 265.960938 C 303.8125 269.128906 307.050781 270.363281 309.90625 271.453125 C 312.679688 272.511719 315.082031 273.429688 316.359375 275.804688 Z M 317.566406 276.207031 L 317.570312 276.207031 Z M 316.488281 277.074219 C 316.285156 277.074219 316.089844 277.050781 315.917969 276.996094 C 315.554688 276.886719 315.378906 276.664062 315.292969 276.5 C 314.257812 274.472656 312.136719 273.660156 309.453125 272.636719 C 306.460938 271.492188 303.066406 270.199219 300.089844 266.796875 C 296.859375 263.101562 295.636719 260.875 296 259.347656 C 296.304688 258.070312 297.597656 257.554688 298.636719 257.132812 C 299.640625 256.730469 300.15625 256.710938 300.589844 257.179688 C 300.5 256.914062 300.464844 256.65625 300.484375 256.40625 C 300.523438 255.949219 300.757812 255.566406 301.164062 255.292969 C 302.789062 254.203125 305.226562 256 308.3125 258.277344 C 310.261719 259.710938 312.46875 261.339844 314.476562 262.15625 C 318.71875 263.886719 320.972656 269.480469 321.742188 271.804688 C 321.953125 272.429688 321.707031 273.109375 321.152344 273.460938 L 318.019531 276.652344 C 317.972656 276.695312 317.921875 276.734375 317.867188 276.765625 C 317.574219 276.921875 317.007812 277.074219 316.488281 277.074219 " fill-opacity="1" fill-rule="nonzero"/><path fill="#5479f7" d="M 321.492188 268.066406 L 313.621094 275.804688 C 313.621094 275.804688 325.394531 303.800781 346.226562 316.367188 C 348.445312 317.707031 356.804688 327.839844 361.226562 329.828125 C 365.375 331.691406 368.976562 328.902344 369.46875 324.761719 C 369.894531 321.183594 369.808594 312.648438 368.328125 309.414062 C 367.160156 306.863281 365.695312 305.269531 363.136719 304.09375 C 361.101562 303.152344 359.339844 301.582031 358.628906 301.167969 C 349.566406 295.910156 340.675781 283.628906 331.921875 277.328125 C 328.054688 274.542969 324.75 271.523438 321.492188 268.066406 " fill-opacity="1" fill-rule="nonzero"/><path fill="#ffffff" d="M 297.496094 245.4375 L 298.445312 249.199219 C 298.882812 250.917969 298.875 252.714844 298.402344 254.425781 C 297.898438 256.269531 297.359375 260.128906 297.496094 263.691406 C 297.652344 267.683594 299.257812 270.53125 301.78125 271.792969 C 304.496094 273.152344 307.863281 273.320312 310.640625 272.027344 C 312.886719 270.984375 314.578125 269.222656 315.382812 266.945312 C 315.765625 265.871094 315.902344 264.734375 315.902344 263.601562 C 315.902344 260.789062 315.367188 256.929688 314.910156 254.992188 C 314.511719 253.320312 314.53125 251.582031 314.976562 249.917969 L 316.164062 245.488281 L 297.496094 245.4375 " fill-opacity="1" fill-rule="nonzero"/><path fill="#000000" d="M 306.535156 273.535156 C 304.8125 273.535156 303.0625 273.140625 301.496094 272.359375 C 298.710938 270.96875 297.023438 267.820312 296.863281 263.714844 C 296.730469 260.21875 297.230469 256.3125 297.792969 254.257812 C 298.230469 252.671875 298.242188 250.976562 297.832031 249.355469 L 296.882812 245.59375 C 296.796875 245.253906 297.003906 244.910156 297.34375 244.824219 C 297.679688 244.738281 298.027344 244.945312 298.113281 245.28125 L 299.0625 249.042969 C 299.527344 250.878906 299.507812 252.796875 299.015625 254.59375 C 298.492188 256.503906 298 260.335938 298.128906 263.664062 C 298.273438 267.347656 299.667969 270.03125 302.0625 271.226562 C 304.679688 272.535156 307.867188 272.621094 310.375 271.453125 C 312.527344 270.453125 314.050781 268.820312 314.785156 266.734375 C 315.113281 265.816406 315.269531 264.792969 315.269531 263.601562 C 315.269531 260.917969 314.761719 257.121094 314.292969 255.136719 C 313.871094 253.363281 313.898438 251.503906 314.367188 249.753906 L 315.550781 245.324219 C 315.640625 244.984375 315.992188 244.785156 316.328125 244.875 C 316.664062 244.964844 316.863281 245.3125 316.773438 245.652344 L 315.589844 250.082031 C 315.175781 251.628906 315.152344 253.277344 315.527344 254.84375 C 316.011719 256.894531 316.535156 260.828125 316.535156 263.601562 C 316.535156 264.941406 316.351562 266.101562 315.984375 267.15625 C 315.140625 269.535156 313.339844 271.472656 310.910156 272.601562 C 309.570312 273.226562 308.0625 273.535156 306.535156 273.535156 " fill-opacity="1" fill-rule="nonzero"/><path fill="#f53725" d="M 302.402344 269.882812 C 304.78125 271.074219 307.734375 271.222656 310.171875 270.089844 C 312.140625 269.171875 312.882812 267.984375 313.585938 265.988281 C 313.921875 265.046875 314.160156 263.378906 314.160156 262.390625 C 314.160156 259.921875 313.417969 257.324219 313.113281 255.601562 C 312.894531 254.382812 312.78125 252.96875 312.996094 251.691406 L 300.222656 251.726562 C 300.464844 252.710938 300.164062 254.238281 300 255.007812 C 299.652344 256.648438 299.019531 259.777344 299.140625 262.898438 C 299.277344 266.398438 300.1875 268.777344 302.402344 269.882812 " fill-opacity="1" fill-rule="nonzero"/><path fill="#000000" d="M 307.773438 289.257812 C 307.425781 289.257812 307.140625 288.976562 307.140625 288.625 L 307.140625 272.945312 C 307.140625 272.597656 307.425781 272.3125 307.773438 272.3125 C 308.125 272.3125 308.410156 272.597656 308.410156 272.945312 L 308.410156 288.625 C 308.410156 288.976562 308.125 289.257812 307.773438 289.257812 " fill-opacity="1" fill-rule="nonzero"/><path fill="#000000" d="M 306.042969 288.527344 C 305.695312 288.527344 305.410156 288.242188 305.410156 287.894531 L 305.410156 273.011719 C 305.410156 272.660156 305.695312 272.378906 306.042969 272.378906 C 306.394531 272.378906 306.675781 272.660156 306.675781 273.011719 L 306.675781 287.894531 C 306.675781 288.242188 306.394531 288.527344 306.042969 288.527344 " fill-opacity="1" fill-rule="nonzero"/><path fill="#ffffff" d="M 306.902344 286.640625 C 306.902344 286.640625 311.40625 290.175781 311.996094 290.707031 C 308.765625 290.746094 304.929688 290.742188 301.550781 290.722656 C 302.011719 290.296875 306.902344 286.640625 306.902344 286.640625 " fill-opacity="1" fill-rule="nonzero"/><path fill="#000000" d="M 303.371094 290.097656 C 305.839844 290.109375 308.195312 290.105469 310.242188 290.089844 C 309.234375 289.28125 307.878906 288.210938 306.894531 287.4375 C 305.761719 288.289062 304.382812 289.324219 303.371094 290.097656 Z M 306.023438 291.371094 C 304.585938 291.371094 303.082031 291.367188 301.546875 291.355469 C 301.285156 291.355469 301.050781 291.195312 300.957031 290.953125 C 300.863281 290.710938 300.929688 290.4375 301.117188 290.257812 C 301.589844 289.820312 306.019531 286.511719 306.523438 286.132812 C 306.753906 285.964844 307.070312 285.964844 307.296875 286.144531 C 307.480469 286.289062 311.820312 289.695312 312.421875 290.234375 C 312.613281 290.410156 312.679688 290.683594 312.589844 290.929688 C 312.496094 291.171875 312.265625 291.335938 312.003906 291.339844 C 310.277344 291.359375 308.230469 291.371094 306.023438 291.371094 " fill-opacity="1" fill-rule="nonzero"/><path fill="#ffffff" d="M 297.476562 245.347656 C 297.476562 246.179688 301.648438 246.855469 306.792969 246.855469 C 311.941406 246.855469 316.113281 246.179688 316.113281 245.347656 C 316.113281 244.511719 311.941406 243.835938 306.792969 243.835938 C 301.648438 243.835938 297.476562 244.511719 297.476562 245.347656 " fill-opacity="1" fill-rule="nonzero"/><path fill="#000000" d="M 298.421875 245.347656 C 299.425781 245.730469 302.230469 246.222656 306.792969 246.222656 C 311.355469 246.222656 314.160156 245.730469 315.164062 245.347656 C 314.160156 244.964844 311.355469 244.46875 306.792969 244.46875 C 302.230469 244.46875 299.425781 244.964844 298.421875 245.347656 Z M 306.792969 247.488281 C 303.800781 247.488281 296.84375 247.28125 296.84375 245.347656 C 296.84375 243.414062 303.800781 243.203125 306.792969 243.203125 C 309.785156 243.203125 316.746094 243.414062 316.746094 245.347656 C 316.746094 247.28125 309.785156 247.488281 306.792969 247.488281 " fill-opacity="1" fill-rule="nonzero"/><path fill="#f53725" d="M 300.207031 251.640625 C 300.207031 252.410156 303.074219 253.035156 306.605469 253.035156 C 310.140625 253.035156 313.003906 252.410156 313.003906 251.640625 C 313.003906 250.867188 310.140625 250.242188 306.605469 250.242188 C 303.074219 250.242188 300.207031 250.867188 300.207031 251.640625 " fill-opacity="1" fill-rule="nonzero"/><path fill="#f53725" d="M 306.605469 253.667969 C 304.238281 253.667969 302.195312 253.398438 300.851562 252.90625 C 300.523438 252.789062 300.355469 252.425781 300.472656 252.097656 C 300.59375 251.765625 300.957031 251.597656 301.285156 251.71875 C 302.492188 252.15625 304.382812 252.398438 306.605469 252.398438 C 308.589844 252.398438 310.644531 252.175781 311.964844 251.8125 C 312.304688 251.71875 312.652344 251.917969 312.746094 252.253906 C 312.835938 252.589844 312.640625 252.941406 312.300781 253.03125 C 310.875 253.425781 308.691406 253.667969 306.605469 253.667969 " fill-opacity="1" fill-rule="nonzero"/><path fill="#000000" d="M 302.394531 250.890625 C 302.101562 250.890625 301.84375 250.691406 301.773438 250.394531 L 296.667969 227.742188 C 296.589844 227.402344 296.804688 227.0625 297.144531 226.984375 C 297.488281 226.910156 297.824219 227.125 297.902344 227.464844 L 303.011719 250.117188 C 303.085938 250.457031 302.875 250.796875 302.53125 250.875 C 302.484375 250.886719 302.4375 250.890625 302.394531 250.890625 " fill-opacity="1" fill-rule="nonzero"/><path fill="#ffffff" d="M 297.796875 229.871094 L 311.265625 234.71875 L 307.710938 235.632812 L 305.601562 237.605469 L 302.417969 236.898438 L 299.679688 239.335938 L 296.554688 238.074219 L 294.355469 240.460938 L 291.953125 239.179688 L 287.960938 240.59375 L 297.796875 229.871094 " fill-opacity="1" fill-rule="nonzero"/><path fill="#f53725" d="M 292.097656 239.441406 C 291.972656 239.441406 291.851562 239.410156 291.742188 239.335938 C 291.453125 239.140625 291.375 238.746094 291.570312 238.457031 L 297.347656 229.867188 C 297.542969 229.578125 297.9375 229.5 298.226562 229.695312 C 298.515625 229.890625 298.59375 230.285156 298.398438 230.574219 L 292.621094 239.164062 C 292.5 239.34375 292.300781 239.441406 292.097656 239.441406 " fill-opacity="1" fill-rule="nonzero"/><path fill="#f53725" d="M 296.667969 238.320312 C 296.625 238.320312 296.582031 238.3125 296.539062 238.304688 C 296.199219 238.238281 295.976562 237.902344 296.046875 237.558594 L 297.414062 230.800781 C 297.484375 230.457031 297.816406 230.238281 298.160156 230.304688 C 298.503906 230.375 298.722656 230.707031 298.652344 231.050781 L 297.285156 237.8125 C 297.226562 238.109375 296.960938 238.320312 296.667969 238.320312 " fill-opacity="1" fill-rule="nonzero"/><path fill="#f53725" d="M 302.148438 237.164062 C 301.953125 237.164062 301.761719 237.074219 301.636719 236.90625 L 297.523438 231.300781 C 297.316406 231.015625 297.378906 230.621094 297.660156 230.414062 C 297.9375 230.207031 298.335938 230.269531 298.542969 230.550781 L 302.65625 236.15625 C 302.863281 236.4375 302.804688 236.832031 302.523438 237.039062 C 302.410156 237.125 302.277344 237.164062 302.148438 237.164062 " fill-opacity="1" fill-rule="nonzero"/><path fill="#f53725" d="M 307.480469 235.953125 C 307.382812 235.953125 307.28125 235.929688 307.183594 235.878906 L 297.578125 230.78125 C 297.269531 230.617188 297.152344 230.234375 297.316406 229.925781 C 297.476562 229.613281 297.863281 229.496094 298.171875 229.660156 L 307.777344 234.761719 C 308.085938 234.925781 308.207031 235.308594 308.039062 235.617188 C 307.925781 235.832031 307.707031 235.953125 307.480469 235.953125 " fill-opacity="1" fill-rule="nonzero"/><path fill="#ffffff" d="M 298.128906 269.058594 C 293.265625 260.761719 294.492188 257.089844 297.722656 254.941406 C 297.914062 254.816406 298.167969 254.835938 298.347656 254.976562 C 304 259.511719 305.167969 264.273438 300.535156 269.332031 C 299.851562 270.074219 298.640625 269.933594 298.128906 269.058594 " fill-opacity="1" fill-rule="nonzero"/><path fill="#000000" d="M 298.675781 268.742188 C 298.820312 268.984375 299.066406 269.144531 299.347656 269.175781 C 299.621094 269.203125 299.886719 269.105469 300.070312 268.902344 C 302.003906 266.792969 302.90625 264.691406 302.75 262.660156 C 302.570312 260.3125 300.972656 257.910156 298.007812 255.515625 C 295.632812 257.125 293.617188 260.105469 298.675781 268.742188 Z M 299.445312 270.445312 C 299.367188 270.445312 299.292969 270.441406 299.214844 270.433594 C 298.527344 270.363281 297.933594 269.976562 297.582031 269.378906 C 293.238281 261.964844 293.171875 257.210938 297.371094 254.417969 C 297.785156 254.140625 298.347656 254.167969 298.742188 254.480469 C 302.03125 257.121094 303.804688 259.839844 304.011719 262.566406 C 304.199219 264.957031 303.183594 267.378906 301.003906 269.757812 C 300.597656 270.203125 300.039062 270.445312 299.445312 270.445312 " fill-opacity="1" fill-rule="nonzero"/><path fill="#000000" d="M 286.140625 130.050781 C 285.964844 130.050781 285.785156 129.976562 285.660156 129.828125 L 260.550781 100.484375 C 260.324219 100.21875 260.355469 99.820312 260.621094 99.589844 C 260.886719 99.363281 261.289062 99.394531 261.515625 99.660156 L 286.621094 129.003906 C 286.847656 129.269531 286.816406 129.671875 286.550781 129.898438 C 286.433594 130 286.285156 130.050781 286.140625 130.050781 " fill-opacity="1" fill-rule="nonzero"/><path fill="#000000" d="M 278.554688 136.722656 C 278.433594 136.722656 278.308594 136.691406 278.203125 136.617188 L 256.589844 122 C 256.300781 121.804688 256.226562 121.410156 256.417969 121.121094 C 256.613281 120.832031 257.011719 120.753906 257.300781 120.953125 L 278.910156 135.566406 C 279.199219 135.765625 279.277344 136.15625 279.078125 136.445312 C 278.957031 136.628906 278.757812 136.722656 278.554688 136.722656 " fill-opacity="1" fill-rule="nonzero"/><path fill="#000000" d="M 352.855469 48.328125 C 352.746094 48.328125 352.636719 48.300781 352.535156 48.242188 C 352.234375 48.066406 352.132812 47.679688 352.308594 47.375 L 354.359375 43.871094 C 354.539062 43.566406 354.925781 43.464844 355.226562 43.640625 C 355.527344 43.820312 355.632812 44.207031 355.457031 44.507812 L 353.402344 48.015625 C 353.285156 48.21875 353.070312 48.328125 352.855469 48.328125 " fill-opacity="1" fill-rule="nonzero"/><path fill="#000000" d="M 348.074219 56.5 C 347.964844 56.5 347.855469 56.472656 347.753906 56.414062 C 347.449219 56.238281 347.347656 55.847656 347.527344 55.546875 L 349.578125 52.039062 C 349.753906 51.738281 350.144531 51.636719 350.445312 51.8125 C 350.746094 51.992188 350.847656 52.375 350.671875 52.679688 L 348.621094 56.1875 C 348.503906 56.386719 348.289062 56.5 348.074219 56.5 " fill-opacity="1" fill-rule="nonzero"/><path fill="#000000" d="M 349.160156 49.296875 C 349.050781 49.296875 348.9375 49.269531 348.839844 49.210938 L 345.332031 47.15625 C 345.027344 46.980469 344.925781 46.589844 345.105469 46.292969 C 345.28125 45.988281 345.667969 45.886719 345.972656 46.0625 L 349.476562 48.117188 C 349.78125 48.292969 349.882812 48.679688 349.707031 48.984375 C 349.585938 49.183594 349.375 49.296875 349.160156 49.296875 " fill-opacity="1" fill-rule="nonzero"/><path fill="#000000" d="M 357.328125 54.078125 C 357.222656 54.078125 357.109375 54.050781 357.011719 53.992188 L 353.5 51.9375 C 353.203125 51.761719 353.101562 51.375 353.277344 51.070312 C 353.453125 50.769531 353.839844 50.671875 354.140625 50.847656 L 357.648438 52.898438 C 357.953125 53.074219 358.054688 53.464844 357.878906 53.765625 C 357.757812 53.964844 357.546875 54.078125 357.328125 54.078125 " fill-opacity="1" fill-rule="nonzero"/><path fill="#000000" d="M 65.460938 40.640625 C 65.351562 40.640625 65.242188 40.609375 65.140625 40.550781 C 64.839844 40.375 64.738281 39.988281 64.914062 39.683594 L 66.96875 36.175781 C 67.144531 35.875 67.53125 35.773438 67.832031 35.949219 C 68.136719 36.128906 68.238281 36.515625 68.058594 36.816406 L 66.007812 40.324219 C 65.890625 40.527344 65.675781 40.640625 65.460938 40.640625 " fill-opacity="1" fill-rule="nonzero"/><path fill="#000000" d="M 60.679688 48.8125 C 60.570312 48.8125 60.460938 48.78125 60.359375 48.722656 C 60.058594 48.546875 59.957031 48.15625 60.132812 47.855469 L 62.183594 44.347656 C 62.363281 44.046875 62.75 43.949219 63.050781 44.125 C 63.351562 44.300781 63.453125 44.6875 63.277344 44.988281 L 61.226562 48.496094 C 61.105469 48.699219 60.894531 48.8125 60.679688 48.8125 " fill-opacity="1" fill-rule="nonzero"/><path fill="#000000" d="M 61.765625 41.605469 C 61.65625 41.605469 61.546875 41.578125 61.445312 41.519531 L 57.9375 39.464844 C 57.636719 39.292969 57.535156 38.902344 57.710938 38.601562 C 57.886719 38.296875 58.273438 38.195312 58.578125 38.371094 L 62.085938 40.425781 C 62.386719 40.601562 62.488281 40.992188 62.3125 41.292969 C 62.191406 41.496094 61.980469 41.605469 61.765625 41.605469 " fill-opacity="1" fill-rule="nonzero"/><path fill="#000000" d="M 69.933594 46.386719 C 69.824219 46.386719 69.714844 46.359375 69.617188 46.300781 L 66.109375 44.246094 C 65.804688 44.070312 65.703125 43.683594 65.882812 43.382812 C 66.058594 43.082031 66.445312 42.980469 66.746094 43.15625 L 70.253906 45.207031 C 70.558594 45.386719 70.660156 45.773438 70.480469 46.074219 C 70.363281 46.277344 70.152344 46.386719 69.933594 46.386719 " fill-opacity="1" fill-rule="nonzero"/><path fill="#000000" d="M 50.039062 146.210938 L 50.042969 146.210938 Z M 52.269531 145.859375 C 52.234375 145.859375 52.195312 145.863281 52.15625 145.863281 C 51.523438 145.894531 50.933594 146.167969 50.507812 146.636719 C 49.621094 147.609375 49.691406 149.125 50.664062 150.007812 C 51.132812 150.4375 51.738281 150.65625 52.378906 150.628906 C 53.015625 150.597656 53.601562 150.324219 54.03125 149.851562 C 54.914062 148.878906 54.84375 147.371094 53.875 146.484375 C 53.429688 146.082031 52.867188 145.859375 52.269531 145.859375 Z M 52.265625 151.898438 C 51.351562 151.898438 50.488281 151.5625 49.808594 150.945312 C 48.320312 149.589844 48.214844 147.273438 49.570312 145.789062 C 50.226562 145.066406 51.125 144.644531 52.097656 144.597656 C 53.074219 144.554688 54.007812 144.890625 54.726562 145.546875 C 56.214844 146.902344 56.320312 149.21875 54.964844 150.707031 C 54.308594 151.425781 53.410156 151.847656 52.4375 151.894531 C 52.378906 151.894531 52.320312 151.898438 52.265625 151.898438 " fill-opacity="1" fill-rule="nonzero"/><path fill="#ffffff" d="M 62.046875 129.984375 C 63.765625 128.097656 66.6875 127.960938 68.574219 129.683594 C 70.457031 131.398438 70.59375 134.324219 68.875 136.210938 C 67.15625 138.097656 64.234375 138.230469 62.351562 136.511719 C 60.464844 134.792969 60.328125 131.871094 62.046875 129.984375 " fill-opacity="1" fill-rule="nonzero"/><path fill="#000000" d="M 39.117188 105.5 L 34.699219 120.269531 L 49.050781 114.792969 Z M 33.722656 121.953125 C 33.566406 121.953125 33.414062 121.894531 33.292969 121.785156 C 33.117188 121.621094 33.046875 121.371094 33.117188 121.140625 L 38.195312 104.160156 C 38.257812 103.949219 38.425781 103.789062 38.636719 103.730469 C 38.847656 103.671875 39.074219 103.726562 39.234375 103.878906 L 50.65625 114.558594 C 50.816406 114.707031 50.886719 114.929688 50.847656 115.144531 C 50.804688 115.359375 50.65625 115.535156 50.449219 115.613281 L 33.949219 121.914062 C 33.875 121.941406 33.800781 121.953125 33.722656 121.953125 " fill-opacity="1" fill-rule="nonzero"/></svg>