<svg xmlns="http://www.w3.org/2000/svg" xmlns:xlink="http://www.w3.org/1999/xlink" width="500" zoomAndPan="magnify" viewBox="0 0 375 374.999991" height="500" preserveAspectRatio="xMidYMid meet" version="1.0"><path fill="#ff2e00" d="M 33.664062 91.433594 C 59.378906 47.925781 108.320312 37.292969 126.777344 33.28125 C 189.59375 19.628906 282.546875 36.035156 327.390625 110.183594 C 366.75 175.265625 344.835938 244.777344 341.660156 254.308594 C 336.335938 270.289062 322.996094 308.621094 285.183594 334.589844 C 226.324219 375.011719 136.601562 365.945312 105.898438 324.214844 C 91.476562 304.617188 103.144531 295.578125 86.351562 260.925781 C 63.859375 214.515625 35.941406 215.632812 22.933594 178.472656 C 8.25 136.53125 31.289062 95.457031 33.664062 91.433594 " fill-opacity="1" fill-rule="nonzero"/><path fill="#ffffff" d="M 296.957031 57.074219 C 296.957031 56.238281 296.484375 55.476562 295.730469 55.117188 L 295.730469 54.925781 C 295.730469 54.925781 195.75 0.00390625 98.6875 53.203125 C 95.207031 55.113281 93.023438 58.746094 93.023438 62.71875 L 93.023438 319.183594 L 109.023438 319.183594 L 109.023438 72.804688 C 109.023438 68.109375 111.972656 63.910156 116.398438 62.34375 C 169.484375 43.53125 221.828125 42.117188 272.1875 60.785156 C 276.714844 62.460938 279.726562 66.769531 279.726562 71.59375 L 279.726562 318.363281 L 295.730469 318.363281 L 296.957031 57.074219 " fill-opacity="1" fill-rule="nonzero"/><path fill="#5479f7" d="M 93.621094 318.585938 L 108.425781 318.585938 L 108.425781 72.804688 C 108.425781 67.855469 111.546875 63.425781 116.199219 61.777344 C 170.609375 42.492188 223.164062 41.96875 272.398438 60.21875 C 277.140625 61.976562 280.328125 66.550781 280.328125 71.59375 L 280.328125 317.761719 L 295.132812 317.761719 L 296.355469 57.070312 C 296.359375 56.46875 296.011719 55.917969 295.472656 55.660156 C 295.320312 55.585938 295.207031 55.453125 295.160156 55.296875 C 292.285156 53.777344 267.984375 41.273438 233.453125 34.695312 C 199.6875 28.261719 148.945312 26.339844 98.976562 53.730469 C 95.675781 55.539062 93.621094 58.984375 93.621094 62.71875 Z M 109.027344 319.785156 L 93.023438 319.785156 C 92.691406 319.785156 92.421875 319.515625 92.421875 319.183594 L 92.421875 62.71875 C 92.421875 58.542969 94.710938 54.695312 98.398438 52.675781 C 120.609375 40.503906 144.820312 33.019531 170.363281 30.429688 C 190.789062 28.359375 212.105469 29.398438 233.71875 33.523438 C 270.515625 40.539062 295.769531 54.261719 296.019531 54.394531 C 296.164062 54.472656 296.265625 54.605469 296.308594 54.753906 C 297.078125 55.261719 297.5625 56.136719 297.558594 57.074219 L 296.332031 318.367188 C 296.328125 318.695312 296.0625 318.964844 295.730469 318.964844 L 279.726562 318.964844 C 279.394531 318.964844 279.128906 318.695312 279.128906 318.363281 L 279.128906 71.59375 C 279.128906 67.050781 276.253906 62.929688 271.980469 61.347656 C 223.015625 43.195312 170.738281 43.722656 116.597656 62.910156 C 112.429688 64.386719 109.625 68.367188 109.625 72.804688 L 109.625 319.183594 C 109.625 319.515625 109.355469 319.785156 109.027344 319.785156 " fill-opacity="1" fill-rule="nonzero"/><path fill="#99b9ff" d="M 277.265625 64.773438 C 268.214844 152.550781 254.984375 237.691406 236.640625 319.597656 L 313.375 320.003906 C 305.8125 261.859375 301.238281 161.523438 296.953125 57.074219 L 277.265625 64.773438 " fill-opacity="1" fill-rule="nonzero"/><path fill="#ffffff" d="M 299.066406 248.816406 C 298.75 248.816406 298.484375 248.566406 298.46875 248.246094 L 295.886719 199.789062 C 295.871094 199.457031 296.125 199.171875 296.453125 199.15625 C 296.800781 199.140625 297.070312 199.394531 297.085938 199.726562 L 299.667969 248.183594 C 299.6875 248.515625 299.433594 248.796875 299.101562 248.816406 C 299.089844 248.816406 299.078125 248.816406 299.066406 248.816406 " fill-opacity="1" fill-rule="nonzero"/><path fill="#ffffff" d="M 293.269531 140.035156 C 292.957031 140.035156 292.6875 139.785156 292.671875 139.464844 L 291.886719 124.714844 C 291.871094 124.382812 292.125 124.101562 292.457031 124.082031 C 292.796875 124.066406 293.070312 124.320312 293.085938 124.652344 L 293.871094 139.402344 C 293.890625 139.734375 293.636719 140.019531 293.304688 140.035156 C 293.292969 140.035156 293.285156 140.035156 293.269531 140.035156 " fill-opacity="1" fill-rule="nonzero"/><path fill="#ffffff" d="M 292.027344 116.667969 C 291.710938 116.667969 291.445312 116.417969 291.429688 116.097656 L 290.207031 93.117188 C 290.1875 92.789062 290.441406 92.503906 290.773438 92.488281 C 291.113281 92.46875 291.390625 92.722656 291.40625 93.054688 L 292.628906 116.035156 C 292.648438 116.363281 292.394531 116.648438 292.0625 116.664062 C 292.050781 116.667969 292.042969 116.667969 292.027344 116.667969 " fill-opacity="1" fill-rule="nonzero"/><path fill="#ffffff" d="M 279.71875 119.539062 C 279.703125 119.539062 279.6875 119.539062 279.671875 119.535156 C 279.339844 119.511719 279.09375 119.21875 279.121094 118.890625 L 281.589844 88.523438 C 281.617188 88.191406 281.90625 87.945312 282.238281 87.972656 C 282.570312 88 282.816406 88.292969 282.789062 88.621094 L 280.316406 118.984375 C 280.292969 119.300781 280.027344 119.539062 279.71875 119.539062 " fill-opacity="1" fill-rule="nonzero"/><path fill="#99b9ff" d="M 59.375 320.003906 C 72.042969 250.9375 83.171875 158.277344 93.84375 58.617188 L 110.253906 66.824219 C 119.289062 163.792969 133.046875 250.0625 154.574219 318.777344 L 59.375 320.003906 " fill-opacity="1" fill-rule="nonzero"/><path fill="#ffffff" d="M 88.917969 210.636719 C 88.902344 210.636719 88.890625 210.636719 88.875 210.632812 C 88.542969 210.609375 88.292969 210.320312 88.320312 209.992188 L 92.292969 155.4375 C 92.316406 155.105469 92.605469 154.855469 92.9375 154.878906 C 93.265625 154.902344 93.515625 155.191406 93.492188 155.523438 L 89.519531 210.078125 C 89.496094 210.394531 89.230469 210.636719 88.917969 210.636719 " fill-opacity="1" fill-rule="nonzero"/><path fill="#ffffff" d="M 93.582031 146.632812 C 93.566406 146.632812 93.550781 146.628906 93.539062 146.628906 C 93.207031 146.605469 92.957031 146.316406 92.980469 145.988281 L 94.808594 120.910156 C 94.832031 120.578125 95.121094 120.332031 95.453125 120.355469 C 95.78125 120.378906 96.03125 120.667969 96.007812 121 L 94.179688 146.074219 C 94.15625 146.390625 93.894531 146.632812 93.582031 146.632812 " fill-opacity="1" fill-rule="nonzero"/><path fill="#ffffff" d="M 95.820312 115.871094 C 95.808594 115.871094 95.792969 115.871094 95.777344 115.867188 C 95.445312 115.847656 95.199219 115.558594 95.222656 115.226562 L 97.347656 86.066406 C 97.371094 85.734375 97.660156 85.488281 97.988281 85.511719 C 98.320312 85.535156 98.570312 85.824219 98.542969 86.15625 L 96.421875 115.3125 C 96.398438 115.628906 96.132812 115.871094 95.820312 115.871094 " fill-opacity="1" fill-rule="nonzero"/><path fill="#ffffff" d="M 108.613281 191.757812 C 108.285156 191.757812 108.015625 191.492188 108.011719 191.164062 L 107.839844 172.699219 C 107.839844 172.371094 108.105469 172.097656 108.4375 172.09375 C 108.78125 172.097656 109.039062 172.359375 109.042969 172.6875 L 109.214844 191.152344 C 109.21875 191.484375 108.953125 191.753906 108.621094 191.757812 C 108.617188 191.757812 108.617188 191.757812 108.613281 191.757812 " fill-opacity="1" fill-rule="nonzero"/><path fill="#ffffff" d="M 108.390625 167.550781 C 108.058594 167.550781 107.792969 167.285156 107.789062 166.957031 L 107.191406 102.941406 C 107.191406 102.609375 107.457031 102.335938 107.789062 102.332031 C 108.121094 102.332031 108.390625 102.597656 108.394531 102.929688 L 108.992188 166.945312 C 108.992188 167.277344 108.726562 167.550781 108.394531 167.550781 C 108.394531 167.550781 108.390625 167.550781 108.390625 167.550781 " fill-opacity="1" fill-rule="nonzero"/><path fill="#99b9ff" d="M 194.925781 29.480469 C 174.023438 61.371094 147.726562 95.308594 105.65625 76.671875 L 93.84375 58.617188 C 126.058594 66.445312 130.945312 56.867188 168.230469 31.328125 C 179.980469 28.515625 190.621094 26.5625 194.925781 29.480469 " fill-opacity="1" fill-rule="nonzero"/><path fill="#ffffff" d="M 115.996094 68.660156 C 115.71875 68.660156 115.449219 68.660156 115.171875 68.65625 C 114.839844 68.652344 114.574219 68.378906 114.578125 68.046875 C 114.585938 67.714844 114.851562 67.445312 115.1875 67.453125 C 136.253906 67.777344 149.242188 55.289062 162.984375 42.070312 C 166.390625 38.796875 169.914062 35.410156 173.597656 32.175781 C 173.847656 31.957031 174.230469 31.980469 174.449219 32.234375 C 174.667969 32.480469 174.640625 32.863281 174.394531 33.082031 C 170.726562 36.292969 167.214844 39.671875 163.820312 42.9375 C 150.070312 56.160156 137.070312 68.660156 115.996094 68.660156 " fill-opacity="1" fill-rule="nonzero"/><path fill="#ffffff" d="M 121.964844 76.457031 C 121.753906 76.457031 121.539062 76.457031 121.328125 76.453125 C 120.996094 76.449219 120.730469 76.175781 120.734375 75.84375 C 120.738281 75.511719 121.027344 75.25 121.34375 75.253906 C 145.769531 75.628906 164.894531 53.738281 178.863281 37.753906 C 179.945312 36.515625 181 35.308594 182.023438 34.144531 C 182.246094 33.898438 182.625 33.875 182.875 34.09375 C 183.121094 34.316406 183.144531 34.691406 182.925781 34.941406 C 181.902344 36.101562 180.851562 37.308594 179.769531 38.542969 C 165.769531 54.566406 146.636719 76.457031 121.964844 76.457031 " fill-opacity="1" fill-rule="nonzero"/><path fill="#99b9ff" d="M 198.070312 29.175781 C 218.6875 60.253906 244.625 93.332031 286.125 75.167969 L 297.78125 57.570312 C 266.003906 65.195312 261.183594 55.863281 224.398438 30.972656 C 212.808594 28.234375 202.3125 26.328125 198.070312 29.175781 " fill-opacity="1" fill-rule="nonzero"/><path fill="#ffffff" d="M 275.625 67.429688 C 254.554688 67.429688 241.554688 54.929688 227.804688 41.707031 C 224.410156 38.441406 220.898438 35.0625 217.234375 31.851562 C 216.984375 31.632812 216.957031 31.253906 217.175781 31.003906 C 217.394531 30.753906 217.773438 30.726562 218.023438 30.945312 C 221.714844 34.179688 225.234375 37.566406 228.636719 40.839844 C 242.207031 53.894531 255.039062 66.230469 275.636719 66.230469 C 275.902344 66.230469 276.167969 66.226562 276.433594 66.226562 C 276.777344 66.222656 277.039062 66.484375 277.042969 66.816406 C 277.050781 67.148438 276.785156 67.421875 276.453125 67.425781 C 276.175781 67.429688 275.902344 67.429688 275.625 67.429688 " fill-opacity="1" fill-rule="nonzero"/><path fill="#ffffff" d="M 269.65625 75.226562 C 244.984375 75.226562 225.855469 53.335938 211.855469 37.3125 C 210.773438 36.074219 209.722656 34.871094 208.695312 33.714844 C 208.476562 33.460938 208.5 33.082031 208.75 32.863281 C 209 32.644531 209.378906 32.667969 209.597656 32.914062 C 210.621094 34.078125 211.675781 35.28125 212.757812 36.523438 C 226.726562 52.503906 245.839844 74.402344 270.28125 74.023438 C 270.28125 74.023438 270.285156 74.023438 270.289062 74.023438 C 270.617188 74.023438 270.882812 74.285156 270.890625 74.613281 C 270.894531 74.945312 270.628906 75.21875 270.296875 75.222656 C 270.085938 75.226562 269.871094 75.226562 269.65625 75.226562 " fill-opacity="1" fill-rule="nonzero"/><path fill="#5479f7" d="M 88.261719 65.859375 C 85.160156 63.730469 83.785156 61.710938 82.722656 58.816406 C 82.605469 58.5 82.816406 58.15625 83.15625 58.121094 C 87.75 57.648438 89.984375 57.570312 91.941406 58.34375 C 92.644531 58.621094 92.972656 59.4375 92.648438 60.125 L 90.1875 65.335938 C 89.84375 66.066406 88.925781 66.3125 88.261719 65.859375 " fill-opacity="1" fill-rule="nonzero"/><path fill="#5479f7" d="M 94.164062 76.183594 C 90.03125 78.714844 87.351562 79.101562 83.757812 78.617188 C 83.570312 78.589844 83.453125 78.390625 83.523438 78.214844 C 85.636719 72.785156 86.589844 70.882812 88.96875 69.414062 L 94.164062 76.183594 " fill-opacity="1" fill-rule="nonzero"/><path fill="#5479f7" d="M 107.871094 74.746094 C 109.867188 78.691406 110.183594 81.289062 109.632812 84.402344 C 109.519531 85.054688 108.820312 85.417969 108.226562 85.125 C 103.601562 82.851562 101.910156 81.734375 100.703125 79.378906 L 107.871094 74.746094 " fill-opacity="1" fill-rule="nonzero"/><path fill="#ff2e00" d="M 108.703125 60.214844 C 108.851562 59.882812 108.941406 59.546875 108.941406 59.21875 C 108.941406 57.28125 107.371094 55.703125 105.429688 55.703125 C 104.761719 55.703125 104.140625 55.894531 103.609375 56.21875 C 103.011719 55.753906 102.261719 55.472656 101.445312 55.472656 C 99.503906 55.472656 97.933594 57.042969 97.933594 58.984375 C 97.933594 59.65625 98.125 60.277344 98.449219 60.8125 C 97.058594 61.28125 96.058594 62.589844 96.058594 64.136719 C 96.058594 66.078125 97.632812 67.652344 99.574219 67.652344 C 99.746094 67.652344 99.914062 67.636719 100.082031 67.613281 C 100.613281 68.875 101.863281 69.757812 103.320312 69.757812 C 105.035156 69.757812 106.460938 68.53125 106.769531 66.902344 C 106.945312 66.929688 107.121094 66.949219 107.300781 66.949219 C 109.242188 66.949219 110.816406 65.375 110.816406 63.4375 C 110.816406 61.992188 109.945312 60.753906 108.703125 60.214844 " fill-opacity="1" fill-rule="nonzero"/><path fill="#ffffff" d="M 98.941406 60.296875 C 99.089844 59.960938 99.179688 59.625 99.179688 59.300781 C 99.179688 57.359375 97.609375 55.785156 95.667969 55.785156 C 95 55.785156 94.378906 55.976562 93.847656 56.300781 C 93.25 55.832031 92.503906 55.550781 91.683594 55.550781 C 89.746094 55.550781 88.171875 57.125 88.171875 59.066406 C 88.171875 59.734375 88.363281 60.359375 88.6875 60.890625 C 87.300781 61.359375 86.296875 62.671875 86.296875 64.21875 C 86.296875 66.160156 87.871094 67.730469 89.8125 67.730469 C 89.984375 67.730469 90.15625 67.714844 90.320312 67.691406 C 90.851562 68.953125 92.101562 69.839844 93.558594 69.839844 C 95.273438 69.839844 96.699219 68.609375 97.007812 66.984375 C 97.183594 67.011719 97.359375 67.027344 97.542969 67.027344 C 99.480469 67.027344 101.054688 65.457031 101.054688 63.515625 C 101.054688 62.074219 100.183594 60.835938 98.941406 60.296875 " fill-opacity="1" fill-rule="nonzero"/><path fill="#ffffff" d="M 99.644531 70.132812 C 99.792969 69.800781 99.882812 69.464844 99.882812 69.136719 C 99.882812 67.195312 98.3125 65.625 96.371094 65.625 C 95.703125 65.625 95.082031 65.8125 94.550781 66.136719 C 93.953125 65.667969 93.203125 65.390625 92.386719 65.390625 C 90.449219 65.390625 88.875 66.964844 88.875 68.902344 C 88.875 69.570312 89.066406 70.195312 89.390625 70.730469 C 88.003906 71.199219 87 72.507812 87 74.054688 C 87 75.996094 88.574219 77.570312 90.515625 77.570312 C 90.6875 77.570312 90.855469 77.550781 91.023438 77.527344 C 91.558594 78.792969 92.804688 79.679688 94.261719 79.679688 C 95.976562 79.679688 97.402344 78.449219 97.710938 76.824219 C 97.886719 76.847656 98.0625 76.867188 98.246094 76.867188 C 100.183594 76.867188 101.757812 75.292969 101.757812 73.355469 C 101.757812 71.910156 100.890625 70.671875 99.644531 70.132812 " fill-opacity="1" fill-rule="nonzero"/><path fill="#ffffff" d="M 100.515625 64.796875 C 100.640625 64.515625 100.71875 64.230469 100.71875 63.957031 C 100.71875 62.3125 99.386719 60.984375 97.742188 60.984375 C 97.179688 60.984375 96.652344 61.140625 96.203125 61.417969 C 95.695312 61.019531 95.0625 60.78125 94.371094 60.78125 C 92.730469 60.78125 91.398438 62.113281 91.398438 63.757812 C 91.398438 64.324219 91.558594 64.851562 91.835938 65.304688 C 90.660156 65.699219 89.8125 66.8125 89.8125 68.121094 C 89.8125 69.761719 91.144531 71.097656 92.785156 71.097656 C 92.933594 71.097656 93.078125 71.082031 93.21875 71.058594 C 93.667969 72.128906 94.726562 72.878906 95.960938 72.878906 C 97.410156 72.878906 98.617188 71.839844 98.878906 70.460938 C 99.027344 70.484375 99.175781 70.5 99.332031 70.5 C 100.972656 70.5 102.304688 69.167969 102.304688 67.523438 C 102.304688 66.304688 101.566406 65.253906 100.515625 64.796875 " fill-opacity="1" fill-rule="nonzero"/><path fill="#99b9ff" d="M 93.589844 70.398438 L 93.769531 70.824219 C 94.144531 71.707031 95.003906 72.277344 95.960938 72.277344 C 97.097656 72.277344 98.078125 71.464844 98.289062 70.347656 L 98.398438 69.777344 L 98.96875 69.867188 C 99.109375 69.886719 99.222656 69.898438 99.332031 69.898438 C 100.640625 69.898438 101.703125 68.835938 101.703125 67.523438 C 101.703125 66.578125 101.144531 65.726562 100.277344 65.347656 L 99.71875 65.105469 L 99.96875 64.550781 C 100.066406 64.328125 100.117188 64.128906 100.117188 63.957031 C 100.117188 62.648438 99.054688 61.582031 97.742188 61.582031 C 97.3125 61.582031 96.886719 61.699219 96.515625 61.929688 L 96.160156 62.144531 L 95.832031 61.890625 C 95.410156 61.558594 94.90625 61.382812 94.371094 61.382812 C 93.0625 61.382812 92 62.449219 92 63.757812 C 92 64.191406 92.121094 64.617188 92.347656 64.988281 L 92.738281 65.632812 L 92.027344 65.871094 C 91.0625 66.199219 90.414062 67.101562 90.414062 68.121094 C 90.414062 69.429688 91.476562 70.492188 92.785156 70.492188 C 92.886719 70.492188 93 70.484375 93.132812 70.464844 Z M 95.960938 73.480469 C 94.667969 73.480469 93.496094 72.789062 92.863281 71.691406 C 90.863281 71.742188 89.210938 70.117188 89.210938 68.121094 C 89.210938 66.8125 89.917969 65.632812 91.027344 65.007812 C 90.875 64.609375 90.796875 64.1875 90.796875 63.757812 C 90.796875 61.785156 92.402344 60.179688 94.371094 60.179688 C 95.042969 60.179688 95.683594 60.363281 96.246094 60.710938 C 96.714844 60.492188 97.226562 60.378906 97.742188 60.378906 C 99.714844 60.378906 101.320312 61.984375 101.320312 63.957031 C 101.320312 64.136719 101.296875 64.320312 101.25 64.507812 C 102.269531 65.15625 102.90625 66.289062 102.90625 67.523438 C 102.90625 69.496094 101.300781 71.101562 99.332031 71.101562 C 99.328125 71.101562 99.328125 71.101562 99.328125 71.101562 C 98.832031 72.507812 97.488281 73.480469 95.960938 73.480469 " fill-opacity="1" fill-rule="nonzero"/><path fill="#ff2e00" d="M 104.851562 75.003906 C 104.972656 74.730469 105.050781 74.453125 105.050781 74.183594 C 105.050781 72.582031 103.75 71.28125 102.148438 71.28125 C 101.597656 71.28125 101.085938 71.441406 100.644531 71.707031 C 100.152344 71.320312 99.535156 71.089844 98.863281 71.089844 C 97.261719 71.089844 95.960938 72.386719 95.960938 73.988281 C 95.960938 74.542969 96.117188 75.058594 96.386719 75.496094 C 95.242188 75.882812 94.414062 76.964844 94.414062 78.242188 C 94.414062 79.84375 95.714844 81.144531 97.316406 81.144531 C 97.457031 81.144531 97.597656 81.128906 97.734375 81.109375 C 98.175781 82.152344 99.207031 82.882812 100.410156 82.882812 C 101.824219 82.882812 103 81.867188 103.257812 80.527344 C 103.398438 80.546875 103.546875 80.5625 103.695312 80.5625 C 105.296875 80.5625 106.59375 79.265625 106.59375 77.664062 C 106.59375 76.472656 105.878906 75.449219 104.851562 75.003906 " fill-opacity="1" fill-rule="nonzero"/><path fill="#ffffff" d="M 111.902344 68.726562 C 112.054688 68.394531 112.144531 68.058594 112.144531 67.730469 C 112.144531 65.792969 110.570312 64.21875 108.628906 64.21875 C 107.960938 64.21875 107.339844 64.40625 106.808594 64.730469 C 106.210938 64.265625 105.464844 63.984375 104.648438 63.984375 C 102.707031 63.984375 101.132812 65.554688 101.132812 67.496094 C 101.132812 68.167969 101.324219 68.792969 101.648438 69.324219 C 100.261719 69.792969 99.261719 71.105469 99.261719 72.652344 C 99.261719 74.589844 100.832031 76.164062 102.773438 76.164062 C 102.945312 76.164062 103.117188 76.148438 103.28125 76.121094 C 103.816406 77.386719 105.066406 78.273438 106.523438 78.273438 C 108.238281 78.273438 109.664062 77.042969 109.972656 75.417969 C 110.144531 75.445312 110.320312 75.460938 110.503906 75.460938 C 112.445312 75.460938 114.015625 73.886719 114.015625 71.949219 C 114.015625 70.503906 113.148438 69.265625 111.902344 68.726562 " fill-opacity="1" fill-rule="nonzero"/><path fill="#99b9ff" d="M 103.65625 75.460938 L 103.835938 75.886719 C 104.292969 76.972656 105.347656 77.671875 106.523438 77.671875 C 107.917969 77.671875 109.121094 76.675781 109.382812 75.304688 L 109.488281 74.734375 L 110.0625 74.820312 C 110.230469 74.847656 110.371094 74.859375 110.503906 74.859375 C 112.109375 74.859375 113.417969 73.554688 113.417969 71.945312 C 113.417969 70.789062 112.730469 69.738281 111.664062 69.277344 L 111.105469 69.03125 L 111.355469 68.476562 C 111.480469 68.203125 111.542969 67.949219 111.542969 67.730469 C 111.542969 66.125 110.234375 64.816406 108.628906 64.816406 C 108.101562 64.816406 107.578125 64.964844 107.121094 65.242188 L 106.765625 65.457031 L 106.4375 65.203125 C 105.921875 64.796875 105.300781 64.582031 104.648438 64.582031 C 103.042969 64.582031 101.734375 65.890625 101.734375 67.496094 C 101.734375 68.027344 101.882812 68.550781 102.164062 69.007812 L 102.554688 69.648438 L 101.84375 69.890625 C 100.65625 70.292969 99.859375 71.398438 99.859375 72.652344 C 99.859375 74.253906 101.167969 75.5625 102.773438 75.5625 C 102.898438 75.5625 103.035156 75.550781 103.195312 75.527344 Z M 106.523438 78.871094 C 105.015625 78.871094 103.648438 78.058594 102.925781 76.761719 C 102.875 76.761719 102.824219 76.765625 102.773438 76.765625 C 100.503906 76.765625 98.660156 74.917969 98.660156 72.652344 C 98.660156 71.117188 99.507812 69.730469 100.832031 69.023438 C 100.636719 68.539062 100.535156 68.019531 100.535156 67.496094 C 100.535156 65.226562 102.378906 63.382812 104.648438 63.382812 C 105.4375 63.382812 106.191406 63.601562 106.851562 64.023438 C 107.40625 63.753906 108.015625 63.617188 108.628906 63.617188 C 110.898438 63.617188 112.746094 65.460938 112.746094 67.730469 C 112.746094 67.957031 112.710938 68.191406 112.648438 68.433594 C 113.859375 69.175781 114.617188 70.5 114.617188 71.945312 C 114.617188 74.214844 112.773438 76.0625 110.503906 76.0625 C 110.476562 76.0625 110.449219 76.0625 110.425781 76.058594 C 109.871094 77.71875 108.308594 78.871094 106.523438 78.871094 " fill-opacity="1" fill-rule="nonzero"/><path fill="#5479f7" d="M 46.234375 157.347656 C 45.988281 157.347656 45.753906 157.195312 45.667969 156.949219 C 44.164062 152.730469 42.921875 148.625 44.226562 144.742188 C 45.21875 141.78125 47.511719 139.597656 49.726562 137.484375 C 51.90625 135.410156 53.960938 133.449219 54.890625 130.824219 C 56.054688 127.535156 55.15625 123.886719 54.289062 120.359375 C 54.152344 119.808594 54.019531 119.265625 53.894531 118.726562 C 52.425781 112.4375 52.078125 106.121094 51.800781 99.105469 C 51.789062 98.773438 52.046875 98.492188 52.378906 98.480469 C 52.707031 98.464844 52.988281 98.722656 53 99.058594 C 53.277344 106.011719 53.621094 112.269531 55.0625 118.453125 C 55.1875 118.988281 55.320312 119.527344 55.453125 120.070312 C 56.367188 123.769531 57.308594 127.597656 56.023438 131.226562 C 55 134.121094 52.742188 136.273438 50.558594 138.355469 C 48.351562 140.457031 46.265625 142.449219 45.363281 145.125 C 44.183594 148.640625 45.367188 152.535156 46.800781 156.546875 C 46.910156 156.859375 46.75 157.203125 46.4375 157.3125 C 46.367188 157.335938 46.300781 157.347656 46.234375 157.347656 " fill-opacity="1" fill-rule="nonzero"/><path fill="#5479f7" d="M 72.117188 64.644531 C 74.382812 80.503906 63.945312 95.53125 53.019531 97.464844 C 42.828125 99.269531 27.980469 88.71875 25.710938 72.859375 C 23.445312 57.003906 28.164062 42.464844 44.8125 40.042969 C 61.953125 37.546875 69.851562 48.785156 72.117188 64.644531 " fill-opacity="1" fill-rule="nonzero"/><path fill="#99b9ff" d="M 51.242188 97.375 L 49.382812 101.082031 C 51.253906 101.714844 53.390625 101.242188 55.746094 99.816406 L 52.785156 96.695312 L 51.242188 97.375 " fill-opacity="1" fill-rule="nonzero"/><path fill="#ffffff" d="M 59.425781 44.121094 C 60.738281 45.070312 62.367188 46.742188 62.46875 48.582031 C 62.511719 49.347656 62.296875 50.019531 61.464844 49.589844 C 60.382812 49.03125 59.667969 47.898438 58.699219 47.144531 C 57.996094 46.59375 52.105469 44.25 54.402344 43.09375 C 56.003906 42.289062 58.089844 43.160156 59.425781 44.121094 " fill-opacity="1" fill-rule="nonzero"/><path fill="#5479f7" d="M 332.101562 207.851562 C 332.011719 207.851562 331.917969 207.828125 331.828125 207.785156 C 328.597656 206.121094 325.546875 204.035156 322.757812 201.589844 C 319.167969 198.445312 313.625 191.933594 316.792969 183.675781 C 318.28125 179.792969 321.269531 176.941406 324.460938 174.121094 L 324.554688 174.035156 C 327.457031 171.476562 330.453125 168.824219 332.050781 165.21875 C 334.496094 159.683594 333.089844 157.078125 331.308594 153.777344 C 330.324219 151.960938 329.210938 149.902344 328.609375 147.101562 C 328.542969 146.773438 328.75 146.457031 329.074219 146.386719 C 329.398438 146.316406 329.714844 146.523438 329.785156 146.847656 C 330.351562 149.480469 331.375 151.375 332.367188 153.207031 C 334.226562 156.652344 335.832031 159.628906 333.148438 165.703125 C 331.445312 169.554688 328.347656 172.292969 325.351562 174.9375 L 325.253906 175.023438 C 322.179688 177.738281 319.304688 180.476562 317.914062 184.105469 C 315.007812 191.683594 320.195312 197.746094 323.546875 200.6875 C 326.261719 203.066406 329.234375 205.097656 332.378906 206.714844 C 332.675781 206.867188 332.792969 207.230469 332.640625 207.527344 C 332.53125 207.734375 332.324219 207.851562 332.101562 207.851562 " fill-opacity="1" fill-rule="nonzero"/><path fill="#99b9ff" d="M 350.304688 124.101562 C 350.621094 137.167969 340.027344 148.023438 330.371094 148.257812 C 321.363281 148.476562 309.605469 138.167969 309.285156 125.101562 C 308.96875 112.035156 314.5625 100.882812 329.222656 100.945312 C 344.3125 101.015625 349.984375 111.039062 350.304688 124.101562 " fill-opacity="1" fill-rule="nonzero"/><path fill="#99b9ff" d="M 328.847656 147.96875 L 326.847656 150.734375 C 328.40625 151.472656 330.304688 151.351562 332.492188 150.484375 L 330.25 147.609375 L 328.847656 147.96875 " fill-opacity="1" fill-rule="nonzero"/><path fill="#ff2e00" d="M 341.445312 106.011719 C 342.484375 106.9375 343.71875 108.480469 343.621094 109.980469 C 343.578125 110.601562 343.320312 111.117188 342.644531 110.671875 C 341.765625 110.085938 341.265625 109.089844 340.503906 108.359375 C 339.953125 107.832031 335.097656 105.226562 337.207031 104.574219 C 338.675781 104.117188 340.386719 105.074219 341.445312 106.011719 " fill-opacity="1" fill-rule="nonzero"/><path fill="#ffffff" d="M 55.730469 92.863281 C 55.585938 92.863281 55.445312 92.8125 55.332031 92.710938 C 55.082031 92.492188 55.058594 92.113281 55.28125 91.863281 C 61.386719 84.976562 64.628906 77.816406 65.1875 69.972656 C 65.210938 69.636719 65.496094 69.390625 65.828125 69.414062 C 66.160156 69.4375 66.410156 69.726562 66.386719 70.054688 C 65.808594 78.175781 62.46875 85.570312 56.179688 92.660156 C 56.058594 92.796875 55.894531 92.863281 55.730469 92.863281 " fill-opacity="1" fill-rule="nonzero"/><path fill="#000000" d="M 342.644531 188.796875 C 342.585938 188.796875 342.527344 188.789062 342.472656 188.773438 C 342.15625 188.679688 341.972656 188.347656 342.0625 188.03125 L 342.929688 185.042969 C 343.023438 184.726562 343.355469 184.542969 343.675781 184.632812 C 343.996094 184.726562 344.179688 185.058594 344.085938 185.378906 L 343.21875 188.363281 C 343.144531 188.625 342.90625 188.796875 342.644531 188.796875 " fill-opacity="1" fill-rule="nonzero"/><path fill="#000000" d="M 340.628906 195.75 C 340.570312 195.75 340.515625 195.742188 340.460938 195.726562 C 340.140625 195.632812 339.957031 195.300781 340.046875 194.980469 L 340.914062 191.996094 C 341.007812 191.675781 341.339844 191.496094 341.660156 191.585938 C 341.976562 191.679688 342.160156 192.011719 342.070312 192.332031 L 341.203125 195.316406 C 341.125 195.578125 340.886719 195.75 340.628906 195.75 " fill-opacity="1" fill-rule="nonzero"/><path fill="#000000" d="M 340.082031 190.207031 C 340.027344 190.207031 339.96875 190.199219 339.914062 190.183594 L 336.929688 189.316406 C 336.613281 189.222656 336.425781 188.890625 336.519531 188.570312 C 336.613281 188.253906 336.945312 188.070312 337.265625 188.160156 L 340.25 189.027344 C 340.570312 189.121094 340.753906 189.453125 340.660156 189.773438 C 340.582031 190.035156 340.34375 190.207031 340.082031 190.207031 " fill-opacity="1" fill-rule="nonzero"/><path fill="#000000" d="M 347.035156 192.222656 C 346.980469 192.222656 346.925781 192.214844 346.867188 192.199219 L 343.886719 191.335938 C 343.5625 191.242188 343.382812 190.910156 343.476562 190.589844 C 343.566406 190.269531 343.898438 190.085938 344.21875 190.179688 L 347.203125 191.042969 C 347.523438 191.136719 347.703125 191.46875 347.613281 191.789062 C 347.535156 192.050781 347.296875 192.222656 347.035156 192.222656 " fill-opacity="1" fill-rule="nonzero"/><path fill="#000000" d="M 35.152344 117 C 35.097656 117 35.042969 116.992188 34.984375 116.976562 C 34.667969 116.882812 34.484375 116.550781 34.578125 116.230469 L 35.441406 113.246094 C 35.535156 112.925781 35.867188 112.746094 36.1875 112.835938 C 36.503906 112.929688 36.6875 113.261719 36.597656 113.582031 L 35.730469 116.566406 C 35.65625 116.828125 35.414062 117 35.152344 117 " fill-opacity="1" fill-rule="nonzero"/><path fill="#000000" d="M 33.136719 123.953125 C 33.082031 123.953125 33.027344 123.945312 32.96875 123.925781 C 32.652344 123.835938 32.46875 123.503906 32.558594 123.183594 L 33.425781 120.199219 C 33.515625 119.878906 33.851562 119.695312 34.167969 119.789062 C 34.488281 119.878906 34.671875 120.214844 34.578125 120.535156 L 33.714844 123.519531 C 33.636719 123.78125 33.398438 123.953125 33.136719 123.953125 " fill-opacity="1" fill-rule="nonzero"/><path fill="#000000" d="M 32.59375 118.40625 C 32.539062 118.40625 32.484375 118.398438 32.425781 118.382812 L 29.441406 117.519531 C 29.121094 117.425781 28.941406 117.089844 29.03125 116.773438 C 29.125 116.453125 29.457031 116.269531 29.777344 116.363281 L 32.761719 117.230469 C 33.078125 117.320312 33.265625 117.65625 33.171875 117.972656 C 33.09375 118.238281 32.855469 118.40625 32.59375 118.40625 " fill-opacity="1" fill-rule="nonzero"/><path fill="#000000" d="M 39.546875 120.421875 C 39.492188 120.421875 39.4375 120.414062 39.378906 120.398438 L 36.394531 119.535156 C 36.078125 119.441406 35.894531 119.109375 35.984375 118.789062 C 36.078125 118.472656 36.410156 118.289062 36.730469 118.378906 L 39.714844 119.246094 C 40.035156 119.339844 40.21875 119.671875 40.125 119.988281 C 40.046875 120.253906 39.808594 120.421875 39.546875 120.421875 " fill-opacity="1" fill-rule="nonzero"/><path fill="#000000" d="M 24.835938 133.214844 L 24.839844 133.214844 Z M 26.101562 133.539062 C 25.753906 133.539062 25.410156 133.613281 25.082031 133.761719 C 23.796875 134.339844 23.210938 135.878906 23.78125 137.199219 C 24.058594 137.839844 24.5625 138.328125 25.203125 138.578125 C 25.828125 138.820312 26.507812 138.804688 27.121094 138.527344 C 28.40625 137.953125 28.992188 136.410156 28.425781 135.09375 C 28.148438 134.449219 27.640625 133.960938 27.003906 133.710938 C 26.710938 133.597656 26.40625 133.539062 26.101562 133.539062 Z M 26.101562 139.949219 C 25.652344 139.949219 25.199219 139.867188 24.765625 139.699219 C 23.824219 139.332031 23.082031 138.613281 22.675781 137.671875 C 21.851562 135.757812 22.707031 133.511719 24.589844 132.664062 C 25.5 132.257812 26.511719 132.230469 27.4375 132.589844 C 28.378906 132.957031 29.121094 133.675781 29.527344 134.617188 C 30.355469 136.53125 29.496094 138.777344 27.613281 139.625 C 27.128906 139.84375 26.617188 139.949219 26.101562 139.949219 " fill-opacity="1" fill-rule="nonzero"/><path fill="#000000" d="M 327.347656 261.753906 C 326.058594 262.332031 325.476562 263.875 326.042969 265.191406 C 326.320312 265.835938 326.828125 266.324219 327.464844 266.574219 C 328.089844 266.816406 328.769531 266.796875 329.386719 266.523438 C 330.671875 265.945312 331.257812 264.402344 330.6875 263.085938 C 330.410156 262.445312 329.90625 261.953125 329.265625 261.707031 C 328.640625 261.464844 327.960938 261.480469 327.347656 261.753906 Z M 328.367188 267.945312 C 327.917969 267.945312 327.464844 267.859375 327.03125 267.695312 C 326.089844 267.324219 325.34375 266.609375 324.941406 265.667969 C 324.113281 263.75 324.972656 261.503906 326.855469 260.660156 C 327.765625 260.253906 328.773438 260.226562 329.699219 260.585938 C 330.644531 260.953125 331.386719 261.671875 331.792969 262.613281 C 332.617188 264.527344 331.757812 266.773438 329.878906 267.621094 C 329.394531 267.835938 328.882812 267.945312 328.367188 267.945312 " fill-opacity="1" fill-rule="nonzero"/><path fill="#99b9ff" d="M 333.601562 339.871094 L 39.320312 339.871094 L 39.320312 315.550781 L 333.601562 315.550781 L 333.601562 339.871094 " fill-opacity="1" fill-rule="nonzero"/><path fill="#000000" d="M 39.921875 339.269531 L 333 339.269531 L 333 316.148438 L 39.921875 316.148438 Z M 334.203125 340.472656 L 38.71875 340.472656 L 38.71875 314.949219 L 334.203125 314.949219 L 334.203125 340.472656 " fill-opacity="1" fill-rule="nonzero"/><path fill="#99b9ff" d="M 350.660156 360.195312 L 19.152344 360.195312 L 19.152344 337.980469 L 350.660156 337.980469 L 350.660156 360.195312 " fill-opacity="1" fill-rule="nonzero"/><path fill="#000000" d="M 19.753906 359.59375 L 350.058594 359.59375 L 350.058594 338.582031 L 19.753906 338.582031 Z M 351.265625 360.796875 L 18.550781 360.796875 L 18.550781 337.378906 L 351.265625 337.378906 L 351.265625 360.796875 " fill-opacity="1" fill-rule="nonzero"/><path fill="#5479f7" d="M 286.238281 42.253906 L 278.03125 50.773438 C 274.6875 54.28125 277.824219 62.648438 285.035156 69.460938 C 292.25 76.273438 300.804688 78.953125 304.148438 75.445312 L 312.355469 66.925781 L 286.238281 42.253906 " fill-opacity="1" fill-rule="nonzero"/><path fill="#000000" d="M 286.253906 43.101562 L 278.460938 51.191406 C 277.648438 52.046875 277.253906 53.257812 277.292969 54.789062 C 277.398438 58.859375 280.601562 64.449219 285.445312 69.027344 C 292.289062 75.488281 300.65625 78.242188 303.710938 75.035156 L 311.503906 66.949219 Z M 299.914062 77.605469 C 295.632812 77.605469 289.839844 74.832031 284.621094 69.902344 C 279.476562 65.042969 276.207031 59.261719 276.089844 54.820312 C 276.046875 52.984375 276.5625 51.441406 277.59375 50.359375 L 285.804688 41.839844 C 286.03125 41.601562 286.410156 41.589844 286.648438 41.816406 L 312.769531 66.492188 C 312.886719 66.601562 312.953125 66.753906 312.953125 66.914062 C 312.960938 67.074219 312.898438 67.230469 312.789062 67.34375 L 304.582031 75.863281 C 303.457031 77.042969 301.835938 77.605469 299.914062 77.605469 " fill-opacity="1" fill-rule="nonzero"/><path fill="#99b9ff" d="M 315.5625 65.015625 L 307.570312 46.6875 C 307.40625 46.359375 307.128906 46.097656 306.792969 45.949219 L 287.988281 38.964844 L 282.65625 33.929688 L 280.203125 36.496094 C 280.050781 36.65625 279.992188 36.902344 280.109375 37.140625 L 292.296875 61.15625 C 292.464844 61.484375 292.738281 61.746094 293.078125 61.894531 L 317.808594 72.75 C 318.050781 72.855469 318.292969 72.78125 318.445312 72.621094 L 320.898438 70.050781 L 315.5625 65.015625 " fill-opacity="1" fill-rule="nonzero"/><path fill="#000000" d="M 280.65625 36.894531 L 292.832031 60.882812 C 292.933594 61.085938 293.109375 61.25 293.320312 61.34375 L 318.046875 72.199219 L 320.046875 70.078125 L 315.152344 65.449219 C 315.089844 65.394531 315.046875 65.328125 315.011719 65.253906 L 307.019531 46.925781 C 306.933594 46.753906 306.757812 46.59375 306.550781 46.5 L 287.777344 39.527344 C 287.703125 39.503906 287.632812 39.457031 287.574219 39.402344 L 282.675781 34.773438 Z M 318.042969 73.402344 C 317.882812 73.402344 317.71875 73.367188 317.566406 73.300781 L 292.832031 62.441406 C 292.371094 62.238281 291.988281 61.878906 291.757812 61.429688 L 279.574219 37.410156 C 279.347656 36.964844 279.425781 36.445312 279.773438 36.082031 L 282.222656 33.515625 C 282.449219 33.273438 282.828125 33.265625 283.066406 33.488281 L 288.3125 38.445312 L 307 45.386719 C 307.496094 45.601562 307.878906 45.964844 308.105469 46.414062 L 316.066406 64.660156 L 321.308594 69.613281 C 321.425781 69.722656 321.492188 69.878906 321.5 70.035156 C 321.5 70.195312 321.441406 70.351562 321.332031 70.464844 L 318.882812 73.035156 C 318.65625 73.273438 318.351562 73.402344 318.042969 73.402344 " fill-opacity="1" fill-rule="nonzero"/><path fill="#5479f7" d="M 320.992188 69.40625 L 308.808594 45.390625 C 308.640625 45.0625 308.367188 44.800781 308.027344 44.65625 L 283.296875 33.796875 C 282.808594 33.582031 282.320312 34.097656 282.558594 34.574219 L 294.746094 58.585938 C 294.910156 58.914062 295.1875 59.175781 295.527344 59.324219 L 320.253906 70.179688 C 320.742188 70.394531 321.234375 69.878906 320.992188 69.40625 " fill-opacity="1" fill-rule="nonzero"/><path fill="#000000" d="M 283.136719 34.382812 L 295.28125 58.316406 C 295.382812 58.519531 295.558594 58.683594 295.765625 58.777344 L 320.414062 69.59375 L 308.269531 45.664062 C 308.167969 45.460938 307.996094 45.296875 307.78125 45.207031 Z M 320.457031 69.679688 L 320.992188 69.40625 Z M 320.488281 70.832031 C 320.332031 70.832031 320.167969 70.800781 320.011719 70.730469 L 295.285156 59.875 C 294.820312 59.671875 294.4375 59.308594 294.207031 58.859375 L 282.019531 34.84375 C 281.796875 34.398438 281.871094 33.878906 282.214844 33.515625 C 282.558594 33.152344 283.078125 33.046875 283.539062 33.246094 L 308.265625 44.105469 C 308.730469 44.308594 309.113281 44.667969 309.34375 45.121094 L 321.527344 69.136719 C 321.753906 69.582031 321.675781 70.101562 321.332031 70.460938 C 321.105469 70.703125 320.800781 70.832031 320.488281 70.832031 " fill-opacity="1" fill-rule="nonzero"/><path fill="#000000" d="M 304.164062 81.574219 C 304.121094 81.574219 304.082031 81.570312 304.042969 81.5625 C 303.714844 81.496094 303.507812 81.179688 303.574219 80.851562 L 306.886719 64.578125 L 300.214844 50.972656 C 300.070312 50.671875 300.191406 50.3125 300.488281 50.167969 C 300.785156 50.019531 301.148438 50.144531 301.292969 50.441406 L 308.058594 64.234375 C 308.117188 64.355469 308.132812 64.488281 308.105469 64.617188 L 304.75 81.09375 C 304.691406 81.378906 304.441406 81.574219 304.164062 81.574219 " fill-opacity="1" fill-rule="nonzero"/><path fill="#99b9ff" d="M 304.34375 79.882812 C 303.847656 79.808594 303.371094 80.132812 303.261719 80.625 L 300.140625 94.5 L 303.957031 95.085938 L 305.148438 80.914062 C 305.191406 80.410156 304.839844 79.960938 304.34375 79.882812 " fill-opacity="1" fill-rule="nonzero"/><path fill="#000000" d="M 300.867188 94.003906 L 303.410156 94.394531 L 304.554688 80.863281 C 304.566406 80.675781 304.4375 80.507812 304.25 80.480469 C 304.066406 80.449219 303.890625 80.574219 303.847656 80.757812 Z M 303.957031 95.6875 C 303.925781 95.6875 303.894531 95.683594 303.867188 95.679688 L 300.046875 95.09375 C 299.882812 95.070312 299.738281 94.976562 299.644531 94.839844 C 299.546875 94.703125 299.515625 94.53125 299.550781 94.367188 L 302.675781 80.492188 C 302.859375 79.695312 303.632812 79.167969 304.433594 79.289062 C 305.238281 79.414062 305.820312 80.148438 305.75 80.964844 L 304.554688 95.136719 C 304.542969 95.300781 304.460938 95.457031 304.328125 95.558594 C 304.222656 95.640625 304.089844 95.6875 303.957031 95.6875 " fill-opacity="1" fill-rule="nonzero"/><path fill="#ffffff" d="M 281.222656 287.949219 L 282.550781 301.84375 L 287.480469 301.84375 L 287.71875 288.175781 L 281.222656 287.949219 " fill-opacity="1" fill-rule="nonzero"/><path fill="#000000" d="M 283.097656 301.246094 L 286.894531 301.246094 L 287.109375 288.757812 L 281.890625 288.574219 Z M 287.480469 302.445312 L 282.554688 302.445312 C 282.246094 302.445312 281.984375 302.210938 281.953125 301.902344 L 280.628906 288.007812 C 280.613281 287.832031 280.671875 287.660156 280.789062 287.535156 C 280.910156 287.410156 281.074219 287.339844 281.25 287.347656 L 287.738281 287.578125 C 288.070312 287.589844 288.328125 287.859375 288.320312 288.1875 L 288.082031 301.855469 C 288.078125 302.183594 287.8125 302.445312 287.480469 302.445312 " fill-opacity="1" fill-rule="nonzero"/><path fill="#000000" d="M 282.363281 315.128906 C 284.410156 315.351562 288.105469 315.492188 292.011719 314.816406 C 293.289062 314.597656 294.097656 313.320312 293.746094 312.074219 C 292.855469 308.890625 291.300781 303.105469 289.015625 299.835938 C 288.722656 299.414062 288.082031 299.453125 287.832031 299.90625 L 287.421875 300.667969 L 286.378906 298.929688 C 286.253906 298.714844 286.03125 298.578125 285.785156 298.554688 L 283.96875 298.566406 C 283.570312 298.527344 283.207031 298.804688 283.132812 299.203125 L 282.878906 300.667969 L 281.773438 299.691406 C 281.539062 299.480469 281.167969 299.65625 281.179688 299.96875 L 281.339844 305.621094 C 281.378906 306.898438 281.277344 308.175781 281.042969 309.425781 L 280.429688 312.742188 C 280.3125 313.933594 281.175781 315.003906 282.363281 315.128906 " fill-opacity="1" fill-rule="nonzero"/><path fill="#ff2e00" d="M 287.570312 313.539062 C 284.609375 313.539062 282.339844 312.984375 282.199219 312.949219 C 281.875 312.867188 281.679688 312.542969 281.761719 312.21875 C 281.839844 311.898438 282.167969 311.703125 282.488281 311.78125 C 282.539062 311.796875 287.527344 313.011719 292.195312 311.785156 C 292.519531 311.699219 292.847656 311.890625 292.929688 312.210938 C 293.015625 312.535156 292.824219 312.863281 292.503906 312.949219 C 290.808594 313.394531 289.097656 313.539062 287.570312 313.539062 " fill-opacity="1" fill-rule="nonzero"/><path fill="#ff2e00" d="M 289.292969 308.109375 L 284.707031 308.109375 C 284.371094 308.109375 284.105469 307.839844 284.105469 307.507812 C 284.105469 307.175781 284.371094 306.90625 284.707031 306.90625 L 289.292969 306.90625 C 289.625 306.90625 289.894531 307.175781 289.894531 307.507812 C 289.894531 307.839844 289.625 308.109375 289.292969 308.109375 " fill-opacity="1" fill-rule="nonzero"/><path fill="#ffffff" d="M 244.601562 289.839844 L 242.820312 306.035156 L 236.015625 307.460938 L 236.429688 288.472656 L 244.601562 289.839844 " fill-opacity="1" fill-rule="nonzero"/><path fill="#000000" d="M 237.015625 289.179688 L 236.632812 306.71875 L 242.269531 305.535156 L 243.941406 290.339844 Z M 236.015625 308.0625 C 235.875 308.0625 235.742188 308.015625 235.632812 307.921875 C 235.492188 307.808594 235.410156 307.632812 235.414062 307.449219 L 235.828125 288.457031 C 235.832031 288.285156 235.914062 288.121094 236.046875 288.007812 C 236.179688 287.898438 236.355469 287.851562 236.53125 287.878906 L 244.699219 289.246094 C 245.011719 289.300781 245.230469 289.589844 245.195312 289.90625 L 243.417969 306.101562 C 243.386719 306.359375 243.195312 306.570312 242.945312 306.625 L 236.140625 308.050781 C 236.097656 308.058594 236.058594 308.0625 236.015625 308.0625 " fill-opacity="1" fill-rule="nonzero"/><path fill="#000000" d="M 245.816406 312.691406 C 245.914062 310.167969 245.820312 305.648438 244.125 303.175781 L 238.683594 305.113281 L 238.683594 303.953125 C 238.683594 303.578125 238.414062 303.269531 238.074219 303.246094 L 235.039062 303.074219 C 233.90625 303.007812 232.777344 303.242188 231.742188 303.75 C 228.683594 305.257812 222.269531 308.765625 220.472656 312.476562 C 219.976562 313.507812 220.640625 314.726562 221.777344 314.867188 C 224.691406 315.226562 231.445312 315.6875 243.910156 314.679688 C 244.953125 314.59375 245.773438 313.742188 245.816406 312.691406 " fill-opacity="1" fill-rule="nonzero"/><path fill="#ff2e00" d="M 234.15625 313.796875 C 227.410156 313.796875 222.867188 313.015625 222.800781 313.003906 C 222.476562 312.945312 222.257812 312.632812 222.316406 312.308594 C 222.371094 311.980469 222.6875 311.761719 223.011719 311.820312 C 223.101562 311.835938 232.167969 313.390625 243.707031 312.050781 C 244.039062 312.011719 244.335938 312.25 244.375 312.578125 C 244.414062 312.90625 244.175781 313.207031 243.84375 313.246094 C 240.332031 313.652344 237.042969 313.796875 234.15625 313.796875 " fill-opacity="1" fill-rule="nonzero"/><path fill="#ff2e00" d="M 229.953125 309.382812 C 229.765625 309.382812 229.582031 309.296875 229.464844 309.132812 C 229.269531 308.863281 229.332031 308.488281 229.601562 308.292969 L 234.839844 304.519531 C 235.109375 304.328125 235.484375 304.386719 235.679688 304.65625 C 235.875 304.925781 235.8125 305.300781 235.542969 305.496094 L 230.304688 309.269531 C 230.195312 309.34375 230.074219 309.382812 229.953125 309.382812 " fill-opacity="1" fill-rule="nonzero"/><path fill="#000000" d="M 239.164062 197.433594 L 244.980469 193.730469 L 255.414062 199.371094 C 255.414062 199.371094 250.734375 202.371094 245.308594 203.863281 C 236.175781 206.367188 239.164062 197.433594 239.164062 197.433594 " fill-opacity="1" fill-rule="nonzero"/><path fill="#5479f7" d="M 242.476562 184.105469 C 242.476562 184.105469 232.621094 251.421875 234.703125 296.136719 L 245.226562 296.414062 C 245.226562 296.414062 257.285156 228.167969 263.09375 216.890625 C 263.09375 216.890625 279.042969 279.109375 279.652344 295.472656 C 279.652344 295.472656 286.671875 296.179688 289.46875 295.171875 C 290.972656 279.378906 291.25 261.210938 291.324219 250.949219 C 291.539062 221.578125 288.734375 208.238281 287.199219 201.910156 C 285.789062 196.097656 284.277344 191.375 283.167969 188.179688 L 279.476562 177.636719 L 242.476562 184.105469 " fill-opacity="1" fill-rule="nonzero"/><path fill="#000000" d="M 235.277344 295.550781 L 244.730469 295.800781 C 245.929688 289.046875 256.976562 227.457031 262.558594 216.613281 C 262.675781 216.390625 262.914062 216.261719 263.160156 216.289062 C 263.410156 216.316406 263.617188 216.496094 263.675781 216.738281 C 263.835938 217.355469 279.320312 277.910156 280.230469 294.921875 C 281.796875 295.050781 286.542969 295.371094 288.910156 294.71875 C 290 283.082031 290.59375 268.757812 290.726562 250.945312 C 290.929688 223.121094 288.476562 209.714844 286.617188 202.050781 C 285.496094 197.445312 284.148438 192.839844 282.601562 188.375 L 279.078125 178.3125 L 243.007812 184.621094 C 242.183594 190.433594 233.414062 253.261719 235.277344 295.550781 Z M 245.230469 297.015625 C 245.226562 297.015625 245.21875 297.015625 245.214844 297.015625 L 234.6875 296.734375 C 234.371094 296.726562 234.117188 296.476562 234.101562 296.164062 C 232.046875 251.90625 241.78125 184.691406 241.882812 184.015625 C 241.921875 183.757812 242.117188 183.554688 242.375 183.511719 L 279.375 177.039062 C 279.660156 176.992188 279.949219 177.15625 280.046875 177.433594 L 283.738281 187.980469 C 285.296875 192.484375 286.65625 197.121094 287.785156 201.765625 C 289.660156 209.492188 292.132812 222.996094 291.925781 250.953125 C 291.792969 269.003906 291.1875 283.488281 290.070312 295.230469 C 290.050781 295.460938 289.894531 295.660156 289.675781 295.738281 C 286.785156 296.777344 279.886719 296.101562 279.59375 296.070312 C 279.296875 296.039062 279.0625 295.792969 279.054688 295.496094 C 278.507812 280.878906 265.46875 228.726562 262.9375 218.703125 C 257.015625 233.390625 245.9375 295.867188 245.820312 296.519531 C 245.769531 296.808594 245.523438 297.015625 245.230469 297.015625 " fill-opacity="1" fill-rule="nonzero"/><path fill="#000000" d="M 263.148438 217.703125 C 262.898438 217.703125 262.660156 217.539062 262.578125 217.285156 C 261.226562 213.085938 257.464844 212.035156 257.304688 211.992188 C 256.984375 211.910156 256.792969 211.578125 256.878906 211.257812 C 256.960938 210.9375 257.289062 210.746094 257.609375 210.832031 C 257.792969 210.878906 262.167969 212.074219 263.722656 216.914062 C 263.824219 217.234375 263.652344 217.570312 263.335938 217.671875 C 263.273438 217.691406 263.210938 217.703125 263.148438 217.703125 " fill-opacity="1" fill-rule="nonzero"/><path fill="#000000" d="M 205.21875 158.890625 L 203.1875 164.273438 C 203.1875 164.273438 267.6875 194.648438 249.128906 150.535156 L 240.226562 126.917969 C 238.664062 128.679688 234.28125 148.371094 232.933594 156.769531 C 232.199219 161.335938 220.753906 159.179688 205.21875 158.890625 " fill-opacity="1" fill-rule="nonzero"/><path fill="#ffffff" d="M 189.46875 158.195312 L 190.664062 157.472656 C 193.355469 155.84375 196.679688 155.640625 199.546875 156.9375 L 204.828125 159.316406 L 203.144531 163.808594 C 203.144531 163.808594 196.875 165.679688 191.625 162.792969 C 191.097656 162.949219 190.292969 162.878906 190.097656 163.386719 C 189.199219 165.695312 188.410156 165.429688 187.796875 164.367188 C 186.5625 162.222656 187.351562 159.476562 189.46875 158.195312 " fill-opacity="1" fill-rule="nonzero"/><path fill="#000000" d="M 189.78125 158.710938 C 187.921875 159.835938 187.265625 162.238281 188.316406 164.066406 C 188.558594 164.488281 188.714844 164.550781 188.726562 164.554688 C 188.722656 164.550781 189.046875 164.421875 189.535156 163.167969 C 189.804688 162.476562 190.554688 162.367188 191.046875 162.292969 C 191.203125 162.273438 191.351562 162.25 191.460938 162.21875 L 191.699219 162.148438 L 191.917969 162.269531 C 196.261719 164.65625 201.4375 163.613281 202.691406 163.304688 L 204.066406 159.632812 L 199.300781 157.484375 C 196.613281 156.269531 193.5 156.457031 190.976562 157.984375 Z M 188.710938 165.757812 C 188.175781 165.757812 187.691406 165.390625 187.277344 164.664062 C 185.902344 162.277344 186.742188 159.144531 189.15625 157.683594 L 190.351562 156.957031 C 193.214844 155.226562 196.746094 155.011719 199.796875 156.386719 L 205.589844 159 L 203.601562 164.300781 L 203.316406 164.382812 C 203.054688 164.464844 196.902344 166.246094 191.542969 163.429688 C 191.433594 163.453125 191.328125 163.46875 191.222656 163.484375 C 191.046875 163.511719 190.71875 163.558594 190.644531 163.625 C 190.3125 164.496094 189.742188 165.683594 188.800781 165.753906 C 188.773438 165.753906 188.742188 165.757812 188.710938 165.757812 " fill-opacity="1" fill-rule="nonzero"/><path fill="#000000" d="M 191.625 163.398438 C 191.496094 163.398438 191.363281 163.351562 191.253906 163.265625 C 190.992188 163.058594 190.953125 162.679688 191.160156 162.421875 C 192.769531 160.40625 195.269531 159.308594 197.847656 159.488281 L 199.101562 159.574219 C 199.433594 159.597656 199.683594 159.886719 199.660156 160.214844 C 199.636719 160.546875 199.355469 160.792969 199.019531 160.773438 L 197.765625 160.6875 C 195.582031 160.535156 193.460938 161.464844 192.097656 163.171875 C 191.976562 163.320312 191.804688 163.398438 191.625 163.398438 " fill-opacity="1" fill-rule="nonzero"/><path fill="#ffffff" d="M 276.734375 125.605469 C 276.734375 125.605469 263.667969 117.675781 246.265625 125.863281 C 232.347656 132.410156 246.609375 162.003906 246.609375 162.003906 L 274.050781 162.003906 L 276.734375 125.605469 " fill-opacity="1" fill-rule="nonzero"/><path fill="#000000" d="M 240.226562 126.917969 C 242.253906 123.992188 248.445312 121.125 252.324219 121.921875 C 252.425781 121.945312 251.644531 123.324219 251.59375 123.601562 C 251.121094 126.039062 251.160156 128.554688 251.851562 130.941406 L 252.496094 133.15625 L 258.171875 150.6875 L 265.75 133.011719 L 266.351562 131.667969 C 267.632812 128.828125 268.035156 125.683594 267.617188 122.597656 C 267.59375 122.390625 265.542969 120.257812 265.582031 120.242188 C 268.761719 118.867188 274.835938 119.871094 275.851562 120.992188 C 287.058594 133.316406 285.023438 157.511719 285.023438 157.511719 C 285.023438 157.511719 292.351562 199.023438 289.503906 201.859375 C 286.546875 204.800781 276.515625 207.84375 261.84375 201.457031 C 260.449219 200.851562 257.21875 193.550781 257.21875 193.550781 L 257.132812 193.808594 C 256.609375 195.40625 255.796875 196.890625 254.738281 198.191406 L 254.242188 198.796875 C 254.242188 198.796875 238.660156 194.996094 238.585938 200.824219 L 240.144531 189.988281 C 241.628906 179.6875 242.097656 169.261719 241.546875 158.867188 C 241.546875 158.867188 235.996094 133.011719 240.226562 126.917969 " fill-opacity="1" fill-rule="nonzero"/><path fill="#ffffff" d="M 266.054688 133.011719 C 268.03125 129.507812 269.652344 124.984375 267.460938 122.132812 L 264.460938 118.890625 C 264.460938 118.890625 262.832031 123.804688 258.871094 125.082031 L 266.054688 133.011719 " fill-opacity="1" fill-rule="nonzero"/><path fill="#000000" d="M 259.898438 125.316406 L 265.929688 131.980469 C 267.339844 129.285156 268.953125 125.089844 267 122.515625 L 264.667969 119.996094 C 264.027344 121.40625 262.53125 124.078125 259.898438 125.316406 Z M 266.054688 133.609375 C 265.886719 133.609375 265.722656 133.539062 265.609375 133.414062 L 258.425781 125.480469 C 258.289062 125.328125 258.238281 125.121094 258.289062 124.921875 C 258.34375 124.726562 258.492188 124.570312 258.6875 124.507812 C 262.304688 123.34375 263.875 118.746094 263.890625 118.699219 C 263.960938 118.5 264.125 118.347656 264.335938 118.300781 C 264.542969 118.257812 264.757812 118.324219 264.90625 118.484375 L 267.902344 121.722656 C 267.914062 121.734375 267.925781 121.746094 267.9375 121.761719 C 270.394531 124.960938 268.554688 129.804688 266.578125 133.304688 C 266.480469 133.472656 266.3125 133.585938 266.121094 133.609375 C 266.097656 133.609375 266.074219 133.609375 266.054688 133.609375 " fill-opacity="1" fill-rule="nonzero"/><path fill="#ffffff" d="M 258.152344 125.007812 C 255.441406 123.605469 254.96875 119.246094 254.96875 119.246094 C 254.96875 119.246094 251.839844 121.574219 251.15625 125.007812 C 250.148438 130.058594 252.191406 133.457031 252.191406 133.457031 L 258.152344 125.007812 " fill-opacity="1" fill-rule="nonzero"/><path fill="#000000" d="M 254.566406 120.398438 C 253.644531 121.285156 252.171875 122.992188 251.746094 125.128906 C 251.089844 128.417969 251.796875 130.988281 252.296875 132.265625 L 257.292969 125.183594 C 255.609375 123.960938 254.871094 121.730469 254.566406 120.398438 Z M 252.191406 134.058594 C 252.183594 134.058594 252.179688 134.058594 252.171875 134.058594 C 251.96875 134.050781 251.78125 133.941406 251.679688 133.769531 C 251.589844 133.621094 249.527344 130.113281 250.566406 124.894531 C 251.289062 121.273438 254.476562 118.863281 254.609375 118.765625 C 254.78125 118.636719 255.007812 118.609375 255.207031 118.695312 C 255.40625 118.78125 255.542969 118.96875 255.566406 119.179688 C 255.570312 119.222656 256.039062 123.238281 258.429688 124.476562 C 258.585938 124.554688 258.695312 124.699219 258.738281 124.867188 C 258.777344 125.035156 258.746094 125.214844 258.644531 125.355469 L 252.683594 133.808594 C 252.570312 133.96875 252.386719 134.058594 252.191406 134.058594 " fill-opacity="1" fill-rule="nonzero"/><path fill="#ff2e00" d="M 278.183594 205.84375 C 276.859375 205.84375 275.539062 205.789062 274.261719 205.710938 C 271.445312 205.542969 267.707031 204.109375 264.703125 202.960938 C 263.574219 202.527344 262.601562 202.15625 261.824219 201.90625 C 260.777344 201.570312 258.699219 197.960938 257.234375 195.195312 C 256.402344 197.195312 254.980469 199.863281 253.394531 199.464844 C 245.25 197.429688 239.960938 197.679688 238.886719 200.140625 C 238.75 200.445312 238.398438 200.585938 238.09375 200.449219 C 237.789062 200.320312 237.648438 199.964844 237.785156 199.660156 C 239.523438 195.6875 247.390625 196.726562 253.683594 198.296875 C 254.25 198.441406 255.664062 196.128906 256.582031 193.535156 C 256.664062 193.308594 256.871094 193.152344 257.109375 193.136719 C 257.351562 193.121094 257.574219 193.25 257.683594 193.460938 C 259.363281 196.726562 261.566406 200.445312 262.210938 200.769531 C 263 201.023438 263.988281 201.398438 265.128906 201.839844 C 268.058594 202.957031 271.703125 204.351562 274.332031 204.511719 C 279.132812 204.804688 284.554688 204.792969 288.34375 202.53125 C 288.632812 202.363281 289 202.457031 289.171875 202.742188 C 289.339844 203.027344 289.246094 203.394531 288.960938 203.566406 C 285.933594 205.371094 282.035156 205.84375 278.183594 205.84375 " fill-opacity="1" fill-rule="nonzero"/><path fill="#ff2e00" d="M 254.191406 164.542969 C 254.046875 164.542969 253.90625 164.492188 253.792969 164.390625 C 253.542969 164.171875 253.519531 163.792969 253.742188 163.542969 C 262.921875 153.175781 274.835938 131.484375 275.71875 123.527344 C 275.753906 123.199219 276.058594 122.960938 276.382812 123 C 276.710938 123.035156 276.949219 123.332031 276.914062 123.660156 C 275.917969 132.636719 263.316406 154.542969 254.640625 164.339844 C 254.519531 164.472656 254.355469 164.542969 254.191406 164.542969 " fill-opacity="1" fill-rule="nonzero"/><path fill="#ff2e00" d="M 255.933594 154.832031 C 255.757812 154.832031 255.585938 154.757812 255.46875 154.613281 C 250.859375 149.003906 243 129.273438 244.011719 124.210938 C 244.078125 123.882812 244.398438 123.671875 244.71875 123.738281 C 245.042969 123.800781 245.257812 124.121094 245.191406 124.445312 C 244.335938 128.714844 251.773438 148.226562 256.398438 153.847656 C 256.609375 154.105469 256.570312 154.484375 256.3125 154.695312 C 256.203125 154.789062 256.066406 154.832031 255.933594 154.832031 " fill-opacity="1" fill-rule="nonzero"/><path fill="#ff2e00" d="M 256.429688 189.566406 C 256.125 189.566406 255.867188 189.339844 255.832031 189.027344 L 253.59375 168.113281 C 253.558594 167.785156 253.796875 167.488281 254.125 167.453125 C 254.457031 167.417969 254.75 167.65625 254.789062 167.988281 L 257.027344 188.902344 C 257.0625 189.230469 256.824219 189.527344 256.496094 189.5625 C 256.472656 189.566406 256.453125 189.566406 256.429688 189.566406 " fill-opacity="1" fill-rule="nonzero"/><path fill="#ff2e00" d="M 241.863281 173.574219 C 241.53125 173.574219 241.261719 173.304688 241.261719 172.972656 L 241.261719 159.753906 C 241.261719 159.421875 241.53125 159.152344 241.863281 159.152344 C 242.195312 159.152344 242.464844 159.421875 242.464844 159.753906 L 242.464844 172.972656 C 242.464844 173.304688 242.195312 173.574219 241.863281 173.574219 " fill-opacity="1" fill-rule="nonzero"/><path fill="#000000" d="M 260.410156 113.65625 C 261.683594 114.707031 264.132812 115.949219 265.949219 114.917969 C 267.296875 114.148438 267.980469 112.300781 267.828125 110.230469 C 268.472656 110.25 269.3125 110.164062 269.886719 109.601562 C 270.769531 108.738281 270.519531 107.246094 270.433594 106.257812 C 270.039062 101.707031 272.652344 100.871094 271.847656 97.808594 C 271.21875 95.402344 269.230469 94.046875 268.859375 93.796875 C 266.988281 92.519531 265.789062 93.023438 262.714844 92.378906 C 257.542969 91.300781 257.273438 89.109375 253.910156 89.269531 C 253.714844 89.277344 249.140625 89.558594 247.746094 92.796875 C 246.613281 95.433594 248.246094 98.484375 249.855469 100.050781 C 251.9375 102.078125 253.304688 100.953125 255.375 102.636719 C 259.011719 105.59375 256.628906 110.527344 260.410156 113.65625 " fill-opacity="1" fill-rule="nonzero"/><path fill="#ffffff" d="M 249.816406 106.03125 L 250.003906 105.847656 C 250.972656 104.925781 251.972656 103.859375 252.175781 102.542969 C 253.035156 96.933594 258.019531 94.660156 258.511719 99.746094 C 258.632812 101.03125 263.328125 100.726562 262.839844 102.105469 C 261.5625 105.699219 261.484375 104.753906 263.597656 105.949219 C 263.835938 105.945312 264.066406 105.984375 264.289062 106.074219 C 265.367188 106.511719 265.808594 107.921875 265.28125 109.222656 C 264.960938 110.015625 264.355469 110.574219 263.6875 110.800781 L 263.96875 116.367188 C 264.074219 118.449219 265.429688 120.265625 267.398438 120.957031 L 269.316406 121.628906 C 269.316406 121.628906 261.433594 128.21875 252.230469 122.390625 L 253.441406 120.898438 C 255.484375 119.855469 256.109375 118.210938 256.066406 115.917969 L 256.023438 114.828125 C 255.425781 114.914062 254.847656 114.902344 254.304688 114.773438 C 251.78125 114.175781 250.808594 111.351562 251.054688 107.769531 L 250.015625 107.277344 C 249.53125 107.046875 249.425781 106.402344 249.816406 106.03125 " fill-opacity="1" fill-rule="nonzero"/><path fill="#000000" d="M 253.132812 122.234375 C 259.863281 126.125 265.808594 123.210938 268.019531 121.808594 L 267.199219 121.523438 C 264.992188 120.746094 263.484375 118.734375 263.371094 116.394531 L 263.089844 110.832031 C 263.074219 110.566406 263.238281 110.320312 263.496094 110.234375 C 264.023438 110.050781 264.484375 109.589844 264.726562 108.996094 C 264.929688 108.496094 264.960938 107.964844 264.816406 107.503906 C 264.683594 107.082031 264.414062 106.773438 264.0625 106.628906 C 263.925781 106.574219 263.773438 106.546875 263.605469 106.546875 C 263.605469 106.546875 263.601562 106.546875 263.601562 106.546875 C 263.5 106.546875 263.398438 106.519531 263.304688 106.472656 C 262.949219 106.269531 262.65625 106.128906 262.417969 106.019531 C 260.992188 105.347656 261.195312 104.804688 261.800781 103.191406 C 261.929688 102.851562 262.082031 102.445312 262.257812 101.949219 C 262.023438 101.757812 261.15625 101.5625 260.628906 101.445312 C 259.34375 101.152344 258.015625 100.851562 257.914062 99.804688 C 257.773438 98.371094 257.246094 97.539062 256.460938 97.515625 C 255.269531 97.480469 253.28125 99.285156 252.769531 102.632812 C 252.539062 104.15625 251.4375 105.3125 250.421875 106.28125 L 250.230469 106.464844 C 250.179688 106.511719 250.175781 106.570312 250.183594 106.609375 C 250.1875 106.640625 250.207031 106.699219 250.273438 106.734375 L 251.3125 107.226562 C 251.535156 107.332031 251.671875 107.5625 251.65625 107.808594 C 251.542969 109.5 251.582031 113.507812 254.441406 114.1875 C 254.894531 114.292969 255.398438 114.308594 255.941406 114.234375 C 256.109375 114.210938 256.277344 114.257812 256.410156 114.367188 C 256.539062 114.472656 256.617188 114.632812 256.625 114.804688 L 256.667969 115.890625 C 256.722656 118.605469 255.84375 120.300781 253.832031 121.371094 Z M 260.09375 125.378906 C 257.613281 125.378906 254.820312 124.742188 251.910156 122.898438 C 251.765625 122.804688 251.664062 122.65625 251.636719 122.488281 C 251.609375 122.316406 251.65625 122.144531 251.765625 122.011719 L 252.980469 120.515625 C 253.03125 120.449219 253.097656 120.398438 253.171875 120.359375 C 254.84375 119.507812 255.511719 118.222656 255.46875 115.925781 L 255.449219 115.480469 C 254.996094 115.492188 254.570312 115.453125 254.167969 115.355469 C 251.609375 114.75 250.261719 112.128906 250.433594 108.136719 L 249.757812 107.820312 C 249.351562 107.625 249.066406 107.246094 248.996094 106.800781 C 248.921875 106.359375 249.074219 105.90625 249.402344 105.59375 L 249.59375 105.410156 C 250.464844 104.582031 251.40625 103.597656 251.582031 102.449219 C 252.175781 98.59375 254.578125 96.261719 256.496094 96.3125 C 257.03125 96.332031 258.8125 96.617188 259.109375 99.691406 C 259.246094 99.898438 260.320312 100.140625 260.894531 100.269531 C 262.015625 100.527344 262.984375 100.746094 263.347656 101.402344 C 263.5 101.679688 263.519531 101.992188 263.40625 102.308594 C 263.21875 102.832031 263.058594 103.261719 262.929688 103.613281 C 262.75 104.089844 262.578125 104.539062 262.542969 104.738281 C 262.628906 104.789062 262.785156 104.863281 262.929688 104.933594 C 263.15625 105.039062 263.429688 105.167969 263.765625 105.351562 C 264.027344 105.367188 264.28125 105.421875 264.519531 105.519531 C 265.207031 105.796875 265.722656 106.375 265.960938 107.144531 C 266.191406 107.871094 266.148438 108.6875 265.839844 109.449219 C 265.527344 110.21875 264.984375 110.832031 264.308594 111.1875 L 264.570312 116.335938 C 264.664062 118.183594 265.851562 119.773438 267.597656 120.390625 L 269.515625 121.0625 C 269.71875 121.132812 269.871094 121.308594 269.90625 121.519531 C 269.945312 121.734375 269.867188 121.949219 269.703125 122.089844 C 269.644531 122.136719 265.671875 125.378906 260.09375 125.378906 " fill-opacity="1" fill-rule="nonzero"/><path fill="#000000" d="M 256.023438 115.429688 C 255.742188 115.429688 255.492188 115.234375 255.433594 114.949219 C 255.367188 114.625 255.578125 114.308594 255.902344 114.242188 C 258.984375 113.605469 260.3125 111.105469 260.324219 111.082031 C 260.476562 110.789062 260.839844 110.671875 261.132812 110.820312 C 261.425781 110.972656 261.546875 111.332031 261.394531 111.628906 C 261.332031 111.753906 259.808594 114.667969 256.144531 115.417969 C 256.105469 115.425781 256.0625 115.429688 256.023438 115.429688 " fill-opacity="1" fill-rule="nonzero"/><path fill="#5479f7" d="M 249.199219 122.386719 C 257.417969 148.933594 273.128906 174.292969 290.351562 194.714844 C 291.214844 195.738281 291.519531 197.117188 291.148438 198.398438 L 290.214844 201.640625 C 289.882812 202.792969 288.425781 203.136719 287.601562 202.265625 C 266.5 179.851562 251.277344 155.214844 242.183594 124.503906 C 242.015625 123.949219 242.320312 123.363281 242.878906 123.203125 L 247.957031 121.753906 C 248.476562 121.605469 249.039062 121.875 249.199219 122.386719 " fill-opacity="1" fill-rule="nonzero"/><path fill="#ffffff" d="M 285.585938 185.035156 L 282.277344 191.804688 C 282.277344 191.804688 279.601562 194.804688 278.128906 195.347656 C 277.03125 195.753906 272.285156 194.609375 269.78125 192.597656 C 268.78125 191.800781 269.265625 190.195312 270.539062 190.105469 C 272.730469 189.949219 275.753906 189.617188 276.191406 188.972656 L 272.457031 188.023438 C 272.117188 187.9375 272.054688 187.476562 272.363281 187.304688 C 274.015625 186.371094 276.316406 185.5 279.78125 184.753906 L 281.617188 182.269531 L 285.585938 185.035156 " fill-opacity="1" fill-rule="nonzero"/><path fill="#000000" d="M 273.128906 187.574219 L 277.171875 188.601562 L 276.6875 189.308594 C 276.46875 189.636719 276.007812 190.320312 270.582031 190.703125 C 270.082031 190.742188 269.921875 191.132812 269.886719 191.253906 C 269.84375 191.375 269.75 191.808594 270.15625 192.132812 C 272.578125 194.070312 277.085938 195.089844 277.917969 194.785156 C 278.988281 194.390625 281.011719 192.3125 281.773438 191.464844 L 284.820312 185.238281 L 281.75 183.097656 L 280.128906 185.292969 L 279.910156 185.339844 C 277.074219 185.949219 274.847656 186.6875 273.128906 187.574219 Z M 277.5 196.023438 C 275.546875 196.023438 271.65625 194.875 269.40625 193.070312 C 268.75 192.542969 268.488281 191.691406 268.738281 190.894531 C 268.984375 190.097656 269.660156 189.566406 270.496094 189.507812 C 272.238281 189.382812 273.402344 189.226562 274.183594 189.082031 L 272.308594 188.609375 C 271.914062 188.507812 271.621094 188.179688 271.566406 187.777344 C 271.515625 187.371094 271.710938 186.984375 272.0625 186.78125 C 273.90625 185.742188 276.320312 184.898438 279.433594 184.214844 L 281.480469 181.441406 L 286.351562 184.839844 L 282.78125 192.140625 L 282.726562 192.203125 C 282.441406 192.523438 279.90625 195.335938 278.332031 195.914062 C 278.128906 195.988281 277.84375 196.023438 277.5 196.023438 " fill-opacity="1" fill-rule="nonzero"/><path fill="#000000" d="M 279.46875 183.734375 L 284.195312 157.589844 L 275.855469 120.988281 C 285.25 118.289062 292.335938 133.742188 299.058594 152.214844 C 300.082031 155.027344 300.0625 158.113281 299.023438 160.917969 L 288.675781 188.714844 L 279.46875 183.734375 " fill-opacity="1" fill-rule="nonzero"/><path fill="#ff2e00" d="M 281.054688 179.183594 C 281.011719 179.183594 280.960938 179.175781 280.910156 179.164062 C 280.589844 179.085938 280.390625 178.757812 280.472656 178.4375 L 284.167969 163.578125 C 284.175781 163.554688 284.179688 163.535156 284.1875 163.511719 C 285.382812 160.34375 285.433594 156.839844 284.335938 153.640625 L 281.59375 148.414062 C 281.4375 148.121094 281.550781 147.757812 281.847656 147.601562 C 282.140625 147.449219 282.5 147.5625 282.660156 147.855469 L 285.421875 153.125 C 285.4375 153.148438 285.445312 153.175781 285.460938 153.207031 C 286.65625 156.667969 286.609375 160.46875 285.328125 163.902344 L 281.640625 178.730469 C 281.570312 179 281.324219 179.183594 281.054688 179.183594 " fill-opacity="1" fill-rule="nonzero"/><path fill="#000000" d="M 146.667969 135.046875 C 146.667969 135.046875 138.136719 146.75 130.441406 138.542969 C 122.746094 130.339844 132.820312 121.953125 138.136719 125.464844 C 138.136719 125.464844 134.070312 116.183594 139.273438 112.847656 C 144.472656 109.515625 147.667969 111.238281 147.667969 111.238281 C 147.667969 111.238281 147.855469 108.363281 150.699219 109.738281 C 153.542969 111.117188 155.140625 109.902344 157.339844 110.960938 C 159.539062 112.019531 156.019531 118.558594 156.019531 118.558594 L 146.667969 135.046875 " fill-opacity="1" fill-rule="nonzero"/><path fill="#ffffff" d="M 155.621094 112.699219 C 155.621094 112.699219 157.855469 116.101562 158.230469 118.136719 C 158.605469 120.171875 160.832031 121.167969 160.832031 121.167969 L 160.214844 122.585938 L 159.449219 127.820312 C 159.316406 128.734375 158.492188 129.382812 157.574219 129.308594 L 153.828125 128.996094 C 153.828125 128.996094 151.546875 136.222656 151.632812 137.578125 C 151.71875 138.929688 158.632812 146.601562 158.632812 146.601562 C 158.632812 146.601562 144.164062 142.976562 138.835938 144.316406 C 138.835938 144.316406 142.171875 139.410156 143.296875 136.34375 C 144.421875 133.277344 146.28125 126.820312 146.28125 126.820312 C 146.28125 126.820312 150.089844 127.996094 150.808594 124.816406 C 151.632812 121.167969 150.816406 111.699219 155.621094 112.699219 " fill-opacity="1" fill-rule="nonzero"/><path fill="#000000" d="M 141.917969 143.417969 C 146.761719 143.417969 153.640625 144.835938 156.917969 145.578125 C 154.546875 142.882812 151.109375 138.789062 151.035156 137.613281 C 150.945312 136.21875 152.871094 130.039062 153.257812 128.816406 C 153.34375 128.546875 153.601562 128.375 153.878906 128.398438 L 157.625 128.707031 C 158.226562 128.761719 158.769531 128.332031 158.851562 127.734375 L 159.617188 122.5 C 159.625 122.445312 159.640625 122.394531 159.664062 122.34375 L 160.0625 121.433594 C 159.300781 120.964844 157.945312 119.921875 157.640625 118.242188 C 157.34375 116.636719 155.742188 114.015625 155.257812 113.25 C 154.714844 113.179688 154.261719 113.285156 153.882812 113.570312 C 152.375 114.695312 152.070312 118.386719 151.824219 121.351562 C 151.714844 122.71875 151.609375 124.007812 151.394531 124.945312 C 151.171875 125.945312 150.65625 126.683594 149.871094 127.140625 C 148.785156 127.765625 147.457031 127.664062 146.699219 127.53125 C 146.226562 129.160156 144.789062 134.023438 143.859375 136.550781 C 143.050781 138.765625 141.15625 141.84375 140.09375 143.5 C 140.65625 143.445312 141.269531 143.417969 141.917969 143.417969 Z M 158.632812 147.203125 C 158.585938 147.203125 158.539062 147.195312 158.492188 147.183594 C 158.347656 147.148438 144.101562 143.609375 138.980469 144.898438 C 138.738281 144.960938 138.484375 144.863281 138.34375 144.660156 C 138.199219 144.457031 138.199219 144.183594 138.339844 143.980469 C 138.371094 143.929688 141.644531 139.097656 142.734375 136.136719 C 143.839844 133.125 145.6875 126.71875 145.703125 126.652344 C 145.746094 126.5 145.851562 126.367188 145.996094 126.292969 C 146.136719 126.214844 146.304688 126.199219 146.457031 126.246094 C 146.472656 126.25 148.152344 126.746094 149.273438 126.097656 C 149.761719 125.8125 150.070312 125.347656 150.222656 124.683594 C 150.414062 123.824219 150.519531 122.578125 150.628906 121.253906 C 150.90625 117.878906 151.222656 114.058594 153.164062 112.605469 C 153.878906 112.070312 154.75 111.90625 155.742188 112.113281 C 155.902344 112.144531 156.035156 112.238281 156.125 112.371094 C 156.21875 112.515625 158.429688 115.898438 158.820312 118.027344 C 159.132812 119.71875 161.0625 120.613281 161.082031 120.621094 C 161.378906 120.757812 161.515625 121.109375 161.382812 121.410156 L 160.796875 122.75 L 160.042969 127.90625 C 159.863281 129.132812 158.757812 130.007812 157.523438 129.90625 L 154.257812 129.632812 C 153.394531 132.421875 152.175781 136.683594 152.230469 137.539062 C 152.359375 138.339844 155.8125 142.574219 159.082031 146.199219 C 159.261719 146.394531 159.285156 146.683594 159.148438 146.910156 C 159.039062 147.09375 158.839844 147.203125 158.632812 147.203125 " fill-opacity="1" fill-rule="nonzero"/><path fill="#5479f7" d="M 179.195312 274.59375 C 168.367188 240.464844 163.394531 181.125 162.328125 166.96875 C 162.175781 164.957031 162.625 162.949219 163.609375 161.191406 C 163.964844 158.9375 165 154.824219 163.082031 152.183594 L 158.289062 145.574219 C 151.929688 141.359375 141.800781 138.402344 140.054688 140.355469 C 138.304688 142.3125 136.042969 153.984375 139.179688 160.800781 C 142.3125 167.617188 140.023438 181.84375 140.023438 181.84375 C 131.621094 186.195312 66.984375 260.445312 28.742188 259.035156 C 25.539062 259.253906 24.125 263.476562 23.960938 266.679688 L 23.773438 270.390625 C 23.367188 278.453125 24.191406 286.5625 26.519531 294.292969 C 27.40625 297.238281 28.980469 299.660156 33.417969 301.949219 C 49.78125 310.382812 52.996094 302.535156 67.296875 309.808594 C 81.601562 317.082031 88.007812 332.894531 107.054688 324.523438 C 126.101562 316.160156 125.683594 321.367188 145 330.46875 C 164.3125 339.570312 178.996094 331.496094 182.847656 324.886719 C 186.699219 318.273438 191.546875 313.542969 179.195312 274.59375 " fill-opacity="1" fill-rule="nonzero"/><path fill="#ffffff" d="M 64.414062 291.496094 C 64.121094 291.496094 63.863281 291.277344 63.820312 290.976562 C 63.777344 290.648438 64.007812 290.34375 64.335938 290.300781 C 64.589844 290.265625 89.984375 286.5 117.96875 257.839844 C 145.90625 229.230469 146.773438 210.667969 146.777344 210.480469 C 146.789062 210.152344 147.074219 209.890625 147.394531 209.898438 C 147.726562 209.910156 147.988281 210.1875 147.980469 210.515625 C 147.957031 211.285156 147.148438 229.675781 118.828125 258.679688 C 104.054688 273.8125 90.089844 281.921875 80.976562 286.0625 C 71.074219 290.558594 64.761719 291.457031 64.496094 291.492188 C 64.46875 291.496094 64.441406 291.496094 64.414062 291.496094 " fill-opacity="1" fill-rule="nonzero"/><path fill="#ffffff" d="M 130.402344 283.496094 C 130.269531 283.496094 130.136719 283.453125 130.027344 283.367188 C 129.765625 283.160156 129.722656 282.78125 129.929688 282.523438 C 146.875 261.257812 152.734375 241.683594 154.667969 229.007812 C 156.761719 215.269531 154.824219 206.445312 154.804688 206.359375 C 154.734375 206.035156 154.9375 205.714844 155.257812 205.640625 C 155.582031 205.566406 155.902344 205.769531 155.976562 206.09375 C 156.0625 206.457031 157.980469 215.179688 155.867188 229.121094 C 153.917969 241.957031 148 261.773438 130.871094 283.273438 C 130.753906 283.417969 130.578125 283.496094 130.402344 283.496094 " fill-opacity="1" fill-rule="nonzero"/><path fill="#5479f7" d="M 156.246094 108.714844 L 155.226562 113.71875 C 155.886719 113.394531 156.539062 113.039062 157.1875 112.652344 Z M 150.898438 112.808594 C 150.785156 112.808594 150.679688 112.816406 150.574219 112.835938 C 149.578125 113.011719 148.65625 113.996094 147.535156 116.097656 C 149.746094 115.78125 151.835938 115.199219 153.84375 114.351562 C 152.6875 113.316406 151.71875 112.808594 150.898438 112.808594 Z M 143.28125 117.597656 C 141.183594 117.597656 138.972656 117.410156 136.609375 117.035156 C 136.28125 116.984375 136.058594 116.675781 136.109375 116.347656 C 136.160156 116.019531 136.46875 115.796875 136.796875 115.847656 C 140.207031 116.386719 143.292969 116.53125 146.15625 116.261719 C 146.160156 116.179688 146.179688 116.097656 146.21875 116.019531 C 147.273438 113.941406 148.507812 111.976562 150.367188 111.652344 C 151.519531 111.449219 152.734375 111.890625 154.140625 113.023438 L 155.609375 105.8125 C 155.667969 105.539062 155.90625 105.335938 156.1875 105.332031 C 156.46875 105.324219 156.71875 105.519531 156.78125 105.792969 L 158.460938 112.800781 C 158.519531 113.050781 158.410156 113.316406 158.191406 113.453125 C 153.640625 116.25 148.875 117.597656 143.28125 117.597656 " fill-opacity="1" fill-rule="nonzero"/><path fill="#5479f7" d="M 149.800781 112.625 C 149.726562 112.625 149.648438 112.613281 149.574219 112.582031 C 149.265625 112.453125 149.121094 112.105469 149.246094 111.796875 L 151.378906 106.617188 C 151.445312 106.453125 151.589844 106.324219 151.761719 106.269531 C 151.9375 106.21875 152.125 106.246094 152.273438 106.351562 L 155.625 108.632812 C 155.898438 108.824219 155.96875 109.195312 155.78125 109.46875 C 155.59375 109.746094 155.21875 109.816406 154.945312 109.628906 L 152.207031 107.761719 L 150.355469 112.253906 C 150.261719 112.488281 150.039062 112.625 149.800781 112.625 " fill-opacity="1" fill-rule="nonzero"/><path fill="#99b9ff" d="M 164.203125 147.734375 C 163.03125 146.152344 160.453125 144.546875 156.996094 142.925781 C 163.136719 164.269531 158.742188 179.113281 133.355469 187.128906 C 127.726562 191.152344 123.5625 194.550781 121.738281 198.347656 C 158.996094 187.796875 173.003906 172.617188 164.203125 147.734375 " fill-opacity="1" fill-rule="nonzero"/><path fill="#5479f7" d="M 133.628906 187.671875 C 128.558594 191.300781 124.925781 194.273438 122.96875 197.367188 C 144.886719 190.988281 158.109375 182.929688 163.375 172.746094 C 166.976562 165.789062 167.074219 157.703125 163.667969 148.023438 C 162.746094 146.824219 160.820312 145.492188 157.929688 144.046875 C 160.925781 155.070312 160.796875 163.433594 157.542969 170.285156 C 153.851562 178.050781 146.03125 183.742188 133.628906 187.671875 Z M 120.621094 199.289062 L 121.195312 198.085938 C 123.023438 194.28125 127.070312 190.882812 133.007812 186.640625 L 133.085938 186.585938 L 133.175781 186.554688 C 156.148438 179.300781 163.097656 166.304688 156.417969 143.089844 L 156.050781 141.820312 L 157.25 142.382812 C 161.101562 144.1875 163.535156 145.820312 164.6875 147.375 L 164.742188 147.445312 L 164.773438 147.53125 C 168.324219 157.582031 168.21875 166.011719 164.445312 173.300781 C 158.828125 184.152344 145.308594 192.296875 121.902344 198.925781 L 120.621094 199.289062 " fill-opacity="1" fill-rule="nonzero"/><path fill="#ffffff" d="M 184.394531 169.039062 C 183.136719 166.992188 180.054688 171.339844 175.324219 171.9375 C 174.640625 172.023438 174.226562 171.820312 174.574219 171.222656 C 175.140625 170.25 176.648438 168.984375 175.8125 168.21875 C 174.472656 167 172.042969 169.332031 170.671875 171.59375 C 168.53125 175.144531 164.90625 176.617188 161.472656 177.292969 C 157.113281 177.328125 152.417969 176.601562 149.527344 173.976562 C 144.960938 169.824219 148.03125 157.804688 149.964844 151.753906 C 150.863281 148.945312 150.089844 145.863281 147.941406 143.84375 C 145.433594 141.492188 143.195312 141.515625 141.566406 142.152344 C 140.015625 142.757812 138.828125 144.039062 138.238281 145.59375 C 136.046875 151.363281 128.953125 173.058594 142.148438 182.304688 C 147.820312 186.277344 154.445312 187.273438 160.917969 184.695312 C 165.609375 182.828125 169.796875 179.914062 174.667969 178.472656 C 178.042969 177.476562 181.960938 176.066406 183.835938 172.855469 C 184.585938 171.574219 184.785156 169.683594 184.394531 169.039062 " fill-opacity="1" fill-rule="nonzero"/><path fill="#000000" d="M 143.464844 142.382812 C 142.902344 142.382812 142.34375 142.492188 141.785156 142.710938 C 140.433594 143.238281 139.347656 144.367188 138.800781 145.804688 C 136.449219 152 129.765625 172.894531 142.496094 181.8125 C 148.113281 185.746094 154.574219 186.574219 160.695312 184.136719 C 162.625 183.371094 164.515625 182.398438 166.335938 181.460938 C 168.929688 180.128906 171.605469 178.75 174.5 177.898438 C 178.074219 176.839844 181.621094 175.460938 183.316406 172.554688 C 184.015625 171.355469 184.101562 169.71875 183.882812 169.355469 C 183.574219 168.859375 183.007812 169.09375 181.210938 170.167969 C 179.671875 171.085938 177.757812 172.234375 175.402344 172.53125 C 174.546875 172.636719 174.164062 172.355469 173.992188 172.097656 C 173.871094 171.910156 173.714844 171.507812 174.054688 170.921875 C 174.226562 170.625 174.464844 170.320312 174.695312 170.023438 C 175.058594 169.554688 175.609375 168.851562 175.40625 168.664062 C 175.238281 168.511719 175.050781 168.457031 174.796875 168.496094 C 173.8125 168.640625 172.296875 170.074219 171.1875 171.90625 C 169.304688 175.023438 166.164062 176.980469 161.589844 177.882812 C 161.554688 177.890625 161.515625 177.894531 161.476562 177.898438 C 155.855469 177.9375 151.703125 176.769531 149.125 174.421875 C 144.378906 170.105469 147.257812 158.25 149.394531 151.570312 C 150.21875 148.984375 149.488281 146.121094 147.527344 144.28125 C 146.179688 143.019531 144.820312 142.382812 143.464844 142.382812 Z M 153.6875 186.714844 C 149.578125 186.714844 145.515625 185.398438 141.804688 182.796875 C 128.367188 173.378906 135.246094 151.777344 137.675781 145.378906 C 138.34375 143.625 139.679688 142.242188 141.347656 141.59375 C 142.980469 140.953125 145.519531 140.75 148.351562 143.40625 C 150.648438 145.5625 151.507812 148.910156 150.539062 151.9375 C 148.886719 157.09375 145.527344 169.523438 149.933594 173.53125 C 152.242188 175.632812 156.226562 176.722656 161.414062 176.695312 C 165.605469 175.855469 168.46875 174.085938 170.160156 171.285156 C 171.175781 169.597656 172.957031 167.546875 174.625 167.304688 C 175.234375 167.21875 175.78125 167.378906 176.214844 167.777344 C 177.238281 168.710938 176.277344 169.945312 175.640625 170.761719 C 175.480469 170.96875 175.328125 171.164062 175.207031 171.34375 C 175.222656 171.34375 175.234375 171.339844 175.25 171.339844 C 177.355469 171.074219 179.148438 170 180.59375 169.136719 C 182.3125 168.109375 183.933594 167.140625 184.90625 168.726562 C 185.449219 169.621094 185.191406 171.730469 184.355469 173.160156 C 182.445312 176.429688 178.652344 177.921875 174.839844 179.046875 C 172.054688 179.871094 169.429688 181.222656 166.886719 182.53125 C 165.039062 183.480469 163.125 184.464844 161.140625 185.253906 C 158.683594 186.230469 156.175781 186.714844 153.6875 186.714844 " fill-opacity="1" fill-rule="nonzero"/></svg>