<?xml version="1.0" encoding="UTF-8" standalone="no"?>
<!-- Created with Inkscape (http://www.inkscape.org/) -->

<svg
   version="1.1"
   id="svg1740"
   xml:space="preserve"
   width="682.66669"
   height="682.66669"
   viewBox="0 0 682.66669 682.66669"
   xmlns="http://www.w3.org/2000/svg"
   xmlns:svg="http://www.w3.org/2000/svg"><defs
     id="defs1744"><clipPath
       clipPathUnits="userSpaceOnUse"
       id="clipPath1754"><path
         d="M 0,512 H 512 V 0 H 0 Z"
         id="path1752" /></clipPath></defs><g
     id="g1746"
     transform="matrix(1.3333333,0,0,-1.3333333,0,682.66667)"><g
       id="g1748"><g
         id="g1750"
         clip-path="url(#clipPath1754)"><g
           id="g1756"
           transform="translate(295.5122,16.9116)"><path
             d="m 0,0 c -14.279,-5.146 -29.677,-7.952 -45.732,-7.952 -74.5,0 -134.89,60.39 -134.89,134.89 0,42.74 19.88,80.84 50.89,105.55 23.05,18.36 52.24,29.341 84,29.341 27,0 52.15,-7.931 73.24,-21.6"
             style="fill:none;stroke:#000000;stroke-width:15;stroke-linecap:round;stroke-linejoin:round;stroke-miterlimit:10;stroke-dasharray:none;stroke-opacity:1"
             id="path1758" /></g><g
           id="g1760"
           transform="translate(380.1782,125.7456)"><path
             d="m 0,0 c -11.383,6.138 -19.118,18.17 -19.118,32.01 0,20.071 16.271,36.342 36.343,36.342 20.071,0 36.343,-16.271 36.343,-36.342 0,-13.989 -7.903,-26.131 -19.487,-32.206"
             style="fill:none;stroke:#000000;stroke-width:15;stroke-linecap:round;stroke-linejoin:round;stroke-miterlimit:10;stroke-dasharray:none;stroke-opacity:1"
             id="path1762" /></g><g
           id="g1764"
           transform="translate(415.02,302.21)"><path
             d="m 0,0 c 36.01,-7.89 63.33,-39.58 64.67,-77.46 0.26,-7.26 -0.43,-14.32 -1.95,-21.07 -1.92,-8.59 -0.08,-17.56 5.22,-24.58 13.53,-17.93 21.55,-40.24 21.55,-64.43 0,-58.81 -47.4,-106.55 -106.08,-107.1 -58.83,-0.55 -107.52,47.14 -108.12,105.97 -0.26,24.7 7.85,47.5 21.67,65.73 5.15,6.8 7.13,15.55 5.21,23.86 -1.39,5.99 -2.13,12.23 -2.13,18.64 0,39.42 27.72,72.38 64.73,80.45"
             style="fill:none;stroke:#000000;stroke-width:15;stroke-linecap:round;stroke-linejoin:round;stroke-miterlimit:10;stroke-dasharray:none;stroke-opacity:1"
             id="path1766" /></g><g
           id="g1768"
           transform="translate(290.73,105.1201)"><path
             d="m 0,0 c -10.27,-10.86 -24.82,-17.64 -40.95,-17.64 -31.13,0 -56.37,25.24 -56.37,56.37 0,31.13 25.24,56.37 56.37,56.37 23.98,0 44.47,-14.98 52.61,-36.1"
             style="fill:none;stroke:#000000;stroke-width:15;stroke-linecap:round;stroke-linejoin:round;stroke-miterlimit:10;stroke-dasharray:none;stroke-opacity:1"
             id="path1770" /></g><g
           id="g1772"
           transform="translate(165.7798,249.3999)"><path
             d="M 0,0 V 67.82 H 160.57 V 13.99"
             style="fill:none;stroke:#000000;stroke-width:15;stroke-linecap:round;stroke-linejoin:round;stroke-miterlimit:10;stroke-dasharray:none;stroke-opacity:1"
             id="path1774" /></g><g
           id="g1776"
           transform="translate(149.3184,53.8447)"><path
             d="M 0,0 -26.167,-44.884"
             style="fill:none;stroke:#000000;stroke-width:15;stroke-linecap:round;stroke-linejoin:round;stroke-miterlimit:10;stroke-dasharray:none;stroke-opacity:1"
             id="path1778" /></g><g
           id="g1780"
           transform="translate(83.98,301.1177)"><path
             d="M 0,0 V -291.497"
             style="fill:none;stroke:#000000;stroke-width:15;stroke-linecap:round;stroke-linejoin:round;stroke-miterlimit:10;stroke-dasharray:none;stroke-opacity:1"
             id="path1782" /></g><g
           id="g1784"
           transform="translate(83.98,382.2549)"><path
             d="M 0,0 V -46.148"
             style="fill:none;stroke:#000000;stroke-width:15;stroke-linecap:round;stroke-linejoin:round;stroke-miterlimit:10;stroke-dasharray:none;stroke-opacity:1"
             id="path1786" /></g><g
           id="g1788"
           transform="translate(341.3115,317.2222)"><path
             d="M 0,0 H -189.871"
             style="fill:none;stroke:#000000;stroke-width:15;stroke-linecap:round;stroke-linejoin:round;stroke-miterlimit:10;stroke-dasharray:none;stroke-opacity:1"
             id="path1790" /></g><g
           id="g1792"
           transform="translate(146.8296,365.5791)"><path
             d="m 0,0 -127.885,35.453 c -8.313,2.305 -13.184,10.913 -10.88,19.226 l 0.032,0.115 c 2.305,8.314 10.913,13.185 19.226,10.88 L 8.378,30.221 C 16.691,27.917 21.562,19.309 19.258,10.995 L 19.226,10.88 C 16.921,2.566 8.313,-2.305 0,0 Z"
             style="fill:none;stroke:#000000;stroke-width:15;stroke-linecap:round;stroke-linejoin:round;stroke-miterlimit:10;stroke-dasharray:none;stroke-opacity:1"
             id="path1794" /></g><g
           id="g1796"
           transform="translate(415.02,189.5498)"><path
             d="M 0,0 V 112.66 233.2 H -35.23 V 112.67 0"
             style="fill:none;stroke:#000000;stroke-width:15;stroke-linecap:round;stroke-linejoin:round;stroke-miterlimit:10;stroke-dasharray:none;stroke-opacity:1"
             id="path1798" /></g><g
           id="g1800"
           transform="translate(418.0747,504.4375)"><path
             d="m 0,0 h -41.343 c -6.074,0 -10.998,-4.924 -10.998,-10.999 v -45.402 l 14.053,-25.283 h 35.233 l 14.054,25.283 v 45.402 C 10.999,-4.924 6.074,0 0,0 Z"
             style="fill:none;stroke:#000000;stroke-width:15;stroke-linecap:round;stroke-linejoin:round;stroke-miterlimit:10;stroke-dasharray:none;stroke-opacity:1"
             id="path1802" /></g><g
           id="g1804"
           transform="translate(364.0405,72.0122)"><path
             d="M 0,0 H 65.69"
             style="fill:none;stroke:#000000;stroke-width:15;stroke-linecap:round;stroke-linejoin:round;stroke-miterlimit:10;stroke-dasharray:none;stroke-opacity:1"
             id="path1806" /></g><g
           id="g1808"
           transform="translate(216.3501,274.5601)"><path
             d="M 0,0 V 42.66"
             style="fill:none;stroke:#000000;stroke-width:15;stroke-linecap:round;stroke-linejoin:round;stroke-miterlimit:10;stroke-dasharray:none;stroke-opacity:1"
             id="path1810" /></g><g
           id="g1812"
           transform="translate(274.5898,276.4702)"><path
             d="M 0,0 V 40.75"
             style="fill:none;stroke:#000000;stroke-width:15;stroke-linecap:round;stroke-linejoin:round;stroke-miterlimit:10;stroke-dasharray:none;stroke-opacity:1"
             id="path1814" /></g><g
           id="g1816"
           transform="translate(415.02,379.4106)"><path
             d="M 0,0 H -35.23"
             style="fill:none;stroke:#000000;stroke-width:15;stroke-linecap:round;stroke-linejoin:round;stroke-miterlimit:10;stroke-dasharray:none;stroke-opacity:1"
             id="path1818" /></g><g
           id="g1820"
           transform="translate(415.02,341.3008)"><path
             d="M 0,0 H -35.23"
             style="fill:none;stroke:#000000;stroke-width:15;stroke-linecap:round;stroke-linejoin:round;stroke-miterlimit:10;stroke-dasharray:none;stroke-opacity:1"
             id="path1822" /></g><g
           id="g1824"
           transform="translate(415.02,303.1909)"><path
             d="M 0,0 H -35.23"
             style="fill:none;stroke:#000000;stroke-width:15;stroke-linecap:round;stroke-linejoin:round;stroke-miterlimit:10;stroke-dasharray:none;stroke-opacity:1"
             id="path1826" /></g><g
           id="g1828"
           transform="translate(415.02,265.0908)"><path
             d="M 0,0 H -35.23"
             style="fill:none;stroke:#000000;stroke-width:15;stroke-linecap:round;stroke-linejoin:round;stroke-miterlimit:10;stroke-dasharray:none;stroke-opacity:1"
             id="path1830" /></g><g
           id="g1832"
           transform="translate(415.02,226.981)"><path
             d="M 0,0 H -35.23"
             style="fill:none;stroke:#000000;stroke-width:15;stroke-linecap:round;stroke-linejoin:round;stroke-miterlimit:10;stroke-dasharray:none;stroke-opacity:1"
             id="path1834" /></g></g></g></g></svg>
