<svg xmlns="http://www.w3.org/2000/svg" xmlns:xlink="http://www.w3.org/1999/xlink" width="500" zoomAndPan="magnify" viewBox="0 0 375 374.999991" height="500" preserveAspectRatio="xMidYMid meet" version="1.0"><defs><clipPath id="4c0603632a"><path d="M 328 78 L 375 78 L 375 341 L 328 341 Z M 328 78 " clip-rule="nonzero"/></clipPath><clipPath id="d94d8b34cd"><path d="M 312.28125 323.914062 L 362.464844 70.078125 L 508.144531 98.878906 L 457.960938 352.71875 Z M 312.28125 323.914062 " clip-rule="nonzero"/></clipPath><clipPath id="523bcded2d"><path d="M 312.28125 323.914062 L 362.464844 70.078125 L 508.144531 98.878906 L 457.960938 352.71875 Z M 312.28125 323.914062 " clip-rule="nonzero"/></clipPath><clipPath id="d2a33967d1"><path d="M 312.292969 323.859375 L 362.476562 70.027344 L 507.871094 98.769531 L 457.6875 352.601562 Z M 312.292969 323.859375 " clip-rule="nonzero"/></clipPath><clipPath id="683b681324"><path d="M 45 71 L 309 71 L 309 328.710938 L 45 328.710938 Z M 45 71 " clip-rule="nonzero"/></clipPath><clipPath id="aa46e385dd"><path d="M 169 188.464844 L 309.507812 188.464844 L 309.507812 328.710938 L 169 328.710938 Z M 169 188.464844 " clip-rule="nonzero"/></clipPath></defs><path fill="#f53725" d="M 199.816406 31.71875 C 306.664062 25.382812 326.761719 80.5 358.550781 155.003906 C 379.875 204.980469 361.910156 269.582031 318.128906 309.949219 C 251.550781 371.335938 125.5 373.882812 67.707031 315 C -15.332031 230.398438 25.875 66.414062 138.152344 37.386719 C 157.878906 32.289062 179.21875 33.449219 199.816406 31.71875 Z M 199.816406 31.71875 " fill-opacity="1" fill-rule="nonzero"/><g clip-path="url(#4c0603632a)"><g clip-path="url(#d94d8b34cd)"><g clip-path="url(#523bcded2d)"><g clip-path="url(#d2a33967d1)"><path fill="#ffffff" d="M 386.941406 80.960938 C 367.378906 86.175781 358.261719 98.402344 354 113.667969 C 347.621094 136.511719 357.71875 165.277344 354.296875 188.382812 C 350.285156 215.480469 344.515625 217.367188 335.074219 238.015625 C 326.183594 257.472656 325.996094 280.019531 335.339844 299.566406 C 347.941406 325.917969 371.304688 336.929688 394.910156 339.949219 C 418.691406 342.992188 442.300781 332.058594 450.1875 301.882812 C 452.425781 287.660156 445.316406 264.84375 450.324219 246.519531 C 456.46875 224.039062 471.570312 221.78125 481.410156 209.023438 C 502.472656 181.71875 483.609375 142.640625 455.753906 144.699219 C 447.5 145.308594 438.34375 140.824219 435.191406 134.476562 C 431.011719 124.410156 442.257812 114.027344 435.617188 101.4375 C 425.667969 82.570312 411.769531 74.339844 386.941406 80.960938 " fill-opacity="1" fill-rule="nonzero"/></g></g></g></g><g clip-path="url(#683b681324)"><path fill="#000000" d="M 286.75 233.316406 C 267.632812 200.355469 249.109375 197.320312 243.886719 197.175781 L 243.734375 197.171875 L 243.589844 197.125 C 242.261719 196.683594 240.765625 196.515625 239.320312 196.351562 L 238.765625 196.285156 C 237.414062 196.128906 236.0625 195.980469 234.710938 195.832031 C 231.371094 195.46875 227.914062 195.09375 224.519531 194.539062 C 223.152344 194.316406 221.894531 194 220.621094 193.570312 C 220.515625 193.296875 220.1875 193.21875 219.929688 193.320312 C 219.171875 192.972656 219.160156 192.113281 219.160156 190.828125 C 219.15625 190.28125 219.15625 189.660156 219.105469 189.054688 L 219.058594 188.464844 L 219.539062 188.125 C 221.351562 186.84375 223.109375 185.261719 224.90625 183.285156 L 225.328125 182.820312 L 225.933594 182.976562 C 226.105469 183.023438 226.28125 183.042969 226.453125 183.078125 C 226.191406 183.378906 225.941406 183.6875 225.671875 183.980469 C 230.523438 185.230469 235.511719 183.34375 239.457031 179.386719 C 251.09375 187.238281 268.300781 161.859375 261.03125 153.632812 C 267.425781 152.191406 269.699219 144.0625 269.707031 137.246094 C 269.71875 127.757812 262.265625 122.261719 262.265625 122.261719 C 262.265625 122.261719 269.707031 105.542969 252.179688 89.542969 C 247.425781 85.199219 242.648438 83.277344 236.148438 82.527344 C 233.695312 82.242188 227.761719 82.871094 227.761719 82.871094 C 219.292969 72.609375 208.183594 69.941406 195.28125 71.609375 C 191.152344 72.144531 187.027344 73.136719 183.285156 74.996094 C 181.441406 75.90625 179.707031 77.015625 178.171875 78.386719 C 177.71875 78.789062 174.804688 82.511719 174.519531 82.464844 C 158.011719 79.574219 145.460938 110.707031 151.652344 123.914062 C 147 132.910156 150.738281 144.929688 159.011719 150.351562 C 159.15625 150.042969 159.304688 149.722656 159.449219 149.390625 C 159.496094 149.417969 159.535156 149.453125 159.578125 149.484375 L 160.332031 149.976562 L 159.953125 150.792969 C 159.824219 151.0625 159.699219 151.332031 159.570312 151.582031 C 154.480469 161.832031 156.648438 173.578125 165.210938 182.226562 C 167.15625 184.144531 169.34375 185.914062 171.710938 187.488281 L 173.125 188.429688 L 171.644531 189.257812 C 170.675781 189.796875 169.3125 190.636719 167.996094 191.445312 C 165.132812 193.210938 163.332031 194.300781 162.453125 194.566406 C 162.339844 194.601562 162.214844 194.628906 162.097656 194.664062 C 162.117188 194.617188 162.136719 194.5625 162.15625 194.515625 C 162.394531 193.886719 161.390625 193.621094 161.15625 194.238281 C 161.058594 194.492188 160.953125 194.746094 160.851562 195.003906 C 159.460938 195.351562 158 195.652344 156.574219 195.945312 C 154.394531 196.390625 152.144531 196.855469 150.132812 197.488281 L 150.007812 197.53125 L 149.878906 197.535156 C 149.28125 197.574219 148.683594 197.636719 148.085938 197.710938 C 148.335938 197.609375 148.566406 197.519531 148.761719 197.441406 C 149.394531 197.214844 149.726562 197.09375 149.726562 197.09375 C 149.792969 197.070312 149.824219 197.003906 149.804688 196.9375 C 149.785156 196.875 149.714844 196.835938 149.648438 196.859375 C 149.648438 196.859375 149.308594 196.964844 148.671875 197.171875 C 148.199219 197.339844 147.554688 197.5625 146.796875 197.917969 C 142.644531 198.636719 138.523438 200.183594 134.511719 201.707031 L 132.777344 202.363281 C 125.632812 205.128906 118.234375 209 110.148438 214.195312 C 110.0625 214.25 109.28125 214.765625 108.542969 215.253906 C 108.554688 215.191406 108.523438 215.128906 108.460938 215.105469 C 108.394531 215.082031 108.328125 215.121094 108.304688 215.183594 C 108.304688 215.183594 108.269531 215.285156 108.203125 215.480469 C 107.640625 215.851562 107.175781 216.160156 107.175781 216.160156 L 107.699219 213.691406 C 108.421875 210.273438 108.832031 207.046875 108.953125 203.8125 C 109.019531 202.507812 109.015625 201.402344 108.9375 200.4375 L 108.886719 199.839844 L 109.378906 199.5 C 111.792969 197.835938 115.675781 197.285156 118.796875 196.839844 C 120.015625 196.667969 121.167969 196.503906 121.925781 196.316406 C 123.261719 195.925781 124.445312 195.082031 124.734375 194.304688 C 124.84375 194.015625 124.808594 193.757812 124.628906 193.476562 L 123.976562 192.460938 L 125.078125 191.96875 C 125.535156 191.765625 125.859375 191.5 126.070312 191.15625 L 126.605469 190.296875 L 127.332031 190.722656 C 127.253906 191.09375 127.125 191.421875 126.953125 191.703125 C 128.996094 192.898438 131.363281 193.597656 133.898438 193.597656 C 134.730469 193.597656 135.542969 193.511719 136.332031 193.371094 C 136.296875 193.175781 136.375 192.972656 136.546875 192.851562 C 136.855469 192.640625 137.128906 192.382812 137.375 192.089844 C 137.375 192.085938 137.386719 192.078125 137.386719 192.078125 L 137.648438 191.996094 C 138.097656 191.859375 138.53125 191.691406 138.953125 191.507812 C 138.667969 192.050781 138.351562 192.5625 137.953125 192.988281 C 143.582031 191.257812 147.667969 186.019531 147.667969 179.828125 C 147.667969 172.222656 141.503906 166.054688 133.898438 166.054688 C 133.683594 166.054688 133.472656 166.078125 133.257812 166.089844 C 133.714844 166.328125 134.175781 166.679688 134.644531 167.128906 C 134.398438 167.117188 134.152344 167.09375 133.898438 167.09375 C 133.785156 167.09375 133.667969 167.101562 133.554688 167.109375 L 133.03125 167.136719 C 132.59375 166.863281 132.214844 166.738281 131.898438 166.714844 C 131.65625 166.695312 131.480469 166.511719 131.441406 166.289062 C 127.753906 166.953125 124.578125 169.078125 122.539062 172.050781 C 122.605469 172.082031 122.675781 172.105469 122.742188 172.136719 C 122.996094 172.257812 123.21875 172.414062 123.433594 172.585938 C 123.421875 172.605469 123.40625 172.621094 123.394531 172.636719 L 122.910156 173.34375 L 122.121094 173 C 121.308594 172.640625 120.417969 172.46875 119.410156 172.46875 C 118.015625 172.46875 116.585938 172.789062 115.074219 173.128906 C 114.257812 173.308594 113.414062 173.5 112.570312 173.636719 C 112.234375 173.691406 111.898438 173.753906 111.5625 173.820312 L 110.941406 173.9375 L 110.46875 173.617188 C 109.207031 172.917969 107.914062 172.566406 106.625 172.566406 C 103.269531 172.566406 100.886719 174.96875 100.867188 174.988281 L 100.359375 175.515625 L 99.691406 175.21875 C 98.703125 174.769531 97.554688 174.277344 96.484375 174.089844 C 96.394531 174.074219 96.300781 174.066406 96.199219 174.066406 C 95.109375 174.066406 93.453125 174.804688 92.910156 175.089844 L 92.824219 175.132812 L 92.730469 175.160156 C 92.671875 175.179688 92.125 175.335938 91.421875 175.335938 C 91.210938 175.335938 90.980469 175.324219 90.75 175.285156 C 90.382812 175.230469 90.015625 175.199219 89.652344 175.199219 C 87.667969 175.199219 85.859375 176.070312 84.699219 177.589844 C 84.371094 178.019531 83.875 178.269531 83.332031 178.269531 C 83.113281 178.269531 82.894531 178.226562 82.683594 178.148438 C 81.609375 177.742188 80.742188 177.542969 80.039062 177.542969 C 78.734375 177.542969 77.921875 178.242188 76.605469 179.480469 C 76.382812 179.6875 76.207031 179.90625 76.074219 180.144531 L 75.570312 181.039062 L 75.292969 180.886719 C 75.183594 180.976562 75.078125 181.089844 74.972656 181.210938 C 74.972656 181.191406 74.964844 181.175781 74.964844 181.160156 C 74.929688 180.921875 74.992188 180.710938 75.007812 180.480469 C 75.042969 180.253906 75.15625 180.019531 75.226562 179.789062 L 75.230469 179.777344 C 75.246094 179.722656 75.21875 179.667969 75.171875 179.636719 C 75.164062 179.636719 75.164062 179.628906 75.15625 179.625 C 75.09375 179.601562 75.023438 179.628906 74.996094 179.695312 C 74.972656 179.753906 74.945312 179.8125 74.921875 179.871094 C 74.847656 180.035156 74.773438 180.199219 74.726562 180.382812 C 74.683594 180.636719 74.597656 180.90625 74.621094 181.160156 C 74.609375 181.320312 74.632812 181.484375 74.652344 181.644531 C 74.15625 182.394531 73.714844 183.496094 73.316406 184.984375 L 73.171875 185.511719 L 69.835938 186.691406 C 68.34375 187.230469 66.851562 187.769531 65.355469 188.320312 C 64.367188 188.675781 63.585938 189.441406 63.367188 190.269531 L 63.273438 190.617188 L 63.328125 190.945312 C 63.523438 192.046875 65.03125 192.800781 67.359375 192.960938 C 68.371094 193.03125 69.382812 193.074219 70.398438 193.101562 L 71.539062 193.136719 L 71.398438 194.269531 C 71.269531 195.296875 71.191406 196.261719 71.15625 197.210938 L 71.136719 197.726562 L 70.714844 198.023438 C 57.792969 207.066406 48.3125 224.761719 45.964844 244.195312 L 45.785156 245.683594 L 45.796875 245.703125 L 45.765625 246.023438 C 44.089844 263.359375 48.300781 284.390625 65.070312 291.40625 C 70.023438 293.054688 75.453125 293.894531 81.207031 293.894531 C 87.667969 293.894531 94.554688 292.847656 101.675781 290.789062 L 102.949219 290.414062 C 106.113281 289.441406 109.261719 288.304688 112.308594 287.023438 C 117.261719 284.988281 121.253906 283.128906 124.859375 281.175781 L 125.429688 280.867188 C 125.367188 281.609375 125.332031 282.019531 125.332031 282.019531 C 125.328125 282.046875 125.339844 282.066406 125.355469 282.089844 C 125.371094 282.117188 125.398438 282.136719 125.433594 282.140625 C 125.496094 282.148438 125.554688 282.101562 125.5625 282.039062 C 125.5625 282.039062 125.617188 281.578125 125.714844 280.738281 L 125.988281 281.164062 L 126.5625 281.230469 L 126.464844 282.238281 C 125.503906 292.351562 124.824219 301.160156 124.5 307.714844 L 124.433594 309.128906 C 124.0625 317.726562 124.472656 319.773438 124.667969 320.253906 C 124.730469 320.386719 125.511719 321.585938 133.492188 323.054688 L 134.078125 323.164062 L 134.078125 323.167969 L 134.585938 323.253906 C 142.34375 324.597656 154.292969 325.773438 168.226562 326.574219 L 168.300781 326.574219 C 168.253906 326.90625 168.210938 327.226562 168.164062 327.566406 C 168.164062 327.578125 168.167969 327.59375 168.167969 327.605469 C 168.152344 327.875 168.335938 328.113281 168.609375 328.148438 C 168.632812 328.152344 168.65625 328.15625 168.679688 328.15625 C 168.933594 328.15625 169.15625 327.964844 169.191406 327.707031 C 169.195312 327.691406 169.195312 327.675781 169.195312 327.664062 C 169.246094 327.308594 169.292969 326.976562 169.339844 326.632812 C 181.683594 327.316406 194.835938 327.675781 207.386719 327.675781 C 229.277344 327.675781 246.773438 326.589844 256.808594 324.609375 L 256.800781 324.546875 L 257.511719 324.460938 C 257.621094 325.128906 257.683594 325.488281 257.683594 325.488281 C 257.695312 325.554688 257.757812 325.601562 257.824219 325.589844 C 257.890625 325.582031 257.933594 325.519531 257.925781 325.457031 C 257.925781 325.453125 257.929688 325.453125 257.929688 325.453125 C 257.929688 325.453125 257.878906 325.085938 257.789062 324.40625 L 258.511719 324.257812 L 258.523438 324.335938 C 263.617188 323.703125 292.605469 319.992188 303.902344 316.226562 C 305.332031 315.75 306.449219 314.472656 307.21875 312.4375 C 312.1875 299.304688 301.855469 259.371094 286.75 233.316406 " fill-opacity="1" fill-rule="nonzero"/></g><path fill="#edf9f9" d="M 203.566406 195.863281 C 203.277344 195.9375 202.964844 196.011719 202.636719 196.09375 C 202.300781 196.152344 201.945312 196.183594 201.574219 196.234375 C 200.828125 196.328125 200.023438 196.429688 199.167969 196.535156 C 198.3125 196.65625 197.410156 196.617188 196.476562 196.640625 C 195.539062 196.648438 194.570312 196.6875 193.59375 196.570312 C 192.613281 196.488281 191.621094 196.402344 190.625 196.320312 C 189.644531 196.132812 188.664062 195.945312 187.703125 195.761719 C 186.730469 195.613281 185.8125 195.300781 184.910156 195.058594 C 184.015625 194.792969 183.132812 194.59375 182.34375 194.25 C 181.550781 193.9375 180.800781 193.636719 180.105469 193.363281 C 179.761719 193.21875 179.421875 193.105469 179.117188 192.957031 C 178.8125 192.800781 178.527344 192.652344 178.257812 192.511719 C 177.71875 192.234375 177.253906 191.992188 176.867188 191.792969 C 176.3125 191.496094 175.941406 191.296875 175.769531 191.207031 C 176.148438 192.511719 176.335938 195.46875 176.394531 199.21875 C 178.339844 201.742188 180.46875 204.101562 182.523438 205.035156 C 187.828125 207.449219 193.886719 206.3125 199.261719 204.183594 C 201.125 200.808594 203.609375 197.773438 206.199219 195.207031 C 205.988281 195.261719 205.621094 195.351562 205.082031 195.492188 C 204.660156 195.597656 204.152344 195.71875 203.566406 195.863281 " fill-opacity="1" fill-rule="nonzero"/><path fill="#edf9f9" d="M 241.261719 161.5 C 241.261719 161.5 241.199219 161.597656 241.085938 161.773438 C 240.96875 161.941406 240.839844 162.21875 240.601562 162.484375 C 240.378906 162.765625 240.117188 163.089844 239.785156 163.394531 C 239.476562 163.722656 239.085938 164 238.710938 164.304688 C 238.304688 164.554688 237.910156 164.835938 237.496094 165.019531 C 237.285156 165.117188 237.105469 165.234375 236.898438 165.300781 C 236.695312 165.375 236.503906 165.445312 236.328125 165.507812 C 235.96875 165.652344 235.707031 165.679688 235.503906 165.738281 C 235.308594 165.789062 235.199219 165.816406 235.199219 165.816406 C 235.167969 165.820312 235.140625 165.816406 235.113281 165.820312 C 235.03125 166.15625 234.964844 166.476562 234.902344 166.777344 C 234.78125 167.398438 234.683594 167.921875 234.640625 168.292969 C 234.597656 168.660156 234.5625 168.878906 234.5625 168.878906 C 234.554688 168.941406 234.496094 168.984375 234.429688 168.976562 C 234.378906 168.972656 234.34375 168.929688 234.332031 168.882812 C 234.332031 168.882812 234.160156 168.015625 234.214844 166.695312 C 234.242188 166.03125 234.328125 165.265625 234.496094 164.457031 C 234.652344 163.640625 234.921875 162.796875 235.238281 161.964844 C 235.425781 161.558594 235.589844 161.144531 235.808594 160.761719 C 236.011719 160.367188 236.253906 160.003906 236.5 159.660156 C 236.730469 159.308594 237.027344 159.011719 237.28125 158.722656 C 237.578125 158.464844 237.824219 158.191406 238.125 158.015625 C 238.40625 157.816406 238.667969 157.648438 238.945312 157.546875 C 239.203125 157.433594 239.425781 157.324219 239.609375 157.292969 C 239.976562 157.207031 240.191406 157.167969 240.191406 157.167969 C 240.257812 157.15625 240.324219 157.199219 240.335938 157.269531 C 240.347656 157.320312 240.324219 157.375 240.277344 157.398438 C 240.277344 157.398438 240.085938 157.503906 239.746094 157.671875 C 239.5625 157.742188 239.398438 157.882812 239.199219 158.023438 C 238.996094 158.148438 238.796875 158.351562 238.574219 158.558594 C 238.335938 158.746094 238.148438 159.035156 237.910156 159.28125 C 237.707031 159.570312 237.476562 159.855469 237.28125 160.1875 C 237.074219 160.511719 236.886719 160.863281 236.707031 161.226562 C 236.507812 161.582031 236.367188 161.976562 236.199219 162.355469 C 235.886719 163.125 235.625 163.917969 235.410156 164.675781 C 235.402344 164.699219 235.398438 164.71875 235.390625 164.734375 C 235.585938 164.703125 235.847656 164.679688 236.101562 164.59375 C 236.253906 164.550781 236.417969 164.503906 236.59375 164.457031 C 236.769531 164.417969 236.949219 164.320312 237.144531 164.253906 C 237.535156 164.117188 237.910156 163.890625 238.304688 163.6875 C 238.667969 163.4375 239.054688 163.210938 239.359375 162.929688 C 239.691406 162.671875 239.957031 162.390625 240.1875 162.144531 C 240.433594 161.914062 240.566406 161.664062 240.695312 161.515625 C 240.816406 161.359375 240.886719 161.269531 240.886719 161.269531 L 240.902344 161.25 C 240.972656 161.152344 241.113281 161.132812 241.210938 161.207031 C 241.300781 161.273438 241.320312 161.402344 241.261719 161.5 Z M 208.308594 147.007812 C 205.832031 146.460938 203.78125 146.289062 201.269531 147.023438 C 199.386719 147.574219 195.792969 147.714844 197.707031 144.792969 C 199.199219 142.582031 203.5 142.371094 205.855469 142.5 C 207.617188 142.617188 212.476562 143.695312 213.347656 145.441406 C 214.355469 148.101562 209.457031 147.214844 208.308594 147.007812 Z M 211.214844 159.492188 C 211.167969 159.5 211.128906 159.476562 211.105469 159.441406 C 210.582031 159.730469 207.765625 161.171875 204.1875 160.925781 C 204.175781 160.925781 204.164062 160.90625 204.152344 160.902344 C 204.148438 160.90625 204.144531 160.914062 204.140625 160.921875 C 203.585938 160.878906 203.011719 160.800781 202.429688 160.667969 C 198.09375 159.691406 195.1875 157.449219 194.660156 157.019531 C 194.617188 157.070312 194.542969 157.078125 194.488281 157.035156 C 194.4375 156.992188 194.425781 156.921875 194.464844 156.871094 L 194.46875 156.863281 C 194.46875 156.863281 194.515625 156.796875 194.605469 156.667969 C 194.695312 156.542969 194.808594 156.351562 195.003906 156.121094 C 195.375 155.652344 195.964844 155.050781 196.785156 154.441406 C 197.609375 153.839844 198.679688 153.292969 199.890625 152.886719 C 201.105469 152.480469 202.484375 152.269531 203.867188 152.339844 C 204.023438 152.347656 204.242188 152.363281 204.394531 152.386719 C 204.5625 152.410156 204.714844 152.425781 204.890625 152.457031 C 205.242188 152.53125 205.597656 152.605469 205.921875 152.71875 C 206.582031 152.941406 207.199219 153.242188 207.742188 153.613281 C 208.847656 154.339844 209.628906 155.3125 210.160156 156.1875 C 210.417969 156.632812 210.636719 157.050781 210.789062 157.433594 C 210.929688 157.824219 211.046875 158.167969 211.117188 158.453125 C 211.207031 158.734375 211.234375 158.964844 211.265625 159.121094 C 211.292969 159.273438 211.308594 159.355469 211.308594 159.355469 C 211.320312 159.421875 211.277344 159.480469 211.214844 159.492188 Z M 181.070312 180.652344 C 172.269531 178.371094 171.214844 165.453125 171.214844 165.453125 C 171.214844 165.453125 176.359375 168.949219 183.125 170.175781 C 189.101562 171.257812 193.542969 171.273438 193.542969 171.273438 C 193.542969 171.273438 189.875 182.929688 181.070312 180.652344 Z M 167.722656 149.582031 C 162.949219 146.101562 163.707031 143.269531 163.707031 143.269531 C 163.707031 143.269531 163.960938 143.125 164.414062 142.890625 C 164.644531 142.785156 164.90625 142.625 165.238281 142.496094 C 165.578125 142.371094 165.960938 142.226562 166.394531 142.089844 C 166.828125 141.988281 167.308594 141.90625 167.824219 141.828125 C 168.339844 141.847656 168.902344 141.746094 169.46875 141.882812 C 170.042969 141.945312 170.617188 142.125 171.191406 142.347656 C 171.734375 142.625 172.292969 142.917969 172.761719 143.328125 C 173.011719 143.511719 173.234375 143.726562 173.433594 143.960938 C 173.636719 144.1875 173.863281 144.398438 174.023438 144.65625 C 174.195312 144.902344 174.375 145.140625 174.519531 145.394531 C 174.65625 145.652344 174.789062 145.910156 174.921875 146.164062 C 175.15625 146.671875 175.351562 147.1875 175.480469 147.679688 C 175.621094 148.175781 175.734375 148.644531 175.78125 149.085938 C 175.863281 149.523438 175.882812 149.929688 175.886719 150.289062 C 175.902344 150.648438 175.910156 150.957031 175.886719 151.214844 C 175.859375 151.722656 175.828125 152.011719 175.828125 152.011719 C 175.828125 152.011719 175.824219 152.007812 175.824219 152.007812 C 175.824219 152.007812 175.824219 152.011719 175.824219 152.011719 C 175.824219 152.011719 173.621094 151.875 171.285156 151.203125 C 171.28125 151.199219 171.273438 151.191406 171.269531 151.191406 C 170.015625 150.828125 168.726562 150.316406 167.722656 149.582031 Z M 173.964844 157.816406 C 174.046875 158.148438 174.078125 158.5 174.226562 158.808594 C 174.335938 159.132812 174.492188 159.421875 174.648438 159.703125 C 174.796875 159.984375 175.007812 160.207031 175.160156 160.449219 C 175.339844 160.671875 175.53125 160.855469 175.6875 161.035156 C 175.839844 161.222656 176.011719 161.339844 176.136719 161.457031 C 176.394531 161.695312 176.546875 161.832031 176.546875 161.832031 C 176.546875 161.832031 176.359375 161.765625 176.027344 161.632812 C 175.867188 161.558594 175.644531 161.5 175.445312 161.351562 C 175.238281 161.214844 174.980469 161.074219 174.742188 160.875 C 174.519531 160.652344 174.230469 160.445312 174.019531 160.148438 C 173.792969 159.859375 173.550781 159.550781 173.390625 159.171875 C 173.1875 158.816406 173.078125 158.402344 172.980469 157.976562 L 172.90625 157.324219 C 172.898438 157.101562 172.921875 156.875 172.933594 156.652344 C 173.007812 156.210938 173.105469 155.761719 173.324219 155.371094 C 173.496094 154.953125 173.8125 154.625 174.097656 154.328125 C 174.261719 154.195312 174.417969 154.058594 174.582031 153.9375 C 174.75 153.832031 174.933594 153.757812 175.101562 153.671875 C 175.425781 153.472656 175.789062 153.449219 176.09375 153.359375 C 176.40625 153.292969 176.707031 153.3125 176.960938 153.296875 C 177.21875 153.273438 177.417969 153.347656 177.597656 153.363281 C 177.941406 153.429688 178.144531 153.46875 178.144531 153.46875 C 178.144531 153.46875 177.945312 153.503906 177.597656 153.570312 C 177.425781 153.609375 177.199219 153.609375 176.980469 153.691406 C 176.757812 153.773438 176.507812 153.824219 176.25 153.929688 C 176.003906 154.070312 175.710938 154.144531 175.46875 154.347656 C 175.347656 154.4375 175.210938 154.519531 175.089844 154.621094 C 174.984375 154.742188 174.867188 154.847656 174.75 154.960938 C 174.546875 155.214844 174.347656 155.484375 174.230469 155.796875 C 174.070312 156.09375 174.011719 156.441406 173.964844 156.777344 C 173.953125 156.949219 173.921875 157.121094 173.925781 157.296875 Z M 167.804688 133.472656 C 168.542969 133.070312 169.691406 132.933594 170.363281 133.046875 C 172.113281 133.347656 174.019531 134.109375 175.542969 135.023438 C 177.5625 136.238281 181.003906 138.824219 180.996094 141.488281 C 180.941406 144.984375 178.046875 142.851562 176.796875 141.335938 C 175.132812 139.320312 173.335938 138.3125 170.980469 137.375 C 169.863281 136.933594 168.359375 136.253906 167.550781 135.351562 C 166.773438 134.476562 167.105469 133.855469 167.804688 133.472656 Z M 249.542969 158.339844 C 247.675781 154.035156 243.246094 152.15625 239.101562 152.550781 C 237.128906 152.738281 235.625 153.351562 234.460938 154.261719 C 230.84375 152.945312 227.453125 150.691406 225.242188 148.507812 C 219.871094 143.277344 215.894531 133.738281 216.070312 126.128906 C 204.429688 130.558594 191.441406 115.722656 193.363281 105.4375 C 192.703125 110.242188 182.539062 112.128906 179.019531 112.46875 C 176.570312 112.660156 173.515625 112.734375 170.621094 112.25 C 167.351562 117.152344 164.839844 123.890625 164.136719 133.027344 C 163.746094 138.121094 161.191406 145.714844 159.015625 150.355469 C 158.890625 150.617188 158.765625 150.878906 158.640625 151.125 C 153.300781 161.878906 155.710938 174.109375 164.480469 182.964844 C 166.507812 184.964844 168.746094 186.765625 171.136719 188.355469 C 172.578125 189.3125 174.074219 190.199219 175.617188 190.996094 C 175.644531 190.945312 175.707031 190.921875 175.761719 190.941406 L 175.769531 190.945312 C 175.769531 190.945312 176.230469 191.128906 177.03125 191.445312 C 177.429688 191.605469 177.914062 191.804688 178.46875 192.027344 C 179.019531 192.261719 179.644531 192.507812 180.351562 192.726562 C 181.046875 192.957031 181.800781 193.207031 182.601562 193.472656 C 183.386719 193.769531 184.273438 193.898438 185.148438 194.160156 C 186.039062 194.382812 186.941406 194.671875 187.898438 194.796875 C 188.84375 194.960938 189.804688 195.125 190.765625 195.292969 C 191.738281 195.390625 192.707031 195.488281 193.664062 195.585938 C 194.617188 195.71875 195.5625 195.695312 196.476562 195.707031 C 197.386719 195.683594 198.28125 195.789062 199.113281 195.710938 C 199.949219 195.652344 200.734375 195.597656 201.464844 195.550781 C 201.828125 195.523438 202.179688 195.5 202.511719 195.476562 C 202.847656 195.425781 203.164062 195.375 203.460938 195.332031 C 204.058594 195.242188 204.574219 195.164062 205 195.097656 C 205.859375 194.976562 206.347656 194.910156 206.347656 194.910156 C 206.410156 194.898438 206.464844 194.941406 206.480469 195.003906 C 207.617188 194.714844 208.742188 194.375 209.855469 193.976562 C 212.394531 193.058594 214.855469 191.992188 217.214844 190.765625 C 218.242188 190.230469 219.210938 189.625 220.136719 188.972656 C 222.167969 187.539062 223.984375 185.839844 225.671875 183.984375 C 228.179688 181.226562 230.417969 178.132812 232.699219 175.050781 C 241.933594 175.417969 254.144531 168.621094 249.542969 158.339844 " fill-opacity="1" fill-rule="nonzero"/><path fill="#edf9f9" d="M 74.84375 182.667969 C 74.707031 182.183594 74.589844 181.679688 74.621094 181.160156 C 74.597656 180.910156 74.683594 180.640625 74.726562 180.386719 C 74.773438 180.203125 74.847656 180.039062 74.921875 179.875 C 73.632812 180.734375 72.855469 182.6875 72.3125 184.71875 C 73.277344 184.375 74.246094 184.03125 75.21875 183.695312 C 75.078125 183.359375 74.945312 183.019531 74.84375 182.667969 " fill-opacity="1" fill-rule="nonzero"/><path fill="#edf9f9" d="M 95.960938 189.394531 C 95.421875 190.773438 94.851562 191.578125 94.851562 191.578125 C 94.8125 191.632812 94.734375 191.648438 94.675781 191.605469 C 94.632812 191.574219 94.617188 191.511719 94.636719 191.457031 C 94.636719 191.457031 94.714844 191.234375 94.851562 190.84375 C 94.988281 190.453125 95.160156 189.886719 95.320312 189.199219 C 95.636719 187.839844 95.914062 185.949219 95.4375 184.230469 C 95.316406 183.800781 95.152344 183.417969 94.945312 183.003906 C 94.734375 182.585938 94.53125 182.167969 94.328125 181.769531 C 93.921875 180.980469 93.539062 180.246094 93.210938 179.621094 C 92.542969 178.363281 92.050781 177.539062 92.050781 177.539062 C 92.019531 177.484375 92.039062 177.410156 92.09375 177.378906 C 92.136719 177.351562 92.191406 177.359375 92.226562 177.390625 C 92.226562 177.390625 92.421875 177.546875 92.707031 177.863281 C 92.996094 178.179688 93.402344 178.632812 93.835938 179.222656 C 94.269531 179.808594 94.738281 180.519531 95.199219 181.316406 C 95.4375 181.707031 95.632812 182.125 95.859375 182.539062 C 96.09375 182.960938 96.296875 183.46875 96.425781 183.964844 C 96.957031 186 96.476562 188.035156 95.960938 189.394531 Z M 87.628906 190.019531 C 87.40625 191.371094 87.003906 192.195312 87.003906 192.195312 C 86.972656 192.257812 86.898438 192.285156 86.835938 192.253906 C 86.789062 192.226562 86.761719 192.171875 86.769531 192.117188 C 86.769531 192.117188 86.929688 191.253906 86.9375 189.957031 C 86.957031 188.664062 86.808594 186.949219 86.371094 185.300781 C 86.257812 184.90625 86.144531 184.445312 86.007812 184.066406 C 85.882812 183.675781 85.742188 183.28125 85.59375 182.910156 C 85.296875 182.164062 84.96875 181.492188 84.648438 180.9375 C 84.320312 180.382812 84.023438 179.933594 83.78125 179.644531 C 83.546875 179.351562 83.394531 179.199219 83.394531 179.199219 C 83.351562 179.15625 83.34375 179.082031 83.390625 179.035156 C 83.425781 178.996094 83.484375 178.992188 83.527344 179.007812 C 83.527344 179.007812 83.742188 179.117188 84.054688 179.367188 C 84.363281 179.621094 84.796875 180.003906 85.222656 180.542969 C 85.652344 181.078125 86.085938 181.757812 86.453125 182.53125 C 86.636719 182.917969 86.824219 183.316406 86.96875 183.75 C 87.128906 184.191406 87.242188 184.585938 87.371094 185.039062 C 87.597656 185.925781 87.730469 186.835938 87.761719 187.691406 C 87.796875 188.546875 87.738281 189.347656 87.628906 190.019531 Z M 118.761719 193.699219 C 116.492188 193.910156 114.175781 194.003906 111.851562 194.046875 C 114.183594 190.214844 116.289062 184.558594 115.269531 180.273438 C 114.878906 178.628906 114.246094 177.136719 113.328125 175.714844 C 112.683594 174.710938 112.164062 173.507812 111.164062 172.839844 C 111.097656 172.800781 111.039062 172.753906 110.972656 172.714844 C 104.871094 169.332031 100.121094 174.273438 100.121094 174.273438 C 99.03125 173.785156 97.84375 173.28125 96.667969 173.070312 C 95.078125 172.789062 92.429688 174.171875 92.429688 174.171875 C 92.429688 174.171875 91.707031 174.390625 90.914062 174.265625 C 88.148438 173.832031 85.503906 174.835938 83.878906 176.964844 C 83.699219 177.199219 83.386719 177.308594 83.050781 177.179688 C 79.230469 175.738281 77.953125 176.800781 75.898438 178.726562 C 75.578125 179.023438 75.347656 179.332031 75.171875 179.640625 C 75.222656 179.667969 75.25 179.722656 75.230469 179.78125 L 75.226562 179.792969 C 75.15625 180.019531 75.046875 180.253906 75.007812 180.484375 C 74.996094 180.714844 74.929688 180.925781 74.96875 181.164062 C 74.972656 181.628906 75.097656 182.089844 75.253906 182.535156 C 75.410156 182.984375 75.617188 183.421875 75.828125 183.855469 C 76.046875 184.296875 76.273438 184.707031 76.515625 185.140625 L 79.332031 190.296875 C 79.796875 191.160156 80.25 192.015625 80.789062 192.789062 C 81.332031 193.546875 81.949219 194.269531 82.722656 194.632812 C 83.101562 194.828125 83.511719 194.933594 83.933594 194.933594 C 84.195312 194.953125 84.390625 194.914062 84.585938 194.890625 C 84.785156 194.871094 85.003906 194.785156 85.210938 194.742188 C 85.605469 194.578125 86.007812 194.394531 86.300781 194.101562 C 86.628906 193.84375 86.796875 193.480469 86.941406 193.125 L 86.949219 193.101562 C 87.050781 192.839844 87.347656 192.710938 87.613281 192.8125 C 87.71875 192.855469 87.804688 192.929688 87.859375 193.019531 C 88.046875 193.324219 88.25 193.625 88.515625 193.863281 C 88.640625 193.992188 88.785156 194.097656 88.933594 194.203125 C 89.074219 194.3125 89.242188 194.382812 89.394531 194.472656 C 90.046875 194.777344 90.785156 194.894531 91.503906 194.824219 C 91.863281 194.765625 92.222656 194.691406 92.558594 194.546875 C 92.898438 194.414062 93.222656 194.230469 93.515625 194.003906 C 93.671875 193.90625 93.800781 193.769531 93.941406 193.648438 L 94.042969 193.554688 L 94.085938 193.492188 L 94.265625 193.242188 C 94.414062 193.0625 94.414062 192.9375 94.5 192.792969 C 94.558594 192.652344 94.625 192.445312 94.660156 192.304688 C 94.71875 192.042969 94.980469 191.878906 95.246094 191.9375 C 95.398438 191.96875 95.515625 192.074219 95.578125 192.203125 L 95.585938 192.21875 L 95.851562 192.773438 C 95.929688 192.960938 96.070312 193.109375 96.175781 193.28125 C 96.277344 193.457031 96.4375 193.582031 96.574219 193.730469 C 96.699219 193.886719 96.875 193.988281 97.035156 194.105469 C 97.1875 194.234375 97.375 194.304688 97.550781 194.394531 C 97.722656 194.496094 97.921875 194.53125 98.113281 194.59375 C 98.300781 194.667969 98.507812 194.660156 98.703125 194.695312 C 98.898438 194.730469 99.105469 194.695312 99.304688 194.699219 C 99.710938 194.671875 100.109375 194.585938 100.492188 194.449219 C 100.679688 194.375 100.863281 194.277344 101.050781 194.195312 L 101.5625 193.859375 L 102.015625 193.445312 L 102.402344 192.964844 L 102.703125 192.433594 L 102.921875 191.855469 L 102.925781 191.839844 C 102.976562 191.707031 103.097656 191.621094 103.230469 191.605469 C 103.25 191.523438 103.269531 191.433594 103.292969 191.328125 C 103.410156 190.890625 103.542969 190.25 103.753906 189.480469 C 103.9375 188.71875 104.253906 187.816406 104.542969 186.90625 C 104.6875 186.449219 104.796875 185.972656 104.898438 185.492188 C 104.984375 185.007812 105.042969 184.515625 105.035156 184.035156 C 105.035156 183.554688 104.980469 183.0625 104.851562 182.636719 C 104.769531 182.425781 104.757812 182.230469 104.621094 181.992188 C 104.511719 181.785156 104.398438 181.488281 104.292969 181.367188 C 104.015625 180.988281 103.792969 180.589844 103.523438 180.238281 C 103.246094 179.886719 102.984375 179.558594 102.742188 179.25 C 101.710938 178.023438 101.15625 177.125 101.15625 177.125 C 101.121094 177.066406 101.136719 176.992188 101.191406 176.953125 C 101.242188 176.917969 101.304688 176.925781 101.347656 176.964844 C 101.347656 176.964844 101.539062 177.148438 101.875 177.46875 C 102.191406 177.808594 102.699219 178.230469 103.25 178.78125 C 103.53125 179.066406 103.835938 179.378906 104.15625 179.707031 C 104.472656 180.042969 104.773438 180.449219 105.089844 180.855469 C 105.40625 181.347656 105.621094 181.707031 105.8125 182.328125 C 105.992188 182.894531 106.0625 183.457031 106.074219 184.03125 C 106.070312 185.171875 105.789062 186.253906 105.433594 187.207031 C 105.074219 188.160156 104.652344 188.953125 104.394531 189.707031 C 104.125 190.441406 103.835938 191.050781 103.652344 191.480469 C 103.605469 191.574219 103.566406 191.65625 103.535156 191.730469 C 103.601562 191.804688 103.648438 191.890625 103.640625 191.992188 L 103.605469 192.59375 C 103.605469 192.792969 103.554688 192.996094 103.59375 193.191406 C 103.652344 193.597656 103.636719 193.960938 103.757812 194.382812 C 103.847656 194.804688 103.957031 195.167969 104.09375 195.550781 C 104.234375 195.929688 104.394531 196.304688 104.617188 196.632812 C 105.03125 197.304688 105.667969 197.847656 106.441406 197.980469 C 107.210938 198.132812 108.03125 197.867188 108.738281 197.460938 C 108.796875 197.429688 108.867188 197.445312 108.898438 197.5 C 108.929688 197.554688 108.914062 197.625 108.863281 197.65625 C 108.15625 198.125 107.292969 198.5 106.378906 198.371094 C 105.464844 198.265625 104.671875 197.65625 104.175781 196.929688 C 103.910156 196.570312 103.710938 196.175781 103.535156 195.773438 C 103.363281 195.375 103.21875 194.933594 103.121094 194.535156 C 103.082031 194.410156 103.0625 194.261719 103.035156 194.121094 C 102.847656 194.121094 102.652344 194.125 102.464844 194.125 L 102.078125 194.5 L 101.472656 194.925781 C 101.253906 195.035156 101.039062 195.160156 100.8125 195.257812 C 100.351562 195.433594 99.871094 195.5625 99.375 195.605469 C 99.125 195.605469 98.875 195.648438 98.625 195.609375 C 98.378906 195.570312 98.125 195.574219 97.886719 195.488281 C 97.648438 195.417969 97.394531 195.367188 97.171875 195.246094 C 96.945312 195.136719 96.710938 195.042969 96.511719 194.882812 C 96.304688 194.738281 96.085938 194.601562 95.921875 194.414062 C 95.84375 194.335938 95.765625 194.257812 95.6875 194.179688 C 95.390625 194.183594 95.097656 194.1875 94.800781 194.1875 L 94.773438 194.222656 L 94.75 194.246094 L 94.628906 194.359375 C 94.464844 194.511719 94.304688 194.671875 94.117188 194.796875 C 93.761719 195.074219 93.367188 195.304688 92.945312 195.476562 C 92.53125 195.660156 92.082031 195.765625 91.628906 195.835938 C 91.175781 195.875 90.714844 195.890625 90.257812 195.808594 C 89.804688 195.742188 89.367188 195.578125 88.949219 195.390625 C 88.75 195.269531 88.539062 195.175781 88.355469 195.03125 C 88.167969 194.898438 87.984375 194.757812 87.824219 194.589844 C 87.707031 194.484375 87.613281 194.359375 87.515625 194.242188 C 87.503906 194.242188 87.492188 194.242188 87.484375 194.242188 C 87.335938 194.464844 87.164062 194.667969 86.957031 194.828125 C 86.539062 195.222656 86.03125 195.453125 85.523438 195.648438 C 85.253906 195.710938 85.007812 195.804688 84.71875 195.835938 C 84.429688 195.871094 84.136719 195.898438 83.910156 195.878906 C 83.351562 195.871094 82.792969 195.71875 82.304688 195.464844 C 81.699219 195.160156 81.210938 194.726562 80.792969 194.246094 C 79.363281 194.242188 77.933594 194.242188 76.503906 194.226562 C 74.46875 194.203125 72.417969 194.199219 70.371094 194.140625 C 70.246094 195.136719 70.160156 196.136719 70.121094 197.171875 C 70.089844 198.046875 70.089844 198.9375 70.125 199.878906 C 70.40625 207.613281 75.585938 210.285156 83.464844 210.988281 C 91.761719 211.546875 101.253906 209.226562 107.257812 203.46875 C 107.679688 203.066406 108.066406 202.589844 108.425781 202.058594 L 108.425781 202.0625 C 108.75 201.378906 109.292969 200.820312 109.972656 200.351562 C 113.117188 198.179688 119.367188 198.023438 122.214844 197.3125 C 124.496094 196.644531 126.6875 194.757812 125.503906 192.914062 C 123.59375 193.769531 120.675781 193.519531 118.761719 193.699219 " fill-opacity="1" fill-rule="nonzero"/><path fill="#5479f7" d="M 165.519531 287.257812 C 165.519531 286 166.539062 284.976562 167.800781 284.976562 C 169.058594 284.976562 170.078125 286 170.078125 287.257812 C 170.078125 288.515625 169.058594 289.535156 167.800781 289.535156 C 166.539062 289.535156 165.519531 288.515625 165.519531 287.257812 Z M 163.652344 310.277344 C 162.394531 310.277344 161.371094 309.253906 161.371094 307.996094 C 161.371094 306.738281 162.394531 305.714844 163.652344 305.714844 C 164.910156 305.714844 165.933594 306.738281 165.933594 307.996094 C 165.933594 309.253906 164.910156 310.277344 163.652344 310.277344 Z M 149.726562 197.097656 C 149.726562 197.097656 149.394531 197.21875 148.761719 197.441406 C 148.140625 197.683594 147.226562 198.035156 146.164062 198.664062 C 145.109375 199.28125 143.875 200.195312 142.957031 201.613281 C 142.085938 203.09375 141.089844 204.820312 140.179688 206.726562 C 139.246094 208.632812 138.335938 210.769531 137.488281 213.0625 C 136.625 215.351562 135.863281 217.8125 135.097656 220.371094 C 134.378906 222.945312 133.691406 225.613281 133.101562 228.359375 C 132.800781 229.734375 132.5 231.121094 132.195312 232.511719 C 131.957031 233.910156 131.71875 235.3125 131.476562 236.714844 C 131.238281 238.125 130.996094 239.53125 130.753906 240.9375 C 130.558594 242.34375 130.367188 243.746094 130.171875 245.136719 C 129.792969 247.921875 129.417969 250.65625 129.054688 253.308594 C 128.390625 258.628906 127.773438 263.59375 127.242188 267.847656 C 126.230469 276.363281 125.5625 282.042969 125.5625 282.042969 C 125.554688 282.105469 125.496094 282.152344 125.433594 282.148438 C 125.433594 282.148438 125.433594 282.144531 125.433594 282.144531 C 124.53125 291.605469 123.808594 300.671875 123.464844 307.667969 C 117.910156 301.960938 110.894531 296.53125 103.25 291.40625 C 106.492188 290.417969 109.660156 289.265625 112.703125 287.984375 C 116.71875 286.335938 121.101562 284.394531 125.355469 282.089844 C 125.339844 282.070312 125.328125 282.046875 125.332031 282.023438 C 125.332031 282.023438 125.824219 276.320312 126.5625 267.769531 C 126.789062 265.636719 127.03125 263.324219 127.289062 260.878906 C 127.558594 258.4375 127.839844 255.859375 128.132812 253.195312 C 128.480469 250.53125 128.839844 247.777344 129.203125 244.980469 C 129.386719 243.582031 129.574219 242.171875 129.761719 240.757812 C 129.992188 239.351562 130.226562 237.941406 130.460938 236.53125 C 130.710938 235.113281 130.960938 233.703125 131.210938 232.289062 C 131.523438 230.902344 131.832031 229.519531 132.144531 228.144531 C 132.75 225.390625 133.464844 222.699219 134.203125 220.113281 C 134.976562 217.535156 135.808594 215.0625 136.71875 212.765625 C 137.625 210.46875 138.574219 208.335938 139.5625 206.414062 C 140.53125 204.460938 141.558594 202.8125 142.511719 201.320312 C 143.550781 199.832031 144.871094 198.933594 145.976562 198.332031 C 147.089844 197.726562 148.035156 197.398438 148.671875 197.171875 C 149.308594 196.96875 149.648438 196.859375 149.648438 196.859375 C 149.714844 196.839844 149.785156 196.875 149.804688 196.941406 C 149.824219 197.007812 149.792969 197.074219 149.726562 197.097656 Z M 91.699219 256.9375 L 91.703125 256.929688 C 91.703125 256.929688 92.847656 254.351562 94.644531 250.546875 C 95.566406 248.652344 96.429688 246.34375 97.507812 243.945312 C 97.773438 243.34375 98.042969 242.730469 98.3125 242.109375 C 98.5625 241.480469 98.816406 240.839844 99.074219 240.199219 C 99.582031 238.914062 100.097656 237.609375 100.617188 236.304688 C 101.167969 235.015625 101.636719 233.691406 102.136719 232.402344 C 102.625 231.109375 103.105469 229.835938 103.570312 228.605469 C 104.433594 226.117188 105.34375 223.828125 106.007812 221.828125 C 106.695312 219.835938 107.300781 218.1875 107.679688 217.015625 C 108.078125 215.851562 108.308594 215.183594 108.308594 215.183594 C 108.328125 215.121094 108.398438 215.085938 108.464844 215.109375 C 108.523438 215.128906 108.558594 215.195312 108.542969 215.253906 C 108.542969 215.253906 108.390625 215.941406 108.066406 217.132812 C 107.746094 218.324219 107.289062 220.023438 106.667969 222.042969 C 106.0625 224.070312 105.289062 226.410156 104.449219 228.917969 C 104 230.160156 103.53125 231.445312 103.058594 232.746094 C 102.574219 234.046875 102.121094 235.382812 101.582031 236.683594 C 101.042969 237.992188 100.507812 239.292969 99.980469 240.574219 C 99.714844 241.21875 99.453125 241.855469 99.195312 242.480469 C 98.914062 243.101562 98.636719 243.714844 98.363281 244.316406 C 97.808594 245.515625 97.269531 246.675781 96.761719 247.773438 C 96.242188 248.867188 95.773438 249.910156 95.261719 250.839844 C 93.28125 254.582031 91.910156 257.039062 91.910156 257.039062 C 91.878906 257.09375 91.808594 257.113281 91.75 257.082031 C 91.695312 257.054688 91.675781 256.992188 91.699219 256.9375 Z M 172.191406 298.609375 C 172.53125 296.222656 172.816406 294.207031 173.078125 292.320312 L 173.234375 291.222656 C 174.054688 285.363281 174.601562 281.488281 172.867188 278.214844 C 172.859375 278.203125 172.859375 278.1875 172.855469 278.175781 C 172.84375 278.152344 172.832031 278.132812 172.824219 278.113281 C 168.621094 267.859375 163.863281 257.828125 160 247.433594 C 159.1875 245.261719 158.414062 243.082031 157.84375 240.832031 C 157.164062 238.148438 156.03125 235.042969 156.523438 232.230469 C 157.0625 229.109375 161.367188 228.324219 163.953125 227.03125 C 160.613281 223.253906 156.691406 218.765625 155.6875 213.78125 C 154.335938 207.0625 158.871094 200.234375 161.15625 194.238281 C 161.394531 193.625 162.398438 193.890625 162.160156 194.515625 C 159.914062 200.398438 154.992188 207.640625 156.828125 214.207031 C 158.15625 218.953125 161.9375 223.183594 165.140625 226.8125 C 165.363281 227.0625 165.335938 227.445312 165.035156 227.625 C 163.707031 228.425781 162.113281 228.863281 160.734375 229.59375 C 159.828125 230.074219 158.742188 230.566406 158.027344 231.324219 C 156.894531 232.511719 157.597656 235.429688 157.917969 236.824219 C 158.949219 241.347656 160.378906 245.660156 162.078125 249.972656 C 165.632812 258.996094 169.671875 267.8125 173.378906 276.773438 C 173.679688 270.003906 175.164062 236.46875 175.582031 229.003906 C 175.910156 223.210938 176.546875 208.683594 176.394531 199.21875 C 176.335938 195.46875 176.148438 192.511719 175.769531 191.207031 C 175.707031 191.171875 175.664062 191.152344 175.664062 191.152344 C 175.609375 191.125 175.589844 191.054688 175.621094 191 C 174.074219 190.199219 172.578125 189.3125 171.136719 188.355469 C 168.53125 189.804688 163.457031 193.183594 162.15625 193.574219 C 158.382812 194.707031 153.75 195.261719 149.820312 196.503906 C 143.847656 196.855469 137.921875 199.328125 132.402344 201.398438 C 124.367188 204.511719 116.847656 208.65625 109.589844 213.324219 C 109.292969 213.515625 109.007812 213.714844 108.710938 213.90625 C 109.40625 210.644531 109.863281 207.304688 109.988281 203.871094 C 110.050781 202.644531 110.0625 201.472656 109.96875 200.355469 C 109.289062 200.824219 108.75 201.382812 108.421875 202.0625 C 108.0625 202.59375 107.679688 203.070312 107.257812 203.472656 C 101.25 209.230469 91.761719 211.554688 83.460938 210.988281 C 75.585938 210.289062 70.402344 207.617188 70.125 199.878906 C 70.085938 198.941406 70.085938 198.046875 70.121094 197.175781 C 55.929688 207.109375 47.148438 225.730469 44.9375 244.074219 C 39.824219 234.097656 38.804688 223.117188 42.265625 212.828125 C 45.769531 202.398438 53.316406 194.320312 62.308594 191.128906 C 62.550781 192.511719 63.996094 193.769531 67.289062 194 C 68.3125 194.070312 69.339844 194.109375 70.371094 194.144531 C 72.414062 194.203125 74.464844 194.207031 76.503906 194.230469 C 77.933594 194.246094 79.363281 194.246094 80.792969 194.25 C 80.523438 193.941406 80.269531 193.613281 80.054688 193.285156 C 79.496094 192.429688 79.0625 191.535156 78.625 190.664062 L 77.300781 188.039062 L 76 185.410156 C 75.789062 184.976562 75.5625 184.515625 75.371094 184.066406 C 75.320312 183.945312 75.269531 183.816406 75.21875 183.695312 C 74.246094 184.03125 73.28125 184.375 72.3125 184.71875 C 71.542969 184.992188 70.773438 185.257812 70.007812 185.53125 C 68.339844 186.132812 66.671875 186.734375 65.007812 187.347656 C 63.648438 187.835938 62.664062 188.882812 62.363281 190.007812 C 52.898438 193.203125 44.941406 201.613281 41.28125 212.5 C 37.570312 223.535156 38.863281 235.347656 44.734375 245.925781 C 42.773438 266.210938 48.917969 285.773438 64.742188 292.394531 L 64.742188 292.390625 L 64.742188 292.394531 C 76.671875 296.371094 89.816406 295.304688 101.964844 291.789062 C 110.152344 297.230469 117.640625 303.007812 123.398438 309.089844 C 123.136719 315.113281 123.1875 319.375 123.707031 320.648438 C 124.210938 321.894531 127.71875 323.050781 133.304688 324.082031 C 133.339844 324.175781 133.378906 324.269531 133.414062 324.363281 C 133.488281 324.578125 133.6875 324.710938 133.902344 324.710938 C 133.960938 324.710938 134.019531 324.703125 134.074219 324.683594 C 134.257812 324.621094 134.375 324.457031 134.40625 324.28125 C 142.535156 325.6875 154.585938 326.835938 168.167969 327.613281 C 168.167969 327.597656 168.164062 327.585938 168.164062 327.570312 C 170.15625 312.996094 171.339844 304.625 172.191406 298.609375 " fill-opacity="1" fill-rule="nonzero"/><g clip-path="url(#aa46e385dd)"><path fill="#5479f7" d="M 287.648438 232.796875 C 269.457031 201.429688 251.597656 196.355469 243.917969 196.140625 C 242.308594 195.605469 240.546875 195.449219 238.886719 195.257812 C 234.140625 194.699219 229.398438 194.285156 224.683594 193.515625 C 223.148438 193.265625 221.773438 192.902344 220.386719 192.398438 C 220.078125 192.285156 220.273438 190.613281 220.140625 188.972656 C 219.214844 189.625 218.246094 190.230469 217.21875 190.765625 C 214.855469 191.992188 212.394531 193.058594 209.855469 193.972656 C 208.746094 194.375 207.617188 194.710938 206.480469 195.003906 C 206.484375 195.007812 206.488281 195.007812 206.488281 195.011719 C 206.5 195.078125 206.457031 195.136719 206.398438 195.152344 C 206.398438 195.152344 206.3125 195.171875 206.195312 195.207031 C 203.609375 197.773438 201.125 200.808594 199.261719 204.183594 C 198.839844 204.953125 198.445312 205.738281 198.09375 206.542969 C 194.898438 213.804688 192.152344 221.21875 189.902344 228.820312 C 187.867188 235.695312 175.847656 270.644531 173.667969 276.984375 C 180.769531 270.835938 187.621094 264.371094 194.324219 257.796875 C 197.558594 254.625 200.84375 251.421875 203.679688 247.878906 C 204.585938 246.742188 206.648438 244.472656 206.097656 242.875 C 205.800781 242.019531 205.363281 241.21875 204.867188 240.464844 C 204.230469 239.5 203.558594 238.550781 202.789062 237.6875 C 202.542969 237.410156 202.300781 237.125 202.023438 236.878906 C 201.933594 236.832031 201.871094 236.785156 201.828125 236.742188 C 201.503906 236.757812 201.203125 236.414062 201.308594 236.097656 C 201.320312 236.074219 201.328125 236.046875 201.335938 236.023438 C 201.414062 235.792969 201.59375 235.660156 201.835938 235.640625 C 201.851562 235.640625 201.867188 235.652344 201.886719 235.652344 C 205.253906 234.371094 208.648438 232.851562 211.675781 230.898438 C 217 227.464844 218.289062 221.914062 218.695312 215.894531 C 219.191406 208.535156 219.402344 201.148438 219.617188 193.777344 C 219.636719 193.109375 220.675781 193.105469 220.652344 193.777344 C 220.40625 202.304688 220.671875 211.230469 219.320312 219.671875 C 218.5 224.804688 216.742188 229 212.199219 231.792969 C 209.308594 233.570312 206.210938 235.042969 203.050781 236.292969 C 203.667969 236.90625 204.21875 237.785156 204.519531 238.183594 C 205.554688 239.558594 206.988281 241.300781 207.203125 243.082031 C 207.488281 245.5 204.835938 248.175781 203.371094 249.824219 C 201.769531 251.628906 200.164062 253.414062 198.46875 255.132812 C 190.609375 263.085938 182.421875 270.808594 173.949219 278.109375 C 175.613281 281.589844 175.082031 285.515625 174.257812 291.367188 L 174.105469 292.464844 C 173.84375 294.351562 173.554688 296.367188 173.21875 298.753906 C 172.367188 304.765625 171.183594 313.125 169.195312 327.667969 C 200.722656 329.417969 240.042969 329.167969 257.683594 325.492188 C 257.683594 325.492188 256.75 319.90625 255.347656 311.53125 C 254.679688 307.339844 253.898438 302.449219 253.0625 297.207031 C 252.257812 291.960938 251.371094 286.371094 250.558594 280.765625 C 249.769531 275.160156 248.976562 269.554688 248.234375 264.296875 C 247.519531 259.035156 246.851562 254.128906 246.28125 249.921875 C 245.203125 241.5 244.484375 235.886719 244.484375 235.886719 C 244.476562 235.824219 244.488281 235.765625 244.550781 235.757812 C 244.613281 235.746094 244.648438 235.789062 244.648438 235.851562 L 244.648438 235.859375 C 244.648438 235.859375 245.578125 241.449219 246.929688 249.835938 C 247.570312 254.03125 248.335938 258.925781 249.140625 264.171875 C 249.914062 269.417969 250.75 275.015625 251.578125 280.617188 C 252.351562 286.21875 253.210938 291.816406 253.980469 297.070312 C 254.730469 302.320312 255.429688 307.226562 256.03125 311.429688 C 257.167969 319.84375 257.925781 325.453125 257.925781 325.453125 C 257.925781 325.457031 257.925781 325.457031 257.925781 325.460938 C 260.078125 325.199219 292.078125 321.261719 304.230469 317.214844 C 316.800781 313.023438 305.167969 263.011719 287.648438 232.796875 " fill-opacity="1" fill-rule="nonzero"/></g><path fill="#99b9ff" d="M 113.328125 175.714844 C 114.246094 177.136719 114.878906 178.628906 115.269531 180.273438 C 116.289062 184.558594 114.183594 190.214844 111.851562 194.046875 C 114.175781 194.003906 116.492188 193.910156 118.761719 193.699219 C 120.675781 193.519531 123.59375 193.769531 125.503906 192.917969 C 126.113281 192.644531 126.613281 192.253906 126.953125 191.703125 C 127.234375 191.246094 127.410156 190.691406 127.421875 189.984375 C 127.480469 186.839844 127 183.730469 126.367188 180.644531 C 125.855469 178.144531 125.457031 173.429688 122.742188 172.136719 C 122.675781 172.105469 122.605469 172.082031 122.539062 172.054688 C 119.25 170.609375 115.808594 172.066406 112.40625 172.613281 C 111.992188 172.683594 111.578125 172.765625 111.160156 172.84375 C 112.164062 173.507812 112.683594 174.710938 113.328125 175.714844 " fill-opacity="1" fill-rule="nonzero"/><path fill="#99b9ff" d="M 95.417969 193.859375 C 95.351562 193.761719 95.28125 193.664062 95.210938 193.570312 C 95.164062 193.664062 95.117188 193.753906 95.066406 193.8125 L 94.894531 194.066406 L 94.847656 194.128906 L 94.828125 194.160156 L 94.800781 194.195312 C 95.097656 194.1875 95.390625 194.1875 95.6875 194.183594 C 95.585938 194.082031 95.492188 193.980469 95.417969 193.859375 " fill-opacity="1" fill-rule="nonzero"/><path fill="#99b9ff" d="M 102.941406 193.542969 C 102.832031 193.691406 102.71875 193.839844 102.609375 193.988281 L 102.464844 194.128906 C 102.652344 194.125 102.84375 194.125 103.035156 194.125 C 103.003906 193.929688 102.964844 193.742188 102.941406 193.542969 " fill-opacity="1" fill-rule="nonzero"/><path fill="#99b9ff" d="M 87.496094 194.226562 C 87.492188 194.230469 87.488281 194.238281 87.484375 194.246094 C 87.492188 194.246094 87.503906 194.246094 87.515625 194.246094 C 87.507812 194.238281 87.5 194.230469 87.496094 194.226562 " fill-opacity="1" fill-rule="nonzero"/><path fill="#99b9ff" d="M 138.4375 172.894531 C 136.613281 169.175781 134.90625 166.945312 133.257812 166.089844 C 132.828125 165.871094 132.40625 165.71875 131.984375 165.683594 C 131.6875 165.667969 131.445312 165.871094 131.421875 166.15625 C 131.417969 166.203125 131.429688 166.246094 131.441406 166.289062 C 131.480469 166.515625 131.65625 166.699219 131.898438 166.71875 C 133.019531 166.808594 134.898438 168.035156 137.503906 173.355469 C 138.972656 176.34375 139.664062 179.898438 139.511719 183.628906 C 139.382812 186.804688 138.933594 191.21875 136.546875 192.851562 C 136.375 192.972656 136.296875 193.179688 136.332031 193.371094 C 136.34375 193.441406 136.367188 193.511719 136.410156 193.574219 C 136.511719 193.71875 136.675781 193.800781 136.839844 193.800781 C 136.941406 193.800781 137.042969 193.769531 137.132812 193.710938 C 137.433594 193.503906 137.703125 193.257812 137.953125 192.988281 C 140.003906 190.792969 140.421875 186.703125 140.546875 183.671875 C 140.707031 179.765625 139.976562 176.039062 138.4375 172.894531 " fill-opacity="1" fill-rule="nonzero"/><path fill="#99b9ff" d="M 68.230469 279.464844 C 67.375 281.066406 66.035156 281.828125 64.253906 281.695312 C 61.785156 281.527344 60.519531 279.566406 60.15625 277.789062 C 59.761719 275.851562 60.308594 273.414062 62.421875 272.339844 C 63.269531 271.910156 64.195312 271.722656 65.171875 271.722656 C 66.160156 271.722656 67.199219 271.914062 68.261719 272.234375 C 69.253906 273.695312 69.46875 277.148438 68.230469 279.464844 Z M 123.464844 307.667969 C 117.910156 301.960938 110.894531 296.53125 103.25 291.40625 C 96.046875 286.578125 88.296875 282.019531 80.6875 277.75 C 79.882812 277.300781 78.9375 276.703125 77.929688 276.074219 C 75.265625 274.398438 72.046875 272.375 68.894531 271.347656 C 65.46875 266.949219 61.945312 263.757812 58.539062 260.671875 C 55.664062 258.066406 52.949219 255.605469 50.507812 252.609375 C 48.292969 249.882812 46.445312 247.019531 44.9375 244.074219 C 39.824219 234.097656 38.804688 223.117188 42.265625 212.828125 C 45.773438 202.398438 53.316406 194.320312 62.308594 191.128906 C 62.550781 192.511719 63.996094 193.769531 67.289062 194 C 68.3125 194.070312 69.339844 194.109375 70.371094 194.144531 C 72.414062 194.203125 74.464844 194.207031 76.503906 194.230469 C 77.933594 194.246094 79.363281 194.246094 80.792969 194.25 C 80.523438 193.941406 80.269531 193.613281 80.054688 193.285156 C 79.496094 192.429688 79.0625 191.535156 78.625 190.664062 L 77.300781 188.039062 L 76 185.410156 C 75.789062 184.976562 75.5625 184.515625 75.371094 184.066406 C 75.320312 183.945312 75.269531 183.816406 75.21875 183.695312 C 74.246094 184.03125 73.28125 184.375 72.3125 184.71875 C 71.542969 184.992188 70.773438 185.257812 70.007812 185.53125 C 68.339844 186.132812 66.671875 186.734375 65.007812 187.347656 C 63.648438 187.835938 62.664062 188.882812 62.363281 190.007812 C 52.898438 193.203125 44.941406 201.613281 41.28125 212.5 C 37.570312 223.535156 38.863281 235.347656 44.734375 245.925781 C 46.132812 248.449219 47.789062 250.90625 49.707031 253.261719 C 52.191406 256.320312 54.9375 258.808594 57.84375 261.441406 C 60.929688 264.234375 64.109375 267.117188 67.210938 270.902344 C 65.347656 270.53125 63.550781 270.601562 61.953125 271.417969 C 59.351562 272.738281 58.667969 275.671875 59.140625 277.996094 C 59.691406 280.699219 61.671875 282.558594 64.179688 282.730469 C 66.335938 282.863281 68.109375 281.894531 69.144531 279.953125 C 70.347656 277.707031 70.363281 274.695312 69.652344 272.722656 C 72.335938 273.785156 75.074219 275.503906 77.378906 276.953125 C 78.394531 277.589844 79.355469 278.191406 80.179688 278.65625 C 87.519531 282.773438 94.992188 287.15625 101.964844 291.792969 C 110.152344 297.230469 117.640625 303.007812 123.398438 309.089844 C 127.957031 313.902344 131.429688 318.90625 133.304688 324.082031 C 133.339844 324.175781 133.378906 324.269531 133.414062 324.367188 C 133.488281 324.578125 133.6875 324.710938 133.902344 324.710938 C 133.960938 324.710938 134.019531 324.703125 134.074219 324.683594 C 134.257812 324.621094 134.375 324.460938 134.40625 324.28125 C 134.421875 324.195312 134.421875 324.109375 134.390625 324.023438 C 132.40625 318.347656 128.542969 312.894531 123.464844 307.667969 " fill-opacity="1" fill-rule="nonzero"/><path fill="#edf9f9" d="M 175.199219 149.214844 C 175.089844 148.804688 174.921875 148.378906 174.75 147.929688 C 174.578125 147.484375 174.339844 147.035156 174.105469 146.578125 C 173.972656 146.355469 173.839844 146.132812 173.703125 145.90625 C 173.546875 145.695312 173.386719 145.480469 173.230469 145.265625 C 173.214844 145.246094 173.199219 145.230469 173.1875 145.214844 C 173.128906 147.390625 172.445312 149.453125 171.285156 151.195312 C 171.28125 151.195312 171.273438 151.191406 171.265625 151.191406 C 171.273438 151.191406 171.28125 151.199219 171.285156 151.203125 C 173.621094 151.875 175.824219 152.011719 175.824219 152.011719 C 175.824219 152.011719 175.824219 152.007812 175.824219 152.007812 C 175.824219 151.996094 175.765625 151.710938 175.683594 151.226562 C 175.609375 150.730469 175.449219 150.023438 175.199219 149.214844 " fill-opacity="1" fill-rule="nonzero"/><path fill="#edf9f9" d="M 211.085938 159.421875 L 211.085938 159.417969 C 211.085938 159.417969 210.960938 159.113281 210.726562 158.597656 C 210.613281 158.335938 210.445312 158.035156 210.253906 157.699219 C 210.046875 157.363281 209.824219 156.988281 209.539062 156.609375 C 208.953125 155.863281 208.183594 155.058594 207.195312 154.457031 C 206.929688 154.28125 206.644531 154.132812 206.347656 154 C 206.40625 154.800781 206.371094 155.617188 206.222656 156.441406 C 205.914062 158.144531 205.179688 159.65625 204.152344 160.902344 C 204.164062 160.90625 204.175781 160.925781 204.183594 160.925781 C 207.765625 161.171875 210.582031 159.730469 211.101562 159.441406 C 211.101562 159.433594 211.089844 159.429688 211.085938 159.421875 " fill-opacity="1" fill-rule="nonzero"/></svg>