<?xml version="1.0" encoding="UTF-8" standalone="no"?>
<!-- Created with Inkscape (http://www.inkscape.org/) -->

<svg
   version="1.1"
   id="svg1398"
   xml:space="preserve"
   width="682.66669"
   height="682.66669"
   viewBox="0 0 682.66669 682.66669"
   xmlns="http://www.w3.org/2000/svg"
   xmlns:svg="http://www.w3.org/2000/svg"><defs
     id="defs1402"><clipPath
       clipPathUnits="userSpaceOnUse"
       id="clipPath1412"><path
         d="M 0,512 H 512 V 0 H 0 Z"
         id="path1410" /></clipPath></defs><g
     id="g1404"
     transform="matrix(1.3333333,0,0,-1.3333333,0,682.66667)"><g
       id="g1406"><g
         id="g1408"
         clip-path="url(#clipPath1412)"><g
           id="g1414"
           transform="translate(343.2954,165.0537)"><path
             d="m 0,0 c 2.462,1.627 4.94,3.124 7.418,4.479 6.087,3.33 11.749,7.522 16.822,12.599 27.733,27.733 20.5,67.309 -2.186,100.11"
             style="fill:none;stroke:#000000;stroke-width:20;stroke-linecap:round;stroke-linejoin:round;stroke-miterlimit:10;stroke-dasharray:none;stroke-opacity:1"
             id="path1416" /></g><g
           id="g1418"
           transform="translate(310.6294,134.2847)"><path
             d="M 0,0 V 0"
             style="fill:none;stroke:#000000;stroke-width:20;stroke-linecap:round;stroke-linejoin:round;stroke-miterlimit:10;stroke-dasharray:none;stroke-opacity:1"
             id="path1420" /></g><g
           id="g1422"
           transform="translate(326.5767,321.084)"><path
             d="m 0,0 c -32.707,22.76 -71.977,30.273 -98.313,3.935 -5.936,-5.931 -11.081,-12.269 -14.858,-19.376 -14.979,-28.176 -49.262,-55.73 -81.71,-61.718 -18.612,-3.437 -35.872,-11.715 -49.893,-24.977 -44.137,-41.765 -31.797,-110.27 17.859,-161.088 50.111,-51.276 118.525,-65.467 161.746,-22.25 14.338,14.342 23.221,32.322 26.816,51.775 0.636,3.438 1.515,6.889 2.612,10.33"
             style="fill:none;stroke:#000000;stroke-width:20;stroke-linecap:round;stroke-linejoin:round;stroke-miterlimit:10;stroke-dasharray:none;stroke-opacity:1"
             id="path1424" /></g><g
           id="g1426"
           transform="translate(398.3193,392.8252)"><path
             d="M 0,0 64.869,64.873 103.681,26.069 38.808,-38.808 Z"
             style="fill:none;stroke:#000000;stroke-width:20;stroke-linecap:round;stroke-linejoin:round;stroke-miterlimit:10;stroke-dasharray:none;stroke-opacity:1"
             id="path1428" /></g><g
           id="g1430"
           transform="translate(273.1519,191.2666)"><path
             d="m 0,0 0.612,-0.612 163.361,163.365 -38.811,38.803 -163.357,-163.361 0.61,-0.61"
             style="fill:none;stroke:#000000;stroke-width:20;stroke-linecap:round;stroke-linejoin:round;stroke-miterlimit:10;stroke-dasharray:none;stroke-opacity:1"
             id="path1432" /></g><g
           id="g1434"
           transform="translate(116.1431,123.5874)"><path
             d="M 0,0 51.745,-51.745"
             style="fill:none;stroke:#000000;stroke-width:20;stroke-linecap:round;stroke-linejoin:round;stroke-miterlimit:10;stroke-dasharray:none;stroke-opacity:1"
             id="path1436" /></g><g
           id="g1438"
           transform="translate(430.6377,447.5532)"><path
             d="M 0,0 62.949,-62.949"
             style="fill:none;stroke:#000000;stroke-width:20;stroke-linecap:round;stroke-linejoin:round;stroke-miterlimit:10;stroke-dasharray:none;stroke-opacity:1"
             id="path1440" /></g><g
           id="g1442"
           transform="translate(408.876,425.7915)"><path
             d="M 0,0 62.949,-62.949"
             style="fill:none;stroke:#000000;stroke-width:20;stroke-linecap:round;stroke-linejoin:round;stroke-miterlimit:10;stroke-dasharray:none;stroke-opacity:1"
             id="path1444" /></g><g
           id="g1446"
           transform="translate(160.626,136.6587)"><path
             d="M 0,0 20.333,-20.333"
             style="fill:none;stroke:#000000;stroke-width:20;stroke-linecap:round;stroke-linejoin:round;stroke-miterlimit:10;stroke-dasharray:none;stroke-opacity:1"
             id="path1448" /></g><g
           id="g1450"
           transform="translate(258.3779,214.0776)"><path
             d="m 0,0 c -17.863,17.858 -46.824,17.858 -64.683,0 -17.862,-17.863 -17.862,-46.82 0,-64.683 17.859,-17.862 46.82,-17.862 64.683,0 C 17.858,-46.82 17.858,-17.863 0,0 Z"
             style="fill:none;stroke:#000000;stroke-width:20;stroke-linecap:round;stroke-linejoin:round;stroke-miterlimit:10;stroke-dasharray:none;stroke-opacity:1"
             id="path1452" /></g><g
           id="g1454"
           transform="translate(57.7246,302.1079)"><path
             d="m 0,0 v 103.818 l 78.362,26.53 V 26.529"
             style="fill:none;stroke:#000000;stroke-width:20;stroke-linecap:round;stroke-linejoin:round;stroke-miterlimit:10;stroke-dasharray:none;stroke-opacity:1"
             id="path1456" /></g><g
           id="g1458"
           transform="translate(57.7246,299.4404)"><path
             d="m 0,0 c 0,-13.179 -10.684,-23.862 -23.862,-23.862 -13.179,0 -23.863,10.683 -23.863,23.862 0,13.179 10.684,23.862 23.863,23.862 C -10.684,23.862 0,13.179 0,0 Z"
             style="fill:none;stroke:#000000;stroke-width:20;stroke-linecap:round;stroke-linejoin:round;stroke-miterlimit:10;stroke-dasharray:none;stroke-opacity:1"
             id="path1460" /></g><g
           id="g1462"
           transform="translate(136.0869,325.9702)"><path
             d="m 0,0 c 0,-13.179 -10.684,-23.862 -23.862,-23.862 -13.179,0 -23.863,10.683 -23.863,23.862 0,13.179 10.684,23.862 23.863,23.862 C -10.684,23.862 0,13.179 0,0 Z"
             style="fill:none;stroke:#000000;stroke-width:20;stroke-linecap:round;stroke-linejoin:round;stroke-miterlimit:10;stroke-dasharray:none;stroke-opacity:1"
             id="path1464" /></g><g
           id="g1466"
           transform="translate(429.1582,58.3042)"><path
             d="M 0,0 V 103.818 L 33.771,92.385"
             style="fill:none;stroke:#000000;stroke-width:20;stroke-linecap:round;stroke-linejoin:round;stroke-miterlimit:10;stroke-dasharray:none;stroke-opacity:1"
             id="path1468" /></g><g
           id="g1470"
           transform="translate(429.1582,55.6372)"><path
             d="m 0,0 c 0,-13.179 -10.684,-23.862 -23.862,-23.862 -13.179,0 -23.863,10.683 -23.863,23.862 0,13.179 10.684,23.862 23.863,23.862 C -10.684,23.862 0,13.179 0,0 Z"
             style="fill:none;stroke:#000000;stroke-width:20;stroke-linecap:round;stroke-linejoin:round;stroke-miterlimit:10;stroke-dasharray:none;stroke-opacity:1"
             id="path1472" /></g><g
           id="g1474"
           transform="translate(300.7305,501.4268)"><path
             d="m 0,0 c -14.841,0.16 -26.663,-16.262 -26.663,-16.262 0,0 -10.805,16.666 -26.313,16.834 -15.084,0.162 -27.536,-12.146 -28.504,-27.2 -0.546,-8.506 2.127,-15.012 5.929,-20.919 7.597,-11.803 48.174,-39.479 48.174,-39.479 0,0 41.01,26.693 48.912,38.432 3.937,5.85 6.742,12.271 6.378,20.785 C 27.269,-12.737 15.085,-0.163 0,0 Z"
             style="fill:none;stroke:#000000;stroke-width:20;stroke-linecap:round;stroke-linejoin:round;stroke-miterlimit:10;stroke-dasharray:none;stroke-opacity:1"
             id="path1476" /></g></g></g></g></svg>
