<?xml version="1.0" encoding="UTF-8"?>
<svg xmlns="http://www.w3.org/2000/svg" xmlns:xlink="http://www.w3.org/1999/xlink" version="1.1" id="Capa_1" x="0px" y="0px" viewBox="0 0 511.996 511.996" style="enable-background:new 0 0 511.996 511.996;" xml:space="preserve" width="512" height="512">
<g>
	<path style="fill:none;stroke:#000000;stroke-width:15;stroke-linecap:round;stroke-linejoin:round;stroke-miterlimit:10;" d="&#10;&#9;&#9;M143.003,136.688c-2.118-0.052-4.187-0.188-6.196-0.435c-3.26-0.401-6.406-1.076-9.427-1.986&#10;&#9;&#9;c-10.065,4.272-17.83,13.705-17.83,25.173c0,16.655,14.679,30.259,33.494,27.41c-0.014-0.573-0.042-1.144-0.042-1.717V136.688z"/>
	<path style="fill:none;stroke:#000000;stroke-width:15;stroke-linecap:round;stroke-linejoin:round;stroke-miterlimit:10;" d="&#10;&#9;&#9;M287.437,132.025v53.108c0,0.576-0.03,1.144-0.044,1.718c18.784,2.846,33.495-10.734,33.495-27.411&#10;&#9;&#9;C320.888,142.73,306.164,129.216,287.437,132.025z"/>
	<path style="fill:none;stroke:#000000;stroke-width:15;stroke-linecap:round;stroke-linejoin:round;stroke-miterlimit:10;" d="&#10;&#9;&#9;M277.766,111.404l-14.815-8.621c-5.959-3.468-13.285-3.644-19.403-0.466c-42.167,21.899-75.277,34.986-100.546,34.371v48.445&#10;&#9;&#9;c0,37.224,29.152,71.223,73.247,71.223c39.252,0,71.186-31.951,71.186-71.223V128.22&#10;&#9;&#9;C287.435,121.292,283.752,114.887,277.766,111.404z"/>
	
		<line style="fill:none;stroke:#000000;stroke-width:15;stroke-linecap:round;stroke-linejoin:round;stroke-miterlimit:10;" x1="90.611" y1="501.543" x2="90.611" y2="371.81"/>
	
		<line style="fill:none;stroke:#000000;stroke-width:15;stroke-linecap:round;stroke-linejoin:round;stroke-miterlimit:10;" x1="339.055" y1="371.81" x2="339.055" y2="500.852"/>
	<path style="fill:none;stroke:#000000;stroke-width:15;stroke-linecap:round;stroke-linejoin:round;stroke-miterlimit:10;" d="&#10;&#9;&#9;M202.279,306.343h25.107c11.988,0,22.205,7.571,26.137,18.192l37.19-37.19c-16.367-6.339-29.621-11.471-31.353-12.142&#10;&#9;&#9;c-2.766-1.069-4.605-3.731-4.613-6.713l-0.006-23.491c-11.107,7.174-24.315,11.356-38.49,11.356&#10;&#9;&#9;c-15.986,0-29.993-4.484-41.374-11.954v24.045c0,2.974-1.43,4.726-3.075,5.843l-33.012,12.893l37.354,37.354&#10;&#9;&#9;C180.074,313.915,190.292,306.343,202.279,306.343z"/>
	<path style="fill:none;stroke:#000000;stroke-width:15;stroke-linecap:round;stroke-linejoin:round;stroke-miterlimit:10;" d="&#10;&#9;&#9;M90.611,402.569H30.403c0,32.447,0,81.481,0,88.918c0,7.185,5.824,13.009,13.009,13.009c7.9,0,24.844,0,47.199,0V402.569z"/>
	<path style="fill:none;stroke:#000000;stroke-width:15;stroke-linecap:round;stroke-linejoin:round;stroke-miterlimit:10;" d="&#10;&#9;&#9;M339.055,402.569v101.927c22.887,0,41.086,0,47.199,0c7.185,0,13.009-5.824,13.009-13.009c0-7.602,0-56.475,0-88.918H339.055z"/>
	<path style="fill:none;stroke:#000000;stroke-width:15;stroke-linecap:round;stroke-linejoin:round;stroke-miterlimit:10;" d="&#10;&#9;&#9;M227.387,306.343h-25.107c-15.388,0-27.863,12.475-27.863,27.863v72.757c0,15.388,12.475,27.863,27.863,27.863h25.107&#10;&#9;&#9;c15.388,0,27.863-12.475,27.863-27.863v-72.757C255.25,318.818,242.775,306.343,227.387,306.343z"/>
	<path style="fill:none;stroke:#000000;stroke-width:15;stroke-linecap:round;stroke-linejoin:round;stroke-miterlimit:10;" d="&#10;&#9;&#9;M172.378,375.013h-27.962v31.95c0,31.906,25.957,57.863,57.863,57.863h25.107c31.906,0,57.863-25.957,57.863-57.863v-31.95h-26.707&#10;&#9;&#9;"/>
	
		<line style="fill:none;stroke:#000000;stroke-width:15;stroke-linecap:round;stroke-linejoin:round;stroke-miterlimit:10;" x1="251.916" y1="370.585" x2="231.416" y2="370.585"/>
	
		<line style="fill:none;stroke:#000000;stroke-width:15;stroke-linecap:round;stroke-linejoin:round;stroke-miterlimit:10;" x1="251.916" y1="339.736" x2="231.416" y2="339.736"/>
	
		<line style="fill:none;stroke:#000000;stroke-width:15;stroke-linecap:round;stroke-linejoin:round;stroke-miterlimit:10;" x1="251.916" y1="401.434" x2="231.416" y2="401.434"/>
	
		<line style="fill:none;stroke:#000000;stroke-width:15;stroke-linecap:round;stroke-linejoin:round;stroke-miterlimit:10;" x1="198.25" y1="370.585" x2="177.75" y2="370.585"/>
	
		<line style="fill:none;stroke:#000000;stroke-width:15;stroke-linecap:round;stroke-linejoin:round;stroke-miterlimit:10;" x1="198.25" y1="339.736" x2="177.75" y2="339.736"/>
	
		<line style="fill:none;stroke:#000000;stroke-width:15;stroke-linecap:round;stroke-linejoin:round;stroke-miterlimit:10;" x1="198.25" y1="401.434" x2="177.75" y2="401.434"/>
	<path style="fill:none;stroke:#000000;stroke-width:15;stroke-linecap:round;stroke-linejoin:round;stroke-miterlimit:10;" d="&#10;&#9;&#9;M227.387,464.826h-25.107c-1.891,0-3.759-0.098-5.604-0.276v39.946c12.25,0,24.132,0,36.315,0V464.55&#10;&#9;&#9;C231.146,464.728,229.278,464.826,227.387,464.826z"/>
	
		<circle style="fill:none;stroke:#000000;stroke-width:15;stroke-linecap:round;stroke-linejoin:round;stroke-miterlimit:10;" cx="382.455" cy="179.984" r="21.863"/>
	
		<polyline style="fill:none;stroke:#000000;stroke-width:15;stroke-linecap:round;stroke-linejoin:round;stroke-miterlimit:10;" points="&#10;&#9;&#9;404.318,179.984 404.318,85.061 481.592,77.311 481.592,172.235 &#9;"/>
	
		<polygon style="fill:none;stroke:#000000;stroke-width:15;stroke-linecap:round;stroke-linejoin:round;stroke-miterlimit:10;" points="&#10;&#9;&#9;481.592,109.605 481.592,77.311 404.318,85.061 404.318,117.355 &#9;"/>
	
		<circle style="fill:none;stroke:#000000;stroke-width:15;stroke-linecap:round;stroke-linejoin:round;stroke-miterlimit:10;" cx="459.73" cy="172.235" r="21.863"/>
	<path style="fill:none;stroke:#000000;stroke-width:15;stroke-linecap:round;stroke-linejoin:round;stroke-miterlimit:10;" d="&#10;&#9;&#9;M160.503,504.496c11.99,0,24.35,0,36.83,0c21.72,0,169.06,0,188.92,0c7.185,0,13.009-5.824,13.009-13.009&#10;&#9;&#9;c0-10.749,0-104.016,0-116.67c0-27.619-17.683-51.763-39.038-60.552c-4.857-1.881-96.116-37.224-100.865-39.062&#10;&#9;&#9;c-2.766-1.069-4.605-3.731-4.613-6.713l-0.006-23.491c-11.107,7.174-24.315,11.356-38.49,11.356&#10;&#9;&#9;c-15.986,0-29.993-4.484-41.374-11.954v24.045c0,2.974-1.43,4.726-3.075,5.843L69.442,314.265&#10;&#9;&#9;c-16.69,6.869-39.039,28.481-39.039,60.552c0,11.894,0,106.123,0,116.67c0,7.185,5.824,13.009,13.009,13.009&#10;&#9;&#9;c11.629,0,42.849,0,82.09,0"/>
	<path style="fill:none;stroke:#000000;stroke-width:15;stroke-linecap:round;stroke-linejoin:round;stroke-miterlimit:10;" d="&#10;&#9;&#9;M304.141,72.101c0-2.434,0-4.272,0-5.299c0-18.324-13.253-33.513-30.637-36.577c-4.498-0.792-8.65-2.883-11.935-6.056&#10;&#9;&#9;c-9.099-8.79-30.943-23.926-65.982-12.658c-18.947,6.094-37.087,12.596-52.063,12.751c-23.682,0.245-44.74,15.1-52.651,37.434&#10;&#9;&#9;c-11.981,33.826,10.336,70.176,45.935,74.555c32.072,3.946,77.946-18.981,106.741-33.936c6.118-3.177,13.444-3.001,19.403,0.466&#10;&#9;&#9;l14.815,8.621c5.883,3.425,9.67,9.782,9.67,16.82v3.801c6.123-0.918,11.812-0.083,16.704,2.029c0-4.661,0-15.37,0-26.953"/>
</g>















</svg>
